<svg width="63" height="64" viewBox="0 0 63 64" fill="none" xmlns="http://www.w3.org/2000/svg">
<g id="Frame 28">
<rect y="0.660156" width="63" height="63" rx="10.0743" fill="white"/>
<g id="Group 1">
<g id="Ellipse 2">
<mask id="path-2-outside-1_611_5840" maskUnits="userSpaceOnUse" x="12" y="13.6602" width="36" height="38" fill="black">
<rect fill="white" x="12" y="13.6602" width="36" height="38"/>
<path d="M45.0699 36.3587C46.7957 36.8211 47.8455 38.6139 47.0804 40.2284C45.7025 43.1361 43.5568 45.638 40.8484 47.4478C37.2371 49.8607 32.8717 50.8786 28.5656 50.3117C24.2595 49.7448 20.3064 47.6318 17.4427 44.3663C14.5789 41.1009 13 36.9058 13 32.5625C13 28.2192 14.5789 24.0241 17.4426 20.7587C20.3064 17.4932 24.2595 15.3802 28.5656 14.8133C32.8717 14.2464 37.2371 15.2643 40.8484 17.6772C43.5568 19.487 45.7025 21.9889 47.0804 24.8966C47.8455 26.5111 46.7957 28.3039 45.0699 28.7663C43.3441 29.2287 41.6056 28.166 40.6797 26.6379C39.8199 25.2191 38.6547 23.993 37.2538 23.0569C34.9476 21.516 32.16 20.866 29.4101 21.228C26.6603 21.59 24.1358 22.9394 22.3071 25.0247C20.4784 27.11 19.4701 29.7889 19.4701 32.5625C19.4701 35.3361 20.4784 38.0151 22.3071 40.1003C24.1358 42.1856 26.6603 43.535 29.4101 43.897C32.16 44.259 34.9476 43.609 37.2538 42.0681C38.6547 41.132 39.8199 39.9059 40.6797 38.487C41.6056 36.959 43.3441 35.8963 45.0699 36.3587Z"/>
</mask>
<path d="M45.0699 36.3587C46.7957 36.8211 47.8455 38.6139 47.0804 40.2284C45.7025 43.1361 43.5568 45.638 40.8484 47.4478C37.2371 49.8607 32.8717 50.8786 28.5656 50.3117C24.2595 49.7448 20.3064 47.6318 17.4427 44.3663C14.5789 41.1009 13 36.9058 13 32.5625C13 28.2192 14.5789 24.0241 17.4426 20.7587C20.3064 17.4932 24.2595 15.3802 28.5656 14.8133C32.8717 14.2464 37.2371 15.2643 40.8484 17.6772C43.5568 19.487 45.7025 21.9889 47.0804 24.8966C47.8455 26.5111 46.7957 28.3039 45.0699 28.7663C43.3441 29.2287 41.6056 28.166 40.6797 26.6379C39.8199 25.2191 38.6547 23.993 37.2538 23.0569C34.9476 21.516 32.16 20.866 29.4101 21.228C26.6603 21.59 24.1358 22.9394 22.3071 25.0247C20.4784 27.11 19.4701 29.7889 19.4701 32.5625C19.4701 35.3361 20.4784 38.0151 22.3071 40.1003C24.1358 42.1856 26.6603 43.535 29.4101 43.897C32.16 44.259 34.9476 43.609 37.2538 42.0681C38.6547 41.132 39.8199 39.9059 40.6797 38.487C41.6056 36.959 43.3441 35.8963 45.0699 36.3587Z" fill="#FF0000"/>
<path d="M45.0699 36.3587C46.7957 36.8211 47.8455 38.6139 47.0804 40.2284C45.7025 43.1361 43.5568 45.638 40.8484 47.4478C37.2371 49.8607 32.8717 50.8786 28.5656 50.3117C24.2595 49.7448 20.3064 47.6318 17.4427 44.3663C14.5789 41.1009 13 36.9058 13 32.5625C13 28.2192 14.5789 24.0241 17.4426 20.7587C20.3064 17.4932 24.2595 15.3802 28.5656 14.8133C32.8717 14.2464 37.2371 15.2643 40.8484 17.6772C43.5568 19.487 45.7025 21.9889 47.0804 24.8966C47.8455 26.5111 46.7957 28.3039 45.0699 28.7663C43.3441 29.2287 41.6056 28.166 40.6797 26.6379C39.8199 25.2191 38.6547 23.993 37.2538 23.0569C34.9476 21.516 32.16 20.866 29.4101 21.228C26.6603 21.59 24.1358 22.9394 22.3071 25.0247C20.4784 27.11 19.4701 29.7889 19.4701 32.5625C19.4701 35.3361 20.4784 38.0151 22.3071 40.1003C24.1358 42.1856 26.6603 43.535 29.4101 43.897C32.16 44.259 34.9476 43.609 37.2538 42.0681C38.6547 41.132 39.8199 39.9059 40.6797 38.487C41.6056 36.959 43.3441 35.8963 45.0699 36.3587Z" stroke="white" stroke-width="1.11937" mask="url(#path-2-outside-1_611_5840)"/>
</g>
</g>
</g>
</svg>
