<svg width="78" height="64" viewBox="0 0 78 64" fill="none" xmlns="http://www.w3.org/2000/svg">
<g id="Group">
<path id="Vector" d="M36 29.666C36.6667 29.9994 37 29.9993 37.3333 29.9993C38 29.9993 38.3333 29.9993 39 29.9993C39.6667 29.9993 40 29.9993 40.6667 29.9993C41 29.9993 41.6667 29.666 42 29.666C42 29.666 42 29.666 42.3333 29.666C45.3333 28.3327 47.6667 25.3327 47.6667 21.9993C47.6667 17.3327 44 13.666 39.3333 13.666C34.6667 13.666 30.6667 17.3327 30.6667 21.9993C30.6667 25.666 33 28.666 36 29.666Z" fill="url(#paint0_linear_823_2370)"/>
<path id="Vector_2" d="M24 41.9993C24 42.9993 24.6667 43.666 25.6667 43.666H52.3333C53.3333 43.666 54 42.9993 54 41.9993C54 36.9993 51.3333 32.3327 47.6667 29.666C45.3333 31.9993 42.3333 33.666 39 33.666C35.6667 33.666 32.6667 31.9993 30.3333 29.666C26.6667 32.3327 24 36.9993 24 41.9993Z" fill="url(#paint1_linear_823_2370)"/>
<path id="Vector_3" d="M17 33.666H22.3333C23.3333 33.666 24 32.9993 24 31.9993C24 30.9993 23.3333 30.3327 22.3333 30.3327H17C16.3333 26.666 13 23.666 8.99999 23.666C4.33332 23.666 0.666656 27.3327 0.666656 31.9993C0.666656 36.666 4.33332 40.3327 8.99999 40.3327C13 40.3327 16.3333 37.3327 17 33.666ZM8.99999 36.9993C6.33332 36.9993 3.99999 34.666 3.99999 31.9993C3.99999 29.3327 6.33332 26.9993 8.99999 26.9993C11.6667 26.9993 14 29.3327 14 31.9993C14 34.666 11.6667 36.9993 8.99999 36.9993Z" fill="url(#paint2_linear_823_2370)"/>
<path id="Vector_4" d="M59 46.9993C57.3333 46.9993 55.6667 47.666 54.3333 48.3327L51.6667 45.666C51 44.9993 50 44.9993 49.3333 45.666C48.6667 46.3327 48.6667 47.3327 49.3333 47.9993L52 50.666C51 51.9994 50.6667 53.666 50.6667 55.3327C50.6667 59.9994 54.3333 63.666 59 63.666C63.6667 63.666 67.3333 59.9994 67.3333 55.3327C67.3333 50.666 63.6667 46.9993 59 46.9993ZM59 60.3327C56.3333 60.3327 54 57.9994 54 55.3327C54 52.666 56.3333 50.3327 59 50.3327C61.6667 50.3327 64 52.666 64 55.3327C64 57.9994 61.6667 60.3327 59 60.3327Z" fill="url(#paint3_linear_823_2370)"/>
<path id="Vector_5" d="M51.6667 18.333L54.3333 15.6663C55.6667 16.333 57.3333 16.9997 59 16.9997C63.6667 16.9997 67.3333 13.333 67.3333 8.66634C67.3333 3.99967 63.6667 0.333008 59 0.333008C54.3333 0.333008 50.6667 3.99967 50.6667 8.66634C50.6667 10.333 51 11.9997 52 13.333L49.3333 15.9997C48.6667 16.6663 48.6667 17.6663 49.3333 18.333C50 18.9997 51 18.9997 51.6667 18.333ZM59 3.66634C61.6667 3.66634 64 5.99967 64 8.66634C64 11.333 61.6667 13.6663 59 13.6663C56.3333 13.6663 54 11.333 54 8.66634C54 5.99967 56.3333 3.66634 59 3.66634Z" fill="url(#paint4_linear_823_2370)"/>
<path id="Vector_6" d="M26.3333 45.666L23.6667 48.3327C22.3333 47.666 20.6667 46.9993 19 46.9993C14.3333 46.9993 10.6667 50.666 10.6667 55.3327C10.6667 59.9994 14.3333 63.666 19 63.666C23.6667 63.666 27.3333 59.9994 27.3333 55.3327C27.3333 53.666 27 51.9994 26 50.666L28.6667 47.9993C29.3333 47.3327 29.3333 46.3327 28.6667 45.666C28 44.9993 27 44.9993 26.3333 45.666ZM19 60.3327C16.3333 60.3327 14 57.9994 14 55.3327C14 52.666 16.3333 50.3327 19 50.3327C21.6667 50.3327 24 52.666 24 55.3327C24 57.9994 21.6667 60.3327 19 60.3327Z" fill="url(#paint5_linear_823_2370)"/>
<path id="Vector_7" d="M19 16.9997C20.6667 16.9997 22.3333 16.333 23.6667 15.6663L26.3333 18.333C27 18.9997 28 18.9997 28.6667 18.333C29.3333 17.6663 29.3333 16.6663 28.6667 15.9997L26 13.333C27 11.9997 27.3333 10.333 27.3333 8.66634C27.3333 3.99967 23.6667 0.333008 19 0.333008C14.3333 0.333008 10.6667 3.99967 10.6667 8.66634C10.6667 13.333 14.3333 16.9997 19 16.9997ZM19 3.66634C21.6667 3.66634 24 5.99967 24 8.66634C24 11.333 21.6667 13.6663 19 13.6663C16.3333 13.6663 14 11.333 14 8.66634C14 5.99967 16.3333 3.66634 19 3.66634Z" fill="url(#paint6_linear_823_2370)"/>
<path id="Vector_8" d="M69 23.666C65 23.666 61.6667 26.666 61 30.3327H55.6667C54.6667 30.3327 54 30.9993 54 31.9993C54 32.9993 54.6667 33.666 55.6667 33.666H61C61.6667 37.3327 65 40.3327 69 40.3327C73.6667 40.3327 77.3333 36.666 77.3333 31.9993C77.3333 27.3327 73.6667 23.666 69 23.666ZM69 36.9993C66.3333 36.9993 64 34.666 64 31.9993C64 29.3327 66.3333 26.9993 69 26.9993C71.6667 26.9993 74 29.3327 74 31.9993C74 34.666 71.6667 36.9993 69 36.9993Z" fill="url(#paint7_linear_823_2370)"/>
</g>
<defs>
<linearGradient id="paint0_linear_823_2370" x1="39.1667" y1="13.666" x2="39.1667" y2="29.9993" gradientUnits="userSpaceOnUse">
<stop stop-color="#FFFFFF"/>
<stop offset="1" stop-color="#FFFFFF"/>
</linearGradient>
<linearGradient id="paint1_linear_823_2370" x1="39" y1="29.666" x2="39" y2="43.666" gradientUnits="userSpaceOnUse">
<stop stop-color="#FFFFFF"/>
<stop offset="1" stop-color="#FFFFFF"/>
</linearGradient>
<linearGradient id="paint2_linear_823_2370" x1="12.3333" y1="23.666" x2="12.3333" y2="40.3327" gradientUnits="userSpaceOnUse">
<stop stop-color="#FFFFFF"/>
<stop offset="1" stop-color="#FFFFFF"/>
</linearGradient>
<linearGradient id="paint3_linear_823_2370" x1="58.0833" y1="45.166" x2="58.0833" y2="63.666" gradientUnits="userSpaceOnUse">
<stop stop-color="#FFFFFF"/>
<stop offset="1" stop-color="#FFFFFF"/>
</linearGradient>
<linearGradient id="paint4_linear_823_2370" x1="58.0833" y1="0.333008" x2="58.0833" y2="18.833" gradientUnits="userSpaceOnUse">
<stop stop-color="#FFFFFF"/>
<stop offset="1" stop-color="#FFFFFF"/>
</linearGradient>
<linearGradient id="paint5_linear_823_2370" x1="19.9167" y1="45.166" x2="19.9167" y2="63.666" gradientUnits="userSpaceOnUse">
<stop stop-color="#FFFFFF"/>
<stop offset="1" stop-color="#FFFFFF"/>
</linearGradient>
<linearGradient id="paint6_linear_823_2370" x1="19.9167" y1="0.333008" x2="19.9167" y2="18.833" gradientUnits="userSpaceOnUse">
<stop stop-color="#FFFFFF"/>
<stop offset="1" stop-color="#FFFFFF"/>
</linearGradient>
<linearGradient id="paint7_linear_823_2370" x1="65.6667" y1="23.666" x2="65.6667" y2="40.3327" gradientUnits="userSpaceOnUse">
<stop stop-color="#FFFFFF"/>
<stop offset="1" stop-color="#FFFFFF"/>
</linearGradient>
</defs>
</svg>
