<svg width="78" height="64" viewBox="0 0 78 64" fill="none" xmlns="http://www.w3.org/2000/svg">
<g id="Group">
<path id="Vector" d="M17 33.666H22.3333C23.3333 33.666 24 32.9993 24 31.9993C24 30.9993 23.3333 30.3327 22.3333 30.3327H17C16.3333 26.666 13 23.666 8.99999 23.666C4.33332 23.666 0.666656 27.3327 0.666656 31.9993C0.666656 36.666 4.33332 40.3327 8.99999 40.3327C13 40.3327 16.3333 37.3327 17 33.666ZM8.99999 36.9993C6.33332 36.9993 3.99999 34.666 3.99999 31.9993C3.99999 29.3327 6.33332 26.9993 8.99999 26.9993C11.6667 26.9993 14 29.3327 14 31.9993C14 34.666 11.6667 36.9993 8.99999 36.9993Z" fill="url(#paint0_linear_823_2417)"/>
<path id="Vector_2" d="M59 46.9993C57.3333 46.9993 55.6667 47.666 54.3333 48.3327L51.6667 45.666C51 44.9993 50 44.9993 49.3333 45.666C48.6667 46.3327 48.6667 47.3327 49.3333 47.9993L52 50.666C51 51.9994 50.6667 53.666 50.6667 55.3327C50.6667 59.9994 54.3333 63.666 59 63.666C63.6667 63.666 67.3333 59.9994 67.3333 55.3327C67.3333 50.666 63.6667 46.9993 59 46.9993ZM59 60.3327C56.3333 60.3327 54 57.9994 54 55.3327C54 52.666 56.3333 50.3327 59 50.3327C61.6667 50.3327 64 52.666 64 55.3327C64 57.9994 61.6667 60.3327 59 60.3327Z" fill="url(#paint1_linear_823_2417)"/>
<path id="Vector_3" d="M69 23.666C65 23.666 61.6667 26.666 61 30.3327H55.6667C54.6667 30.3327 54 30.9993 54 31.9993C54 32.9993 54.6667 33.666 55.6667 33.666H61C61.6667 37.3327 65 40.3327 69 40.3327C73.6667 40.3327 77.3333 36.666 77.3333 31.9993C77.3333 27.3327 73.6667 23.666 69 23.666ZM69 36.9993C66.3333 36.9993 64 34.666 64 31.9993C64 29.3327 66.3333 26.9993 69 26.9993C71.6667 26.9993 74 29.3327 74 31.9993C74 34.666 71.6667 36.9993 69 36.9993Z" fill="url(#paint2_linear_823_2417)"/>
<path id="Vector_4" d="M26 13.333C26.6667 11.9997 27.3333 10.333 27.3333 8.66634C27.3333 3.99967 23.6667 0.333008 19 0.333008C14.3333 0.333008 10.6667 3.99967 10.6667 8.66634C10.6667 13.333 14.3333 16.9997 19 16.9997C20.6667 16.9997 22.3333 16.333 23.6667 15.6663L26.3333 18.333C26.3333 18.6663 27 18.6663 27.3333 18.6663C27.6667 18.6663 28.3333 18.6663 28.6667 18.333C29 17.6663 29 16.333 28.6667 15.6663L26 13.333ZM14 8.66634C14 5.99967 16.3333 3.66634 19 3.66634C21.6667 3.66634 24 5.99967 24 8.66634C24 11.333 21.6667 13.6663 19 13.6663C16.3333 13.6663 14 11.333 14 8.66634Z" fill="url(#paint3_linear_823_2417)"/>
<path id="Vector_5" d="M26 45.666L23.3333 48.3327C22.3333 47.666 20.6667 46.9993 19 46.9993C14.3333 46.9993 10.6667 50.666 10.6667 55.3327C10.6667 59.9993 14.3333 63.666 19 63.666C23.6667 63.666 27.3333 59.9993 27.3333 55.3327C27.3333 53.666 26.6667 51.9994 26 50.666L28.6667 47.9993C29.3333 47.3327 29.3333 46.3327 28.6667 45.666C28 45.3327 26.6667 45.3327 26 45.666ZM19 60.3327C16.3333 60.3327 14 57.9993 14 55.3327C14 52.666 16.3333 50.3327 19 50.3327C21.6667 50.3327 24 52.666 24 55.3327C24 57.9993 21.6667 60.3327 19 60.3327Z" fill="url(#paint4_linear_823_2417)"/>
<path id="Vector_6" d="M50.6667 18.6663C51 18.6663 51.6667 18.6663 52 18.333L54.6667 15.6663C55.6667 16.333 57.3333 16.9997 59 16.9997C63.6667 16.9997 67.3333 13.333 67.3333 8.66634C67.3333 3.99967 63.6667 0.333008 59 0.333008C54.3333 0.333008 50.6667 3.99967 50.6667 8.66634C50.6667 10.333 51.3333 11.9997 52 13.333L49.3333 15.9997C48.6667 16.6663 48.6667 17.6663 49.3333 18.333C49.6667 18.6663 50.3333 18.6663 50.6667 18.6663ZM59 3.66634C61.6667 3.66634 64 5.99967 64 8.66634C64 11.333 61.6667 13.6663 59 13.6663C56.3333 13.6663 54 11.333 54 8.66634C54 5.99967 56.3333 3.66634 59 3.66634Z" fill="url(#paint5_linear_823_2417)"/>
<path id="Vector_7" d="M40.6667 30.6667V24C42.6667 24.3333 44 25.6667 44 27C44 28 45 28.6667 45.6667 28.6667C46.6667 28.6667 47.3333 27.6667 47.3333 27C47 24 44.3333 21.3333 40.6667 21V18.6667C40.6667 17.6667 40 17 39 17C38 17 37.3333 17.6667 37.3333 18.6667V20.3333C33.6667 21 30.6667 23.6667 30.6667 27C30.6667 30 33 32.3333 37.3333 33.3333V40C35.3333 39.6667 34 38.3333 34 37C34 36 33 35.3333 32.3333 35.3333C31.3333 35.3333 30.6667 36.3333 30.6667 37C31 40 33.6667 42.6667 37.3333 43V45.3333C37.3333 46.3333 38 47 39 47C40 47 40.6667 46.3333 40.6667 45.3333V43.6667C44.3333 43 47.3333 40.3333 47.3333 37C47.3333 34 45 31.6667 40.6667 30.6667ZM34 27C34 25.6667 35.3333 24.3333 37.3333 24V30C35 29.3333 34 28.3333 34 27ZM40.6667 40V34C43 34.6667 44 35.6667 44 37C44 38.3333 42.6667 39.6667 40.6667 40Z" fill="url(#paint6_linear_823_2417)"/>
</g>
<defs>
<linearGradient id="paint0_linear_823_2417" x1="12.3333" y1="23.666" x2="12.3333" y2="40.3327" gradientUnits="userSpaceOnUse">
<stop stop-color="#888888"/>
<stop offset="1" stop-color="#888888" stop-opacity="0.5"/>
</linearGradient>
<linearGradient id="paint1_linear_823_2417" x1="58.0833" y1="45.166" x2="58.0833" y2="63.666" gradientUnits="userSpaceOnUse">
<stop stop-color="#888888"/>
<stop offset="1" stop-color="#888888" stop-opacity="0.5"/>
</linearGradient>
<linearGradient id="paint2_linear_823_2417" x1="65.6667" y1="23.666" x2="65.6667" y2="40.3327" gradientUnits="userSpaceOnUse">
<stop stop-color="#888888"/>
<stop offset="1" stop-color="#888888" stop-opacity="0.5"/>
</linearGradient>
<linearGradient id="paint3_linear_823_2417" x1="19.7917" y1="0.333008" x2="19.7917" y2="18.6663" gradientUnits="userSpaceOnUse">
<stop stop-color="#888888"/>
<stop offset="1" stop-color="#888888" stop-opacity="0.5"/>
</linearGradient>
<linearGradient id="paint4_linear_823_2417" x1="19.9167" y1="45.416" x2="19.9167" y2="63.666" gradientUnits="userSpaceOnUse">
<stop stop-color="#888888"/>
<stop offset="1" stop-color="#888888" stop-opacity="0.5"/>
</linearGradient>
<linearGradient id="paint5_linear_823_2417" x1="58.0833" y1="0.333008" x2="58.0833" y2="18.6663" gradientUnits="userSpaceOnUse">
<stop stop-color="#888888"/>
<stop offset="1" stop-color="#888888" stop-opacity="0.5"/>
</linearGradient>
<linearGradient id="paint6_linear_823_2417" x1="39" y1="17" x2="39" y2="47" gradientUnits="userSpaceOnUse">
<stop stop-color="#888888"/>
<stop offset="1" stop-color="#888888" stop-opacity="0.5"/>
</linearGradient>
</defs>
</svg>
