<svg width="60" height="80" viewBox="0 0 60 80" fill="none" xmlns="http://www.w3.org/2000/svg">
<g id="Group">
<g id="Group_2">
<g id="Group_3">
<path id="Vector" d="M1.66667 80C1.45333 80 1.23333 79.96 1.03 79.8733C0.406667 79.6167 0 79.0067 0 78.3333V11.6667C0 5.23333 5.23333 0 11.6667 0H48.3333C49.2533 0 50 0.746667 50 1.66667C50 2.58667 49.2533 3.33333 48.3333 3.33333C45.5767 3.33333 43.3333 5.57667 43.3333 8.33333V15C43.3333 15.92 42.5867 16.6667 41.6667 16.6667C40.7467 16.6667 40 15.92 40 15V8.33333C40 6.45667 40.6233 4.72667 41.67 3.33333H11.6667C7.07 3.33333 3.33333 7.07333 3.33333 11.6667V74.31L20.4867 57.1567C21.1367 56.51 22.1867 56.5067 22.8367 57.15C32.0167 66.2067 37.16 71.28 39.9967 74.2267V61.6667C39.9967 60.7467 40.7433 60 41.6633 60C42.5833 60 43.33 60.7467 43.33 61.6667L43.32 78.3333C43.3667 78.58 43.2933 78.7533 43.2067 78.9633C42.9067 79.7 42.1367 80.12 41.34 79.9667C40.89 79.88 40.5133 79.6167 40.2767 79.2567C39.1867 78.0233 29.0367 67.9533 21.67 60.6833L2.84333 79.5133C2.52667 79.83 2.1 80 1.66667 80Z" fill="url(#paint0_linear_823_3668)"/>
</g>
<g id="Group_4">
<path id="Vector_2" d="M55 13.3333H41.6667C40.7467 13.3333 40 12.5867 40 11.6667C40 10.7467 40.7467 10 41.6667 10H53.3333V8.33333C53.3333 5.57667 51.09 3.33333 48.3333 3.33333C47.4133 3.33333 46.6667 2.58667 46.6667 1.66667C46.6667 0.746667 47.4133 0 48.3333 0C52.93 0 56.6667 3.74 56.6667 8.33333V11.6667C56.6667 12.5867 55.92 13.3333 55 13.3333Z" fill="url(#paint1_linear_823_3668)"/>
</g>
</g>
<g id="Group_5">
<g id="Group_6">
<g id="Group_7">
<g id="Group_8">
<path id="Vector_3" d="M44.9333 56.3362C44.5833 56.3362 44.2333 56.2229 43.9433 56.0096C43.5667 55.7329 43.3233 55.3096 43.2767 54.8429C43.1867 53.9829 42.4933 53.3329 41.6667 53.3329C40.84 53.3329 40.1467 53.9829 40.0567 54.8462C40.0067 55.3129 39.7667 55.7362 39.39 56.0129C39.0133 56.2896 38.5333 56.4062 38.0733 56.3062C34.1667 55.5296 30.6633 53.4829 27.9467 50.3929C27.64 50.0462 27.4933 49.5829 27.5433 49.1229C27.59 48.6629 27.8267 48.2396 28.1967 47.9596C28.8833 47.4396 29.09 46.5462 28.6767 45.8329C28.27 45.1229 27.3867 44.8562 26.6 45.1896C26.1733 45.3696 25.69 45.3662 25.27 45.1762C24.8467 44.9862 24.52 44.6296 24.37 44.1929C23.6733 42.1329 23.3333 40.2162 23.3333 38.3329C23.3333 36.4496 23.6733 34.5329 24.37 32.4796C24.52 32.0396 24.8467 31.6829 25.27 31.4962C25.69 31.3062 26.1733 31.2996 26.6 31.4829C27.3967 31.8296 28.27 31.5496 28.68 30.8362C29.09 30.1262 28.8867 29.2329 28.1967 28.7129C27.8267 28.4329 27.5867 28.0129 27.5433 27.5496C27.4933 27.0896 27.64 26.6296 27.9467 26.2796C30.6633 23.1862 34.1667 21.1429 38.0733 20.3662C38.5267 20.2629 39.01 20.3796 39.39 20.6596C39.7667 20.9362 40.01 21.3596 40.0567 21.8262C40.1467 22.6829 40.84 23.3329 41.6667 23.3329C42.4933 23.3329 43.1867 22.6829 43.2767 21.8196C43.3267 21.3529 43.5667 20.9296 43.9433 20.6529C44.32 20.3762 44.8033 20.2596 45.26 20.3596C49.1667 21.1362 52.67 23.1829 55.3867 26.2729C55.6933 26.6196 55.84 27.0829 55.79 27.5429C55.7433 28.0029 55.5067 28.4262 55.1367 28.7062C54.45 29.2262 54.2433 30.1196 54.6567 30.8329C55.0667 31.5462 55.9567 31.8162 56.7333 31.4762C57.16 31.2962 57.6433 31.2996 58.0633 31.4896C58.4867 31.6796 58.8133 32.0362 58.9633 32.4729C59.66 34.5329 60 36.4496 60 38.3329C60 40.2162 59.66 42.1329 58.9633 44.1862C58.8133 44.6262 58.4867 44.9829 58.0633 45.1696C57.6433 45.3596 57.16 45.3662 56.7333 45.1829C55.9433 44.8462 55.0667 45.1196 54.6533 45.8296C54.2467 46.5429 54.4467 47.4362 55.1367 47.9529C55.5067 48.2329 55.7467 48.6529 55.79 49.1162C55.84 49.5762 55.6933 50.0362 55.3867 50.3862C52.67 53.4796 49.1667 55.5229 45.26 56.2996C45.1533 56.3262 45.0433 56.3362 44.9333 56.3362ZM41.6667 49.9996C43.5533 49.9996 45.21 51.0696 46.0433 52.6729C48.2033 52.0062 50.18 50.8429 51.87 49.2396C50.93 47.7196 50.84 45.7696 51.7667 44.1662L51.77 44.1629C52.7 42.5562 54.4267 41.6962 56.2233 41.7162C56.52 40.5429 56.6667 39.4229 56.6667 38.3329C56.6667 37.2429 56.52 36.1229 56.2233 34.9496C54.4133 35.0196 52.7 34.1129 51.77 32.5029C50.8433 30.8962 50.93 28.9462 51.87 27.4262C50.18 25.8262 48.2033 24.6596 46.0433 23.9929C45.21 25.5962 43.5533 26.6662 41.6667 26.6662C39.78 26.6662 38.1233 25.5962 37.29 23.9929C35.13 24.6596 33.1533 25.8229 31.4633 27.4262C32.4033 28.9462 32.4933 30.8962 31.5667 32.4996C30.6333 34.1096 28.8767 35.0362 27.11 34.9496C26.8133 36.1229 26.6667 37.2429 26.6667 38.3329C26.6667 39.4229 26.8133 40.5429 27.11 41.7162C28.8633 41.6829 30.6333 42.5562 31.5633 44.1629C32.49 45.7696 32.4033 47.7196 31.4633 49.2396C33.1533 50.8396 35.13 52.0062 37.29 52.6729C38.1233 51.0696 39.78 49.9996 41.6667 49.9996Z" fill="url(#paint2_linear_823_3668)"/>
</g>
</g>
</g>
<g id="Group_9">
<path id="Vector_4" d="M41.6667 46.6667C37.07 46.6667 33.3333 42.9267 33.3333 38.3333C33.3333 33.74 37.07 30 41.6667 30C46.2633 30 50 33.74 50 38.3333C50 42.9267 46.2633 46.6667 41.6667 46.6667ZM41.6667 33.3333C38.91 33.3333 36.6667 35.5767 36.6667 38.3333C36.6667 41.09 38.91 43.3333 41.6667 43.3333C44.4233 43.3333 46.6667 41.09 46.6667 38.3333C46.6667 35.5767 44.4233 33.3333 41.6667 33.3333Z" fill="url(#paint3_linear_823_3668)"/>
</g>
</g>
</g>
<defs>
<linearGradient id="paint0_linear_823_3668" x1="25" y1="0" x2="25" y2="80" gradientUnits="userSpaceOnUse">
<stop stop-color="#888888"/>
<stop offset="1" stop-color="#888888" stop-opacity="0.5"/>
</linearGradient>
<linearGradient id="paint1_linear_823_3668" x1="48.3333" y1="0" x2="48.3333" y2="13.3333" gradientUnits="userSpaceOnUse">
<stop stop-color="#888888"/>
<stop offset="1" stop-color="#888888" stop-opacity="0.5"/>
</linearGradient>
<linearGradient id="paint2_linear_823_3668" x1="41.6667" y1="20.3242" x2="41.6667" y2="56.3416" gradientUnits="userSpaceOnUse">
<stop stop-color="#888888"/>
<stop offset="1" stop-color="#888888" stop-opacity="0.5"/>
</linearGradient>
<linearGradient id="paint3_linear_823_3668" x1="41.6667" y1="30" x2="41.6667" y2="46.6667" gradientUnits="userSpaceOnUse">
<stop stop-color="#888888"/>
<stop offset="1" stop-color="#888888" stop-opacity="0.5"/>
</linearGradient>
</defs>
</svg>
