<svg width="80" height="80" viewBox="0 0 80 80" fill="none" xmlns="http://www.w3.org/2000/svg">
<g id="Chat-3">
<path id="Vector" d="M71.6667 19.9997H49.83C49.0567 16.203 45.6867 13.333 41.6667 13.333H8.33333C3.74 13.333 0 17.073 0 21.6663V41.6663C0 46.2597 3.74 49.9997 8.33333 49.9997H9.35333L6.75333 57.8063C6.52333 58.4997 6.77 59.2597 7.36 59.6863C7.65 59.8963 7.99 59.9997 8.33333 59.9997C8.68333 59.9997 9.03667 59.8897 9.33333 59.6663L22.2233 49.9997H30.17C30.9433 53.7963 34.3133 56.6663 38.3333 56.6663H57.7767L70.6667 66.333C70.9633 66.5563 71.3167 66.6663 71.6667 66.6663C72.01 66.6663 72.35 66.563 72.64 66.353C73.2333 65.9263 73.4767 65.1663 73.2467 64.473L70.6467 56.6663H71.6667C76.26 56.6663 80 52.9263 80 48.333V28.333C80 23.7397 76.26 19.9997 71.6667 19.9997ZM21.6667 46.6663C21.3033 46.6663 20.9533 46.783 20.6667 46.9997L11.6 53.7997L13.2467 48.863C13.42 48.353 13.3333 47.793 13.02 47.3597C12.7067 46.923 12.2033 46.6663 11.6667 46.6663H8.33333C5.57667 46.6663 3.33333 44.423 3.33333 41.6663V21.6663C3.33333 18.9097 5.57667 16.6663 8.33333 16.6663H41.6667C43.8367 16.6663 45.67 18.063 46.36 19.9997H38.3333C33.74 19.9997 30 23.7397 30 28.333V46.6663H21.6667ZM76.6667 48.333C76.6667 51.0897 74.4233 53.333 71.6667 53.333H68.3333C67.7967 53.333 67.2933 53.593 66.98 54.0263C66.67 54.463 66.5833 55.023 66.7533 55.5297L68.4 60.4663L59.3333 53.6663C59.0433 53.4497 58.6933 53.333 58.3333 53.333H38.3333C35.5767 53.333 33.3333 51.0897 33.3333 48.333V28.333C33.3333 25.5763 35.5767 23.333 38.3333 23.333H71.6667C74.4233 23.333 76.6667 25.5763 76.6667 28.333V48.333Z" fill="url(#paint0_linear_611_4509)"/>
</g>
<defs>
<linearGradient id="paint0_linear_611_4509" x1="40" y1="13.333" x2="40" y2="66.6663" gradientUnits="userSpaceOnUse">
<stop stop-color="#888888"/>
<stop offset="1" stop-color="#888888" stop-opacity="0.5"/>
</linearGradient>
</defs>
</svg>
