<svg width="80" height="74" viewBox="0 0 80 74" fill="none" xmlns="http://www.w3.org/2000/svg">
<g id="Group">
<path id="Vector" d="M48.3333 40.333H25C24.08 40.333 23.3333 41.0797 23.3333 41.9997C23.3333 42.9197 24.08 43.6663 25 43.6663H48.3333C49.2533 43.6663 50 42.9197 50 41.9997C50 41.0797 49.2533 40.333 48.3333 40.333Z" fill="url(#paint0_linear_823_2484)"/>
<path id="Vector_2" d="M48.3333 50.333H25C24.08 50.333 23.3333 51.0797 23.3333 51.9997C23.3333 52.9197 24.08 53.6663 25 53.6663H48.3333C49.2533 53.6663 50 52.9197 50 51.9997C50 51.0797 49.2533 50.333 48.3333 50.333Z" fill="url(#paint1_linear_823_2484)"/>
<path id="Vector_3" d="M48.3333 60.333H25C24.08 60.333 23.3333 61.0797 23.3333 61.9997C23.3333 62.9197 24.08 63.6663 25 63.6663H48.3333C49.2533 63.6663 50 62.9197 50 61.9997C50 61.0797 49.2533 60.333 48.3333 60.333Z" fill="url(#paint2_linear_823_2484)"/>
<path id="Vector_4" d="M79.8733 1.36301C79.6167 0.739674 79.0067 0.333008 78.3333 0.333008H28.3333C23.7367 0.333008 20 4.07301 20 8.66634V30.333H1.66667C0.993337 30.333 0.386671 30.7363 0.12667 31.3597C-0.13333 31.983 0.0100038 32.6997 0.48667 33.1763L13.3333 46.023V65.333C13.3333 69.9263 17.07 73.6663 21.6667 73.6663H51.6667C56.2633 73.6663 60 69.9263 60 65.333V43.4963C63.8 42.723 66.6667 39.353 66.6667 35.333V16.023L79.5133 3.17967C79.9867 2.70301 80.13 1.98634 79.8733 1.36301ZM56.6633 65.333C56.6633 68.0897 54.42 70.333 51.6633 70.333H21.6633C18.9067 70.333 16.6633 68.0897 16.6633 65.333V45.333C16.6633 44.8897 16.49 44.4663 16.1767 44.153L5.69 33.6663H51.6633C54.42 33.6663 56.6633 35.9097 56.6633 38.6663V65.333ZM63.82 14.153C63.51 14.4663 63.3333 14.8897 63.3333 15.333V35.333C63.3333 37.503 61.9367 39.3363 60 40.0263V38.6663C60 34.073 56.2633 30.333 51.6667 30.333H23.3333V8.66634C23.3333 5.90967 25.5767 3.66634 28.3333 3.66634H74.3067L63.82 14.153Z" fill="url(#paint3_linear_823_2484)"/>
<path id="Vector_5" d="M31.6667 13.6663H55C55.92 13.6663 56.6667 12.9197 56.6667 11.9997C56.6667 11.0797 55.92 10.333 55 10.333H31.6667C30.7467 10.333 30 11.0797 30 11.9997C30 12.9197 30.7467 13.6663 31.6667 13.6663Z" fill="url(#paint4_linear_823_2484)"/>
<path id="Vector_6" d="M31.6667 23.6663H55C55.92 23.6663 56.6667 22.9197 56.6667 21.9997C56.6667 21.0797 55.92 20.333 55 20.333H31.6667C30.7467 20.333 30 21.0797 30 21.9997C30 22.9197 30.7467 23.6663 31.6667 23.6663Z" fill="url(#paint5_linear_823_2484)"/>
</g>
<defs>
<linearGradient id="paint0_linear_823_2484" x1="36.6667" y1="40.333" x2="36.6667" y2="43.6663" gradientUnits="userSpaceOnUse">
<stop stop-color="#888888"/>
<stop offset="1" stop-color="#888888" stop-opacity="0.5"/>
</linearGradient>
<linearGradient id="paint1_linear_823_2484" x1="36.6667" y1="50.333" x2="36.6667" y2="53.6663" gradientUnits="userSpaceOnUse">
<stop stop-color="#888888"/>
<stop offset="1" stop-color="#888888" stop-opacity="0.5"/>
</linearGradient>
<linearGradient id="paint2_linear_823_2484" x1="36.6667" y1="60.333" x2="36.6667" y2="63.6663" gradientUnits="userSpaceOnUse">
<stop stop-color="#888888"/>
<stop offset="1" stop-color="#888888" stop-opacity="0.5"/>
</linearGradient>
<linearGradient id="paint3_linear_823_2484" x1="39.9989" y1="0.333008" x2="39.9989" y2="73.6663" gradientUnits="userSpaceOnUse">
<stop stop-color="#888888"/>
<stop offset="1" stop-color="#888888" stop-opacity="0.5"/>
</linearGradient>
<linearGradient id="paint4_linear_823_2484" x1="43.3333" y1="10.333" x2="43.3333" y2="13.6663" gradientUnits="userSpaceOnUse">
<stop stop-color="#888888"/>
<stop offset="1" stop-color="#888888" stop-opacity="0.5"/>
</linearGradient>
<linearGradient id="paint5_linear_823_2484" x1="43.3333" y1="20.333" x2="43.3333" y2="23.6663" gradientUnits="userSpaceOnUse">
<stop stop-color="#888888"/>
<stop offset="1" stop-color="#888888" stop-opacity="0.5"/>
</linearGradient>
</defs>
</svg>
