<svg width="48" height="80" viewBox="0 0 48 80" fill="none" xmlns="http://www.w3.org/2000/svg">
<g id="XMLID_49_">
<g id="XMLID_1052_">
<path id="XMLID_549_" d="M35.6667 80H12.3333C5.89999 80 0.666656 74.7667 0.666656 68.3333V11.6667C0.666656 5.23333 5.89999 0 12.3333 0H35.6667C42.1 0 47.3333 5.23333 47.3333 11.6667V68.3333C47.3333 74.7667 42.1 80 35.6667 80ZM12.3333 3.33333C7.73999 3.33333 3.99999 7.07333 3.99999 11.6667V68.3333C3.99999 72.9267 7.73999 76.6667 12.3333 76.6667H35.6667C40.26 76.6667 44 72.9267 44 68.3333V11.6667C44 7.07333 40.26 3.33333 35.6667 3.33333H12.3333Z" fill="url(#paint0_linear_823_2433)"/>
</g>
<g id="XMLID_50_">
<path id="XMLID_548_" d="M45.6667 16.6673H2.33332C1.41332 16.6673 0.666656 15.9207 0.666656 15.0007C0.666656 14.0807 1.41332 13.334 2.33332 13.334H45.6667C46.5867 13.334 47.3333 14.0807 47.3333 15.0007C47.3333 15.9207 46.5867 16.6673 45.6667 16.6673Z" fill="url(#paint1_linear_823_2433)"/>
</g>
<g id="XMLID_51_">
<path id="XMLID_547_" d="M45.6667 63.3333H2.33332C1.41332 63.3333 0.666656 62.5867 0.666656 61.6667C0.666656 60.7467 1.41332 60 2.33332 60H45.6667C46.5867 60 47.3333 60.7467 47.3333 61.6667C47.3333 62.5867 46.5867 63.3333 45.6667 63.3333Z" fill="url(#paint2_linear_823_2433)"/>
</g>
<g id="XMLID_52_">
<path id="XMLID_546_" d="M24 73.3327C25.8409 73.3327 27.3333 71.8403 27.3333 69.9994C27.3333 68.1584 25.8409 66.666 24 66.666C22.159 66.666 20.6667 68.1584 20.6667 69.9994C20.6667 71.8403 22.159 73.3327 24 73.3327Z" fill="url(#paint3_linear_823_2433)"/>
</g>
<g id="XMLID_53_">
<path id="XMLID_545_" d="M29 9.99935H19C18.08 9.99935 17.3333 9.25268 17.3333 8.33268C17.3333 7.41268 18.08 6.66602 19 6.66602H29C29.92 6.66602 30.6666 7.41268 30.6666 8.33268C30.6666 9.25268 29.92 9.99935 29 9.99935Z" fill="url(#paint4_linear_823_2433)"/>
</g>
<g id="XMLID_54_">
<path id="XMLID_544_" d="M35.7333 9.99935C34.8133 9.99935 34.05 9.25268 34.05 8.33268C34.05 7.41268 34.78 6.66602 35.7 6.66602H35.7333C36.6533 6.66602 37.4 7.41268 37.4 8.33268C37.4 9.25268 36.6533 9.99935 35.7333 9.99935Z" fill="url(#paint5_linear_823_2433)"/>
</g>
</g>
<defs>
<linearGradient id="paint0_linear_823_2433" x1="24" y1="0" x2="24" y2="80" gradientUnits="userSpaceOnUse">
<stop stop-color="#888888"/>
<stop offset="1" stop-color="#888888" stop-opacity="0.5"/>
</linearGradient>
<linearGradient id="paint1_linear_823_2433" x1="24" y1="13.334" x2="24" y2="16.6673" gradientUnits="userSpaceOnUse">
<stop stop-color="#888888"/>
<stop offset="1" stop-color="#888888" stop-opacity="0.5"/>
</linearGradient>
<linearGradient id="paint2_linear_823_2433" x1="24" y1="60" x2="24" y2="63.3333" gradientUnits="userSpaceOnUse">
<stop stop-color="#888888"/>
<stop offset="1" stop-color="#888888" stop-opacity="0.5"/>
</linearGradient>
<linearGradient id="paint3_linear_823_2433" x1="24" y1="66.666" x2="24" y2="73.3327" gradientUnits="userSpaceOnUse">
<stop stop-color="#888888"/>
<stop offset="1" stop-color="#888888" stop-opacity="0.5"/>
</linearGradient>
<linearGradient id="paint4_linear_823_2433" x1="24" y1="6.66602" x2="24" y2="9.99935" gradientUnits="userSpaceOnUse">
<stop stop-color="#888888"/>
<stop offset="1" stop-color="#888888" stop-opacity="0.5"/>
</linearGradient>
<linearGradient id="paint5_linear_823_2433" x1="35.725" y1="6.66602" x2="35.725" y2="9.99935" gradientUnits="userSpaceOnUse">
<stop stop-color="#888888"/>
<stop offset="1" stop-color="#888888" stop-opacity="0.5"/>
</linearGradient>
</defs>
</svg>
