<svg width="80" height="80" viewBox="0 0 80 80" fill="none" xmlns="http://www.w3.org/2000/svg">
<g id="Retro_bot_1">
<g id="Group">
<path id="Vector" d="M60.8696 79.9994H19.1304C14.3374 79.9994 10.4348 76.2594 10.4348 71.666V24.9993C10.4348 20.406 14.3374 16.666 19.1304 16.666H60.8696C65.6626 16.666 69.5652 20.406 69.5652 24.9993V71.666C69.5652 76.2594 65.6626 79.9994 60.8696 79.9994ZM19.1304 19.9993C16.2539 19.9993 13.913 22.2427 13.913 24.9993V71.666C13.913 74.4227 16.2539 76.666 19.1304 76.666H60.8696C63.7461 76.666 66.087 74.4227 66.087 71.666V24.9993C66.087 22.2427 63.7461 19.9993 60.8696 19.9993H19.1304Z" fill="url(#paint0_linear_611_4514)"/>
</g>
<g id="Group_2">
<path id="Vector_2" d="M12.1739 56.6673H5.21739C2.34087 56.6673 0 54.424 0 51.6673V38.334C0 35.5773 2.34087 33.334 5.21739 33.334H12.1739C13.1339 33.334 13.913 34.0807 13.913 35.0007V55.0007C13.913 55.9207 13.1339 56.6673 12.1739 56.6673ZM5.21739 36.6673C4.25739 36.6673 3.47826 37.414 3.47826 38.334V51.6673C3.47826 52.5873 4.25739 53.334 5.21739 53.334H10.4348V36.6673H5.21739Z" fill="url(#paint1_linear_611_4514)"/>
</g>
<g id="Group_3">
<path id="Vector_3" d="M74.7816 56.6673H67.8251C66.8651 56.6673 66.0859 55.9207 66.0859 55.0007V35.0007C66.0859 34.0807 66.8651 33.334 67.8251 33.334H74.7816C77.6581 33.334 79.999 35.5773 79.999 38.334V51.6673C79.999 54.424 77.6581 56.6673 74.7816 56.6673ZM69.5642 53.334H74.7816C75.7416 53.334 76.5207 52.5873 76.5207 51.6673V38.334C76.5207 37.414 75.7416 36.6673 74.7816 36.6673H69.5642V53.334Z" fill="url(#paint2_linear_611_4514)"/>
</g>
<g id="Group_4">
<path id="Vector_4" d="M5.21743 36.666C4.25743 36.666 3.4783 35.9193 3.4783 34.9993V8.33268C3.4783 7.41268 4.25743 6.66602 5.21743 6.66602C6.17743 6.66602 6.95656 7.41268 6.95656 8.33268V34.9993C6.95656 35.9193 6.17743 36.666 5.21743 36.666Z" fill="url(#paint3_linear_611_4514)"/>
</g>
<g id="Group_5">
<path id="Vector_5" d="M74.7821 36.666C73.8221 36.666 73.043 35.9193 73.043 34.9993V8.33268C73.043 7.41268 73.8221 6.66602 74.7821 6.66602C75.7421 6.66602 76.5213 7.41268 76.5213 8.33268V34.9993C76.5213 35.9193 75.7421 36.666 74.7821 36.666Z" fill="url(#paint4_linear_611_4514)"/>
</g>
<g id="Group_6">
<path id="Vector_6" d="M5.21739 10C2.34087 10 0 7.75667 0 5C0 2.24333 2.34087 0 5.21739 0C8.09391 0 10.4348 2.24333 10.4348 5C10.4348 7.75667 8.09391 10 5.21739 10ZM5.21739 3.33333C4.25739 3.33333 3.47826 4.08 3.47826 5C3.47826 5.92 4.25739 6.66667 5.21739 6.66667C6.17739 6.66667 6.95652 5.92 6.95652 5C6.95652 4.08 6.17739 3.33333 5.21739 3.33333Z" fill="url(#paint5_linear_611_4514)"/>
</g>
<g id="Group_7">
<path id="Vector_7" d="M74.7829 10C71.9064 10 69.5656 7.75667 69.5656 5C69.5656 2.24333 71.9064 0 74.7829 0C77.6595 0 80.0003 2.24333 80.0003 5C80.0003 7.75667 77.6595 10 74.7829 10ZM74.7829 3.33333C73.8229 3.33333 73.0438 4.08 73.0438 5C73.0438 5.92 73.8229 6.66667 74.7829 6.66667C75.7429 6.66667 76.5221 5.92 76.5221 5C76.5221 4.08 75.7429 3.33333 74.7829 3.33333Z" fill="url(#paint6_linear_611_4514)"/>
</g>
<g id="Group_8">
<path id="Vector_8" d="M27.8264 46.666C22.0734 46.666 17.3916 42.1794 17.3916 36.666C17.3916 31.1527 22.0734 26.666 27.8264 26.666C33.5795 26.666 38.2612 31.1527 38.2612 36.666C38.2612 42.1794 33.5795 46.666 27.8264 46.666ZM27.8264 29.9993C23.9899 29.9993 20.8699 32.9893 20.8699 36.666C20.8699 40.3427 23.9899 43.3327 27.8264 43.3327C31.6629 43.3327 34.7829 40.3427 34.7829 36.666C34.7829 32.9893 31.6629 29.9993 27.8264 29.9993Z" fill="url(#paint7_linear_611_4514)"/>
</g>
<g id="Group_9">
<path id="Vector_9" d="M52.1739 46.666C46.4209 46.666 41.7391 42.1794 41.7391 36.666C41.7391 31.1527 46.4209 26.666 52.1739 26.666C57.927 26.666 62.6087 31.1527 62.6087 36.666C62.6087 42.1794 57.927 46.666 52.1739 46.666ZM52.1739 29.9993C48.3374 29.9993 45.2174 32.9893 45.2174 36.666C45.2174 40.3427 48.3374 43.3327 52.1739 43.3327C56.0104 43.3327 59.1304 40.3427 59.1304 36.666C59.1304 32.9893 56.0104 29.9993 52.1739 29.9993Z" fill="url(#paint8_linear_611_4514)"/>
</g>
<g id="Group_10">
<path id="Vector_10" d="M60.8699 70H19.1308C18.1708 70 17.3916 69.2533 17.3916 68.3333V61.6667C17.3916 60.7467 18.1708 60 19.1308 60H60.8699C61.8299 60 62.609 60.7467 62.609 61.6667V68.3333C62.609 69.2533 61.8299 70 60.8699 70ZM20.8699 66.6667H59.1308V63.3333H20.8699V66.6667Z" fill="url(#paint9_linear_611_4514)"/>
</g>
<g id="Group_11">
<path id="Vector_11" d="M45.2171 56.6665H34.7823C34.1249 56.6665 33.5232 56.3098 33.2275 55.7465C32.9319 55.1798 32.9945 54.5065 33.391 53.9998L38.6084 47.3331C39.2623 46.4931 40.7336 46.4931 41.391 47.3331L46.6084 53.9998C47.0049 54.5031 47.0675 55.1798 46.7719 55.7431C46.4762 56.3098 45.8745 56.6665 45.2171 56.6665ZM38.2606 53.3331H41.7388L39.9997 51.1098L38.2606 53.3331Z" fill="url(#paint10_linear_611_4514)"/>
</g>
<g id="Group_12">
<path id="Vector_12" d="M33.0431 70H26.0866C25.1266 70 24.3475 69.2533 24.3475 68.3333V61.6667C24.3475 60.7467 25.1266 60 26.0866 60H33.0431C34.0031 60 34.7823 60.7467 34.7823 61.6667V68.3333C34.7823 69.2533 34.0031 70 33.0431 70ZM27.8257 66.6667H31.304V63.3333H27.8257V66.6667Z" fill="url(#paint11_linear_611_4514)"/>
</g>
<g id="Group_13">
<path id="Vector_13" d="M53.9134 70H46.9569C45.9969 70 45.2178 69.2533 45.2178 68.3333V61.6667C45.2178 60.7467 45.9969 60 46.9569 60H53.9134C54.8734 60 55.6526 60.7467 55.6526 61.6667V68.3333C55.6526 69.2533 54.8734 70 53.9134 70ZM48.696 66.6667H52.1743V63.3333H48.696V66.6667Z" fill="url(#paint12_linear_611_4514)"/>
</g>
<g id="Group_14">
<path id="Vector_14" d="M40.0008 70C39.0408 70 38.2617 69.2533 38.2617 68.3333V61.6667C38.2617 60.7467 39.0408 60 40.0008 60C40.9608 60 41.7399 60.7467 41.7399 61.6667V68.3333C41.7399 69.2533 40.9608 70 40.0008 70Z" fill="url(#paint13_linear_611_4514)"/>
</g>
<g id="Group_15">
<path id="Vector_15" d="M27.8257 40.0007C25.9092 40.0007 24.3475 38.504 24.3475 36.6673C24.3475 34.8307 25.9092 33.334 27.8257 33.334C29.7423 33.334 31.304 34.8307 31.304 36.6673C31.304 38.504 29.7423 40.0007 27.8257 40.0007ZM27.8257 36.664C27.8257 36.6673 27.8257 36.6673 27.8257 36.664V36.664Z" fill="url(#paint14_linear_611_4514)"/>
</g>
<g id="Group_16">
<path id="Vector_16" d="M52.1736 40.0007C50.2571 40.0007 48.6953 38.504 48.6953 36.6673C48.6953 34.8307 50.2571 33.334 52.1736 33.334C54.0901 33.334 55.6518 34.8307 55.6518 36.6673C55.6518 38.504 54.0901 40.0007 52.1736 40.0007ZM52.1736 36.664C52.1736 36.6673 52.1736 36.6673 52.1736 36.664V36.664Z" fill="url(#paint15_linear_611_4514)"/>
</g>
</g>
<defs>
<linearGradient id="paint0_linear_611_4514" x1="40" y1="16.666" x2="40" y2="79.9994" gradientUnits="userSpaceOnUse">
<stop stop-color="#888888"/>
<stop offset="1" stop-color="#888888" stop-opacity="0.5"/>
</linearGradient>
<linearGradient id="paint1_linear_611_4514" x1="6.95652" y1="33.334" x2="6.95652" y2="56.6673" gradientUnits="userSpaceOnUse">
<stop stop-color="#888888"/>
<stop offset="1" stop-color="#888888" stop-opacity="0.5"/>
</linearGradient>
<linearGradient id="paint2_linear_611_4514" x1="73.0425" y1="33.334" x2="73.0425" y2="56.6673" gradientUnits="userSpaceOnUse">
<stop stop-color="#888888"/>
<stop offset="1" stop-color="#888888" stop-opacity="0.5"/>
</linearGradient>
<linearGradient id="paint3_linear_611_4514" x1="5.21743" y1="6.66602" x2="5.21743" y2="36.666" gradientUnits="userSpaceOnUse">
<stop stop-color="#888888"/>
<stop offset="1" stop-color="#888888" stop-opacity="0.5"/>
</linearGradient>
<linearGradient id="paint4_linear_611_4514" x1="74.7821" y1="6.66602" x2="74.7821" y2="36.666" gradientUnits="userSpaceOnUse">
<stop stop-color="#888888"/>
<stop offset="1" stop-color="#888888" stop-opacity="0.5"/>
</linearGradient>
<linearGradient id="paint5_linear_611_4514" x1="5.21739" y1="0" x2="5.21739" y2="10" gradientUnits="userSpaceOnUse">
<stop stop-color="#888888"/>
<stop offset="1" stop-color="#888888" stop-opacity="0.5"/>
</linearGradient>
<linearGradient id="paint6_linear_611_4514" x1="74.7829" y1="0" x2="74.7829" y2="10" gradientUnits="userSpaceOnUse">
<stop stop-color="#888888"/>
<stop offset="1" stop-color="#888888" stop-opacity="0.5"/>
</linearGradient>
<linearGradient id="paint7_linear_611_4514" x1="27.8264" y1="26.666" x2="27.8264" y2="46.666" gradientUnits="userSpaceOnUse">
<stop stop-color="#888888"/>
<stop offset="1" stop-color="#888888" stop-opacity="0.5"/>
</linearGradient>
<linearGradient id="paint8_linear_611_4514" x1="52.1739" y1="26.666" x2="52.1739" y2="46.666" gradientUnits="userSpaceOnUse">
<stop stop-color="#888888"/>
<stop offset="1" stop-color="#888888" stop-opacity="0.5"/>
</linearGradient>
<linearGradient id="paint9_linear_611_4514" x1="40.0003" y1="60" x2="40.0003" y2="70" gradientUnits="userSpaceOnUse">
<stop stop-color="#888888"/>
<stop offset="1" stop-color="#888888" stop-opacity="0.5"/>
</linearGradient>
<linearGradient id="paint10_linear_611_4514" x1="39.9997" y1="46.7031" x2="39.9997" y2="56.6665" gradientUnits="userSpaceOnUse">
<stop stop-color="#888888"/>
<stop offset="1" stop-color="#888888" stop-opacity="0.5"/>
</linearGradient>
<linearGradient id="paint11_linear_611_4514" x1="29.5649" y1="60" x2="29.5649" y2="70" gradientUnits="userSpaceOnUse">
<stop stop-color="#888888"/>
<stop offset="1" stop-color="#888888" stop-opacity="0.5"/>
</linearGradient>
<linearGradient id="paint12_linear_611_4514" x1="50.4352" y1="60" x2="50.4352" y2="70" gradientUnits="userSpaceOnUse">
<stop stop-color="#888888"/>
<stop offset="1" stop-color="#888888" stop-opacity="0.5"/>
</linearGradient>
<linearGradient id="paint13_linear_611_4514" x1="40.0008" y1="60" x2="40.0008" y2="70" gradientUnits="userSpaceOnUse">
<stop stop-color="#888888"/>
<stop offset="1" stop-color="#888888" stop-opacity="0.5"/>
</linearGradient>
<linearGradient id="paint14_linear_611_4514" x1="27.8257" y1="33.334" x2="27.8257" y2="40.0007" gradientUnits="userSpaceOnUse">
<stop stop-color="#888888"/>
<stop offset="1" stop-color="#888888" stop-opacity="0.5"/>
</linearGradient>
<linearGradient id="paint15_linear_611_4514" x1="52.1736" y1="33.334" x2="52.1736" y2="40.0007" gradientUnits="userSpaceOnUse">
<stop stop-color="#888888"/>
<stop offset="1" stop-color="#888888" stop-opacity="0.5"/>
</linearGradient>
</defs>
</svg>
