<svg width="50" height="50" viewBox="0 0 50 50" fill="none" xmlns="http://www.w3.org/2000/svg">
<g clip-path="url(#clip0_1_6642)">
<path d="M15.625 35.4167C18.4958 35.4167 20.8333 33.0792 20.8333 30.2083C20.8333 29.1479 20.5104 28.1646 19.9646 27.3417L25.2562 22.05C26.0812 22.5937 27.0646 22.9167 28.125 22.9167C30.9958 22.9167 33.3333 20.5792 33.3333 17.7083C33.3333 17.225 33.2458 16.7667 33.1208 16.3208L38.6688 12.6229C39.625 13.8083 41.0708 14.5833 42.7083 14.5833C45.5792 14.5833 47.9167 12.2458 47.9167 9.375C47.9167 6.50417 45.5792 4.16667 42.7083 4.16667C39.8375 4.16667 37.5 6.50417 37.5 9.375C37.5 9.85833 37.5875 10.3167 37.7104 10.7604L32.1625 14.4583C31.2062 13.275 29.7604 12.5 28.125 12.5C25.2542 12.5 22.9167 14.8375 22.9167 17.7083C22.9167 18.7687 23.2396 19.7521 23.7854 20.575L18.4937 25.8667C17.6687 25.3229 16.6854 25 15.625 25C12.7542 25 10.4167 27.3375 10.4167 30.2083C10.4167 33.0792 12.7542 35.4167 15.625 35.4167ZM42.7083 6.25C44.4312 6.25 45.8333 7.65208 45.8333 9.375C45.8333 11.0979 44.4312 12.5 42.7083 12.5C40.9854 12.5 39.5833 11.0979 39.5833 9.375C39.5833 7.65208 40.9854 6.25 42.7083 6.25ZM28.125 14.5833C29.8479 14.5833 31.25 15.9854 31.25 17.7083C31.25 19.4312 29.8479 20.8333 28.125 20.8333C26.4021 20.8333 25 19.4312 25 17.7083C25 15.9854 26.4021 14.5833 28.125 14.5833ZM15.625 27.0833C17.3479 27.0833 18.75 28.4854 18.75 30.2083C18.75 31.9312 17.3479 33.3333 15.625 33.3333C13.9021 33.3333 12.5 31.9312 12.5 30.2083C12.5 28.4854 13.9021 27.0833 15.625 27.0833ZM48.9583 43.75H6.25V1.04167C6.25 0.466667 5.78333 0 5.20833 0C4.63333 0 4.16667 0.466667 4.16667 1.04167V43.75H1.04167C0.466667 43.75 0 44.2167 0 44.7917C0 45.3667 0.466667 45.8333 1.04167 45.8333H4.16667V48.9583C4.16667 49.5333 4.63333 50 5.20833 50C5.78333 50 6.25 49.5333 6.25 48.9583V45.8333H48.9583C49.5333 45.8333 50 45.3667 50 44.7917C50 44.2167 49.5333 43.75 48.9583 43.75ZM41.6667 17.7083V40.625C41.6667 41.2 42.1333 41.6667 42.7083 41.6667C43.2833 41.6667 43.75 41.2 43.75 40.625V17.7083C43.75 17.1333 43.2833 16.6667 42.7083 16.6667C42.1333 16.6667 41.6667 17.1333 41.6667 17.7083ZM14.5833 38.5417V40.625C14.5833 41.2 15.05 41.6667 15.625 41.6667C16.2 41.6667 16.6667 41.2 16.6667 40.625V38.5417C16.6667 37.9667 16.2 37.5 15.625 37.5C15.05 37.5 14.5833 37.9667 14.5833 38.5417ZM27.0833 26.0417V40.625C27.0833 41.2 27.55 41.6667 28.125 41.6667C28.7 41.6667 29.1667 41.2 29.1667 40.625V26.0417C29.1667 25.4667 28.7 25 28.125 25C27.55 25 27.0833 25.4667 27.0833 26.0417Z" fill="white"/>
</g>
<defs>
<clipPath id="clip0_1_6642">
<rect width="50" height="50" fill="white"/>
</clipPath>
</defs>
</svg>

