<svg width="80" height="80" viewBox="0 0 80 80" fill="none" xmlns="http://www.w3.org/2000/svg">
<g id="Group">
<g id="Group_2">
<path id="Vector" d="M25 56.6667C29.5933 56.6667 33.3333 52.9267 33.3333 48.3333C33.3333 46.6367 32.8167 45.0633 31.9433 43.7467L40.41 35.28C41.73 36.15 43.3033 36.6667 45 36.6667C49.5933 36.6667 53.3333 32.9267 53.3333 28.3333C53.3333 27.56 53.1933 26.8267 52.9933 26.1133L61.87 20.1967C63.4 22.0933 65.7133 23.3333 68.3333 23.3333C72.9267 23.3333 76.6667 19.5933 76.6667 15C76.6667 10.4067 72.9267 6.66667 68.3333 6.66667C63.74 6.66667 60 10.4067 60 15C60 15.7733 60.14 16.5067 60.3367 17.2167L51.46 23.1333C49.93 21.24 47.6167 20 45 20C40.4067 20 36.6667 23.74 36.6667 28.3333C36.6667 30.03 37.1833 31.6033 38.0567 32.92L29.59 41.3867C28.27 40.5167 26.6967 40 25 40C20.4067 40 16.6667 43.74 16.6667 48.3333C16.6667 52.9267 20.4067 56.6667 25 56.6667ZM68.3333 10C71.09 10 73.3333 12.2433 73.3333 15C73.3333 17.7567 71.09 20 68.3333 20C65.5767 20 63.3333 17.7567 63.3333 15C63.3333 12.2433 65.5767 10 68.3333 10ZM45 23.3333C47.7567 23.3333 50 25.5767 50 28.3333C50 31.09 47.7567 33.3333 45 33.3333C42.2433 33.3333 40 31.09 40 28.3333C40 25.5767 42.2433 23.3333 45 23.3333ZM25 43.3333C27.7567 43.3333 30 45.5767 30 48.3333C30 51.09 27.7567 53.3333 25 53.3333C22.2433 53.3333 20 51.09 20 48.3333C20 45.5767 22.2433 43.3333 25 43.3333ZM78.3333 70H10V1.66667C10 0.746667 9.25333 0 8.33333 0C7.41333 0 6.66667 0.746667 6.66667 1.66667V70H1.66667C0.746667 70 0 70.7467 0 71.6667C0 72.5867 0.746667 73.3333 1.66667 73.3333H6.66667V78.3333C6.66667 79.2533 7.41333 80 8.33333 80C9.25333 80 10 79.2533 10 78.3333V73.3333H78.3333C79.2533 73.3333 80 72.5867 80 71.6667C80 70.7467 79.2533 70 78.3333 70ZM66.6667 28.3333V65C66.6667 65.92 67.4133 66.6667 68.3333 66.6667C69.2533 66.6667 70 65.92 70 65V28.3333C70 27.4133 69.2533 26.6667 68.3333 26.6667C67.4133 26.6667 66.6667 27.4133 66.6667 28.3333ZM23.3333 61.6667V65C23.3333 65.92 24.08 66.6667 25 66.6667C25.92 66.6667 26.6667 65.92 26.6667 65V61.6667C26.6667 60.7467 25.92 60 25 60C24.08 60 23.3333 60.7467 23.3333 61.6667ZM43.3333 41.6667V65C43.3333 65.92 44.08 66.6667 45 66.6667C45.92 66.6667 46.6667 65.92 46.6667 65V41.6667C46.6667 40.7467 45.92 40 45 40C44.08 40 43.3333 40.7467 43.3333 41.6667Z" fill="url(#paint0_linear_823_3838)"/>
</g>
</g>
<defs>
<linearGradient id="paint0_linear_823_3838" x1="40" y1="0" x2="40" y2="80" gradientUnits="userSpaceOnUse">
<stop stop-color="#888888"/>
<stop offset="1" stop-color="#888888" stop-opacity="0.5"/>
</linearGradient>
</defs>
</svg>
