<svg width="60" height="80" viewBox="0 0 60 80" fill="none" xmlns="http://www.w3.org/2000/svg">
<g id="Group">
<g id="Group_2">
<g id="Group_3">
<path id="Vector" d="M1.66667 80C1.45333 80 1.23333 79.96 1.03 79.8733C0.406667 79.6167 0 79.0067 0 78.3333V11.6667C0 5.23333 5.23333 0 11.6667 0H48.3333C49.2533 0 50 0.746667 50 1.66667C50 2.58667 49.2533 3.33333 48.3333 3.33333C45.5767 3.33333 43.3333 5.57667 43.3333 8.33333V15C43.3333 15.92 42.5867 16.6667 41.6667 16.6667C40.7467 16.6667 40 15.92 40 15V8.33333C40 6.45667 40.6233 4.72667 41.67 3.33333H11.6667C7.07 3.33333 3.33333 7.07333 3.33333 11.6667V74.31L20.4867 57.1567C21.1367 56.51 22.1867 56.5067 22.8367 57.15C32.0167 66.2067 37.16 71.28 39.9967 74.2267V61.6667C39.9967 60.7467 40.7433 60 41.6633 60C42.5833 60 43.33 60.7467 43.33 61.6667L43.32 78.3333C43.3667 78.58 43.2933 78.7533 43.2067 78.9633C42.9067 79.7 42.1367 80.12 41.34 79.9667C40.89 79.88 40.5133 79.6167 40.2767 79.2567C39.1867 78.0233 29.0367 67.9533 21.67 60.6833L2.84333 79.5133C2.52667 79.83 2.1 80 1.66667 80Z" fill="url(#paint0_linear_326_2375)"/>
</g>
<g id="Group_4">
<path id="Vector_2" d="M55 13.3333H41.6667C40.7467 13.3333 40 12.5867 40 11.6667C40 10.7467 40.7467 10 41.6667 10H53.3333V8.33333C53.3333 5.57667 51.09 3.33333 48.3333 3.33333C47.4133 3.33333 46.6667 2.58667 46.6667 1.66667C46.6667 0.746667 47.4133 0 48.3333 0C52.93 0 56.6667 3.74 56.6667 8.33333V11.6667C56.6667 12.5867 55.92 13.3333 55 13.3333Z" fill="url(#paint1_linear_326_2375)"/>
</g>
</g>
<g id="Group_5">
<g id="Group_6">
<g id="Group_7">
<g id="Group_8">
<path id="Vector_3" d="M44.933 56.3367C44.583 56.3367 44.233 56.2234 43.943 56.0101C43.5663 55.7334 43.323 55.3101 43.2763 54.8434C43.1863 53.9834 42.493 53.3334 41.6663 53.3334C40.8397 53.3334 40.1463 53.9834 40.0563 54.8467C40.0063 55.3134 39.7663 55.7367 39.3897 56.0134C39.013 56.2901 38.533 56.4067 38.073 56.3067C34.1663 55.5301 30.663 53.4834 27.9463 50.3934C27.6397 50.0467 27.493 49.5834 27.543 49.1234C27.5897 48.6634 27.8263 48.2401 28.1963 47.9601C28.883 47.4401 29.0897 46.5467 28.6763 45.8334C28.2697 45.1234 27.3863 44.8567 26.5997 45.1901C26.173 45.3701 25.6897 45.3667 25.2697 45.1767C24.8463 44.9867 24.5197 44.6301 24.3697 44.1934C23.673 42.1334 23.333 40.2167 23.333 38.3334C23.333 36.4501 23.673 34.5334 24.3697 32.4801C24.5197 32.0401 24.8463 31.6834 25.2697 31.4967C25.6897 31.3067 26.173 31.3001 26.5997 31.4834C27.3963 31.8301 28.2697 31.5501 28.6797 30.8367C29.0897 30.1267 28.8863 29.2334 28.1963 28.7134C27.8263 28.4334 27.5863 28.0134 27.543 27.5501C27.493 27.0901 27.6397 26.6301 27.9463 26.2801C30.663 23.1867 34.1663 21.1434 38.073 20.3667C38.5263 20.2634 39.0097 20.3801 39.3897 20.6601C39.7663 20.9367 40.0097 21.3601 40.0563 21.8267C40.1463 22.6834 40.8397 23.3334 41.6663 23.3334C42.493 23.3334 43.1863 22.6834 43.2763 21.8201C43.3263 21.3534 43.5663 20.9301 43.943 20.6534C44.3197 20.3767 44.803 20.2601 45.2597 20.3601C49.1663 21.1367 52.6697 23.1834 55.3863 26.2734C55.693 26.6201 55.8397 27.0834 55.7897 27.5434C55.743 28.0034 55.5063 28.4267 55.1363 28.7067C54.4497 29.2267 54.243 30.1201 54.6563 30.8334C55.0663 31.5467 55.9563 31.8167 56.733 31.4767C57.1597 31.2967 57.643 31.3001 58.063 31.4901C58.4863 31.6801 58.813 32.0367 58.963 32.4734C59.6597 34.5334 59.9997 36.4501 59.9997 38.3334C59.9997 40.2167 59.6597 42.1334 58.963 44.1867C58.813 44.6267 58.4863 44.9834 58.063 45.1701C57.643 45.3601 57.1597 45.3667 56.733 45.1834C55.943 44.8467 55.0663 45.1201 54.653 45.8301C54.2463 46.5434 54.4463 47.4367 55.1363 47.9534C55.5063 48.2334 55.7463 48.6534 55.7897 49.1167C55.8397 49.5767 55.693 50.0367 55.3863 50.3867C52.6697 53.4801 49.1663 55.5234 45.2597 56.3001C45.153 56.3267 45.043 56.3367 44.933 56.3367ZM41.6663 50.0001C43.553 50.0001 45.2097 51.0701 46.043 52.6734C48.203 52.0067 50.1797 50.8434 51.8697 49.2401C50.9297 47.7201 50.8397 45.7701 51.7663 44.1667L51.7697 44.1634C52.6997 42.5567 54.4263 41.6967 56.223 41.7167C56.5197 40.5434 56.6663 39.4234 56.6663 38.3334C56.6663 37.2434 56.5197 36.1234 56.223 34.9501C54.413 35.0201 52.6997 34.1134 51.7697 32.5034C50.843 30.8967 50.9297 28.9467 51.8697 27.4267C50.1797 25.8267 48.203 24.6601 46.043 23.9934C45.2097 25.5967 43.553 26.6667 41.6663 26.6667C39.7797 26.6667 38.123 25.5967 37.2897 23.9934C35.1297 24.6601 33.153 25.8234 31.463 27.4267C32.403 28.9467 32.493 30.8967 31.5663 32.5001C30.633 34.1101 28.8763 35.0367 27.1097 34.9501C26.813 36.1234 26.6663 37.2434 26.6663 38.3334C26.6663 39.4234 26.813 40.5434 27.1097 41.7167C28.863 41.6834 30.633 42.5567 31.563 44.1634C32.4897 45.7701 32.403 47.7201 31.463 49.2401C33.153 50.8401 35.1297 52.0067 37.2897 52.6734C38.123 51.0701 39.7797 50.0001 41.6663 50.0001Z" fill="url(#paint2_linear_326_2375)"/>
</g>
</g>
</g>
<g id="Group_9">
<path id="Vector_4" d="M41.6663 46.6667C37.0697 46.6667 33.333 42.9267 33.333 38.3333C33.333 33.74 37.0697 30 41.6663 30C46.263 30 49.9997 33.74 49.9997 38.3333C49.9997 42.9267 46.263 46.6667 41.6663 46.6667ZM41.6663 33.3333C38.9097 33.3333 36.6663 35.5767 36.6663 38.3333C36.6663 41.09 38.9097 43.3333 41.6663 43.3333C44.423 43.3333 46.6663 41.09 46.6663 38.3333C46.6663 35.5767 44.423 33.3333 41.6663 33.3333Z" fill="url(#paint3_linear_326_2375)"/>
</g>
</g>
</g>
<defs>
<linearGradient id="paint0_linear_326_2375" x1="25" y1="0" x2="25" y2="80" gradientUnits="userSpaceOnUse">
<stop stop-color="#888888"/>
<stop offset="1" stop-color="#888888" stop-opacity="0.5"/>
</linearGradient>
<linearGradient id="paint1_linear_326_2375" x1="48.3333" y1="0" x2="48.3333" y2="13.3333" gradientUnits="userSpaceOnUse">
<stop stop-color="#888888"/>
<stop offset="1" stop-color="#888888" stop-opacity="0.5"/>
</linearGradient>
<linearGradient id="paint2_linear_326_2375" x1="41.6663" y1="20.3247" x2="41.6663" y2="56.3421" gradientUnits="userSpaceOnUse">
<stop stop-color="#888888"/>
<stop offset="1" stop-color="#888888" stop-opacity="0.5"/>
</linearGradient>
<linearGradient id="paint3_linear_326_2375" x1="41.6663" y1="30" x2="41.6663" y2="46.6667" gradientUnits="userSpaceOnUse">
<stop stop-color="#888888"/>
<stop offset="1" stop-color="#888888" stop-opacity="0.5"/>
</linearGradient>
</defs>
</svg>
