<svg width="40" height="40" viewBox="0 0 80 60" fill="none" xmlns="http://www.w3.org/2000/svg">
<g id="Group">
<path id="Vector" d="M49.18 44.4733L39.9967 42.18L39.3167 39.4567C41.75 36.97 43.43 33.6367 43.99 30.1967C45.42 29.6833 46.5033 28.4 46.7033 26.8167L47.32 21.89C47.4667 20.7233 47.1067 19.55 46.3367 18.6667C45.9567 18.23 45.4933 17.8833 44.98 17.6433L45.1867 13.4767L45.9967 12.6633C47.4933 11.0733 48.7367 8.35667 46.1767 4.45C44.2433 1.49667 40.9833 0 36.48 0C34.7433 0 30.76 3.97364e-07 27.0067 2.47333C16.1867 2.74333 14.7833 8.09333 14.7833 12.7533C14.7833 13.8133 15.0167 16.0333 15.1933 17.5633C14.62 17.8033 14.1033 18.1667 13.6833 18.6433C12.8967 19.53 12.5333 20.7133 12.68 21.89L13.2967 26.8167C13.5067 28.51 14.73 29.86 16.3067 30.29C16.8633 33.5867 18.4567 36.8033 20.74 39.2333L20.0033 42.18L10.82 44.4733C4.44667 46.0633 0 51.7633 0 58.3333C0 58.7767 0.173333 59.2033 0.486667 59.5133C0.8 59.8233 1.22667 60 1.66667 60L58.3333 59.9933C59.2533 59.9933 60 59.2467 60 58.3267C60 51.7633 55.5533 46.0633 49.18 44.4733ZM3.46 56.66C4.11667 52.3533 7.29 48.79 11.63 47.7067L21.7833 45.17C22.38 45.02 22.85 44.5533 22.9967 43.9567L24.2033 39.1233C24.3533 38.5367 24.1667 37.9167 23.7267 37.5033C21.3167 35.2433 19.72 31.9267 19.4567 28.6367C19.3867 27.77 18.6633 27.1033 17.7933 27.1033H17.3933C16.9933 27.1033 16.6533 26.8033 16.6033 26.4067L15.9867 21.48C15.9467 21.17 16.09 20.9533 16.18 20.8533C16.27 20.7533 16.4667 20.5833 17.0333 20.5833C17.5133 20.5833 17.9667 20.38 18.2833 20.02C18.6 19.6633 18.7467 19.1833 18.6867 18.71C18.53 17.4567 18.1167 13.94 18.1167 12.76C18.1167 9.7 18.1167 5.89667 27.5533 5.80333C27.8933 5.8 28.23 5.69333 28.5067 5.49333C31.16 3.59667 34.0267 3.34 36.4833 3.34C39.79 3.34 42.1133 4.33 43.39 6.28333C44.85 8.51333 44.3 9.61 43.6033 10.35L42.3733 11.5833C42.08 11.8767 41.9067 12.2667 41.8867 12.68L41.5867 18.8467C41.5667 19.3 41.73 19.74 42.04 20.07C42.3467 20.4 42.78 20.59 43.2333 20.5933C43.5467 20.5967 43.74 20.7667 43.8267 20.8667C43.9133 20.9667 44.0533 21.1767 44.0167 21.4833L43.4 26.41C43.35 26.8067 43.01 27.1067 42.49 27.1067C41.62 27.1067 40.8967 27.7733 40.8267 28.64C40.5567 32.0333 38.8867 35.4133 36.3533 37.6833C35.8933 38.0933 35.7 38.7267 35.85 39.3267L37.0067 43.9567C37.1567 44.5533 37.6233 45.0233 38.22 45.17L48.3733 47.7067C52.7067 48.79 55.88 52.3567 56.54 56.6667L3.46 56.66ZM69.1833 44.47L60 42.1767L59.6267 40.7033C65.9133 39.5767 69.1767 37.68 69.3233 37.5933C69.7933 37.3167 70.0867 36.8167 70.1267 36.2733C70.1667 35.73 69.9233 35.19 69.5 34.8467C69.4567 34.8133 65.2167 31.24 65.2167 18.9167C65.2167 8 62.5833 2.46667 57.39 2.46667H56.8333C55.0467 0.783333 53.5867 0.0599998 50.3567 0.0133332H50.3333C49.7133 0.0133332 49.1567 0.373333 48.87 0.923333C48.58 1.48 48.6367 2.17333 49.0033 2.68333C49.3767 3.21 49.9967 3.44667 50.5833 3.35C52.9667 3.41667 53.5667 3.9 54.9767 5.31C55.29 5.62 55.7133 5.79667 56.1567 5.79667H57.39C60.2467 5.79667 61.8833 10.58 61.8833 18.9133C61.8833 28.2133 64.1033 33.1733 65.76 35.5767C64.0733 36.2433 61.25 37.1433 57.34 37.6933C56.8733 37.7567 56.4533 38.02 56.19 38.41C55.9267 38.8033 55.84 39.2867 55.9567 39.7467L57.0067 43.9567C57.1567 44.5533 57.6233 45.0233 58.22 45.17L68.3733 47.7067C72.7067 48.79 75.88 52.3567 76.54 56.6667H65V60L78.3333 59.9933C79.2533 59.9933 80 59.2467 80 58.3267C80 51.7633 75.5533 46.0633 69.1833 44.47Z" fill="url(#paint0_linear_611_4582)"/>
</g>
<defs>
<linearGradient id="paint0_linear_611_4582" x1="40" y1="0" x2="40" y2="60" gradientUnits="userSpaceOnUse">
<stop stop-color="#FFFFFF"/>
<stop offset="1" stop-color="#FFFFFF"/>
</linearGradient>
</defs>
</svg>
