<svg width="80" height="60" viewBox="0 0 80 60" fill="none" xmlns="http://www.w3.org/2000/svg">
<g id="Group">
<g id="Group_2">
<path id="Vector" d="M18.3333 59.9997C8.22667 59.9997 0 51.7763 0 41.6663C0 31.5563 8.22667 23.333 18.3333 23.333C28.44 23.333 36.6667 31.5563 36.6667 41.6663C36.6667 51.7763 28.44 59.9997 18.3333 59.9997ZM18.3333 26.6663C10.0633 26.6663 3.33333 33.3963 3.33333 41.6663C3.33333 49.9363 10.0633 56.6663 18.3333 56.6663C26.6033 56.6663 33.3333 49.9363 33.3333 41.6663C33.3333 33.3963 26.6033 26.6663 18.3333 26.6663Z" fill="url(#paint0_linear_823_2352)"/>
</g>
<path id="Vector_2" d="M15 50.0001C14.5733 50.0001 14.1467 49.8368 13.82 49.5134L7.15333 42.8468C6.50333 42.1968 6.50333 41.1401 7.15333 40.4901C7.80333 39.8401 8.86 39.8401 9.51 40.4901L15 45.9768L27.1533 33.8234C27.8033 33.1734 28.86 33.1734 29.51 33.8234C30.16 34.4734 30.16 35.5301 29.51 36.1801L16.1767 49.5134C15.8533 49.8368 15.4267 50.0001 15 50.0001Z" fill="url(#paint1_linear_823_2352)"/>
<g id="Group_3">
<g id="Group_4">
<path id="Vector_3" d="M71.6667 43.3333H41.6667C40.7467 43.3333 40 42.5867 40 41.6667C40 40.7467 40.7467 40 41.6667 40H71.6667C74.4233 40 76.6667 37.7567 76.6667 35V8.33333C76.6667 5.57667 74.4233 3.33333 71.6667 3.33333H25C22.2433 3.33333 20 5.57667 20 8.33333V18.3333C20 19.2533 19.2533 20 18.3333 20C17.4133 20 16.6667 19.2533 16.6667 18.3333V8.33333C16.6667 3.74 20.4033 0 25 0H71.6667C76.2633 0 80 3.74 80 8.33333V35C80 39.5933 76.2633 43.3333 71.6667 43.3333Z" fill="url(#paint2_linear_823_2352)"/>
</g>
<path id="Vector_4" d="M56.6667 33.3333C52.99 33.3333 50 30.3433 50 26.6667C50 22.99 52.99 20 56.6667 20C58.3 20 59.88 20.6133 61.1167 21.7267C61.4633 22.0433 61.6667 22.4933 61.6667 22.9667C61.6667 23.44 61.4633 23.89 61.1167 24.2067C60.3967 24.85 60 25.7267 60 26.6667C60 27.6067 60.3967 28.4833 61.1167 29.13C61.4633 29.4467 61.6667 29.8967 61.6667 30.37C61.6667 30.8433 61.4633 31.2933 61.1167 31.61C59.88 32.72 58.3 33.3333 56.6667 33.3333ZM56.6667 23.3333C54.8267 23.3333 53.3333 24.83 53.3333 26.6667C53.3333 28.79 55.48 30.4467 57.51 29.8867C56.9633 28.9067 56.6667 27.8 56.6667 26.6667C56.6667 25.5333 56.9633 24.4267 57.51 23.4467C57.2367 23.3733 56.9533 23.3333 56.6667 23.3333Z" fill="url(#paint3_linear_823_2352)"/>
<path id="Vector_5" d="M63.3333 33.3333C59.6567 33.3333 56.6667 30.3433 56.6667 26.6667C56.6667 22.99 59.6567 20 63.3333 20C67.01 20 70 22.99 70 26.6667C70 30.3433 67.01 33.3333 63.3333 33.3333ZM63.3333 23.3333C61.4933 23.3333 60 24.83 60 26.6667C60 28.5033 61.4933 30 63.3333 30C65.1733 30 66.6667 28.5033 66.6667 26.6667C66.6667 24.83 65.1733 23.3333 63.3333 23.3333Z" fill="url(#paint4_linear_823_2352)"/>
<path id="Vector_6" d="M31.6667 13.3333H28.3333C27.4133 13.3333 26.6667 12.5867 26.6667 11.6667C26.6667 10.7467 27.4133 10 28.3333 10H31.6667C32.5867 10 33.3333 10.7467 33.3333 11.6667C33.3333 12.5867 32.5867 13.3333 31.6667 13.3333Z" fill="url(#paint5_linear_823_2352)"/>
<path id="Vector_7" d="M41.6667 13.3333H38.3333C37.4133 13.3333 36.6667 12.5867 36.6667 11.6667C36.6667 10.7467 37.4133 10 38.3333 10H41.6667C42.5867 10 43.3333 10.7467 43.3333 11.6667C43.3333 12.5867 42.5867 13.3333 41.6667 13.3333Z" fill="url(#paint6_linear_823_2352)"/>
<path id="Vector_8" d="M51.6667 13.3333H48.3333C47.4133 13.3333 46.6667 12.5867 46.6667 11.6667C46.6667 10.7467 47.4133 10 48.3333 10H51.6667C52.5867 10 53.3333 10.7467 53.3333 11.6667C53.3333 12.5867 52.5867 13.3333 51.6667 13.3333Z" fill="url(#paint7_linear_823_2352)"/>
<path id="Vector_9" d="M61.6667 13.3333H58.3333C57.4133 13.3333 56.6667 12.5867 56.6667 11.6667C56.6667 10.7467 57.4133 10 58.3333 10H61.6667C62.5867 10 63.3333 10.7467 63.3333 11.6667C63.3333 12.5867 62.5867 13.3333 61.6667 13.3333Z" fill="url(#paint8_linear_823_2352)"/>
<path id="Vector_10" d="M45 23.3333H31.6667C30.7467 23.3333 30 22.5867 30 21.6667C30 20.7467 30.7467 20 31.6667 20H45C45.92 20 46.6667 20.7467 46.6667 21.6667C46.6667 22.5867 45.92 23.3333 45 23.3333Z" fill="url(#paint9_linear_823_2352)"/>
<path id="Vector_11" d="M45 33.3333H41.6667C40.7467 33.3333 40 32.5867 40 31.6667C40 30.7467 40.7467 30 41.6667 30H45C45.92 30 46.6667 30.7467 46.6667 31.6667C46.6667 32.5867 45.92 33.3333 45 33.3333Z" fill="url(#paint10_linear_823_2352)"/>
</g>
</g>
<defs>
<linearGradient id="paint0_linear_823_2352" x1="18.3333" y1="23.333" x2="18.3333" y2="59.9997" gradientUnits="userSpaceOnUse">
<stop stop-color="#888888"/>
<stop offset="1" stop-color="#888888" stop-opacity="0.5"/>
</linearGradient>
<linearGradient id="paint1_linear_823_2352" x1="18.3317" y1="33.3359" x2="18.3317" y2="50.0001" gradientUnits="userSpaceOnUse">
<stop stop-color="#888888"/>
<stop offset="1" stop-color="#888888" stop-opacity="0.5"/>
</linearGradient>
<linearGradient id="paint2_linear_823_2352" x1="48.3333" y1="0" x2="48.3333" y2="43.3333" gradientUnits="userSpaceOnUse">
<stop stop-color="#888888"/>
<stop offset="1" stop-color="#888888" stop-opacity="0.5"/>
</linearGradient>
<linearGradient id="paint3_linear_823_2352" x1="55.8333" y1="20" x2="55.8333" y2="33.3333" gradientUnits="userSpaceOnUse">
<stop stop-color="#888888"/>
<stop offset="1" stop-color="#888888" stop-opacity="0.5"/>
</linearGradient>
<linearGradient id="paint4_linear_823_2352" x1="63.3333" y1="20" x2="63.3333" y2="33.3333" gradientUnits="userSpaceOnUse">
<stop stop-color="#888888"/>
<stop offset="1" stop-color="#888888" stop-opacity="0.5"/>
</linearGradient>
<linearGradient id="paint5_linear_823_2352" x1="30" y1="10" x2="30" y2="13.3333" gradientUnits="userSpaceOnUse">
<stop stop-color="#888888"/>
<stop offset="1" stop-color="#888888" stop-opacity="0.5"/>
</linearGradient>
<linearGradient id="paint6_linear_823_2352" x1="40" y1="10" x2="40" y2="13.3333" gradientUnits="userSpaceOnUse">
<stop stop-color="#888888"/>
<stop offset="1" stop-color="#888888" stop-opacity="0.5"/>
</linearGradient>
<linearGradient id="paint7_linear_823_2352" x1="50" y1="10" x2="50" y2="13.3333" gradientUnits="userSpaceOnUse">
<stop stop-color="#888888"/>
<stop offset="1" stop-color="#888888" stop-opacity="0.5"/>
</linearGradient>
<linearGradient id="paint8_linear_823_2352" x1="60" y1="10" x2="60" y2="13.3333" gradientUnits="userSpaceOnUse">
<stop stop-color="#888888"/>
<stop offset="1" stop-color="#888888" stop-opacity="0.5"/>
</linearGradient>
<linearGradient id="paint9_linear_823_2352" x1="38.3333" y1="20" x2="38.3333" y2="23.3333" gradientUnits="userSpaceOnUse">
<stop stop-color="#888888"/>
<stop offset="1" stop-color="#888888" stop-opacity="0.5"/>
</linearGradient>
<linearGradient id="paint10_linear_823_2352" x1="43.3333" y1="30" x2="43.3333" y2="33.3333" gradientUnits="userSpaceOnUse">
<stop stop-color="#888888"/>
<stop offset="1" stop-color="#888888" stop-opacity="0.5"/>
</linearGradient>
</defs>
</svg>
