<svg width="80" height="80" viewBox="0 0 80 80" fill="none" xmlns="http://www.w3.org/2000/svg">
<g id="Group">
<g id="Group_2">
<path id="Vector" d="M23.3594 50C23.786 50 24.2127 49.8367 24.536 49.5133C25.186 48.8633 25.186 47.8067 24.536 47.1567L17.8694 40.49C17.2194 39.84 16.1627 39.84 15.5127 40.49C14.8627 41.14 14.8627 42.1967 15.5127 42.8467L22.1794 49.5133C22.506 49.8367 22.9327 50 23.3594 50ZM36.6994 34.9967C36.6994 30.8167 33.8694 27.1933 29.816 26.18L24.8127 24.93L24.6027 24.0933C25.8994 22.66 26.8227 20.83 27.206 18.93C28.096 18.47 28.7394 17.5967 28.8727 16.5467L29.2327 13.6467C29.3427 12.7667 29.0727 11.88 28.4894 11.2133C28.3094 11.01 28.1027 10.83 27.8827 10.68L27.966 8.91L28.2694 8.60667C29.1294 7.69333 30.2927 5.74333 28.4527 2.93C27.5794 1.59333 25.7794 0 22.1727 0C21.1094 0 18.7127 0 16.386 1.45667C9.52605 1.7 8.71938 5.39667 8.71938 8.18667C8.71938 8.73667 8.81938 9.76667 8.91271 10.6267C8.66605 10.7833 8.43938 10.9767 8.24271 11.2C7.64938 11.8733 7.37605 12.7633 7.48938 13.6467L7.84938 16.5467C7.98605 17.6333 8.67605 18.5333 9.69271 18.9767C10.066 20.7933 10.9394 22.5533 12.156 23.95L11.9127 24.93L6.90938 26.18C2.85938 27.1933 0.0260468 30.82 0.0260468 35C0.0260468 35.4433 0.19938 35.87 0.512713 36.18C0.826047 36.49 1.24938 36.6667 1.69271 36.6667L35.0327 36.6633C35.9527 36.6633 36.6994 35.9167 36.6994 34.9967ZM3.60271 33.33C4.17605 31.43 5.71271 29.9167 7.72605 29.41L13.6994 27.9167C14.296 27.7667 14.7627 27.3 14.9127 26.7033L15.6227 23.86C15.7694 23.2733 15.586 22.6533 15.1427 22.24C13.846 21.02 12.986 19.2367 12.846 17.47C12.776 16.6067 12.036 16.1267 11.166 16.1267L10.736 13.4733C11.216 13.4733 11.6694 13.27 11.986 12.91C12.3027 12.5533 12.4494 12.0767 12.3894 11.6C12.2627 10.5933 12.0594 8.77333 12.0594 8.18667C12.0594 6.46 12.0594 4.83 16.9327 4.78C17.2727 4.77667 17.606 4.67 17.886 4.47C19.4727 3.33333 21.2994 3.33333 22.176 3.33333C23.8994 3.33333 25.0394 3.79667 25.666 4.75333C26.3427 5.79 26.066 6.08333 25.8794 6.28667L25.156 7.01C24.8627 7.30333 24.6894 7.69333 24.6694 8.10667L24.4927 11.7333C24.4727 12.1867 24.526 12.5033 24.836 12.8333C25.1494 13.1633 25.4694 13.23 25.9227 13.2333L25.7094 15.9433C24.8394 15.9433 24.1194 16.61 24.0494 17.4767C23.9027 19.2733 22.9794 21.1367 21.6394 22.34C21.1827 22.75 20.986 23.3833 21.136 23.9833L21.816 26.7067C21.966 27.3033 22.4294 27.7733 23.0294 27.92L29.0027 29.4133C31.0094 29.9167 32.5427 31.43 33.116 33.3333L3.60271 33.33ZM73.076 26.1733L68.0727 24.9233L67.8627 24.0867C69.1594 22.6533 70.0827 20.8267 70.4627 18.9267C71.3527 18.47 71.9994 17.5933 72.1327 16.5433L72.4927 13.6433C72.6027 12.7667 72.3327 11.88 71.7494 11.2133C71.566 11.0067 71.3594 10.8267 71.1394 10.6767L71.2227 8.91L71.5294 8.60333C72.3894 7.69 73.5527 5.74 71.7094 2.92667C70.8327 1.59333 69.036 0 65.4327 0C64.3727 0 61.976 0 59.6494 1.45667C52.7894 1.7 51.9827 5.39667 51.9827 8.18667C51.9827 8.73667 52.0827 9.76667 52.176 10.6267C51.9294 10.7833 51.706 10.9733 51.5094 11.1967C50.916 11.8633 50.6394 12.7567 50.7494 13.6467L51.1127 16.5467C51.2494 17.6333 51.9394 18.5333 52.956 18.9767C53.3294 20.7933 54.1994 22.5533 55.416 23.95L55.1727 24.93L50.1694 26.18C46.1194 27.1933 43.2894 30.82 43.2894 35C43.2894 35.4433 43.4627 35.87 43.7761 36.18C44.0894 36.49 44.5127 36.6667 44.9561 36.6667L78.2927 36.6567C79.2127 36.6567 79.9594 35.91 79.9594 34.99C79.9594 30.81 77.1294 27.1867 73.076 26.1733ZM46.8661 33.33C47.4394 31.43 48.9727 29.9167 50.9794 29.41L56.9527 27.9167C57.5494 27.77 58.016 27.3033 58.166 26.7067L58.8794 23.8633C59.0261 23.2767 58.8427 22.6567 58.3994 22.2433C57.1027 21.0267 56.246 19.2433 56.1027 17.4733C56.0327 16.6067 55.2927 16.1267 54.4227 16.1267L53.9927 13.4733C54.4727 13.4733 54.9261 13.27 55.2427 12.91C55.5594 12.5533 55.706 12.0767 55.646 11.6C55.5194 10.5933 55.316 8.77333 55.316 8.18667C55.316 6.46 55.316 4.83 60.1894 4.78C60.5294 4.77667 60.8627 4.67 61.1427 4.47C62.7294 3.33333 64.556 3.33333 65.4327 3.33333C67.9927 3.33333 68.6927 4.40333 68.926 4.75333C69.6027 5.79 69.326 6.08333 69.1394 6.28333L68.4127 7.00667C68.1194 7.3 67.946 7.69333 67.926 8.10667L67.7494 11.7333C67.7294 12.1867 67.7827 12.5033 68.096 12.8333C68.4061 13.1633 68.7294 13.23 69.1827 13.2333L68.966 15.9433C68.096 15.9433 67.3761 16.6133 67.3061 17.48C67.1627 19.2733 66.2394 21.1367 64.8994 22.34C64.4427 22.75 64.246 23.3833 64.396 23.9833L65.076 26.7067C65.2261 27.3033 65.6894 27.7733 66.2894 27.92L72.2627 29.4133C74.2694 29.9167 75.8027 31.43 76.3761 33.3333L46.8661 33.33ZM60.5127 40.49L53.8461 47.1567C53.196 47.8067 53.196 48.8633 53.8461 49.5133C54.1727 49.8367 54.5994 50 55.0261 50C55.4527 50 55.8794 49.8367 56.2027 49.5133L62.8694 42.8467C63.5194 42.1967 63.5194 41.14 62.8694 40.49C62.2194 39.84 61.1627 39.84 60.5127 40.49ZM49.816 69.5133L44.8127 68.2633L44.6027 67.4267C45.8994 65.9933 46.8227 64.1633 47.206 62.2633C48.096 61.8033 48.7394 60.93 48.8727 59.88L49.2327 56.98C49.3427 56.1 49.0727 55.2133 48.4894 54.5467C48.3094 54.3433 48.1027 54.1633 47.8827 54.0133L47.966 52.2433L48.2694 51.94C49.1294 51.0267 50.2927 49.0767 48.4527 46.2633C47.5794 44.9267 45.7794 43.3333 42.1727 43.3333C41.1094 43.3333 38.7127 43.3333 36.386 44.79C29.526 45.0333 28.7194 48.73 28.7194 51.52C28.7194 52.07 28.8194 53.1 28.9127 53.96C28.666 54.1167 28.4394 54.31 28.2427 54.5333C27.6494 55.2067 27.376 56.0967 27.4894 56.98L27.8494 59.88C27.986 60.9667 28.676 61.8667 29.6927 62.31C30.066 64.1267 30.9394 65.8867 32.156 67.2833L31.9127 68.2633L26.9094 69.5133C22.8594 70.5267 20.026 74.1533 20.026 78.3333C20.026 78.7767 20.1994 79.2033 20.5127 79.5133C20.826 79.8233 21.2494 80 21.6927 80L55.0327 79.9967C55.9527 79.9967 56.6994 79.25 56.6994 78.33C56.6994 74.15 53.8694 70.5267 49.816 69.5133ZM23.6027 76.6633C24.176 74.7633 25.7127 73.25 27.726 72.7433L33.6994 71.25C34.2961 71.1 34.7627 70.6333 34.9127 70.0367L35.6227 67.1933C35.7694 66.6067 35.586 65.9867 35.1427 65.5733C33.846 64.3533 32.986 62.57 32.846 60.8033C32.776 59.94 32.036 59.46 31.166 59.46L30.736 56.8067C31.216 56.8067 31.6694 56.6033 31.986 56.2433C32.3027 55.8867 32.4494 55.41 32.3894 54.9333C32.2627 53.9267 32.0594 52.1067 32.0594 51.52C32.0594 49.7933 32.0594 48.1633 36.9327 48.1133C37.2727 48.11 37.606 48.0033 37.886 47.8033C39.4727 46.6667 41.2994 46.6667 42.176 46.6667C43.8994 46.6667 45.0394 47.13 45.666 48.0867C46.3427 49.1233 46.066 49.4167 45.8794 49.62L45.156 50.3433C44.8627 50.6367 44.6894 51.0267 44.6694 51.44L44.4927 55.0667C44.4727 55.52 44.526 55.8367 44.836 56.1667C45.1494 56.4967 45.4694 56.5633 45.9227 56.5667L45.7094 59.2767C44.8394 59.2767 44.1194 59.9433 44.0494 60.81C43.9027 62.6067 42.9794 64.47 41.6394 65.6733C41.1827 66.0833 40.986 66.7167 41.1361 67.3167L41.816 70.04C41.966 70.6367 42.4294 71.1067 43.0294 71.2533L49.0027 72.7467C51.0094 73.25 52.5427 74.7633 53.1161 76.6667L23.6027 76.6633Z" fill="url(#paint0_linear_823_2491)"/>
</g>
</g>
<defs>
<linearGradient id="paint0_linear_823_2491" x1="39.9927" y1="0" x2="39.9927" y2="80" gradientUnits="userSpaceOnUse">
<stop stop-color="#888888"/>
<stop offset="1" stop-color="#888888" stop-opacity="0.5"/>
</linearGradient>
</defs>
</svg>
