<svg width="1255" height="168" viewBox="0 0 1255 168" fill="none" xmlns="http://www.w3.org/2000/svg">
<rect width="1255" height="168" rx="10" fill="url(#paint0_linear_1_4378)" fill-opacity="0.4"/>
<path d="M88.2156 120C86.8823 120 85.749 119.5 84.8156 118.5C83.8823 117.5 83.4156 116.3 83.4156 114.9V102.3H50.1156C48.5823 102.3 47.3823 101.833 46.5156 100.9C45.649 99.9667 45.149 98.9 45.0156 97.7C44.949 96.4333 45.2823 95.3 46.0156 94.3L84.3156 44.1C84.849 43.4333 85.449 42.9 86.1156 42.5C86.849 42.1 87.649 41.9 88.5156 41.9C89.9156 41.9 91.049 42.4 91.9156 43.4C92.7823 44.4 93.2156 45.6333 93.2156 47.1V93.1H99.2156C100.616 93.1 101.816 93.4333 102.816 94.1C103.816 94.7667 104.316 95.9667 104.316 97.7C104.316 98.9667 103.816 100.067 102.816 101C101.816 101.867 100.616 102.3 99.2156 102.3H93.2156V114.9C93.2156 116.3 92.749 117.5 91.8156 118.5C90.8823 119.5 89.6823 120 88.2156 120ZM56.1156 95.9L53.4156 93.1H83.4156V51.9L86.5156 55.9L56.1156 95.9ZM120.248 121.6C118.381 121.6 116.748 120.933 115.348 119.6C114.014 118.2 113.348 116.567 113.348 114.7C113.348 112.767 114.014 111.133 115.348 109.8C116.748 108.4 118.381 107.7 120.248 107.7C122.181 107.7 123.814 108.4 125.148 109.8C126.481 111.133 127.148 112.767 127.148 114.7C127.148 116.567 126.481 118.2 125.148 119.6C123.814 120.933 122.181 121.6 120.248 121.6ZM157.072 120C152.005 120 147.672 118.467 144.072 115.4C140.539 112.267 137.839 107.8 135.972 102C134.105 96.1333 133.172 89.1 133.172 80.9C133.172 72.7 134.105 65.7 135.972 59.9C137.839 54.0333 140.539 49.5667 144.072 46.5C147.672 43.3667 152.005 41.8 157.072 41.8C162.139 41.8 166.439 43.4 169.972 46.6C173.572 49.7333 176.305 54.2333 178.172 60.1C180.039 65.9 180.972 72.8333 180.972 80.9C180.972 88.9667 180.039 95.9333 178.172 101.8C176.305 107.6 173.572 112.1 169.972 115.3C166.439 118.433 162.139 120 157.072 120ZM157.072 109.6C160.139 109.6 162.672 108.367 164.672 105.9C166.672 103.367 168.172 99.9333 169.172 95.6C170.172 91.2667 170.672 86.3667 170.672 80.9C170.672 75.4333 170.172 70.5333 169.172 66.2C168.172 61.8667 166.672 58.4333 164.672 55.9C162.672 53.3667 160.139 52.1 157.072 52.1C154.005 52.1 151.472 53.3667 149.472 55.9C147.472 58.3667 145.972 61.7667 144.972 66.1C143.972 70.4333 143.472 75.3667 143.472 80.9C143.472 86.4333 143.972 91.3667 144.972 95.7C145.972 100.033 147.472 103.433 149.472 105.9C151.539 108.367 154.072 109.6 157.072 109.6Z" fill="white"/>
<path d="M347.5 42.618L348.708 46.3369L348.821 46.6824H349.184H353.094L349.931 48.9807L349.637 49.1943L349.749 49.5398L350.957 53.2586L347.794 50.9602L347.5 50.7467L347.206 50.9602L344.043 53.2586L345.251 49.5398L345.363 49.1943L345.069 48.9807L341.906 46.6824H345.816H346.179L346.292 46.3369L347.5 42.618Z" stroke="#BB9200"/>
<path d="M368.5 42.618L369.708 46.3369L369.821 46.6824H370.184H374.094L370.931 48.9807L370.637 49.1943L370.749 49.5398L371.957 53.2586L368.794 50.9602L368.5 50.7467L368.206 50.9602L365.043 53.2586L366.251 49.5398L366.363 49.1943L366.069 48.9807L362.906 46.6824H366.816H367.179L367.292 46.3369L368.5 42.618Z" stroke="#BB9200"/>
<path d="M389.5 42.618L390.708 46.3369L390.821 46.6824H391.184H395.094L391.931 48.9807L391.637 49.1943L391.749 49.5398L392.957 53.2586L389.794 50.9602L389.5 50.7467L389.206 50.9602L386.043 53.2586L387.251 49.5398L387.363 49.1943L387.069 48.9807L383.906 46.6824H387.816H388.179L388.292 46.3369L389.5 42.618Z" stroke="#BB9200"/>
<path d="M410.5 42.618L411.708 46.3369L411.821 46.6824H412.184H416.094L412.931 48.9807L412.637 49.1943L412.749 49.5398L413.957 53.2586L410.794 50.9602L410.5 50.7467L410.206 50.9602L407.043 53.2586L408.251 49.5398L408.363 49.1943L408.069 48.9807L404.906 46.6824H408.816H409.179L409.292 46.3369L410.5 42.618Z" stroke="#BB9200"/>
<path d="M431.5 42.618L432.708 46.3369L432.821 46.6824H433.184H437.094L433.931 48.9807L433.637 49.1943L433.749 49.5398L434.957 53.2586L431.794 50.9602L431.5 50.7467L431.206 50.9602L428.043 53.2586L429.251 49.5398L429.363 49.1943L429.069 48.9807L425.906 46.6824H429.816H430.179L430.292 46.3369L431.5 42.618Z" stroke="#BB9200"/>
<path d="M347.5 60.618L348.708 64.3369L348.821 64.6824H349.184H353.094L349.931 66.9807L349.637 67.1943L349.749 67.5398L350.957 71.2586L347.794 68.9602L347.5 68.7467L347.206 68.9602L344.043 71.2586L345.251 67.5398L345.363 67.1943L345.069 66.9807L341.906 64.6824H345.816H346.179L346.292 64.3369L347.5 60.618Z" fill="#BB9200" stroke="#BB9200"/>
<path d="M368.5 60.618L369.708 64.3369L369.821 64.6824H370.184H374.094L370.931 66.9807L370.637 67.1943L370.749 67.5398L371.957 71.2586L368.794 68.9602L368.5 68.7467L368.206 68.9602L365.043 71.2586L366.251 67.5398L366.363 67.1943L366.069 66.9807L362.906 64.6824H366.816H367.179L367.292 64.3369L368.5 60.618Z" fill="#BB9200" stroke="#BB9200"/>
<path d="M389.5 60.618L390.708 64.3369L390.821 64.6824H391.184H395.094L391.931 66.9807L391.637 67.1943L391.749 67.5398L392.957 71.2586L389.794 68.9602L389.5 68.7467L389.206 68.9602L386.043 71.2586L387.251 67.5398L387.363 67.1943L387.069 66.9807L383.906 64.6824H387.816H388.179L388.292 64.3369L389.5 60.618Z" fill="#BB9200" stroke="#BB9200"/>
<path d="M410.5 60.618L411.708 64.3369L411.821 64.6824H412.184H416.094L412.931 66.9807L412.637 67.1943L412.749 67.5398L413.957 71.2586L410.794 68.9602L410.5 68.7467L410.206 68.9602L407.043 71.2586L408.251 67.5398L408.363 67.1943L408.069 66.9807L404.906 64.6824H408.816H409.179L409.292 64.3369L410.5 60.618Z" fill="#BB9200" stroke="#BB9200"/>
<path d="M347.5 78.618L348.708 82.3369L348.821 82.6824H349.184H353.094L349.931 84.9807L349.637 85.1943L349.749 85.5398L350.957 89.2586L347.794 86.9602L347.5 86.7467L347.206 86.9602L344.043 89.2586L345.251 85.5398L345.363 85.1943L345.069 84.9807L341.906 82.6824H345.816H346.179L346.292 82.3369L347.5 78.618Z" fill="#BB9200" stroke="#BB9200"/>
<path d="M368.5 78.618L369.708 82.3369L369.821 82.6824H370.184H374.094L370.931 84.9807L370.637 85.1943L370.749 85.5398L371.957 89.2586L368.794 86.9602L368.5 86.7467L368.206 86.9602L365.043 89.2586L366.251 85.5398L366.363 85.1943L366.069 84.9807L362.906 82.6824H366.816H367.179L367.292 82.3369L368.5 78.618Z" fill="#BB9200" stroke="#BB9200"/>
<path d="M389.5 78.618L390.708 82.3369L390.821 82.6824H391.184H395.094L391.931 84.9807L391.637 85.1943L391.749 85.5398L392.957 89.2586L389.794 86.9602L389.5 86.7467L389.206 86.9602L386.043 89.2586L387.251 85.5398L387.363 85.1943L387.069 84.9807L383.906 82.6824H387.816H388.179L388.292 82.3369L389.5 78.618Z" fill="#BB9200" stroke="#BB9200"/>
<path d="M347.5 96.618L348.708 100.337L348.821 100.682H349.184H353.094L349.931 102.981L349.637 103.194L349.749 103.54L350.957 107.259L347.794 104.96L347.5 104.747L347.206 104.96L344.043 107.259L345.251 103.54L345.363 103.194L345.069 102.981L341.906 100.682H345.816H346.179L346.292 100.337L347.5 96.618Z" fill="#BB9200" stroke="#BB9200"/>
<path d="M368.5 96.618L369.708 100.337L369.821 100.682H370.184H374.094L370.931 102.981L370.637 103.194L370.749 103.54L371.957 107.259L368.794 104.96L368.5 104.747L368.206 104.96L365.043 107.259L366.251 103.54L366.363 103.194L366.069 102.981L362.906 100.682H366.816H367.179L367.292 100.337L368.5 96.618Z" fill="#BB9200" stroke="#BB9200"/>
<path d="M347.5 114.618L348.708 118.337L348.821 118.682H349.184H353.094L349.931 120.981L349.637 121.194L349.749 121.54L350.957 125.259L347.794 122.96L347.5 122.747L347.206 122.96L344.043 125.259L345.251 121.54L345.363 121.194L345.069 120.981L341.906 118.682H345.816H346.179L346.292 118.337L347.5 114.618Z" fill="#BB9200" stroke="#BB9200"/>
<rect x="459" y="47" width="728" height="4" rx="2" fill="url(#paint1_linear_1_4378)" fill-opacity="0.4"/>
<g clip-path="url(#clip0_1_4378)">
<rect x="459" y="65" width="728" height="4" rx="2" fill="url(#paint2_linear_1_4378)" fill-opacity="0.4"/>
<rect x="459" y="65" width="728" height="4" rx="2" fill="url(#paint3_linear_1_4378)"/>
</g>
<g clip-path="url(#clip1_1_4378)">
<rect x="459" y="82" width="728" height="4" rx="2" fill="url(#paint4_linear_1_4378)" fill-opacity="0.4"/>
<rect x="459" y="82" width="728" height="4" rx="2" fill="url(#paint5_linear_1_4378)"/>
</g>
<g clip-path="url(#clip2_1_4378)">
<rect x="459" y="101" width="728" height="4" rx="2" fill="url(#paint6_linear_1_4378)" fill-opacity="0.4"/>
<rect x="459" y="101" width="728" height="4" rx="2" fill="url(#paint7_linear_1_4378)"/>
</g>
<g clip-path="url(#clip3_1_4378)">
<rect x="459" y="119" width="728" height="4" rx="2" fill="url(#paint8_linear_1_4378)" fill-opacity="0.4"/>
<rect x="459" y="119" width="728" height="4" rx="2" fill="url(#paint9_linear_1_4378)"/>
</g>
<defs>
<linearGradient id="paint0_linear_1_4378" x1="627.5" y1="0" x2="627.5" y2="168" gradientUnits="userSpaceOnUse">
<stop stop-color="#333333"/>
<stop offset="1" stop-color="#888888" stop-opacity="0.6"/>
</linearGradient>
<linearGradient id="paint1_linear_1_4378" x1="459" y1="49" x2="1187" y2="48.9993" gradientUnits="userSpaceOnUse">
<stop stop-color="#333333"/>
<stop offset="1" stop-color="#888888" stop-opacity="0.6"/>
</linearGradient>
<linearGradient id="paint2_linear_1_4378" x1="459" y1="67" x2="1187" y2="66.9993" gradientUnits="userSpaceOnUse">
<stop stop-color="#333333"/>
<stop offset="1" stop-color="#888888" stop-opacity="0.6"/>
</linearGradient>
<linearGradient id="paint3_linear_1_4378" x1="459" y1="67" x2="1187" y2="66.9993" gradientUnits="userSpaceOnUse">
<stop stop-color="#F3AF3D"/>
<stop offset="1" stop-color="#F09338"/>
</linearGradient>
<linearGradient id="paint4_linear_1_4378" x1="459" y1="84" x2="1187" y2="83.9993" gradientUnits="userSpaceOnUse">
<stop stop-color="#333333"/>
<stop offset="1" stop-color="#888888" stop-opacity="0.6"/>
</linearGradient>
<linearGradient id="paint5_linear_1_4378" x1="459" y1="84" x2="1187" y2="83.9993" gradientUnits="userSpaceOnUse">
<stop stop-color="#F3AF3D"/>
<stop offset="1" stop-color="#F09338"/>
</linearGradient>
<linearGradient id="paint6_linear_1_4378" x1="459" y1="103" x2="1187" y2="102.999" gradientUnits="userSpaceOnUse">
<stop stop-color="#333333"/>
<stop offset="1" stop-color="#888888" stop-opacity="0.6"/>
</linearGradient>
<linearGradient id="paint7_linear_1_4378" x1="459" y1="103" x2="1187" y2="102.999" gradientUnits="userSpaceOnUse">
<stop stop-color="#F3AF3D"/>
<stop offset="1" stop-color="#F09338"/>
</linearGradient>
<linearGradient id="paint8_linear_1_4378" x1="459" y1="121" x2="1187" y2="120.999" gradientUnits="userSpaceOnUse">
<stop stop-color="#333333"/>
<stop offset="1" stop-color="#888888" stop-opacity="0.6"/>
</linearGradient>
<linearGradient id="paint9_linear_1_4378" x1="459" y1="121" x2="1187" y2="120.999" gradientUnits="userSpaceOnUse">
<stop stop-color="#F3AF3D"/>
<stop offset="1" stop-color="#F09338"/>
</linearGradient>
<clipPath id="clip0_1_4378">
<rect x="459" y="65" width="728" height="4" rx="2" fill="white"/>
</clipPath>
<clipPath id="clip1_1_4378">
<rect x="459" y="82" width="728" height="4" rx="2" fill="white"/>
</clipPath>
<clipPath id="clip2_1_4378">
<rect x="459" y="101" width="728" height="4" rx="2" fill="white"/>
</clipPath>
<clipPath id="clip3_1_4378">
<rect x="459" y="119" width="728" height="4" rx="2" fill="white"/>
</clipPath>
</defs>
</svg>

