<svg width="99" height="15" viewBox="0 0 99 15" fill="none" xmlns="http://www.w3.org/2000/svg">
<g id="Group 1000001852">
<path id="Star 3" d="M7.5 1.61803L8.70833 5.33688L8.82058 5.68237H9.18386H13.0941L9.93064 7.98075L9.63675 8.19427L9.74901 8.53976L10.9573 12.2586L7.79389 9.96024L7.5 9.74671L7.20611 9.96024L4.04267 12.2586L5.25099 8.53976L5.36325 8.19427L5.06936 7.98075L1.90592 5.68237H5.81614H6.17942L6.29167 5.33688L7.5 1.61803Z" fill="#BB9200" stroke="#BB9200"/>
<path id="Star 4" d="M28.5 1.61803L29.7083 5.33688L29.8206 5.68237H30.1839H34.0941L30.9306 7.98075L30.6367 8.19427L30.749 8.53976L31.9573 12.2586L28.7939 9.96024L28.5 9.74671L28.2061 9.96024L25.0427 12.2586L26.251 8.53976L26.3633 8.19427L26.0694 7.98075L22.9059 5.68237H26.8161H27.1794L27.2917 5.33688L28.5 1.61803Z" fill="#BB9200" stroke="#BB9200"/>
<path id="Star 5" d="M49.5 1.61803L50.7083 5.33688L50.8206 5.68237H51.1839H55.0941L51.9306 7.98075L51.6367 8.19427L51.749 8.53976L52.9573 12.2586L49.7939 9.96024L49.5 9.74671L49.2061 9.96024L46.0427 12.2586L47.251 8.53976L47.3633 8.19427L47.0694 7.98075L43.9059 5.68237H47.8161H48.1794L48.2917 5.33688L49.5 1.61803Z" fill="#BB9200" stroke="#BB9200"/>
<path id="Star 6" d="M70.5 1.61803L71.7083 5.33688L71.8206 5.68237H72.1839H76.0941L72.9306 7.98075L72.6367 8.19427L72.749 8.53976L73.9573 12.2586L70.7939 9.96024L70.5 9.74671L70.2061 9.96024L67.0427 12.2586L68.251 8.53976L68.3633 8.19427L68.0694 7.98075L64.9059 5.68237H68.8161H69.1794L69.2917 5.33688L70.5 1.61803Z" fill="#BB9200" stroke="#BB9200"/>
<path id="Star 7" d="M91.5 1.61803L92.7083 5.33688L92.8206 5.68237H93.1839H97.0941L93.9306 7.98075L93.6367 8.19427L93.749 8.53976L94.9573 12.2586L91.7939 9.96024L91.5 9.74671L91.2061 9.96024L88.0427 12.2586L89.251 8.53976L89.3633 8.19427L89.0694 7.98075L85.9059 5.68237H89.8161H90.1794L90.2917 5.33688L91.5 1.61803Z" stroke="#BB9200"/>
</g>
</svg>
