<svg width="35" height="30" viewBox="0 0 35 30" fill="none" xmlns="http://www.w3.org/2000/svg">
<path id="person.crop.circle.fill.badge.exclamationmark" d="M20.1498 29.9421C28.2786 29.9421 35 23.1693 35 14.9783C35 6.77279 28.2643 0 20.1354 0C12.6098 0 6.27616 5.81766 5.40008 13.2417C6.04637 13.097 6.70702 13.0246 7.39639 13.0246C11.8342 13.0246 15.5827 16.165 16.5449 20.246C17.6364 19.9855 18.8285 19.8263 20.1354 19.8263C24.2429 19.8263 27.4025 21.3459 28.9105 23.068C26.785 25.4559 23.5823 26.9754 20.1354 26.9754C18.7854 26.9754 17.3061 26.7004 16.0423 26.1939C15.7981 26.9754 15.2093 27.945 14.4625 28.7699C16.229 29.5224 18.1391 29.9421 20.1498 29.9421ZM20.1354 17.3227C17.3492 17.2938 15.2093 14.9493 15.1949 11.8524C15.1662 8.92909 17.3636 6.48336 20.1354 6.48336C22.8929 6.48336 25.0759 8.92909 25.0759 11.8524C25.0759 14.9493 22.9216 17.3517 20.1354 17.3227ZM7.39639 30C11.4177 30 14.7928 26.6136 14.7928 22.5326C14.7928 18.4515 11.4608 15.0796 7.39639 15.0796C3.34633 15.0796 0 18.4515 0 22.5326C0 26.6281 3.34633 30 7.39639 30ZM7.39639 23.7916C6.82191 23.7916 6.41978 23.4009 6.40542 22.8365L6.27616 18.7554C6.2618 18.0897 6.72138 17.6266 7.39639 17.6266C8.0714 17.6266 8.54534 18.0897 8.51662 18.7554L8.40172 22.8365C8.38736 23.4009 7.97087 23.7916 7.39639 23.7916ZM7.39639 27.4096C6.64957 27.4096 6.06073 26.8307 6.06073 26.0781C6.06073 25.3546 6.64957 24.7757 7.39639 24.7757C8.14321 24.7757 8.73205 25.3546 8.73205 26.0781C8.73205 26.8307 8.14321 27.4096 7.39639 27.4096Z" fill="white"/>
</svg>
