<svg width="30" height="30" viewBox="0 0 30 30" fill="none" xmlns="http://www.w3.org/2000/svg">
<g id="Group">
<g id="Group_2">
<path id="Vector" d="M22.115 21.0825C21.8812 20.985 21.6125 21.0388 21.4338 21.2175L18.2 24.45C17.96 24.69 17.6575 24.8612 17.3288 24.9438L12.3287 26.1938C11.69 26.3512 11.01 26.1637 10.5487 25.7C10.085 25.2362 9.89625 24.555 10.055 23.92L11.305 18.92C11.3862 18.5912 11.5575 18.29 11.7987 18.0487L22.3162 7.53125C22.435 7.41375 22.5 7.25625 22.5 7.09V4.375C22.5 3.34 21.6575 2.5 20.625 2.5H19.375C19.03 2.5 18.75 2.78 18.75 3.125V4.375C18.75 5.4075 17.9075 6.25 16.875 6.25H5.625C4.59 6.25 3.75 5.4075 3.75 4.375V3.125C3.75 2.78 3.47 2.5 3.125 2.5H1.875C0.84 2.5 0 3.34 0 4.375V28.125C0 29.1575 0.84 30 1.875 30H20.625C21.6588 30 22.5 29.1588 22.5 28.125V21.66C22.5 21.4075 22.3475 21.1787 22.115 21.0825ZM11.4325 24.8175C11.5525 24.9363 11.7125 25 11.875 25C11.9263 25 11.9763 24.9938 12.0263 24.9813L16.6063 23.8363C16.3587 23.125 15.885 22.185 14.975 21.275C14.065 20.3663 13.125 19.8925 12.4137 19.6437L11.2688 24.2237C11.215 24.4362 11.2787 24.6613 11.4325 24.8175ZM5.625 5H16.875C17.22 5 17.5 4.72 17.5 4.375V3.125C17.5 2.09125 16.66 1.25 15.625 1.25H13.4075C12.9662 0.48875 12.1488 0 11.25 0C10.3525 0 9.53375 0.4875 9.0925 1.25H6.875C5.8425 1.25 5 2.09125 5 3.125V4.375C5 4.72 5.28 5 5.625 5ZM26.7225 6.25C25.8475 6.25 25.0262 6.59 24.4062 7.21L23.125 8.49125L27.7588 13.125L29.04 11.8438C29.6588 11.225 30 10.4037 30 9.52625C30 7.71875 28.5312 6.25 26.7225 6.25ZM13.0625 18.555C13.885 18.8713 14.8837 19.4137 15.86 20.3913C16.8363 21.3687 17.38 22.3675 17.6962 23.1888L26.8762 14.0087L22.2425 9.375L13.0625 18.555Z" fill="white"/>
</g>
</g>
</svg>
