<svg width="30" height="30" viewBox="0 0 30 30" fill="none" xmlns="http://www.w3.org/2000/svg">
<path id="globe.asia.australia.fill" d="M15 30C23.2043 30 30 23.2188 30 15C30 6.79574 23.2043 0 14.9855 0C6.78122 0 0 6.79574 0 15C0 23.2188 6.79574 30 15 30ZM15 27.6767C8.74153 27.6767 3.44143 22.9864 2.48306 16.9603C2.57018 16.9748 2.64279 16.9748 2.72991 16.9748C4.28364 16.9748 5.31462 15.6534 5.31462 13.635C5.31462 12.9961 5.43078 12.8074 5.85189 12.6041L6.78122 12.1684C7.27493 11.9216 7.72507 12.1104 8.03001 12.5315L9.75799 15.0581C11.3553 17.3669 12.9816 18.3107 14.4773 18.3107C15.9148 18.3107 16.8877 17.3959 16.8877 15.9874C16.8877 15.1597 16.4666 14.4482 15.7841 13.9981C15.3485 13.6931 15.4792 13.3446 15.8712 13.3446C19.4143 13.3446 21.2875 12.0668 21.2875 9.49661C21.2875 6.09874 18.4124 5.90997 18.4124 5.03872C18.4124 4.51597 19.0658 4.22556 19.516 3.18006C24.2498 5.0242 27.6767 9.65634 27.6767 15C27.6767 16.3359 27.4589 17.6283 27.0668 18.848C26.3117 18.2236 25.7018 17.9622 24.9903 17.9622C24.4385 17.9622 24.1336 18.1075 23.8287 18.2091C23.5237 18.2962 23.3785 18.1655 23.3349 17.9042C23.1897 16.8441 22.5218 16.423 21.4472 16.423H20.6922C19.8064 16.423 19.0949 16.8877 18.5576 17.7154L18.3253 18.0784C17.9622 18.6447 17.6428 19.1094 17.3233 19.4143C17.0184 19.6902 16.7861 19.8209 16.1907 20.0097L15.5227 20.213C14.5063 20.5324 14.2014 21.4182 14.4773 22.4056L15.1742 24.8596C15.4356 25.7599 15.9729 26.2246 16.8441 26.2246C17.2217 26.2246 17.6863 26.0794 18.1655 25.847L18.3834 25.7454C18.7173 25.5857 18.9642 25.5276 19.211 25.5276C19.7773 25.5276 20.1549 25.8035 20.5905 26.3553C18.9061 27.1975 17.0039 27.6767 15 27.6767Z" fill="white"/>
</svg>
