<svg width="30" height="30" viewBox="0 0 30 30" fill="none" xmlns="http://www.w3.org/2000/svg">
<g id="Group">
<g id="Group_2">
<path id="Vector" d="M0.954297 7.41C1.2493 7.58625 1.63305 7.495 1.81555 7.2C2.3593 6.305 5.03305 3.75 10.0293 3.75C14.8343 3.75 18.253 6.18375 18.8693 7.2C18.9893 7.3925 19.1943 7.5 19.4043 7.5C19.5155 7.5 19.628 7.47125 19.7293 7.41C20.023 7.23 20.118 6.84625 19.9393 6.55C19.0818 5.1375 15.2955 2.5 10.0293 2.5C4.43055 2.5 1.4293 5.42375 0.744297 6.55C0.566797 6.84625 0.660547 7.23 0.954297 7.41ZM4.0468 17.5262C3.54055 15.7612 3.75055 13.905 4.6393 12.2975C5.52805 10.69 6.99055 9.52375 8.75555 9.01625C12.3518 7.99625 16.148 10.0625 17.2318 13.6263C17.2468 13.675 17.2668 13.7213 17.2943 13.765C17.3718 13.895 17.4393 14.0075 19.6618 15.845C19.9268 16.065 20.3193 16.0275 20.5418 15.7613C20.7618 15.495 20.7243 15.1025 20.458 14.8812C18.9368 13.6237 18.4905 13.2262 18.3918 13.1412C17.063 9.00125 12.6143 6.61375 8.4143 7.81375C6.32555 8.41375 4.59805 9.79125 3.5468 11.6912C2.4968 13.5912 2.24805 15.7837 2.8468 17.87C3.8718 21.4338 1.67305 22.4225 0.973047 22.64C0.643047 22.7437 0.460547 23.0938 0.563047 23.4237C0.646797 23.6912 0.894297 23.8625 1.16055 23.8625C1.2218 23.8625 1.28555 23.8538 1.3468 23.835C3.25805 23.2375 5.11055 21.2262 4.0468 17.5262ZM0.654297 16.25C0.999297 16.25 1.2793 15.97 1.2793 15.625C1.2793 10.455 5.4843 6.25 10.6543 6.25C15.7255 6.25 17.5018 9.1175 18.9293 11.4225C19.7693 12.7787 20.4943 13.95 21.7118 14.345C22.048 14.4525 22.393 14.27 22.4993 13.9437C22.6055 13.615 22.4255 13.2625 22.098 13.1562C21.3168 12.9025 20.703 11.9125 19.9918 10.765C18.4855 8.3325 16.423 5.00125 10.6543 5.00125C4.79555 5.00125 0.0292969 9.7675 0.0292969 15.6263C0.0292969 15.97 0.309297 16.25 0.654297 16.25ZM21.308 10.815C21.393 11.08 21.6405 11.25 21.9043 11.25C21.968 11.25 22.0318 11.24 22.0943 11.2213C22.423 11.115 22.6043 10.7637 22.4993 10.435C22.1668 9.3975 21.2255 7.8625 21.1855 7.79875C21.003 7.50375 20.6168 7.41125 20.3255 7.59375C20.0318 7.775 19.9393 8.15875 20.1205 8.45375C20.1305 8.46625 21.0255 9.9225 21.308 10.815ZM4.6618 2.445C4.94555 2.31625 5.1893 2.19375 5.4168 2.075C6.35055 1.59625 7.02555 1.25 10.0293 1.25C13.408 1.25 14.6518 1.71125 15.9693 2.20125C16.208 2.29 16.4493 2.38 16.7018 2.46625C16.768 2.49 16.8355 2.5 16.9043 2.5C17.1643 2.5 17.4055 2.3375 17.4955 2.0775C17.608 1.75125 17.4343 1.39625 17.1068 1.28375C16.8643 1.2 16.6343 1.11375 16.403 1.02875C15.0393 0.52375 13.6305 0 10.0268 0C6.72055 0 5.89305 0.425 4.8443 0.96375C4.63305 1.0725 4.4093 1.1875 4.14555 1.305C3.8318 1.44625 3.6918 1.81625 3.8318 2.13125C3.9743 2.44625 4.34555 2.58625 4.6618 2.445ZM1.2793 20.625C1.37305 20.625 1.46805 20.6038 1.5593 20.5588C1.86805 20.4038 1.99305 20.0287 1.8393 19.72C1.61305 19.27 1.28055 18.45 1.28055 18.125C1.28055 17.78 1.00055 17.5 0.655547 17.5C0.310547 17.5 0.0305469 17.78 0.0305469 18.125C0.0305469 18.86 0.606797 20.0488 0.721797 20.28C0.830547 20.4975 1.0518 20.625 1.2793 20.625ZM6.46055 16.8725C5.91805 14.4088 7.2018 12.065 9.44555 11.4213C11.763 10.76 14.1943 12.0988 14.8593 14.4163C15.0668 15.135 15.6143 15.9787 17.6068 17.7587C17.8643 17.9875 18.2593 17.9662 18.4893 17.7087C18.7193 17.4513 18.6968 17.0562 18.4393 16.8263C16.548 15.1375 16.1743 14.4663 16.0605 14.0712C15.203 11.0925 12.0793 9.36625 9.1018 10.22C6.2143 11.0487 4.5543 14.0238 5.24055 17.1413C6.50305 22.8888 5.56055 24.2188 2.9693 25.0288C2.6393 25.1325 2.4568 25.4825 2.5593 25.8125C2.64305 26.08 2.89055 26.2512 3.1568 26.2512C3.21805 26.2512 3.2818 26.2425 3.34305 26.2238C6.9593 25.09 7.74805 22.7325 6.46055 16.8725ZM11.2555 15.4513C11.1593 15.1187 10.818 14.9263 10.4818 15.0238C10.1505 15.1187 9.9593 15.4662 10.0543 15.7975C11.0393 19.2225 14.7805 22.0625 17.058 23.7913L17.773 22.7638C15.6605 21.1613 12.1255 18.4788 11.2555 15.4513ZM27.383 26.0675L25.5068 25.6L25.428 25.285C25.9155 24.7475 26.2605 24.0613 26.4043 23.3488C26.738 23.1763 26.9805 22.8487 27.0293 22.4537L27.1643 21.3687C27.2055 21.0387 27.1043 20.7062 26.8855 20.4562C26.818 20.3787 26.7418 20.3125 26.6568 20.2563L26.6893 19.5925L26.803 19.4775C27.1255 19.1362 27.5605 18.4037 26.8718 17.35C26.5443 16.85 25.8705 16.2513 24.5168 16.2513C24.1193 16.2513 23.2205 16.2512 22.348 16.7987C19.7755 16.8875 19.473 18.275 19.473 19.3212C19.473 19.5275 19.5093 19.915 19.5455 20.2375C19.453 20.2963 19.3668 20.3675 19.2943 20.4525C19.0718 20.7037 18.9693 21.0387 19.0118 21.3675L19.1468 22.455C19.198 22.8612 19.4568 23.2 19.838 23.3663C19.978 24.0488 20.3055 24.7075 20.7618 25.2325L20.6705 25.6L18.7943 26.0675C17.2768 26.4475 16.2143 27.8075 16.2143 29.375C16.2143 29.72 16.4943 30 16.8393 30H29.3393C29.6843 30 29.9643 29.7188 29.9643 29.3738C29.9643 27.8075 28.9005 26.4475 27.383 26.0675ZM16.3793 25.0638C13.1805 22.475 9.7868 19.39 8.85305 16.1425C8.7143 15.6612 8.7718 15.155 9.0143 14.7162C9.2568 14.2775 9.65555 13.9612 10.1355 13.8225C10.618 13.6862 11.1255 13.7425 11.563 13.9838C12.0018 14.225 12.318 14.625 12.4568 15.1062C12.8693 16.5387 14.3293 18.3425 16.918 20.62C17.1768 20.85 17.5705 20.8225 17.7993 20.5638C18.028 20.305 18.003 19.91 17.743 19.6825C14.7905 17.0837 13.8905 15.5712 13.6568 14.76C13.4268 13.9562 12.898 13.2925 12.168 12.8888C11.438 12.4862 10.5968 12.3925 9.7918 12.62C8.98805 12.8512 8.3243 13.3787 7.92055 14.11C7.5168 14.84 7.4218 15.6838 7.6518 16.485C8.68055 20.065 12.243 23.32 15.593 26.0325C15.7093 26.1263 15.848 26.1712 15.9855 26.1712C16.168 26.1712 16.348 26.0925 16.4718 25.9387C16.6893 25.6737 16.6468 25.2812 16.3793 25.0638ZM14.398 27.1175C13.7768 26.275 12.838 25 11.2793 25C9.1593 25 8.82555 28.6125 8.78055 29.3363C8.75805 29.68 9.02055 29.9775 9.36555 29.9988C9.37805 30 9.3918 30 9.4043 30C9.73305 30 10.0068 29.745 10.028 29.4137C10.108 28.1213 10.6005 26.25 11.2793 26.25C12.2055 26.25 12.8643 27.1425 13.3905 27.8588C13.6005 28.1438 13.7893 28.395 13.9618 28.5662C14.2055 28.81 14.6018 28.81 14.8455 28.5662C15.0893 28.3225 15.0893 27.9263 14.8455 27.6825C14.7105 27.5462 14.5643 27.3438 14.398 27.1175ZM8.75055 21.685C8.6443 21.3562 8.29305 21.1775 7.9643 21.28C7.63555 21.385 7.4543 21.7375 7.5593 22.0662C8.0943 23.7388 7.04305 27.0187 5.4618 27.5312C5.13305 27.6375 4.9543 27.99 5.06055 28.3188C5.14555 28.5825 5.3918 28.7512 5.65555 28.7512C5.7193 28.7512 5.78555 28.7412 5.84805 28.7212C8.25555 27.9387 9.4143 23.7612 8.75055 21.685Z" fill="white"/>
</g>
</g>
</svg>
