<svg width="25" height="24" viewBox="0 0 25 24" fill="none" xmlns="http://www.w3.org/2000/svg">
<g id="Group">
<g id="Group_2">
<path id="Vector" d="M20.6213 24H3.52071C1.57929 24 0 22.43 0 20.5V3.5C0 1.57 1.57929 0 3.52071 0H20.6213C22.5627 0 24.142 1.57 24.142 3.5V20.5C24.142 22.43 22.5627 24 20.6213 24ZM3.52071 1C2.13456 1 1.00592 2.122 1.00592 3.5V20.5C1.00592 21.878 2.13456 23 3.52071 23H20.6213C22.0075 23 23.1361 21.878 23.1361 20.5V3.5C23.1361 2.122 22.0075 1 20.6213 1H3.52071Z" fill="white"/>
</g>
<g id="Group_3">
<path id="Vector_2" d="M23.6391 5H0.502959C0.225325 5 0 4.776 0 4.5C0 4.224 0.225325 4 0.502959 4H23.6391C23.9167 4 24.142 4.224 24.142 4.5C24.142 4.776 23.9167 5 23.6391 5Z" fill="white"/>
</g>
<g id="Group_4">
<path id="Vector_3" d="M3.52054 3C3.79831 3 4.0235 2.77614 4.0235 2.5C4.0235 2.22386 3.79831 2 3.52054 2C3.24276 2 3.01758 2.22386 3.01758 2.5C3.01758 2.77614 3.24276 3 3.52054 3Z" fill="white"/>
</g>
<g id="Group_5">
<path id="Vector_4" d="M5.53274 3C5.81052 3 6.0357 2.77614 6.0357 2.5C6.0357 2.22386 5.81052 2 5.53274 2C5.25497 2 5.02979 2.22386 5.02979 2.5C5.02979 2.77614 5.25497 3 5.53274 3Z" fill="white"/>
</g>
<g id="Group_6">
<path id="Vector_5" d="M7.54446 3C7.82224 3 8.04742 2.77614 8.04742 2.5C8.04742 2.22386 7.82224 2 7.54446 2C7.26669 2 7.0415 2.22386 7.0415 2.5C7.0415 2.77614 7.26669 3 7.54446 3Z" fill="white"/>
</g>
<g id="Group_7">
<path id="Vector_6" d="M13.3785 21H10.7631C10.3668 21 10.0137 20.708 9.94125 20.322L9.73404 18.855C9.48356 18.735 9.24717 18.597 9.01883 18.439L7.6538 18.985C7.26652 19.131 6.84102 18.983 6.63279 18.639L5.32108 16.386C5.11486 16.045 5.19131 15.6 5.50717 15.335L6.68309 14.418C6.67102 14.279 6.66398 14.14 6.66398 14C6.66398 13.863 6.67102 13.726 6.68309 13.59L5.52125 12.685C5.19131 12.409 5.11486 11.964 5.3251 11.616L6.62877 9.376C6.84001 9.025 7.26451 8.876 7.64273 9.02L9.01883 9.57C9.24214 9.417 9.48054 9.278 9.73303 9.156L9.93824 7.709C10.0117 7.291 10.3577 7 10.7631 7H13.3785C13.7738 7 14.1269 7.291 14.1993 7.677L14.4075 9.145C14.658 9.265 14.8944 9.403 15.1227 9.561L16.4878 9.015C16.8771 8.87 17.3015 9.017 17.5088 9.36L18.8205 11.614C19.0267 11.955 18.9502 12.4 18.6344 12.665L17.4585 13.582C17.4705 13.721 17.4776 13.861 17.4776 14C17.4776 14.137 17.4705 14.274 17.4585 14.41L18.6203 15.315C18.9502 15.591 19.0267 16.036 18.8165 16.384L17.5128 18.624C17.3015 18.974 16.876 19.121 16.4998 18.981L15.1227 18.43C14.8994 18.583 14.661 18.722 14.4085 18.844L14.2043 20.291C14.1299 20.709 13.7839 21 13.3785 21ZM10.912 20H13.2296L13.4509 18.434C13.475 18.261 13.5897 18.113 13.7507 18.044C14.1158 17.888 14.4498 17.695 14.7415 17.468C14.8823 17.358 15.0724 17.332 15.2384 17.399L16.7191 17.991L17.8749 16.004L16.6175 15.025C16.4767 14.915 16.4053 14.74 16.4294 14.564C16.4546 14.381 16.4717 14.19 16.4717 14C16.4717 13.808 16.4546 13.616 16.4294 13.424C16.4063 13.249 16.4777 13.075 16.6175 12.966L17.8749 11.986L16.7191 10L15.2384 10.592C15.0744 10.659 14.8823 10.632 14.7415 10.523C14.4347 10.286 14.1118 10.098 13.7547 9.949C13.5907 9.881 13.475 9.732 13.4509 9.557L13.2296 8H10.912L10.6907 9.566C10.6665 9.739 10.5518 9.887 10.3909 9.956C10.0258 10.112 9.69179 10.305 9.40007 10.532C9.25824 10.64 9.06812 10.668 8.90315 10.601L7.42244 10.009L6.26664 11.996L7.52404 12.975C7.66486 13.085 7.73628 13.26 7.71214 13.436C7.68699 13.619 7.66989 13.81 7.66989 14C7.66989 14.192 7.68699 14.384 7.71214 14.576C7.73528 14.751 7.66386 14.925 7.52404 15.034L6.26664 16.014L7.42244 18L8.90315 17.408C9.06912 17.341 9.25924 17.368 9.40007 17.477C9.70688 17.714 10.0298 17.902 10.3869 18.051C10.5508 18.119 10.6665 18.268 10.6907 18.443L10.912 20ZM12.0708 16C10.9613 16 10.0589 15.103 10.0589 14C10.0589 12.897 10.9613 12 12.0708 12C13.1803 12 14.0826 12.897 14.0826 14C14.0826 15.103 13.1803 16 12.0708 16ZM12.0708 13C11.5165 13 11.0649 13.449 11.0649 14C11.0649 14.551 11.5165 15 12.0708 15C12.625 15 13.0767 14.551 13.0767 14C13.0767 13.449 12.625 13 12.0708 13Z" fill="white"/>
</g>
</g>
</svg>
