<svg width="25" height="24" viewBox="0 0 25 24" fill="none" xmlns="http://www.w3.org/2000/svg">
<g id="Group">
<g id="Group_2">
<path id="Vector" d="M13.6604 7.50343C13.7881 7.56043 13.934 7.56243 14.0627 7.50743C14.3031 7.40943 14.5667 7.48743 14.6904 7.70143C14.8151 7.91543 14.7538 8.18343 14.5456 8.33943C14.4329 8.42343 14.3615 8.54943 14.3474 8.68843C14.3333 8.82743 14.3776 8.96543 14.4701 9.06943C15.2899 9.99543 16.3472 10.6104 17.5261 10.8434C17.6629 10.8714 17.8098 10.8384 17.9234 10.7554C18.0381 10.6714 18.1105 10.5444 18.1256 10.4034C18.1518 10.1454 18.361 9.95143 18.6105 9.95143C18.8599 9.95143 19.0692 10.1454 19.0953 10.4034C19.1104 10.5444 19.1838 10.6714 19.2975 10.7554C19.385 10.8194 19.4896 10.8534 19.5963 10.8534C19.6295 10.8534 19.6627 10.8504 19.6949 10.8434C20.8738 10.6104 21.931 9.99743 22.7518 9.06943C22.8444 8.96443 22.8886 8.82743 22.8746 8.68843C22.8605 8.54943 22.788 8.42343 22.6764 8.33943C22.4682 8.18243 22.4068 7.91543 22.5315 7.70143C22.6553 7.48743 22.9178 7.40643 23.1582 7.50743C23.287 7.56143 23.4328 7.55943 23.5606 7.50343C23.6883 7.44643 23.7859 7.33943 23.8312 7.20743C24.0414 6.59143 24.144 6.01743 24.144 5.45143C24.144 4.88543 24.0414 4.31143 23.8312 3.69543C23.7859 3.56343 23.6883 3.45643 23.5606 3.39943C23.4328 3.34243 23.287 3.34043 23.1582 3.39543C22.9188 3.49843 22.6563 3.41643 22.5315 3.20143C22.4068 2.98743 22.4682 2.71943 22.6764 2.56343C22.7891 2.47943 22.8605 2.35343 22.8746 2.21443C22.8886 2.07543 22.8444 1.93743 22.7518 1.83343C21.93 0.906432 20.8728 0.292432 19.6949 0.0594317C19.557 0.0294317 19.4112 0.0644317 19.2975 0.147432C19.1828 0.231432 19.1104 0.358432 19.0953 0.499432C19.0692 0.757432 18.8599 0.951432 18.6105 0.951432C18.361 0.951432 18.1518 0.757432 18.1256 0.499432C18.1105 0.358432 18.0371 0.231432 17.9234 0.147432C17.8088 0.0644317 17.6629 0.0304317 17.5261 0.0594317C16.3472 0.292432 15.2899 0.906432 14.4701 1.83343C14.3776 1.93843 14.3333 2.07543 14.3474 2.21443C14.3615 2.35343 14.4339 2.47943 14.5456 2.56343C14.7538 2.72043 14.8151 2.98743 14.6904 3.20143C14.5657 3.41543 14.3021 3.49443 14.0627 3.39543C13.933 3.34043 13.7871 3.34143 13.6604 3.39943C13.5326 3.45643 13.434 3.56343 13.3898 3.69543C13.1795 4.31343 13.0769 4.88743 13.0769 5.45143C13.0769 6.01543 13.1795 6.58943 13.3898 7.20743C13.434 7.33943 13.5326 7.44643 13.6604 7.50343ZM14.2176 4.43743C14.7437 4.47843 15.2809 4.18543 15.5615 3.70343C15.8412 3.22243 15.815 2.63743 15.5314 2.18143C16.0414 1.70143 16.6379 1.35243 17.2887 1.15243C17.5402 1.63443 18.0401 1.95443 18.6105 1.95443C19.1808 1.95443 19.6808 1.63243 19.9322 1.15243C20.5841 1.35243 21.1806 1.70143 21.6906 2.18143C21.4069 2.63743 21.3808 3.22243 21.6604 3.70343C21.9401 4.18543 22.4692 4.43143 23.0043 4.43843C23.0938 4.79143 23.1381 5.12643 23.1381 5.45343C23.1381 5.78043 23.0938 6.11543 23.0043 6.46843C22.4702 6.46743 21.9401 6.72143 21.6604 7.20343C21.3808 7.68543 21.4069 8.26943 21.6906 8.72543C21.1796 9.20543 20.5831 9.55443 19.9322 9.75443C19.6808 9.27343 19.1808 8.95243 18.6105 8.95243C18.0401 8.95243 17.5402 9.27243 17.2887 9.75443C16.6379 9.55443 16.0414 9.20543 15.5314 8.72543C15.814 8.26943 15.8412 7.68443 15.5615 7.20343C15.2809 6.72143 14.7437 6.44843 14.2176 6.46943C14.1281 6.11443 14.0838 5.78043 14.0838 5.45343C14.0838 5.12643 14.1281 4.79143 14.2176 4.43743ZM18.6105 7.95243C19.9976 7.95243 21.1253 6.83143 21.1253 5.45243C21.1253 4.07343 19.9966 2.95243 18.6105 2.95243C17.2243 2.95243 16.0957 4.07343 16.0957 5.45243C16.0957 6.83143 17.2243 7.95243 18.6105 7.95243ZM18.6105 3.95243C19.4434 3.95243 20.1193 4.62543 20.1193 5.45243C20.1193 6.27943 19.4424 6.95243 18.6105 6.95243C17.7786 6.95243 17.1016 6.27943 17.1016 5.45243C17.1016 4.62543 17.7786 3.95243 18.6105 3.95243ZM6.0355 19.9524C6.59077 19.9524 7.04142 19.5044 7.04142 18.9524C7.04142 18.4004 6.59077 17.9524 6.0355 17.9524C5.48024 17.9524 5.02959 18.4004 5.02959 18.9524C5.02959 19.5044 5.48024 19.9524 6.0355 19.9524ZM23.9529 17.1094L21.3124 11.8574C21.1886 11.6114 20.8869 11.5084 20.6374 11.6334C20.3889 11.7564 20.2873 12.0574 20.4121 12.3044L22.2519 15.9644C22.2107 15.9614 22.1714 15.9524 22.1302 15.9524H2.01183C1.96959 15.9524 1.93036 15.9624 1.88911 15.9644L6.09787 7.59143C6.11296 7.57143 6.12503 7.54843 6.13609 7.52643C6.30509 7.17243 6.65213 6.95243 7.04142 6.95243H11.6485C11.9262 6.95243 12.1515 6.72843 12.1515 6.45243C12.1515 6.17643 11.9262 5.95243 11.6485 5.95243H7.04142C6.29402 5.95243 5.60195 6.37643 5.25692 7.03543C5.24485 7.05443 5.23379 7.07243 5.22373 7.09243L0.189112 17.1084C0.186095 17.1144 0.187101 17.1214 0.184083 17.1274C0.0684024 17.3794 0 17.6574 0 17.9524V21.9524C0 23.0554 0.902308 23.9524 2.01183 23.9524H22.1302C23.2397 23.9524 24.142 23.0554 24.142 21.9524V17.9524C24.142 17.6574 24.0736 17.3794 23.9579 17.1274C23.9549 17.1214 23.9559 17.1154 23.9529 17.1094ZM23.1361 21.9524C23.1361 22.5044 22.6844 22.9524 22.1302 22.9524H2.01183C1.45757 22.9524 1.00592 22.5044 1.00592 21.9524V17.9524C1.00592 17.4004 1.45757 16.9524 2.01183 16.9524H22.1302C22.6844 16.9524 23.1361 17.4004 23.1361 17.9524V21.9524ZM3.01775 19.9524C3.57302 19.9524 4.02367 19.5044 4.02367 18.9524C4.02367 18.4004 3.57302 17.9524 3.01775 17.9524C2.46249 17.9524 2.01183 18.4004 2.01183 18.9524C2.01183 19.5044 2.46249 19.9524 3.01775 19.9524ZM21.6272 20.9524H2.51479C2.23716 20.9524 2.01183 21.1764 2.01183 21.4524C2.01183 21.7284 2.23716 21.9524 2.51479 21.9524H21.6272C21.9049 21.9524 22.1302 21.7284 22.1302 21.4524C22.1302 21.1764 21.9049 20.9524 21.6272 20.9524Z" fill="white"/>
</g>
</g>
</svg>
