<svg width="231" height="37" viewBox="0 0 231 37" fill="none" xmlns="http://www.w3.org/2000/svg">
<rect x="145.973" y="0.5" width="35.5501" height="35.5501" rx="7.5" stroke="white"/>
<rect x="194.469" y="0.5" width="35.5501" height="35.5501" rx="7.5" stroke="white"/>
<rect x="97.4844" y="0.5" width="35.5501" height="35.5501" rx="7.5" stroke="white"/>
<rect x="0.5" y="0.796875" width="35.5501" height="35.5501" rx="7.5" fill="url(#paint0_linear_675_23349)" stroke="url(#paint1_linear_675_23349)"/>
<rect x="48.9961" y="0.5" width="35.5501" height="35.5501" rx="7.5" stroke="white"/>
<g clip-path="url(#clip0_675_23349)">
<path d="M111.169 11.9898H119.448C119.702 11.9898 119.908 11.7935 119.908 11.5517V10.6757C119.908 9.95114 119.289 9.36153 118.528 9.36153H117.148C117.148 8.39522 116.323 7.60938 115.308 7.60938C114.294 7.60938 113.469 8.39522 113.469 9.36153H112.089C111.328 9.36153 110.709 9.95114 110.709 10.6757V11.5517C110.709 11.7935 110.915 11.9898 111.169 11.9898Z" fill="white"/>
<path d="M121.288 10.2383H120.781C120.811 10.3802 120.828 10.5265 120.828 10.6763V11.5524C120.828 12.2769 120.209 12.8665 119.448 12.8665H111.169C110.408 12.8665 109.789 12.2769 109.789 11.5524V10.6763C109.789 10.5265 109.806 10.3802 109.836 10.2383H109.329C108.568 10.2383 107.949 10.8279 107.949 11.5524V27.3218C107.949 28.0464 108.568 28.636 109.329 28.636H121.288C122.048 28.636 122.667 28.0464 122.667 27.3218V11.5524C122.667 10.8279 122.048 10.2383 121.288 10.2383ZM111.169 24.2556C110.915 24.2556 110.709 24.0593 110.709 23.8175C110.709 23.5757 110.915 23.3795 111.169 23.3795C111.423 23.3795 111.629 23.5757 111.629 23.8175C111.629 24.0593 111.423 24.2556 111.169 24.2556ZM111.169 21.6273C110.915 21.6273 110.709 21.4311 110.709 21.1893C110.709 20.9475 110.915 20.7512 111.169 20.7512C111.423 20.7512 111.629 20.9475 111.629 21.1893C111.629 21.4311 111.423 21.6273 111.169 21.6273ZM111.169 18.9991C110.915 18.9991 110.709 18.8028 110.709 18.561C110.709 18.3192 110.915 18.123 111.169 18.123C111.423 18.123 111.629 18.3192 111.629 18.561C111.629 18.8028 111.423 18.9991 111.169 18.9991ZM111.169 16.3708C110.915 16.3708 110.709 16.1746 110.709 15.9328C110.709 15.691 110.915 15.4948 111.169 15.4948C111.423 15.4948 111.629 15.691 111.629 15.9328C111.629 16.1746 111.423 16.3708 111.169 16.3708ZM119.448 24.2556H113.009C112.755 24.2556 112.549 24.0593 112.549 23.8175C112.549 23.5757 112.755 23.3795 113.009 23.3795H119.448C119.702 23.3795 119.908 23.5757 119.908 23.8175C119.908 24.0593 119.702 24.2556 119.448 24.2556ZM119.448 21.6273H113.009C112.755 21.6273 112.549 21.4311 112.549 21.1893C112.549 20.9475 112.755 20.7512 113.009 20.7512H119.448C119.702 20.7512 119.908 20.9475 119.908 21.1893C119.908 21.4311 119.702 21.6273 119.448 21.6273ZM119.448 18.9991H113.009C112.755 18.9991 112.549 18.8028 112.549 18.561C112.549 18.3192 112.755 18.123 113.009 18.123H119.448C119.702 18.123 119.908 18.3192 119.908 18.561C119.908 18.8028 119.702 18.9991 119.448 18.9991ZM119.448 16.3708H113.009C112.755 16.3708 112.549 16.1746 112.549 15.9328C112.549 15.691 112.755 15.4948 113.009 15.4948H119.448C119.702 15.4948 119.908 15.691 119.908 15.9328C119.908 16.1746 119.702 16.3708 119.448 16.3708Z" fill="white"/>
</g>
<g clip-path="url(#clip1_675_23349)">
<path d="M66.6021 16.371H73.9612C74.2151 16.371 74.4211 16.1748 74.4211 15.933C74.4211 15.6912 74.2151 15.495 73.9612 15.495H66.6021C66.3482 15.495 66.1422 15.6912 66.1422 15.933C66.1422 16.1748 66.3482 16.371 66.6021 16.371ZM66.6021 18.1232H71.2015C71.4554 18.1232 71.6615 17.927 71.6615 17.6852C71.6615 17.4434 71.4554 17.2471 71.2015 17.2471H66.6021C66.3482 17.2471 66.1422 17.4434 66.1422 17.6852C66.1422 17.927 66.3482 18.1232 66.6021 18.1232ZM66.6021 24.2558H71.2015C71.4554 24.2558 71.6615 24.0595 71.6615 23.8177C71.6615 23.5759 71.4554 23.3797 71.2015 23.3797H66.6021C66.3482 23.3797 66.1422 23.5759 66.1422 23.8177C66.1422 24.0595 66.3482 24.2558 66.6021 24.2558ZM75.8009 8.48633H58.3231C57.0546 8.48633 56.0234 9.46929 56.0234 10.6765V25.5699C56.0234 26.7771 57.0546 27.7601 58.3231 27.7601H75.8009C77.0695 27.7601 78.1007 26.7771 78.1007 25.5699V10.6765C78.1007 9.46929 77.0695 8.48633 75.8009 8.48633ZM62.0027 10.2385C62.2566 10.2385 62.4626 10.4347 62.4626 10.6765C62.4626 10.9183 62.2566 11.1146 62.0027 11.1146C61.7488 11.1146 61.5427 10.9183 61.5427 10.6765C61.5427 10.4347 61.7488 10.2385 62.0027 10.2385ZM60.1629 10.2385C60.4168 10.2385 60.6229 10.4347 60.6229 10.6765C60.6229 10.9183 60.4168 11.1146 60.1629 11.1146C59.909 11.1146 59.703 10.9183 59.703 10.6765C59.703 10.4347 59.909 10.2385 60.1629 10.2385ZM58.3231 10.2385C58.577 10.2385 58.7831 10.4347 58.7831 10.6765C58.7831 10.9183 58.577 11.1146 58.3231 11.1146C58.0693 11.1146 57.8632 10.9183 57.8632 10.6765C57.8632 10.4347 58.0693 10.2385 58.3231 10.2385ZM77.1808 25.5699C77.1808 26.2944 76.5617 26.884 75.8009 26.884H58.3231C57.5624 26.884 56.9433 26.2944 56.9433 25.5699V12.8667H77.1808V25.5699ZM60.1629 25.1318H63.8425C64.0963 25.1318 64.3024 24.9356 64.3024 24.6938V21.1895C64.3024 20.9477 64.0963 20.7514 63.8425 20.7514H60.1629C59.909 20.7514 59.703 20.9477 59.703 21.1895V24.6938C59.703 24.9356 59.909 25.1318 60.1629 25.1318ZM60.1629 18.9993H63.8425C64.0963 18.9993 64.3024 18.803 64.3024 18.5612V15.0569C64.3024 14.8151 64.0963 14.6189 63.8425 14.6189H60.1629C59.909 14.6189 59.703 14.8151 59.703 15.0569V18.5612C59.703 18.803 59.909 18.9993 60.1629 18.9993ZM66.6021 22.5036H73.9612C74.2151 22.5036 74.4211 22.3074 74.4211 22.0656C74.4211 21.8238 74.2151 21.6275 73.9612 21.6275H66.6021C66.3482 21.6275 66.1422 21.8238 66.1422 22.0656C66.1422 22.3074 66.3482 22.5036 66.6021 22.5036Z" fill="white"/>
</g>
<g clip-path="url(#clip2_675_23349)">
<path d="M209.315 26.8824C210.585 26.8824 211.615 25.9018 211.615 24.6922C211.615 23.4825 210.585 22.502 209.315 22.502C208.045 22.502 207.016 23.4825 207.016 24.6922C207.016 25.9018 208.045 26.8824 209.315 26.8824Z" fill="white"/>
<path d="M212.342 20.7506H209.737C208.645 20.7506 207.697 20.0094 207.482 18.9897L207.473 18.9494L215.518 18.0207C216.401 17.531 217.422 17.2463 218.514 17.2463C219.099 17.2463 219.663 17.3304 220.197 17.4802L221.549 17.3242C222.168 17.2524 222.661 16.7924 222.749 16.2055L223.57 10.7379C223.589 10.6117 223.549 10.4847 223.462 10.3892C223.375 10.2937 223.247 10.2376 223.113 10.2376H205.645L205.166 7.96156C205.123 7.75656 204.935 7.60938 204.716 7.60938H201.956C201.702 7.60938 201.496 7.80562 201.496 8.04741C201.496 8.28921 201.702 8.48545 201.956 8.48545H204.339L206.58 19.1622C206.881 20.5894 208.208 21.6267 209.737 21.6267H212.342C212.596 21.6267 212.802 21.4304 212.802 21.1886C212.802 20.9468 212.596 20.7506 212.342 20.7506Z" fill="white"/>
<path d="M218.514 18.123C215.725 18.123 213.455 20.2852 213.455 22.9415C213.455 25.5978 215.725 27.7599 218.514 27.7599C221.303 27.7599 223.573 25.5978 223.573 22.9415C223.573 20.2852 221.303 18.123 218.514 18.123ZM220.354 23.3795H218.974V25.1317C218.974 25.3735 218.768 25.5697 218.514 25.5697C218.26 25.5697 218.054 25.3735 218.054 25.1317V23.3795H216.674C216.42 23.3795 216.214 23.1833 216.214 22.9415C216.214 22.6997 216.42 22.5034 216.674 22.5034H218.054V21.6274C218.054 21.3856 218.26 21.1893 218.514 21.1893C218.768 21.1893 218.974 21.3856 218.974 21.6274V22.5034H220.354C220.608 22.5034 220.814 22.6997 220.814 22.9415C220.814 23.1833 220.608 23.3795 220.354 23.3795Z" fill="white"/>
</g>
<g clip-path="url(#clip3_675_23349)">
<path d="M169.162 17.7088C169.153 17.679 169.141 17.6509 169.133 17.6212C169.099 17.4889 169.077 17.3531 169.077 17.212C169.077 17.071 169.099 16.9352 169.133 16.8038C169.141 16.774 169.153 16.7451 169.162 16.7161C169.196 16.6084 169.238 16.5068 169.292 16.4087C169.3 16.3955 169.302 16.3797 169.31 16.3666C169.234 16.3456 169.156 16.3359 169.077 16.3359C168.569 16.3359 168.157 16.7293 168.157 17.212C168.157 17.7701 168.751 18.2055 169.31 18.0583C169.302 18.0452 169.3 18.0294 169.292 18.0163C169.238 17.9181 169.195 17.8157 169.162 17.7088Z" fill="white"/>
<path d="M170.917 16.3359C170.678 16.3359 170.463 16.4288 170.3 16.5716C170.21 16.6496 170.142 16.7407 170.092 16.8397C170.087 16.8476 170.08 16.8537 170.076 16.8625C170.025 16.9711 169.997 17.0894 169.997 17.212C169.997 17.3347 170.025 17.4529 170.076 17.5616C170.08 17.5703 170.088 17.5756 170.092 17.5843C170.142 17.6825 170.21 17.7745 170.3 17.8524C170.463 17.9961 170.678 18.0881 170.917 18.0881C171.425 18.0881 171.837 17.6947 171.837 17.212C171.837 16.7293 171.425 16.3359 170.917 16.3359Z" fill="white"/>
<path d="M172.297 11.0801H161.258C159.99 11.0801 158.958 12.063 158.958 13.2703V17.1215L160.904 15.2686C161.351 14.8428 161.983 14.5984 162.638 14.5984C163.293 14.5984 163.925 14.8428 164.372 15.2686C165.196 16.0536 165.324 17.2932 164.678 18.2157L163.209 20.1379C163.136 20.2342 163.098 20.3437 163.098 20.4629C163.098 20.5812 163.144 20.6591 163.189 20.717H172.297C173.565 20.717 174.597 19.734 174.597 18.5268V13.2703C174.597 12.0622 173.565 11.0801 172.297 11.0801ZM163.098 13.7083H162.178C161.924 13.7083 161.718 13.5121 161.718 13.2703C161.718 13.0285 161.924 12.8322 162.178 12.8322H163.098C163.352 12.8322 163.558 13.0285 163.558 13.2703C163.558 13.5121 163.352 13.7083 163.098 13.7083ZM170.457 12.8322H171.377C171.631 12.8322 171.837 13.0285 171.837 13.2703C171.837 13.5121 171.631 13.7083 171.377 13.7083H170.457C170.203 13.7083 169.997 13.5121 169.997 13.2703C169.997 13.0285 170.203 12.8322 170.457 12.8322ZM167.697 12.8322H168.617C168.871 12.8322 169.077 13.0285 169.077 13.2703C169.077 13.5121 168.871 13.7083 168.617 13.7083H167.697C167.444 13.7083 167.237 13.5121 167.237 13.2703C167.237 13.0285 167.444 12.8322 167.697 12.8322ZM165.858 13.7083H164.938C164.684 13.7083 164.478 13.5121 164.478 13.2703C164.478 13.0285 164.684 12.8322 164.938 12.8322H165.858C166.112 12.8322 166.318 13.0285 166.318 13.2703C166.318 13.5121 166.112 13.7083 165.858 13.7083ZM170.917 18.9648C170.581 18.9648 170.269 18.8719 169.998 18.7221C169.718 18.8789 169.402 18.9648 169.077 18.9648C168.063 18.9648 167.237 18.179 167.237 17.2126C167.237 16.2463 168.063 15.4605 169.077 15.4605C169.403 15.4605 169.718 15.5472 169.998 15.7032C170.269 15.5525 170.581 15.4605 170.917 15.4605C171.932 15.4605 172.757 16.2463 172.757 17.2126C172.757 18.179 171.932 18.9648 170.917 18.9648Z" fill="white"/>
<path d="M156.975 19.1006C156.17 18.3734 153.536 18.1448 153.015 18.1063C152.88 18.0992 152.761 18.1395 152.667 18.221C152.574 18.3034 152.52 18.4208 152.52 18.5425V24.6751C152.52 24.9169 152.726 25.1131 152.979 25.1131C154.237 25.1131 155.897 24.2178 155.967 24.1792C156.067 24.1249 156.142 24.0364 156.178 23.9322C156.207 23.8428 156.909 21.7323 157.117 19.4563C157.13 19.3231 157.077 19.1917 156.975 19.1006Z" fill="white"/>
<path d="M168.618 21.6078L165.822 21.6087L163.754 21.7638C162.908 21.8829 162.178 21.2504 162.178 20.4628C162.178 20.1579 162.278 19.8679 162.465 19.6226L163.912 17.7294C164.315 17.153 164.236 16.3785 163.721 15.8879C163.143 15.3368 162.132 15.3368 161.555 15.8879L159.223 18.1088C158.675 18.1377 158.158 18.2945 157.7 18.5468L157.93 18.7544C158.032 18.8455 158.085 18.977 158.072 19.1101L158.033 19.5315C157.815 21.9144 157.084 24.1055 157.054 24.1984L156.984 24.4078L161.593 25.0806C161.802 25.1375 162.099 25.1665 162.477 25.1665C163.19 25.1665 164.653 25.0403 165.218 24.5716L168.861 22.4182C169.034 22.3148 169.116 22.1142 169.06 21.9258C169.004 21.7375 168.824 21.6078 168.618 21.6078Z" fill="white"/>
</g>
<g clip-path="url(#clip4_675_23349)">
<path d="M13.3388 11.9898C13.5927 11.9898 13.7988 11.7935 13.7988 11.5517V8.04741C13.7988 7.80562 13.5927 7.60938 13.3388 7.60938C13.085 7.60938 12.8789 7.80562 12.8789 8.04741V11.5517C12.8789 11.7935 13.085 11.9898 13.3388 11.9898Z" fill="white"/>
<path d="M23.4575 11.9898C23.7114 11.9898 23.9174 11.7935 23.9174 11.5517V8.04741C23.9174 7.80562 23.7114 7.60938 23.4575 7.60938C23.2036 7.60938 22.9976 7.80562 22.9976 8.04741V11.5517C22.9976 11.7935 23.2036 11.9898 23.4575 11.9898Z" fill="white"/>
<path d="M26.217 9.36133H24.8372V11.5515C24.8372 12.276 24.2181 12.8656 23.4573 12.8656C22.6966 12.8656 22.0775 12.276 22.0775 11.5515V9.36133H14.7184V11.5515C14.7184 12.276 14.0994 12.8656 13.3386 12.8656C12.5779 12.8656 11.9588 12.276 11.9588 11.5515V9.36133H10.579C8.80359 9.36133 7.35938 10.7368 7.35938 12.4276V13.7417H29.4366V12.4276C29.4366 10.7368 27.9924 9.36133 26.217 9.36133Z" fill="white"/>
<path d="M7.35938 25.5682C7.35938 27.259 8.80359 28.6345 10.579 28.6345H26.217C27.9924 28.6345 29.4366 27.259 29.4366 25.5682V14.6172H7.35938V25.5682ZM20.1034 19.7458C19.9241 19.9166 19.6325 19.9166 19.4531 19.7458C19.2737 19.5749 19.2737 19.2972 19.4531 19.1264L21.2929 17.3742C21.4253 17.2489 21.6231 17.2104 21.7942 17.2796C21.9653 17.3462 22.0775 17.5065 22.0775 17.6835V24.2541H23.4573C23.7112 24.2541 23.9173 24.4503 23.9173 24.6921C23.9173 24.9339 23.7112 25.1301 23.4573 25.1301H19.7778C19.5239 25.1301 19.3179 24.9339 19.3179 24.6921C19.3179 24.4503 19.5239 24.2541 19.7778 24.2541H21.1576V18.7409L20.1034 19.7458ZM15.1784 21.6258H14.2585C14.0046 21.6258 13.7986 21.4296 13.7986 21.1878C13.7986 20.946 14.0046 20.7497 14.2585 20.7497H15.1784C15.9391 20.7497 16.5582 20.1601 16.5582 19.4356C16.5582 18.7111 15.9391 18.1215 15.1784 18.1215C14.4176 18.1215 13.7986 18.7111 13.7986 19.4356C13.7986 19.6774 13.5925 19.8737 13.3386 19.8737C13.0847 19.8737 12.8787 19.6774 12.8787 19.4356C12.8787 18.2284 13.9108 17.2454 15.1784 17.2454C16.446 17.2454 17.4781 18.2284 17.4781 19.4356C17.4781 20.1505 17.1157 20.7883 16.5573 21.1878C17.1157 21.5873 17.4781 22.2251 17.4781 22.9399C17.4781 24.1481 16.446 25.1301 15.1784 25.1301C13.9108 25.1301 12.8787 24.1481 12.8787 22.9399C12.8787 22.6981 13.0847 22.5019 13.3386 22.5019C13.5925 22.5019 13.7986 22.6981 13.7986 22.9399C13.7986 23.6645 14.4176 24.2541 15.1784 24.2541C15.9391 24.2541 16.5582 23.6645 16.5582 22.9399C16.5582 22.2154 15.9391 21.6258 15.1784 21.6258Z" fill="white"/>
</g>
<defs>
<linearGradient id="paint0_linear_675_23349" x1="18.2751" y1="0.296875" x2="18.2751" y2="36.847" gradientUnits="userSpaceOnUse">
<stop stop-color="#BD00FF"/>
<stop offset="1" stop-color="#0038FF"/>
</linearGradient>
<linearGradient id="paint1_linear_675_23349" x1="18.2751" y1="0.296875" x2="18.2751" y2="36.847" gradientUnits="userSpaceOnUse">
<stop stop-color="#BD00FF"/>
<stop offset="1" stop-color="#0038FF"/>
</linearGradient>
<clipPath id="clip0_675_23349">
<rect width="22.0772" height="21.0259" fill="white" transform="translate(104.27 7.60938)"/>
</clipPath>
<clipPath id="clip1_675_23349">
<rect width="22.0772" height="21.0259" fill="white" transform="translate(56.0234 7.60938)"/>
</clipPath>
<clipPath id="clip2_675_23349">
<rect width="22.0772" height="21.0259" fill="white" transform="translate(201.496 7.60938)"/>
</clipPath>
<clipPath id="clip3_675_23349">
<rect width="22.0772" height="21.0259" fill="white" transform="translate(152.52 7.60938)"/>
</clipPath>
<clipPath id="clip4_675_23349">
<rect width="22.0772" height="21.0259" fill="white" transform="translate(7.35938 7.60938)"/>
</clipPath>
</defs>
</svg>
