<svg width="316" height="51" viewBox="0 0 316 51" fill="none" xmlns="http://www.w3.org/2000/svg">
<rect x="199.508" y="0.5" width="49" height="49" rx="7.5" stroke="white"/>
<rect x="265.844" y="0.5" width="49" height="49" rx="7.5" stroke="white"/>
<rect x="133.172" y="0.5" width="49" height="49" rx="7.5" stroke="white"/>
<rect x="0.5" y="0.910156" width="49" height="49" rx="7.5" fill="url(#paint0_linear_675_29607)" stroke="url(#paint1_linear_675_29607)"/>
<rect x="66.8359" y="0.5" width="49" height="49" rx="7.5" stroke="white"/>
<g clip-path="url(#clip0_675_29607)">
<path d="M152.08 16.4025H163.406C163.753 16.4025 164.035 16.134 164.035 15.8032V14.6048C164.035 13.6137 163.188 12.8071 162.147 12.8071H160.26C160.26 11.4852 159.131 10.4102 157.743 10.4102C156.355 10.4102 155.226 11.4852 155.226 12.8071H153.339C152.298 12.8071 151.451 13.6137 151.451 14.6048V15.8032C151.451 16.134 151.733 16.4025 152.08 16.4025Z" fill="white"/>
<path d="M165.923 14.0059H165.229C165.271 14.2 165.293 14.4002 165.293 14.6051V15.8036C165.293 16.7947 164.447 17.6013 163.406 17.6013H152.08C151.04 17.6013 150.193 16.7947 150.193 15.8036V14.6051C150.193 14.4002 150.215 14.2 150.257 14.0059H149.564C148.523 14.0059 147.676 14.8124 147.676 15.8036V37.3759C147.676 38.367 148.523 39.1736 149.564 39.1736H165.923C166.963 39.1736 167.81 38.367 167.81 37.3759V15.8036C167.81 14.8124 166.963 14.0059 165.923 14.0059ZM152.08 33.1813C151.733 33.1813 151.451 32.9128 151.451 32.5821C151.451 32.2513 151.733 31.9828 152.08 31.9828C152.428 31.9828 152.71 32.2513 152.71 32.5821C152.71 32.9128 152.428 33.1813 152.08 33.1813ZM152.08 29.5859C151.733 29.5859 151.451 29.3174 151.451 28.9867C151.451 28.6559 151.733 28.3874 152.08 28.3874C152.428 28.3874 152.71 28.6559 152.71 28.9867C152.71 29.3174 152.428 29.5859 152.08 29.5859ZM152.08 25.9905C151.733 25.9905 151.451 25.722 151.451 25.3913C151.451 25.0605 151.733 24.792 152.08 24.792C152.428 24.792 152.71 25.0605 152.71 25.3913C152.71 25.722 152.428 25.9905 152.08 25.9905ZM152.08 22.3951C151.733 22.3951 151.451 22.1267 151.451 21.7959C151.451 21.4651 151.733 21.1966 152.08 21.1966C152.428 21.1966 152.71 21.4651 152.71 21.7959C152.71 22.1267 152.428 22.3951 152.08 22.3951ZM163.406 33.1813H154.597C154.25 33.1813 153.968 32.9128 153.968 32.5821C153.968 32.2513 154.25 31.9828 154.597 31.9828H163.406C163.753 31.9828 164.035 32.2513 164.035 32.5821C164.035 32.9128 163.753 33.1813 163.406 33.1813ZM163.406 29.5859H154.597C154.25 29.5859 153.968 29.3174 153.968 28.9867C153.968 28.6559 154.25 28.3874 154.597 28.3874H163.406C163.753 28.3874 164.035 28.6559 164.035 28.9867C164.035 29.3174 163.753 29.5859 163.406 29.5859ZM163.406 25.9905H154.597C154.25 25.9905 153.968 25.722 153.968 25.3913C153.968 25.0605 154.25 24.792 154.597 24.792H163.406C163.753 24.792 164.035 25.0605 164.035 25.3913C164.035 25.722 163.753 25.9905 163.406 25.9905ZM163.406 22.3951H154.597C154.25 22.3951 153.968 22.1267 153.968 21.7959C153.968 21.4651 154.25 21.1966 154.597 21.1966H163.406C163.753 21.1966 164.035 21.4651 164.035 21.7959C164.035 22.1267 163.753 22.3951 163.406 22.3951Z" fill="white"/>
</g>
<g clip-path="url(#clip1_675_29607)">
<path d="M91.114 22.3946H101.181C101.528 22.3946 101.81 22.1261 101.81 21.7953C101.81 21.4646 101.528 21.1961 101.181 21.1961H91.114C90.7667 21.1961 90.4848 21.4646 90.4848 21.7953C90.4848 22.1261 90.7667 22.3946 91.114 22.3946ZM91.114 24.7915H97.406C97.7533 24.7915 98.0352 24.523 98.0352 24.1923C98.0352 23.8615 97.7533 23.593 97.406 23.593H91.114C90.7667 23.593 90.4848 23.8615 90.4848 24.1923C90.4848 24.523 90.7667 24.7915 91.114 24.7915ZM91.114 33.1808H97.406C97.7533 33.1808 98.0352 32.9123 98.0352 32.5815C98.0352 32.2507 97.7533 31.9823 97.406 31.9823H91.114C90.7667 31.9823 90.4848 32.2507 90.4848 32.5815C90.4848 32.9123 90.7667 33.1808 91.114 33.1808ZM103.698 11.6084H79.7885C78.0532 11.6084 76.6426 12.9531 76.6426 14.6046V34.9785C76.6426 36.6299 78.0532 37.9746 79.7885 37.9746H103.698C105.433 37.9746 106.844 36.6299 106.844 34.9785V14.6046C106.844 12.9531 105.433 11.6084 103.698 11.6084ZM84.8221 14.0053C85.1694 14.0053 85.4513 14.2738 85.4513 14.6046C85.4513 14.9353 85.1694 15.2038 84.8221 15.2038C84.4748 15.2038 84.1929 14.9353 84.1929 14.6046C84.1929 14.2738 84.4748 14.0053 84.8221 14.0053ZM82.3053 14.0053C82.6526 14.0053 82.9345 14.2738 82.9345 14.6046C82.9345 14.9353 82.6526 15.2038 82.3053 15.2038C81.958 15.2038 81.6761 14.9353 81.6761 14.6046C81.6761 14.2738 81.958 14.0053 82.3053 14.0053ZM79.7885 14.0053C80.1359 14.0053 80.4177 14.2738 80.4177 14.6046C80.4177 14.9353 80.1359 15.2038 79.7885 15.2038C79.4412 15.2038 79.1594 14.9353 79.1594 14.6046C79.1594 14.2738 79.4412 14.0053 79.7885 14.0053ZM105.585 34.9785C105.585 35.9696 104.739 36.7761 103.698 36.7761H79.7885C78.7479 36.7761 77.901 35.9696 77.901 34.9785V17.6007H105.585V34.9785ZM82.3053 34.3792H87.3389C87.6862 34.3792 87.9681 34.1108 87.9681 33.78V28.9861C87.9681 28.6554 87.6862 28.3869 87.3389 28.3869H82.3053C81.958 28.3869 81.6761 28.6554 81.6761 28.9861V33.78C81.6761 34.1108 81.958 34.3792 82.3053 34.3792ZM82.3053 25.99H87.3389C87.6862 25.99 87.9681 25.7215 87.9681 25.3907V20.5969C87.9681 20.2661 87.6862 19.9976 87.3389 19.9976H82.3053C81.958 19.9976 81.6761 20.2661 81.6761 20.5969V25.3907C81.6761 25.7215 81.958 25.99 82.3053 25.99ZM91.114 30.7838H101.181C101.528 30.7838 101.81 30.5154 101.81 30.1846C101.81 29.8538 101.528 29.5854 101.181 29.5854H91.114C90.7667 29.5854 90.4848 29.8538 90.4848 30.1846C90.4848 30.5154 90.7667 30.7838 91.114 30.7838Z" fill="white"/>
</g>
<g clip-path="url(#clip2_675_29607)">
<path d="M286.339 36.7765C288.076 36.7765 289.485 35.4351 289.485 33.7803C289.485 32.1256 288.076 30.7842 286.339 30.7842C284.601 30.7842 283.193 32.1256 283.193 33.7803C283.193 35.4351 284.601 36.7765 286.339 36.7765Z" fill="white"/>
<path d="M290.48 28.3871H286.916C285.422 28.3871 284.125 27.3732 283.831 25.9782L283.82 25.9231L294.824 24.6527C296.032 23.9828 297.429 23.5933 298.923 23.5933C299.723 23.5933 300.494 23.7083 301.226 23.9133L303.074 23.6999C303.921 23.6017 304.596 22.9725 304.716 22.1695L305.839 14.6899C305.865 14.5173 305.811 14.3435 305.692 14.2129C305.572 14.0823 305.397 14.0055 305.215 14.0055H281.318L280.664 10.8919C280.604 10.6115 280.346 10.4102 280.047 10.4102H276.272C275.924 10.4102 275.643 10.6786 275.643 11.0094C275.643 11.3402 275.924 11.6086 276.272 11.6086H279.531L282.598 26.2143C283.009 28.1666 284.825 29.5856 286.916 29.5856H290.48C290.828 29.5856 291.109 29.3171 291.109 28.9864C291.109 28.6556 290.828 28.3871 290.48 28.3871Z" fill="white"/>
<path d="M298.923 24.792C295.107 24.792 292.002 27.7498 292.002 31.3835C292.002 35.0173 295.107 37.9751 298.923 37.9751C302.738 37.9751 305.844 35.0173 305.844 31.3835C305.844 27.7498 302.738 24.792 298.923 24.792ZM301.44 31.9828H299.552V34.3797C299.552 34.7105 299.27 34.9789 298.923 34.9789C298.576 34.9789 298.294 34.7105 298.294 34.3797V31.9828H296.406C296.059 31.9828 295.777 31.7143 295.777 31.3835C295.777 31.0528 296.059 30.7843 296.406 30.7843H298.294V29.5858C298.294 29.2551 298.576 28.9866 298.923 28.9866C299.27 28.9866 299.552 29.2551 299.552 29.5858V30.7843H301.44C301.787 30.7843 302.069 31.0528 302.069 31.3835C302.069 31.7143 301.787 31.9828 301.44 31.9828Z" fill="white"/>
</g>
<g clip-path="url(#clip3_675_29607)">
<path d="M231.409 24.2257C231.397 24.1849 231.38 24.1466 231.37 24.1058C231.324 23.9248 231.294 23.7391 231.294 23.5461C231.294 23.3532 231.324 23.1674 231.37 22.9876C231.38 22.9469 231.397 22.9073 231.409 22.8678C231.456 22.7204 231.514 22.5814 231.588 22.4471C231.598 22.4292 231.602 22.4076 231.612 22.3896C231.509 22.3608 231.402 22.3477 231.294 22.3477C230.599 22.3477 230.035 22.8858 230.035 23.5461C230.035 24.3095 230.848 24.9052 231.612 24.7038C231.602 24.6859 231.598 24.6643 231.588 24.6463C231.514 24.5121 231.455 24.3719 231.409 24.2257Z" fill="white"/>
<path d="M233.81 22.3477C233.483 22.3477 233.19 22.4747 232.966 22.6701C232.844 22.7767 232.751 22.9014 232.681 23.0368C232.675 23.0476 232.665 23.056 232.66 23.0679C232.59 23.2166 232.552 23.3783 232.552 23.5461C232.552 23.7139 232.59 23.8757 232.66 24.0243C232.665 24.0363 232.676 24.0435 232.681 24.0555C232.751 24.1897 232.844 24.3155 232.966 24.4222C233.19 24.6187 233.483 24.7446 233.81 24.7446C234.505 24.7446 235.069 24.2065 235.069 23.5461C235.069 22.8858 234.505 22.3477 233.81 22.3477Z" fill="white"/>
<path d="M235.698 15.1572H220.597C218.862 15.1572 217.451 16.5019 217.451 18.1534V23.4218L220.113 20.8871C220.724 20.3046 221.589 19.9702 222.485 19.9702C223.381 19.9702 224.245 20.3046 224.857 20.8871C225.984 21.9609 226.159 23.6567 225.276 24.9187L223.266 27.5481C223.166 27.68 223.114 27.8298 223.114 27.9928C223.114 28.1546 223.177 28.2612 223.238 28.3403H235.698C237.433 28.3403 238.844 26.9957 238.844 25.3442V18.1534C238.844 16.5007 237.433 15.1572 235.698 15.1572ZM223.114 18.7526H221.856C221.508 18.7526 221.226 18.4842 221.226 18.1534C221.226 17.8226 221.508 17.5542 221.856 17.5542H223.114C223.461 17.5542 223.743 17.8226 223.743 18.1534C223.743 18.4842 223.461 18.7526 223.114 18.7526ZM233.181 17.5542H234.439C234.787 17.5542 235.069 17.8226 235.069 18.1534C235.069 18.4842 234.787 18.7526 234.439 18.7526H233.181C232.834 18.7526 232.552 18.4842 232.552 18.1534C232.552 17.8226 232.834 17.5542 233.181 17.5542ZM229.406 17.5542H230.664C231.012 17.5542 231.293 17.8226 231.293 18.1534C231.293 18.4842 231.012 18.7526 230.664 18.7526H229.406C229.059 18.7526 228.777 18.4842 228.777 18.1534C228.777 17.8226 229.059 17.5542 229.406 17.5542ZM226.889 18.7526H225.631C225.283 18.7526 225.001 18.4842 225.001 18.1534C225.001 17.8226 225.283 17.5542 225.631 17.5542H226.889C227.236 17.5542 227.518 17.8226 227.518 18.1534C227.518 18.4842 227.236 18.7526 226.889 18.7526ZM233.81 25.9434C233.351 25.9434 232.924 25.8164 232.553 25.6114C232.171 25.8259 231.738 25.9434 231.293 25.9434C229.905 25.9434 228.777 24.8684 228.777 23.5465C228.777 22.2246 229.905 21.1495 231.293 21.1495C231.739 21.1495 232.171 21.2682 232.553 21.4815C232.924 21.2754 233.351 21.1495 233.81 21.1495C235.198 21.1495 236.327 22.2246 236.327 23.5465C236.327 24.8684 235.198 25.9434 233.81 25.9434Z" fill="white"/>
<path d="M214.738 26.1279C213.636 25.1332 210.033 24.8204 209.321 24.7677C209.136 24.7581 208.974 24.8132 208.844 24.9246C208.717 25.0373 208.643 25.1979 208.643 25.3645V33.7537C208.643 34.0845 208.924 34.353 209.272 34.353C210.992 34.353 213.263 33.1281 213.359 33.0754C213.495 33.0011 213.598 32.8801 213.647 32.7375C213.687 32.6152 214.648 29.7281 214.932 26.6145C214.95 26.4323 214.877 26.2525 214.738 26.1279Z" fill="white"/>
<path d="M230.664 29.5591L226.84 29.5603L224.011 29.7724C222.854 29.9354 221.856 29.0701 221.856 27.9927C221.856 27.5756 221.992 27.1789 222.248 26.8434L224.228 24.2535C224.779 23.4649 224.671 22.4055 223.966 21.7343C223.174 20.9805 221.793 20.9805 221.002 21.7343L217.812 24.7724C217.062 24.812 216.355 25.0265 215.729 25.3717L216.044 25.6557C216.183 25.7803 216.256 25.9601 216.238 26.1423L216.185 26.7187C215.887 29.9786 214.887 32.9759 214.845 33.1029L214.75 33.3894L221.054 34.3098C221.341 34.3877 221.747 34.4273 222.265 34.4273C223.24 34.4273 225.241 34.2547 226.013 33.6135L230.997 30.6677C231.234 30.5263 231.346 30.2518 231.27 29.9941C231.193 29.7365 230.946 29.5591 230.664 29.5591Z" fill="white"/>
</g>
<g clip-path="url(#clip4_675_29607)">
<path d="M18.2478 16.4025C18.5952 16.4025 18.877 16.134 18.877 15.8032V11.0094C18.877 10.6786 18.5952 10.4102 18.2478 10.4102C17.9005 10.4102 17.6187 10.6786 17.6187 11.0094V15.8032C17.6187 16.134 17.9005 16.4025 18.2478 16.4025Z" fill="white"/>
<path d="M32.0901 16.4025C32.4374 16.4025 32.7193 16.134 32.7193 15.8032V11.0094C32.7193 10.6786 32.4374 10.4102 32.0901 10.4102C31.7428 10.4102 31.4609 10.6786 31.4609 11.0094V15.8032C31.4609 16.134 31.7428 16.4025 32.0901 16.4025Z" fill="white"/>
<path d="M35.8653 12.8066H33.9777V15.8028C33.9777 16.7939 33.1308 17.6005 32.0901 17.6005C31.0495 17.6005 30.2026 16.7939 30.2026 15.8028V12.8066H20.1355V15.8028C20.1355 16.7939 19.2886 17.6005 18.2479 17.6005C17.2072 17.6005 16.3603 16.7939 16.3603 15.8028V12.8066H14.4727C12.044 12.8066 10.0684 14.6882 10.0684 17.0013V18.799H40.2697V17.0013C40.2697 14.6882 38.294 12.8066 35.8653 12.8066Z" fill="white"/>
<path d="M10.0684 34.9788C10.0684 37.2919 12.044 39.1735 14.4727 39.1735H35.8653C38.294 39.1735 40.2697 37.2919 40.2697 34.9788V19.998H10.0684V34.9788ZM27.5021 27.0139C27.2567 27.2476 26.8578 27.2476 26.6124 27.0139C26.367 26.7802 26.367 26.4002 26.6124 26.1665L29.1292 23.7696C29.3104 23.5982 29.5809 23.5455 29.815 23.6402C30.049 23.7313 30.2026 23.9506 30.2026 24.1927V33.1812H32.0901C32.4375 33.1812 32.7193 33.4496 32.7193 33.7804C32.7193 34.1112 32.4375 34.3796 32.0901 34.3796H27.0566C26.7093 34.3796 26.4274 34.1112 26.4274 33.7804C26.4274 33.4496 26.7093 33.1812 27.0566 33.1812H28.9442V25.6392L27.5021 27.0139ZM20.7647 29.5858H19.5063C19.1589 29.5858 18.8771 29.3173 18.8771 28.9865C18.8771 28.6558 19.1589 28.3873 19.5063 28.3873H20.7647C21.8053 28.3873 22.6522 27.5807 22.6522 26.5896C22.6522 25.5985 21.8053 24.7919 20.7647 24.7919C19.724 24.7919 18.8771 25.5985 18.8771 26.5896C18.8771 26.9204 18.5952 27.1888 18.2479 27.1888C17.9006 27.1888 17.6187 26.9204 17.6187 26.5896C17.6187 24.9381 19.0306 23.5934 20.7647 23.5934C22.4987 23.5934 23.9106 24.9381 23.9106 26.5896C23.9106 27.5675 23.4148 28.44 22.651 28.9865C23.4148 29.533 23.9106 30.4055 23.9106 31.3835C23.9106 33.0361 22.4987 34.3796 20.7647 34.3796C19.0306 34.3796 17.6187 33.0361 17.6187 31.3835C17.6187 31.0527 17.9006 30.7842 18.2479 30.7842C18.5952 30.7842 18.8771 31.0527 18.8771 31.3835C18.8771 32.3746 19.724 33.1812 20.7647 33.1812C21.8053 33.1812 22.6522 32.3746 22.6522 31.3835C22.6522 30.3923 21.8053 29.5858 20.7647 29.5858Z" fill="white"/>
</g>
<defs>
<linearGradient id="paint0_linear_675_29607" x1="25" y1="0.410156" x2="25" y2="50.4102" gradientUnits="userSpaceOnUse">
<stop stop-color="#BD00FF"/>
<stop offset="1" stop-color="#0038FF"/>
</linearGradient>
<linearGradient id="paint1_linear_675_29607" x1="25" y1="0.410156" x2="25" y2="50.4102" gradientUnits="userSpaceOnUse">
<stop stop-color="#BD00FF"/>
<stop offset="1" stop-color="#0038FF"/>
</linearGradient>
<clipPath id="clip0_675_29607">
<rect width="30.2013" height="28.7631" fill="white" transform="translate(142.643 10.4102)"/>
</clipPath>
<clipPath id="clip1_675_29607">
<rect width="30.2013" height="28.7631" fill="white" transform="translate(76.6426 10.4102)"/>
</clipPath>
<clipPath id="clip2_675_29607">
<rect width="30.2013" height="28.7631" fill="white" transform="translate(275.643 10.4102)"/>
</clipPath>
<clipPath id="clip3_675_29607">
<rect width="30.2013" height="28.7631" fill="white" transform="translate(208.643 10.4102)"/>
</clipPath>
<clipPath id="clip4_675_29607">
<rect width="30.2013" height="28.7631" fill="white" transform="translate(10.0684 10.4102)"/>
</clipPath>
</defs>
</svg>
