<svg width="146" height="146" viewBox="0 0 146 146" fill="none" xmlns="http://www.w3.org/2000/svg">
<g id="Group">
<g id="Group_2">
<path id="Vector" d="M124.708 146H21.2917C9.55083 146 0 136.449 0 124.708V21.2917C0 9.55083 9.55083 0 21.2917 0H124.708C136.449 0 146 9.55083 146 21.2917V124.708C146 136.449 136.449 146 124.708 146ZM21.2917 6.08333C12.9088 6.08333 6.08333 12.9088 6.08333 21.2917V124.708C6.08333 133.091 12.9088 139.917 21.2917 139.917H124.708C133.091 139.917 139.917 133.091 139.917 124.708V21.2917C139.917 12.9088 133.091 6.08333 124.708 6.08333H21.2917Z" fill="white"/>
</g>
<g id="Group_3">
<path id="Vector_2" d="M142.958 30.4167H3.04167C1.36267 30.4167 0 29.054 0 27.375C0 25.696 1.36267 24.3334 3.04167 24.3334H142.958C144.637 24.3334 146 25.696 146 27.375C146 29.054 144.637 30.4167 142.958 30.4167Z" fill="white"/>
</g>
<g id="Group_4">
<path id="Vector_3" d="M21.2917 18.25C22.9715 18.25 24.3333 16.8882 24.3333 15.2083C24.3333 13.5284 22.9715 12.1666 21.2917 12.1666C19.6118 12.1666 18.25 13.5284 18.25 15.2083C18.25 16.8882 19.6118 18.25 21.2917 18.25Z" fill="white"/>
</g>
<g id="Group_5">
<path id="Vector_4" d="M33.4583 18.25C35.1382 18.25 36.5 16.8882 36.5 15.2083C36.5 13.5284 35.1382 12.1666 33.4583 12.1666C31.7785 12.1666 30.4167 13.5284 30.4167 15.2083C30.4167 16.8882 31.7785 18.25 33.4583 18.25Z" fill="white"/>
</g>
<g id="Group_6">
<path id="Vector_5" d="M45.625 18.25C47.3049 18.25 48.6667 16.8882 48.6667 15.2083C48.6667 13.5284 47.3049 12.1666 45.625 12.1666C43.9451 12.1666 42.5833 13.5284 42.5833 15.2083C42.5833 16.8882 43.9451 18.25 45.625 18.25Z" fill="white"/>
</g>
<g id="Group_7">
<path id="Vector_6" d="M80.9083 127.75H65.0917C62.6948 127.75 60.5596 125.974 60.1216 123.626L58.8684 114.701C57.3537 113.971 55.9241 113.132 54.5432 112.171L46.2881 115.492C43.946 116.38 41.3728 115.48 40.1135 113.387L32.1808 99.6815C30.9338 97.6071 31.3961 94.9 33.3063 93.288L40.4177 87.7095C40.3447 86.864 40.3021 86.0184 40.3021 85.1667C40.3021 84.3333 40.3447 83.4999 40.4177 82.6725L33.3914 77.1671C31.3961 75.4881 30.9338 72.781 32.2052 70.664L40.0892 57.0374C41.3667 54.9021 43.9338 53.9957 46.2212 54.8717L54.5432 58.2175C55.8937 57.2868 57.3354 56.4412 58.8623 55.699L60.1033 46.8965C60.5474 44.3536 62.6401 42.5834 65.0917 42.5834H80.9083C83.2991 42.5834 85.4343 44.3536 85.8723 46.7018L87.1316 55.6321C88.6463 56.3621 90.0759 57.2016 91.4568 58.1628L99.7119 54.8413C102.066 53.9592 104.633 54.8535 105.886 56.94L113.819 70.6519C115.066 72.7263 114.604 75.4334 112.694 77.0455L105.582 82.6239C105.655 83.4695 105.698 84.3211 105.698 85.1667C105.698 86.0001 105.655 86.8335 105.582 87.6609L112.609 93.1663C114.604 94.8453 115.066 97.5524 113.795 99.6694L105.911 113.296C104.633 115.425 102.06 116.319 99.7849 115.468L91.4568 112.116C90.1063 113.047 88.6646 113.892 87.1377 114.634L85.9027 123.437C85.4526 125.98 83.3599 127.75 80.9083 127.75ZM65.992 121.667H80.008L81.3463 112.14C81.4923 111.088 82.1858 110.187 83.1592 109.768C85.3674 108.819 87.3871 107.645 89.1512 106.264C90.0029 105.595 91.1527 105.436 92.1564 105.844L101.111 109.445L108.101 97.3577L100.497 91.4021C99.645 90.733 99.2131 89.6684 99.3591 88.5977C99.5112 87.4845 99.6146 86.3225 99.6146 85.1667C99.6146 83.9987 99.5112 82.8307 99.3591 81.6627C99.2192 80.5981 99.6511 79.5396 100.497 78.8765L108.101 72.9149L101.111 60.8334L92.1564 64.4347C91.1648 64.8423 90.0029 64.678 89.1512 64.015C87.2958 62.5732 85.3431 61.4295 83.1835 60.5231C82.1919 60.1095 81.4923 59.203 81.3463 58.1385L80.008 48.6667H65.992L64.6537 58.1932C64.5077 59.2456 63.8142 60.146 62.8408 60.5657C60.6326 61.5147 58.6129 62.6888 56.8488 64.0697C55.991 64.7267 54.8412 64.897 53.8436 64.4895L44.8889 60.8881L37.8992 72.9757L45.5033 78.9313C46.355 79.6005 46.7869 80.665 46.6409 81.7357C46.4888 82.849 46.3854 84.0109 46.3854 85.1667C46.3854 86.3347 46.4888 87.5027 46.6409 88.6707C46.7808 89.7353 46.3489 90.7938 45.5033 91.4569L37.8992 97.4185L44.8889 109.5L53.8436 105.899C54.8473 105.491 55.9971 105.655 56.8488 106.318C58.7042 107.76 60.6569 108.904 62.8165 109.81C63.8081 110.224 64.5077 111.13 64.6537 112.195L65.992 121.667ZM73 97.3334C66.2901 97.3334 60.8333 91.8766 60.8333 85.1667C60.8333 78.4568 66.2901 73 73 73C79.7099 73 85.1667 78.4568 85.1667 85.1667C85.1667 91.8766 79.7099 97.3334 73 97.3334ZM73 79.0834C69.6481 79.0834 66.9167 81.8148 66.9167 85.1667C66.9167 88.5186 69.6481 91.25 73 91.25C76.3519 91.25 79.0833 88.5186 79.0833 85.1667C79.0833 81.8148 76.3519 79.0834 73 79.0834Z" fill="white"/>
</g>
</g>
</svg>
