<svg width="456" height="118" viewBox="0 0 456 118" fill="none" xmlns="http://www.w3.org/2000/svg">
<path d="M389.764 104.323C389.178 104.323 388.684 104.136 388.284 103.763C387.911 103.363 387.724 102.869 387.724 102.283V96.9227H382.364C381.778 96.9227 381.284 96.7227 380.884 96.3227C380.511 95.9227 380.324 95.4293 380.324 94.8427C380.324 94.256 380.511 93.776 380.884 93.4027C381.284 93.0027 381.778 92.8027 382.364 92.8027H387.724V87.4427C387.724 86.8827 387.924 86.4027 388.324 86.0027C388.751 85.6027 389.231 85.4027 389.764 85.4027C390.378 85.4027 390.871 85.6027 391.244 86.0027C391.618 86.376 391.804 86.856 391.804 87.4427V92.8027H397.164C397.724 92.8027 398.204 93.0027 398.604 93.4027C399.031 93.8027 399.244 94.2827 399.244 94.8427C399.244 95.4293 399.031 95.9227 398.604 96.3227C398.204 96.7227 397.724 96.9227 397.164 96.9227H391.804V102.283C391.804 102.869 391.618 103.363 391.244 103.763C390.871 104.136 390.378 104.323 389.764 104.323Z" fill="white"/>
<rect x="259.367" y="68.0859" width="49" height="49" rx="7.5" stroke="white"/>
<rect x="324.087" y="68.0859" width="49" height="49" rx="7.5" stroke="white"/>
<rect x="194.651" y="68.0859" width="49" height="49" rx="7.5" stroke="white"/>
<rect x="129.934" y="68.0859" width="49" height="49" rx="7.5" stroke="white"/>
<rect x="65.2168" y="68.0859" width="49" height="49" rx="7.5" stroke="white"/>
<rect x="0.5" y="68.0859" width="49" height="49" rx="7.5" stroke="white"/>
<rect x="65.2168" y="0.5" width="49" height="49" rx="7.5" stroke="white"/>
<rect x="129.937" y="0.5" width="49" height="49" rx="7.5" stroke="white"/>
<rect x="194.652" y="0.5" width="49" height="49" rx="7.5" stroke="white"/>
<rect x="259.368" y="0.5" width="49" height="49" rx="7.5" stroke="white"/>
<rect x="324.086" y="0.5" width="49" height="49" rx="7.5" stroke="white"/>
<g clip-path="url(#clip0_675_29634)">
<path d="M140.386 106.998C140.323 107.208 140.384 107.433 140.545 107.587C140.666 107.701 140.826 107.763 140.991 107.763C141.049 107.763 141.107 107.756 141.163 107.739L149.616 105.439L142.8 98.9482L140.386 106.998Z" fill="white"/>
<path d="M170.563 84.5993C170.563 83.7987 170.235 83.0461 169.642 82.4804L166.908 79.8774C165.681 78.71 163.686 78.7077 162.46 79.8774L143.507 97.9274L150.689 104.767L169.642 86.717C170.235 86.1525 170.563 85.3999 170.563 84.5993ZM166.604 83.619L148.986 100.397C148.863 100.514 148.702 100.572 148.541 100.572C148.38 100.572 148.219 100.514 148.095 100.397C147.85 100.164 147.85 99.7838 148.095 99.5501L165.713 82.7716C165.958 82.5379 166.357 82.5379 166.603 82.7716C166.848 83.0053 166.849 83.3841 166.604 83.619Z" fill="white"/>
<path d="M168.941 99.3745L166.608 101.596C166.485 101.713 166.324 101.771 166.163 101.771C166.002 101.771 165.841 101.713 165.718 101.596C165.472 101.363 165.472 100.983 165.718 100.749L168.051 98.5272L167.053 97.5768L165.349 99.1995C165.227 99.3158 165.066 99.3745 164.905 99.3745C164.744 99.3745 164.583 99.3158 164.459 99.1995C164.214 98.9658 164.214 98.5859 164.459 98.3522L166.163 96.7295L165.165 95.7791L162.832 98.0011C162.71 98.1173 162.549 98.176 162.388 98.176C162.227 98.176 162.066 98.1173 161.943 98.0011C161.697 97.7674 161.697 97.3874 161.943 97.1537L164.276 94.9318L163.538 94.2295L156.357 101.069L163.201 107.588C163.324 107.705 163.485 107.764 163.647 107.764C163.808 107.764 163.969 107.705 164.092 107.589L170.384 101.596C170.629 101.363 170.629 100.983 170.384 100.749L168.941 99.3745Z" fill="white"/>
<path d="M147.39 92.5346L154.571 85.6949L153.834 84.9926L151.502 87.2146C151.379 87.3308 151.218 87.3895 151.057 87.3895C150.896 87.3895 150.735 87.3308 150.611 87.2146C150.366 86.9809 150.366 86.601 150.611 86.3673L152.944 84.1453L151.946 83.1949L150.244 84.8176C150.12 84.9339 149.959 84.9926 149.798 84.9926C149.637 84.9926 149.476 84.9339 149.353 84.8176C149.107 84.5839 149.107 84.204 149.353 83.9703L151.057 82.3476L150.059 81.3972L147.727 83.6192C147.604 83.7354 147.443 83.7942 147.282 83.7942C147.12 83.7942 146.959 83.7354 146.836 83.6192C146.591 83.3855 146.591 83.0056 146.836 82.7719L149.169 80.5499L147.727 79.1753C147.482 78.9416 147.083 78.9416 146.837 79.1753L140.545 85.1676C140.3 85.4013 140.3 85.7812 140.545 86.0149L147.39 92.5346Z" fill="white"/>
</g>
<g clip-path="url(#clip1_675_29634)">
<path d="M216.316 89.7862H221.349C223.083 89.7862 224.495 88.4427 224.495 86.79V81.9962C224.495 80.3435 223.083 79 221.349 79H216.316C214.582 79 213.17 80.3435 213.17 81.9962V86.79C213.17 88.4427 214.582 89.7862 216.316 89.7862Z" fill="white"/>
<path d="M220.343 100.572H217.323C216.42 100.572 215.687 101.271 215.687 102.13V105.007C215.687 105.866 216.42 106.565 217.323 106.565H220.343C221.245 106.565 221.979 105.866 221.979 105.007V102.13C221.979 101.271 221.245 100.572 220.343 100.572Z" fill="white"/>
<path d="M231.668 100.572H228.648C227.746 100.572 227.012 101.271 227.012 102.13V105.007C227.012 105.866 227.746 106.565 228.648 106.565H231.668C232.571 106.565 233.304 105.866 233.304 105.007V102.13C233.304 101.271 232.571 100.572 231.668 100.572Z" fill="white"/>
<path d="M209.017 100.572H205.997C205.095 100.572 204.361 101.271 204.361 102.13V105.007C204.361 105.866 205.095 106.565 205.997 106.565H209.017C209.92 106.565 210.653 105.866 210.653 105.007V102.13C210.653 101.271 209.92 100.572 209.017 100.572Z" fill="white"/>
<path d="M229.529 98.7744C229.529 99.1052 229.811 99.3736 230.158 99.3736C230.506 99.3736 230.788 99.1052 230.788 98.7744C230.788 96.4614 228.812 94.5798 226.383 94.5798H219.462V91.5836C219.462 91.2528 219.18 90.9844 218.833 90.9844C218.486 90.9844 218.204 91.2528 218.204 91.5836V94.5798H211.283C208.854 94.5798 206.878 96.4614 206.878 98.7744C206.878 99.1052 207.16 99.3736 207.507 99.3736C207.855 99.3736 208.137 99.1052 208.137 98.7744C208.137 97.1217 209.548 95.7782 211.283 95.7782H218.204V98.7744C218.204 99.1052 218.486 99.3736 218.833 99.3736C219.18 99.3736 219.462 99.1052 219.462 98.7744V95.7782H226.383C228.117 95.7782 229.529 97.1217 229.529 98.7744Z" fill="white"/>
</g>
<g clip-path="url(#clip2_675_29634)">
<path d="M97.1281 92.8155C97.1155 92.7748 97.0991 92.7364 97.0891 92.6957C97.0425 92.5147 97.0123 92.3289 97.0123 92.136C97.0123 91.943 97.0425 91.7572 97.0891 91.5775C97.0991 91.5367 97.1155 91.4972 97.1281 91.4576C97.1746 91.3102 97.2325 91.1712 97.3068 91.037C97.3168 91.019 97.3206 90.9974 97.3307 90.9795C97.2275 90.9507 97.1205 90.9375 97.0123 90.9375C96.3177 90.9375 95.7539 91.4756 95.7539 92.136C95.7539 92.8994 96.5668 93.495 97.3307 93.2937C97.3206 93.2757 97.3168 93.2541 97.3068 93.2362C97.2325 93.1019 97.1734 92.9617 97.1281 92.8155Z" fill="white"/>
<path d="M99.5289 90.9375C99.2017 90.9375 98.9085 91.0646 98.6845 91.2599C98.5625 91.3666 98.4693 91.4912 98.4001 91.6266C98.3938 91.6374 98.3838 91.6458 98.3787 91.6578C98.3083 91.8064 98.2705 91.9682 98.2705 92.136C98.2705 92.3037 98.3083 92.4655 98.3787 92.6141C98.3838 92.6261 98.3951 92.6333 98.4001 92.6453C98.4693 92.7795 98.5625 92.9054 98.6845 93.012C98.9085 93.2086 99.2017 93.3344 99.5289 93.3344C100.224 93.3344 100.787 92.7963 100.787 92.136C100.787 91.4756 100.224 90.9375 99.5289 90.9375Z" fill="white"/>
<path d="M101.417 83.7471H86.3159C84.5806 83.7471 83.1699 85.0917 83.1699 86.7432V92.0117L85.8314 89.4769C86.443 88.8945 87.3075 88.5601 88.2035 88.5601C89.0994 88.5601 89.964 88.8945 90.5755 89.4769C91.7031 90.5508 91.8779 92.2466 90.9946 93.5085L88.9849 96.138C88.8843 96.2698 88.8327 96.4196 88.8327 96.5826C88.8327 96.7444 88.8956 96.8511 88.9572 96.9302H101.417C103.152 96.9302 104.563 95.5855 104.563 93.934V86.7432C104.563 85.0905 103.152 83.7471 101.417 83.7471ZM88.8327 87.3425H87.5743C87.227 87.3425 86.9451 87.074 86.9451 86.7432C86.9451 86.4125 87.227 86.144 87.5743 86.144H88.8327C89.18 86.144 89.4619 86.4125 89.4619 86.7432C89.4619 87.074 89.18 87.3425 88.8327 87.3425ZM98.8998 86.144H100.158C100.505 86.144 100.787 86.4125 100.787 86.7432C100.787 87.074 100.505 87.3425 100.158 87.3425H98.8998C98.5525 87.3425 98.2706 87.074 98.2706 86.7432C98.2706 86.4125 98.5525 86.144 98.8998 86.144ZM95.1246 86.144H96.383C96.7303 86.144 97.0122 86.4125 97.0122 86.7432C97.0122 87.074 96.7303 87.3425 96.383 87.3425H95.1246C94.7773 87.3425 94.4954 87.074 94.4954 86.7432C94.4954 86.4125 94.7773 86.144 95.1246 86.144ZM92.6078 87.3425H91.3494C91.0021 87.3425 90.7202 87.074 90.7202 86.7432C90.7202 86.4125 91.0021 86.144 91.3494 86.144H92.6078C92.9551 86.144 93.237 86.4125 93.237 86.7432C93.237 87.074 92.9551 87.3425 92.6078 87.3425ZM99.529 94.5332C99.0696 94.5332 98.6431 94.4062 98.2718 94.2013C97.8893 94.4158 97.4564 94.5332 97.0122 94.5332C95.6242 94.5332 94.4954 93.4582 94.4954 92.1363C94.4954 90.8144 95.6242 89.7394 97.0122 89.7394C97.4577 89.7394 97.8893 89.858 98.2718 90.0714C98.6431 89.8652 99.0696 89.7394 99.529 89.7394C100.917 89.7394 102.046 90.8144 102.046 92.1363C102.046 93.4582 100.917 94.5332 99.529 94.5332Z" fill="white"/>
<path d="M80.4569 94.7177C79.3546 93.723 75.7518 93.4102 75.0396 93.3575C74.8546 93.3479 74.6923 93.403 74.5627 93.5145C74.4356 93.6271 74.3613 93.7877 74.3613 93.9543V102.344C74.3613 102.674 74.6432 102.943 74.9905 102.943C76.7107 102.943 78.9821 101.718 79.0777 101.665C79.2137 101.591 79.3168 101.47 79.3659 101.327C79.4062 101.205 80.3663 98.3179 80.6507 95.2043C80.6683 95.0222 80.5954 94.8424 80.4569 94.7177Z" fill="white"/>
<path d="M96.3831 98.1489L92.5589 98.1501L89.73 98.3623C88.5723 98.5253 87.5744 97.6599 87.5744 96.5825C87.5744 96.1655 87.7103 95.7688 87.967 95.4332L89.9465 92.8433C90.4976 92.0547 90.3894 90.9953 89.6847 90.3242C88.8932 89.5703 87.5114 89.5703 86.7212 90.3242L83.5312 93.3623C82.7812 93.4018 82.074 93.6163 81.4473 93.9615L81.7631 94.2455C81.9016 94.3702 81.9746 94.55 81.957 94.7321L81.9041 95.3086C81.6058 98.5684 80.6054 101.566 80.5639 101.693L80.4683 101.979L86.7728 102.9C87.0597 102.978 87.4662 103.017 87.9834 103.017C88.9586 103.017 90.9594 102.845 91.7321 102.203L96.7153 99.2575C96.9532 99.1161 97.0651 98.8416 96.9884 98.584C96.9116 98.3263 96.665 98.1489 96.3831 98.1489Z" fill="white"/>
</g>
<g clip-path="url(#clip3_675_29634)">
<path d="M362.304 80.7979H361.046H335.878H334.62C334.242 80.7979 333.99 81.0375 333.99 81.3971C333.99 81.7566 334.242 81.9963 334.62 81.9963H335.249V96.9771C335.249 97.3367 335.501 97.5763 335.878 97.5763H347.833V102.49C347.078 102.73 346.574 103.449 346.574 104.168C346.574 105.127 347.455 105.966 348.462 105.966C349.469 105.966 350.35 105.127 350.35 104.168C350.35 103.329 349.846 102.73 349.091 102.49V97.5763H361.046C361.423 97.5763 361.675 97.3367 361.675 96.9771V81.9963H362.304C362.682 81.9963 362.933 81.7566 362.933 81.3971C362.933 81.0375 362.682 80.7979 362.304 80.7979ZM348.462 104.767C348.084 104.767 347.833 104.527 347.833 104.168C347.833 103.808 348.084 103.569 348.462 103.569C348.839 103.569 349.091 103.808 349.091 104.168C349.091 104.527 348.839 104.767 348.462 104.767ZM339.024 94.5802C339.024 94.9397 338.772 95.1794 338.395 95.1794C338.017 95.1794 337.766 94.9397 337.766 94.5802V90.9848C337.766 90.6253 338.017 90.3856 338.395 90.3856C338.772 90.3856 339.024 90.6253 339.024 90.9848V94.5802ZM341.541 94.5802C341.541 94.9397 341.289 95.1794 340.912 95.1794C340.534 95.1794 340.282 94.9397 340.282 94.5802V88.5879C340.282 88.2283 340.534 87.9886 340.912 87.9886C341.289 87.9886 341.541 88.2283 341.541 88.5879V94.5802ZM344.058 94.5802C344.058 94.9397 343.806 95.1794 343.428 95.1794C343.051 95.1794 342.799 94.9397 342.799 94.5802V84.9925C342.799 84.6329 343.051 84.3932 343.428 84.3932C343.806 84.3932 344.058 84.6329 344.058 84.9925V94.5802ZM352.237 95.1794C349.091 95.1794 346.574 92.7825 346.574 89.7863C346.574 87.0299 348.839 84.7528 351.608 84.5131V89.7863C351.608 90.1459 351.86 90.3856 352.237 90.3856H357.774C357.522 93.0222 355.131 95.1794 352.237 95.1794ZM358.529 89.1871H353.495C353.118 89.1871 352.866 88.9474 352.866 88.5879V83.794C352.866 83.4345 353.118 83.1948 353.495 83.1948C356.641 83.1948 359.158 85.5917 359.158 88.5879C359.158 88.9474 358.907 89.1871 358.529 89.1871Z" fill="white"/>
</g>
<g clip-path="url(#clip4_675_29634)">
<path d="M38.6751 98.4756H13.5074C13.1601 98.4756 12.8782 98.744 12.8782 99.0748C12.8782 102.048 15.4189 104.468 18.5409 104.468H33.6416C36.7636 104.468 39.3043 102.048 39.3043 99.0748C39.3043 98.744 39.0224 98.4756 38.6751 98.4756ZM26.2901 99.6429L18.7397 102.04C18.6743 102.061 18.6076 102.071 18.5409 102.071C18.3081 102.071 18.0879 101.948 17.9784 101.74L16.72 99.3433C16.564 99.0473 16.6911 98.6877 17.0019 98.5391C17.3127 98.3917 17.6902 98.5103 17.8463 98.8076L17.9872 99.076H24.103L25.8924 98.5079C26.2259 98.4025 26.5782 98.5727 26.6877 98.8867C26.7985 99.1995 26.6198 99.5386 26.2901 99.6429Z" fill="white"/>
<path d="M40.333 96.2908C40.1984 96.1494 40.0046 96.0798 39.8007 96.0966C38.9941 96.1673 38.2403 95.7958 37.6854 95.4686C37.4664 95.3416 37.1895 95.3512 36.9819 95.495C36.091 96.1158 34.635 96.395 33.2835 96.2165C32.2693 96.081 31.4802 95.6927 31.0021 95.0947C30.8825 94.9461 30.6975 94.8586 30.5025 94.8586C30.3062 94.8586 30.1212 94.9461 30.0029 95.0935C29.3573 95.8965 28.1506 96.3579 26.6921 96.3579C26.1648 96.3579 25.3808 96.2932 24.6522 95.9876C24.1476 95.7766 23.7261 95.465 23.4329 95.0887C23.3171 94.9389 23.1346 94.8502 22.9396 94.8466C22.7584 94.843 22.5583 94.9269 22.4375 95.0719C21.7693 95.8677 20.5222 96.3231 19.0172 96.3231C18.5 96.3231 17.7387 96.2608 17.0453 95.9648C16.5545 95.7551 16.1455 95.4459 15.8637 95.0707C15.7504 94.9209 15.5717 94.8287 15.3792 94.8215C15.1841 94.8095 15.0004 94.8922 14.8746 95.0312C14.3322 95.6364 13.3909 96.0055 12.2898 96.0451C12.1061 96.0511 11.935 96.1338 11.8205 96.2704C11.7059 96.407 11.6606 96.5844 11.6946 96.7558C12.0344 98.4468 13.591 99.6728 15.3981 99.6728H36.7906C38.5687 99.6728 40.1228 98.4708 40.4853 96.8145C40.523 96.6275 40.4676 96.4334 40.333 96.2908Z" fill="white"/>
<path d="M38.8034 90.6985C38.4699 90.6314 38.1604 90.8315 38.0773 91.1431C38.0647 91.1911 38.071 91.2378 38.071 91.2858H14.1365C14.1365 90.955 13.8546 90.6865 13.5073 90.6865C11.3605 90.6865 10.3613 92.4746 10.3613 93.6827C10.3613 94.1069 10.6143 94.4665 11.056 94.6702C11.4096 94.832 11.8185 94.8668 12.1004 94.8668C12.9989 94.8668 13.9591 94.5564 14.1151 93.8804C14.3932 93.727 15.2338 93.5245 15.9964 93.558C16.4481 93.5808 16.6382 93.6815 16.6533 93.6827C16.6533 94.1932 16.983 94.6283 17.5568 94.8728C18.0488 95.0825 18.6201 95.1268 19.014 95.1268C20.3013 95.1268 21.6868 94.675 21.6604 93.775C21.7648 93.6491 22.394 93.4214 23.2208 93.4586C23.8487 93.4813 24.1633 93.6395 24.2036 93.6827C24.2036 94.5815 25.1801 95.1616 26.6902 95.1616C28.2128 95.1616 29.2371 94.5672 29.2258 93.721C29.2774 93.6479 29.6537 93.4466 30.42 93.4394C31.1486 93.4382 31.6872 93.6264 31.7539 93.6827C31.7539 93.9464 31.8772 94.82 33.4578 95.031C34.6331 95.1892 36.4414 94.9255 36.7636 93.8469C36.7963 93.7354 36.829 93.6887 36.8277 93.6803C37.0542 93.6683 37.7136 94.0638 38.0345 94.2615C38.7455 94.699 39.4175 95.1125 40.0203 94.7973C40.3802 94.6103 40.5626 94.2352 40.5626 93.6815C40.5626 91.0772 38.8751 90.7117 38.8034 90.6985Z" fill="white"/>
<path d="M39.3018 91.1082C39.1571 86.3143 33.1672 82.2959 26.0912 82.2959C18.9298 82.2959 12.8782 86.4126 12.8782 91.2844C12.8782 91.6152 13.1601 91.8836 13.5074 91.8836H38.6751C38.6839 91.8824 38.6915 91.8836 38.7003 91.8836C39.0476 91.8836 39.3295 91.6152 39.3295 91.2844C39.3295 91.2233 39.3194 91.1633 39.3018 91.1082ZM19.6156 87.514L18.9864 88.1132C18.8631 88.2307 18.702 88.2882 18.5409 88.2882C18.3798 88.2882 18.2188 88.2295 18.0954 88.1132C17.8501 87.8795 17.8501 87.4996 18.0954 87.2659L18.7246 86.6667C18.97 86.433 19.3689 86.433 19.6143 86.6667C19.8597 86.9004 19.861 87.2791 19.6156 87.514ZM24.6491 86.3155C24.5258 86.433 24.3647 86.4905 24.2037 86.4905C24.0426 86.4905 23.8815 86.4318 23.7582 86.3155C23.5128 86.0818 23.5128 85.7019 23.7582 85.4682L24.3874 84.869C24.6328 84.6353 25.0317 84.6353 25.2771 84.869C25.5225 85.1027 25.5225 85.4826 25.2771 85.7163L24.6491 86.3155ZM27.1659 88.7125L26.5367 89.3117C26.4134 89.4292 26.2523 89.4867 26.0912 89.4867C25.9302 89.4867 25.7691 89.428 25.6458 89.3117C25.4004 89.078 25.4004 88.6981 25.6458 88.4644L26.275 87.8652C26.5204 87.6315 26.9193 87.6315 27.1646 87.8652C27.41 88.0989 27.4113 88.4776 27.1659 88.7125ZM30.3119 86.9148C30.1886 87.0322 30.0275 87.0898 29.8664 87.0898C29.7053 87.0898 29.5443 87.031 29.4209 86.9148L28.7917 86.3155C28.5464 86.0818 28.5464 85.7019 28.7917 85.4682C29.0371 85.2345 29.436 85.2345 29.6814 85.4682L30.3106 86.0675C30.5573 86.3012 30.5573 86.6799 30.3119 86.9148ZM35.3454 89.3117C35.2221 89.4292 35.061 89.4867 34.9 89.4867C34.7389 89.4867 34.5778 89.428 34.4545 89.3117L33.8253 88.7125C33.5799 88.4788 33.5799 88.0989 33.8253 87.8652C34.0707 87.6315 34.4696 87.6315 34.715 87.8652L35.3442 88.4644C35.5908 88.6981 35.5908 89.0768 35.3454 89.3117Z" fill="white"/>
</g>
<path d="M101.992 10H77.7309C75.8736 10 74.3613 11.4668 74.3613 13.2682V30.2627C74.3613 32.0655 75.8736 33.5309 77.7309 33.5309H86.3799C86.0375 35.3637 85.2868 37.4527 84.47 37.4527H81.7744C81.4024 37.4527 81.1005 37.7456 81.1005 38.1064C81.1005 38.4672 81.4024 38.76 81.7744 38.76H97.9483C98.3203 38.76 98.6222 38.4672 98.6222 38.1064C98.6222 37.7456 98.3203 37.4527 97.9483 37.4527H95.2526C94.4359 37.4527 93.6851 35.3637 93.3428 33.5309H101.992C103.85 33.5309 105.361 32.0655 105.361 30.2627V13.2682C105.361 11.4668 103.85 10 101.992 10ZM77.7309 11.3073H101.992C103.106 11.3073 104.014 12.1871 104.014 13.2682V26.9945H75.7092V13.2682C75.7092 12.1871 76.6162 11.3073 77.7309 11.3073Z" fill="white"/>
<g clip-path="url(#clip5_675_29634)">
<path d="M164.927 18.3881H163.665C161.728 15.5097 158.465 13.5947 154.741 13.5947C151.018 13.5947 147.756 15.5097 145.817 18.3881H144.555C142.243 18.3881 140.361 20.2694 140.361 22.5822V26.1772C140.361 28.49 142.243 30.3714 144.555 30.3714H145.817C147.755 33.2498 151.018 35.1647 154.741 35.1647C158.465 35.1647 161.728 33.2498 163.665 30.3714H164.927C167.24 30.3714 169.121 28.49 169.121 26.1772V22.5822C169.121 20.2694 167.24 18.3881 164.927 18.3881ZM163.13 21.3839C163.13 21.7146 162.861 21.9831 162.53 21.9831H158.336V24.3797H161.931C162.262 24.3797 162.53 24.6482 162.53 24.9789C162.53 25.3096 162.262 25.5781 161.931 25.5781H158.336V27.3756C158.336 27.7063 158.068 27.9747 157.737 27.9747C157.406 27.9747 157.138 27.7063 157.138 27.3756V21.3839C157.138 21.0532 157.406 20.7847 157.737 20.7847H162.53C162.861 20.7847 163.13 21.0532 163.13 21.3839ZM144.581 27.5481L142.783 21.5565C142.688 21.2389 142.868 20.9058 143.185 20.8099C143.502 20.7152 143.835 20.895 143.931 21.2113L145.155 25.2905L146.378 21.2125C146.53 20.7056 147.374 20.7056 147.526 21.2125L148.75 25.2905L149.973 21.2125C150.068 20.895 150.399 20.7152 150.72 20.8099C151.037 20.9058 151.217 21.2389 151.121 21.5565L149.324 27.5481C149.248 27.801 149.014 27.9747 148.75 27.9747C148.485 27.9747 148.251 27.801 148.176 27.5481L146.952 23.469L145.729 27.5469C145.576 28.055 144.733 28.055 144.581 27.5481ZM154.741 33.9664C151.726 33.9664 149.047 32.5548 147.289 30.3714H152.944C153.895 30.3714 154.741 27.0209 154.741 24.3797C154.741 23.0723 155.015 20.0693 156.019 18.3881H147.289C149.047 16.2047 151.726 14.7931 154.741 14.7931C157.756 14.7931 160.436 16.2047 162.194 18.3881H157.737C156.786 18.3881 155.94 21.7386 155.94 24.3797C155.94 25.6871 155.666 28.6901 154.662 30.3714H162.194C160.436 32.5548 157.756 33.9664 154.741 33.9664ZM152.944 23.1814C153.275 23.1814 153.543 23.4498 153.543 23.7806V27.3756C153.543 27.7063 153.275 27.9747 152.944 27.9747C152.613 27.9747 152.345 27.7063 152.345 27.3756V23.7806C152.345 23.4498 152.613 23.1814 152.944 23.1814ZM152.345 21.3839C152.345 21.0532 152.613 20.7847 152.944 20.7847C153.275 20.7847 153.543 21.0532 153.543 21.3839C153.543 21.7146 153.275 21.9831 152.944 21.9831C152.613 21.9831 152.345 21.7146 152.345 21.3839ZM165.526 27.3756C165.526 27.7063 165.258 27.9747 164.927 27.9747C164.596 27.9747 164.328 27.7063 164.328 27.3756V23.7806C164.328 23.4498 164.596 23.1814 164.927 23.1814C165.258 23.1814 165.526 23.4498 165.526 23.7806V27.3756ZM164.927 21.9831C164.596 21.9831 164.328 21.7146 164.328 21.3839C164.328 21.0532 164.596 20.7847 164.927 20.7847C165.258 20.7847 165.526 21.0532 165.526 21.3839C165.526 21.7146 165.258 21.9831 164.927 21.9831Z" fill="white"/>
</g>
<g clip-path="url(#clip6_675_29634)">
<path d="M228.271 10.5992C228.271 10.2685 227.989 10 227.642 10H211.283C210.935 10 210.653 10.2685 210.653 10.5992V18.3892H228.271V10.5992Z" fill="white"/>
<path d="M213.799 35.1682H225.125C225.472 35.1682 225.754 34.8997 225.754 34.569C225.754 34.2382 225.472 33.9697 225.125 33.9697H213.799C213.452 33.9697 213.17 34.2382 213.17 34.569C213.17 34.8997 213.452 35.1682 213.799 35.1682Z" fill="white"/>
<path d="M213.799 31.5725H225.125C225.472 31.5725 225.754 31.304 225.754 30.9733C225.754 30.6425 225.472 30.374 225.125 30.374H213.799C213.452 30.374 213.17 30.6425 213.17 30.9733C213.17 31.304 213.452 31.5725 213.799 31.5725Z" fill="white"/>
<path d="M230.158 19.5879H208.766C206.337 19.5879 204.361 21.4695 204.361 23.7825V30.9733C204.361 31.9644 205.208 32.771 206.249 32.771H210.653V38.1641C210.653 38.4949 210.935 38.7633 211.282 38.7633H227.641C227.989 38.7633 228.271 38.4949 228.271 38.1641V32.771H232.675C233.716 32.771 234.563 31.9644 234.563 30.9733V23.7825C234.563 21.4695 232.587 19.5879 230.158 19.5879ZM227.012 37.5649H211.912V27.9771H227.012V37.5649Z" fill="white"/>
</g>
<g clip-path="url(#clip7_675_29634)">
<path d="M278.799 15.9923H290.125C290.472 15.9923 290.754 15.7239 290.754 15.3931V14.1946C290.754 13.2035 289.907 12.3969 288.866 12.3969H286.979C286.979 11.075 285.85 10 284.462 10C283.074 10 281.945 11.075 281.945 12.3969H280.058C279.017 12.3969 278.17 13.2035 278.17 14.1946V15.3931C278.17 15.7239 278.452 15.9923 278.799 15.9923Z" fill="white"/>
<path d="M292.641 13.5957H291.948C291.99 13.7899 292.012 13.99 292.012 14.1949V15.3934C292.012 16.3845 291.165 17.1911 290.125 17.1911H278.799C277.758 17.1911 276.912 16.3845 276.912 15.3934V14.1949C276.912 13.99 276.934 13.7899 276.976 13.5957H276.282C275.242 13.5957 274.395 14.4023 274.395 15.3934V36.9658C274.395 37.9569 275.242 38.7635 276.282 38.7635H292.641C293.682 38.7635 294.529 37.9569 294.529 36.9658V15.3934C294.529 14.4023 293.682 13.5957 292.641 13.5957ZM278.799 32.7711C278.452 32.7711 278.17 32.5027 278.17 32.1719C278.17 31.8411 278.452 31.5727 278.799 31.5727C279.146 31.5727 279.428 31.8411 279.428 32.1719C279.428 32.5027 279.146 32.7711 278.799 32.7711ZM278.799 29.1757C278.452 29.1757 278.17 28.9073 278.17 28.5765C278.17 28.2457 278.452 27.9773 278.799 27.9773C279.146 27.9773 279.428 28.2457 279.428 28.5765C279.428 28.9073 279.146 29.1757 278.799 29.1757ZM278.799 25.5803C278.452 25.5803 278.17 25.3119 278.17 24.9811C278.17 24.6503 278.452 24.3819 278.799 24.3819C279.146 24.3819 279.428 24.6503 279.428 24.9811C279.428 25.3119 279.146 25.5803 278.799 25.5803ZM278.799 21.985C278.452 21.985 278.17 21.7165 278.17 21.3857C278.17 21.0549 278.452 20.7865 278.799 20.7865C279.146 20.7865 279.428 21.0549 279.428 21.3857C279.428 21.7165 279.146 21.985 278.799 21.985ZM290.125 32.7711H281.316C280.969 32.7711 280.687 32.5027 280.687 32.1719C280.687 31.8411 280.969 31.5727 281.316 31.5727H290.125C290.472 31.5727 290.754 31.8411 290.754 32.1719C290.754 32.5027 290.472 32.7711 290.125 32.7711ZM290.125 29.1757H281.316C280.969 29.1757 280.687 28.9073 280.687 28.5765C280.687 28.2457 280.969 27.9773 281.316 27.9773H290.125C290.472 27.9773 290.754 28.2457 290.754 28.5765C290.754 28.9073 290.472 29.1757 290.125 29.1757ZM290.125 25.5803H281.316C280.969 25.5803 280.687 25.3119 280.687 24.9811C280.687 24.6503 280.969 24.3819 281.316 24.3819H290.125C290.472 24.3819 290.754 24.6503 290.754 24.9811C290.754 25.3119 290.472 25.5803 290.125 25.5803ZM290.125 21.985H281.316C280.969 21.985 280.687 21.7165 280.687 21.3857C280.687 21.0549 280.969 20.7865 281.316 20.7865H290.125C290.472 20.7865 290.754 21.0549 290.754 21.3857C290.754 21.7165 290.472 21.985 290.125 21.985Z" fill="white"/>
</g>
<g clip-path="url(#clip8_675_29634)">
<path d="M344.058 36.3663C345.795 36.3663 347.204 35.0249 347.204 33.3702C347.204 31.7155 345.795 30.374 344.058 30.374C342.32 30.374 340.912 31.7155 340.912 33.3702C340.912 35.0249 342.32 36.3663 344.058 36.3663Z" fill="white"/>
<path d="M348.199 27.977H344.635C343.14 27.977 341.844 26.9631 341.55 25.5681L341.538 25.5129L352.543 24.2425C353.751 23.5726 355.148 23.1831 356.641 23.1831C357.442 23.1831 358.213 23.2982 358.944 23.5031L360.793 23.2898C361.64 23.1915 362.314 22.5623 362.435 21.7593L363.558 14.2797C363.584 14.1071 363.53 13.9334 363.41 13.8027C363.291 13.6721 363.116 13.5954 362.933 13.5954H339.037L338.382 10.4818C338.323 10.2013 338.065 10 337.766 10H333.991C333.643 10 333.361 10.2685 333.361 10.5992C333.361 10.93 333.643 11.1985 333.991 11.1985H337.25L340.316 25.8041C340.728 27.7564 342.544 29.1754 344.635 29.1754H348.199C348.546 29.1754 348.828 28.907 348.828 28.5762C348.828 28.2454 348.546 27.977 348.199 27.977Z" fill="white"/>
<path d="M356.642 24.3818C352.826 24.3818 349.72 27.3396 349.72 30.9734C349.72 34.6071 352.826 37.5649 356.642 37.5649C360.457 37.5649 363.563 34.6071 363.563 30.9734C363.563 27.3396 360.457 24.3818 356.642 24.3818ZM359.158 31.5726H357.271V33.9696C357.271 34.3003 356.989 34.5688 356.642 34.5688C356.294 34.5688 356.012 34.3003 356.012 33.9696V31.5726H354.125C353.778 31.5726 353.496 31.3042 353.496 30.9734C353.496 30.6426 353.778 30.3742 354.125 30.3742H356.012V29.1757C356.012 28.8449 356.294 28.5765 356.642 28.5765C356.989 28.5765 357.271 28.8449 357.271 29.1757V30.3742H359.158C359.506 30.3742 359.788 30.6426 359.788 30.9734C359.788 31.3042 359.506 31.5726 359.158 31.5726Z" fill="white"/>
</g>
<g clip-path="url(#clip9_675_29634)">
<path d="M288.866 79H280.058C277.629 79 275.653 80.8816 275.653 83.1946V84.3931V101.172V103.569C275.653 105.882 277.629 107.763 280.058 107.763H288.866C291.295 107.763 293.271 105.882 293.271 103.569V101.172V84.3931V83.1946C293.271 80.8816 291.295 79 288.866 79ZM288.866 81.3969C289.214 81.3969 289.496 81.6654 289.496 81.9962C289.496 82.3269 289.214 82.5954 288.866 82.5954C288.519 82.5954 288.237 82.3269 288.237 81.9962C288.237 81.6654 288.519 81.3969 288.866 81.3969ZM282.574 81.3969H286.35C286.697 81.3969 286.979 81.6654 286.979 81.9962C286.979 82.3269 286.697 82.5954 286.35 82.5954H282.574C282.227 82.5954 281.945 82.3269 281.945 81.9962C281.945 81.6654 282.227 81.3969 282.574 81.3969ZM284.462 105.366C283.769 105.366 283.204 104.828 283.204 104.168C283.204 103.507 283.769 102.969 284.462 102.969C285.155 102.969 285.72 103.507 285.72 104.168C285.72 104.828 285.155 105.366 284.462 105.366ZM292.012 100.572H276.912V84.9923H292.012V100.572Z" fill="white"/>
</g>
<rect x="0.5" y="0.501953" width="49" height="49" rx="7.5" fill="url(#paint0_linear_675_29634)" stroke="url(#paint1_linear_675_29634)"/>
<g clip-path="url(#clip10_675_29634)">
<path d="M18.5408 15.9923C18.8881 15.9923 19.17 15.7239 19.17 15.3931V10.5992C19.17 10.2685 18.8881 10 18.5408 10C18.1935 10 17.9116 10.2685 17.9116 10.5992V15.3931C17.9116 15.7239 18.1935 15.9923 18.5408 15.9923Z" fill="white"/>
<path d="M32.3831 15.9923C32.7304 15.9923 33.0123 15.7239 33.0123 15.3931V10.5992C33.0123 10.2685 32.7304 10 32.3831 10C32.0358 10 31.7539 10.2685 31.7539 10.5992V15.3931C31.7539 15.7239 32.0358 15.9923 32.3831 15.9923Z" fill="white"/>
<path d="M36.1583 12.3965H34.2707V15.3926C34.2707 16.3838 33.4238 17.1903 32.3831 17.1903C31.3424 17.1903 30.4955 16.3838 30.4955 15.3926V12.3965H20.4284V15.3926C20.4284 16.3838 19.5815 17.1903 18.5408 17.1903C17.5002 17.1903 16.6533 16.3838 16.6533 15.3926V12.3965H14.7657C12.337 12.3965 10.3613 14.2781 10.3613 16.5911V18.3888H40.5626V16.5911C40.5626 14.2781 38.587 12.3965 36.1583 12.3965Z" fill="white"/>
<path d="M10.3613 34.5687C10.3613 36.8817 12.337 38.7633 14.7657 38.7633H36.1583C38.587 38.7633 40.5626 36.8817 40.5626 34.5687V19.5879H10.3613V34.5687ZM27.795 26.6037C27.5496 26.8374 27.1507 26.8374 26.9053 26.6037C26.66 26.37 26.66 25.9901 26.9053 25.7564L29.4221 23.3595C29.6033 23.1881 29.8739 23.1353 30.1079 23.23C30.342 23.3211 30.4955 23.5404 30.4955 23.7825V32.771H32.3831C32.7304 32.771 33.0123 33.0395 33.0123 33.3702C33.0123 33.701 32.7304 33.9695 32.3831 33.9695H27.3496C27.0022 33.9695 26.7204 33.701 26.7204 33.3702C26.7204 33.0395 27.0022 32.771 27.3496 32.771H29.2371V25.2291L27.795 26.6037ZM21.0576 29.1756H19.7992C19.4519 29.1756 19.17 28.9071 19.17 28.5764C19.17 28.2456 19.4519 27.9771 19.7992 27.9771H21.0576C22.0983 27.9771 22.9452 27.1706 22.9452 26.1794C22.9452 25.1883 22.0983 24.3817 21.0576 24.3817C20.0169 24.3817 19.17 25.1883 19.17 26.1794C19.17 26.5102 18.8882 26.7787 18.5408 26.7787C18.1935 26.7787 17.9117 26.5102 17.9117 26.1794C17.9117 24.528 19.3236 23.1833 21.0576 23.1833C22.7917 23.1833 24.2036 24.528 24.2036 26.1794C24.2036 27.1574 23.7078 28.0299 22.9439 28.5764C23.7078 29.1229 24.2036 29.9954 24.2036 30.9733C24.2036 32.626 22.7917 33.9695 21.0576 33.9695C19.3236 33.9695 17.9117 32.626 17.9117 30.9733C17.9117 30.6425 18.1935 30.3741 18.5408 30.3741C18.8882 30.3741 19.17 30.6425 19.17 30.9733C19.17 31.9644 20.0169 32.771 21.0576 32.771C22.0983 32.771 22.9452 31.9644 22.9452 30.9733C22.9452 29.9822 22.0983 29.1756 21.0576 29.1756Z" fill="white"/>
</g>
<rect x="406.065" y="68.084" width="49" height="49" rx="7.5" fill="url(#paint2_linear_675_29634)" stroke="url(#paint3_linear_675_29634)"/>
<g clip-path="url(#clip11_675_29634)">
<path d="M439.704 87.4158C438.806 83.2672 434.82 80.1982 430.215 80.1982C424.873 80.1982 420.528 84.2294 420.528 89.1857C420.528 89.3883 420.537 89.5956 420.556 89.8149C417.641 90.1025 415.361 92.3973 415.361 95.1774C415.361 98.1505 417.969 100.57 421.174 100.57C421.53 100.57 421.82 100.301 421.82 99.9707C421.82 95.6759 425.586 92.1816 430.215 92.1816C434.845 92.1816 438.611 95.6759 438.611 99.9707C438.611 100.301 438.901 100.57 439.257 100.57C443.175 100.57 446.361 97.6136 446.361 93.9791C446.361 90.5147 443.465 87.6663 439.704 87.4158ZM430.215 93.3799C426.298 93.3799 423.111 96.3362 423.111 99.9707C423.111 103.605 426.298 106.562 430.215 106.562C434.133 106.562 437.32 103.605 437.32 99.9707C437.32 96.3362 434.133 93.3799 430.215 93.3799ZM433.256 99.1966C433.129 99.3129 432.964 99.3716 432.799 99.3716C432.633 99.3716 432.468 99.3129 432.342 99.1966L430.861 97.8221V103.566C430.861 103.896 430.572 104.165 430.215 104.165C429.859 104.165 429.57 103.896 429.57 103.566V97.8221L428.089 99.1954C427.838 99.4291 427.428 99.4291 427.176 99.1954C426.924 98.9617 426.924 98.5819 427.176 98.3482L429.758 95.9527C429.818 95.8976 429.89 95.8533 429.969 95.8221C430.126 95.761 430.305 95.761 430.462 95.8221C430.542 95.8521 430.613 95.8964 430.673 95.9527L433.255 98.3482C433.508 98.5831 433.508 98.9617 433.256 99.1966Z" fill="white"/>
</g>
<defs>
<linearGradient id="paint0_linear_675_29634" x1="25" y1="0.00195312" x2="25" y2="50.002" gradientUnits="userSpaceOnUse">
<stop stop-color="#BD00FF"/>
<stop offset="1" stop-color="#0038FF"/>
</linearGradient>
<linearGradient id="paint1_linear_675_29634" x1="25" y1="0.00195312" x2="25" y2="50.002" gradientUnits="userSpaceOnUse">
<stop stop-color="#BD00FF"/>
<stop offset="1" stop-color="#0038FF"/>
</linearGradient>
<linearGradient id="paint2_linear_675_29634" x1="430.565" y1="67.584" x2="430.565" y2="117.584" gradientUnits="userSpaceOnUse">
<stop stop-color="#BD00FF"/>
<stop offset="1" stop-color="#0038FF"/>
</linearGradient>
<linearGradient id="paint3_linear_675_29634" x1="430.565" y1="67.584" x2="430.565" y2="117.584" gradientUnits="userSpaceOnUse">
<stop stop-color="#BD00FF"/>
<stop offset="1" stop-color="#0038FF"/>
</linearGradient>
<clipPath id="clip0_675_29634">
<rect width="30.2013" height="28.7631" fill="white" transform="translate(140.361 79)"/>
</clipPath>
<clipPath id="clip1_675_29634">
<rect width="30.2013" height="28.7631" fill="white" transform="translate(204.361 79)"/>
</clipPath>
<clipPath id="clip2_675_29634">
<rect width="30.2013" height="28.7631" fill="white" transform="translate(74.3613 79)"/>
</clipPath>
<clipPath id="clip3_675_29634">
<rect width="30.2013" height="28.7631" fill="white" transform="translate(333.361 79)"/>
</clipPath>
<clipPath id="clip4_675_29634">
<rect width="30.2013" height="28.7631" fill="white" transform="translate(10.3613 79)"/>
</clipPath>
<clipPath id="clip5_675_29634">
<rect width="28.76" height="28.76" fill="white" transform="translate(140.361 10)"/>
</clipPath>
<clipPath id="clip6_675_29634">
<rect width="30.2013" height="28.7631" fill="white" transform="translate(204.361 10)"/>
</clipPath>
<clipPath id="clip7_675_29634">
<rect width="30.2013" height="28.7631" fill="white" transform="translate(269.361 10)"/>
</clipPath>
<clipPath id="clip8_675_29634">
<rect width="30.2013" height="28.7631" fill="white" transform="translate(333.361 10)"/>
</clipPath>
<clipPath id="clip9_675_29634">
<rect width="30.2013" height="28.7631" fill="white" transform="translate(269.361 79)"/>
</clipPath>
<clipPath id="clip10_675_29634">
<rect width="30.2013" height="28.7631" fill="white" transform="translate(10.3613 10)"/>
</clipPath>
<clipPath id="clip11_675_29634">
<rect x="415.361" y="79" width="31" height="28.76" rx="8" fill="white"/>
</clipPath>
</defs>
</svg>
