<svg width="146" height="146" viewBox="0 0 146 146" fill="none" xmlns="http://www.w3.org/2000/svg">
<g id="Group">
<g id="Group_2">
<path id="Vector" d="M82.6117 45.6433C83.3843 45.99 84.2663 46.0022 85.045 45.6676C86.4989 45.0714 88.0928 45.5459 88.841 46.8478C89.5953 48.1496 89.2243 49.7799 87.965 50.7289C87.2837 51.2399 86.8518 52.0064 86.7666 52.852C86.6814 53.6976 86.9491 54.5371 87.5088 55.1698C92.4667 60.8029 98.8603 64.5442 105.99 65.9616C106.817 66.1319 107.705 65.9312 108.393 65.4263C109.086 64.9153 109.524 64.1427 109.616 63.2849C109.774 61.7154 111.039 60.5353 112.548 60.5353C114.056 60.5353 115.322 61.7154 115.48 63.2849C115.571 64.1427 116.015 64.9153 116.703 65.4263C117.232 65.8156 117.865 66.0224 118.509 66.0224C118.71 66.0224 118.911 66.0042 119.106 65.9616C126.235 64.5442 132.629 60.8151 137.593 55.1698C138.152 54.531 138.42 53.6976 138.335 52.852C138.25 52.0064 137.812 51.2399 137.137 50.7289C135.877 49.7739 135.506 48.1496 136.261 46.8478C137.009 45.5459 138.597 45.0532 140.051 45.6676C140.829 45.9961 141.711 45.9839 142.484 45.6433C143.256 45.2965 143.846 44.6456 144.12 43.8426C145.392 40.0953 146.012 36.6034 146.012 33.1603C146.012 29.7171 145.392 26.2253 144.12 22.4779C143.846 21.6749 143.256 21.024 142.484 20.6773C141.711 20.3305 140.829 20.3184 140.051 20.6529C138.603 21.2795 137.015 20.7807 136.261 19.4728C135.506 18.1709 135.877 16.5406 137.137 15.5916C137.818 15.0806 138.25 14.3141 138.335 13.4685C138.42 12.6229 138.152 11.7834 137.593 11.1508C132.623 5.51152 126.229 1.77636 119.106 0.358939C118.272 0.176439 117.39 0.389356 116.703 0.894272C116.009 1.40527 115.571 2.17786 115.48 3.03561C115.322 4.60511 114.056 5.78527 112.548 5.78527C111.039 5.78527 109.774 4.60511 109.616 3.03561C109.524 2.17786 109.08 1.40527 108.393 0.894272C107.699 0.389356 106.817 0.182522 105.99 0.358939C98.8603 1.77636 92.4667 5.51152 87.5088 11.1508C86.9491 11.7895 86.6814 12.6229 86.7666 13.4685C86.8518 14.3141 87.2897 15.0806 87.965 15.5916C89.2243 16.5467 89.5953 18.1709 88.841 19.4728C88.0867 20.7746 86.4928 21.2552 85.045 20.6529C84.2603 20.3184 83.3782 20.3244 82.6117 20.6773C81.8391 21.024 81.2429 21.6749 80.9753 22.4779C79.7038 26.2374 79.0833 29.7293 79.0833 33.1603C79.0833 36.5913 79.7038 40.0831 80.9753 43.8426C81.2429 44.6456 81.8391 45.2965 82.6117 45.6433ZM85.9818 26.9918C89.1634 27.2412 92.4119 25.4588 94.1092 22.5266C95.8003 19.6005 95.6422 16.0418 93.9267 13.2678C97.0109 10.3478 100.618 8.22469 104.554 7.00802C106.075 9.94019 109.099 11.8869 112.548 11.8869C115.997 11.8869 119.02 9.92802 120.541 7.00802C124.483 8.22469 128.091 10.3478 131.175 13.2678C129.459 16.0418 129.301 19.6005 130.992 22.5266C132.684 25.4588 135.883 26.9553 139.12 26.9979C139.661 29.1453 139.929 31.1832 139.929 33.1724C139.929 35.1617 139.661 37.1996 139.12 39.347C135.889 39.3409 132.684 40.8861 130.992 43.8183C129.301 46.7504 129.459 50.3031 131.175 53.0771C128.085 55.9971 124.477 58.1202 120.541 59.3369C119.02 56.4108 115.997 54.458 112.548 54.458C109.099 54.458 106.075 56.4047 104.554 59.3369C100.618 58.1202 97.0109 55.9971 93.9267 53.0771C95.6361 50.3031 95.8003 46.7444 94.1092 43.8183C92.4119 40.8861 89.1634 39.2254 85.9818 39.3531C85.4404 37.1935 85.1728 35.1617 85.1728 33.1724C85.1728 31.1832 85.4404 29.1453 85.9818 26.9918ZM112.548 48.3747C120.937 48.3747 127.756 41.5553 127.756 33.1664C127.756 24.7774 120.931 17.958 112.548 17.958C104.165 17.958 97.3394 24.7774 97.3394 33.1664C97.3394 41.5553 104.165 48.3747 112.548 48.3747ZM112.548 24.0414C117.585 24.0414 121.673 28.1354 121.673 33.1664C121.673 38.1973 117.579 42.2914 112.548 42.2914C107.517 42.2914 103.423 38.1973 103.423 33.1664C103.423 28.1354 107.517 24.0414 112.548 24.0414ZM36.5 121.375C39.858 121.375 42.5833 118.649 42.5833 115.291C42.5833 111.933 39.858 109.208 36.5 109.208C33.142 109.208 30.4167 111.933 30.4167 115.291C30.4167 118.649 33.142 121.375 36.5 121.375ZM144.856 104.08L128.888 72.1301C128.139 70.6336 126.314 70.007 124.806 70.7674C123.303 71.5157 122.689 73.3468 123.443 74.8494L134.569 97.1144C134.32 97.0961 134.083 97.0414 133.833 97.0414H12.1667C11.9112 97.0414 11.6739 97.1022 11.4245 97.1144L36.8772 46.1786C36.9684 46.0569 37.0414 45.917 37.1083 45.7832C38.1303 43.6297 40.2291 42.2914 42.5833 42.2914H70.445C72.124 42.2914 73.4867 40.9287 73.4867 39.2497C73.4867 37.5707 72.124 36.208 70.445 36.208H42.5833C38.0634 36.208 33.8781 38.7874 31.7915 42.7963C31.7185 42.9119 31.6516 43.0214 31.5907 43.143L1.14367 104.074C1.12542 104.11 1.1315 104.153 1.11325 104.189C0.413667 105.722 0 107.413 0 109.208V133.541C0 140.251 5.45675 145.708 12.1667 145.708H133.833C140.543 145.708 146 140.251 146 133.541V109.208C146 107.413 145.586 105.722 144.887 104.189C144.868 104.153 144.875 104.116 144.856 104.08ZM139.917 133.541C139.917 136.899 137.185 139.625 133.833 139.625H12.1667C8.81475 139.625 6.08333 136.899 6.08333 133.541V109.208C6.08333 105.85 8.81475 103.125 12.1667 103.125H133.833C137.185 103.125 139.917 105.85 139.917 109.208V133.541ZM18.25 121.375C21.608 121.375 24.3333 118.649 24.3333 115.291C24.3333 111.933 21.608 109.208 18.25 109.208C14.892 109.208 12.1667 111.933 12.1667 115.291C12.1667 118.649 14.892 121.375 18.25 121.375ZM130.792 127.458H15.2083C13.5293 127.458 12.1667 128.821 12.1667 130.5C12.1667 132.179 13.5293 133.541 15.2083 133.541H130.792C132.471 133.541 133.833 132.179 133.833 130.5C133.833 128.821 132.471 127.458 130.792 127.458Z" fill="white"/>
</g>
</g>
</svg>
