<svg width="146" height="110" viewBox="0 0 146 110" fill="none" xmlns="http://www.w3.org/2000/svg">
<g id="Group">
<g id="Group_2">
<path id="Vector" d="M33.4583 109.75C15.0137 109.75 0 94.7425 0 76.2917C0 57.841 15.0137 42.8334 33.4583 42.8334C51.903 42.8334 66.9167 57.841 66.9167 76.2917C66.9167 94.7425 51.903 109.75 33.4583 109.75ZM33.4583 48.9167C18.3656 48.9167 6.08333 61.199 6.08333 76.2917C6.08333 91.3845 18.3656 103.667 33.4583 103.667C48.5511 103.667 60.8333 91.3845 60.8333 76.2917C60.8333 61.199 48.5511 48.9167 33.4583 48.9167Z" fill="white"/>
</g>
<path id="Vector_2" d="M33.4462 91.5C25.2702 91.5 18.8888 87.9839 18.2743 83.1415C18.0614 81.4747 19.2416 79.9539 20.9084 79.741C22.5266 79.5524 24.0961 80.7082 24.3151 82.375C24.4246 83.2632 27.7583 85.4167 33.4462 85.4167C39.6451 85.4167 42.5833 82.9773 42.5833 82.375C42.5833 82.3568 42.4799 80.4649 33.7017 79.382L33.0568 79.2969C28.6099 78.7615 18.25 77.4962 18.25 70.2084C18.25 65.0071 24.7896 61.0834 33.4705 61.0834C41.6465 61.0834 48.0279 64.5995 48.6423 69.4358C48.8553 71.1026 47.6751 72.6235 46.0083 72.8364C44.3597 73.031 42.8206 71.8691 42.6016 70.2023C42.4921 69.3202 39.1584 67.1667 33.4705 67.1667C27.5697 67.1667 24.3333 69.448 24.3333 70.2084C24.3333 70.2266 24.4368 72.1185 33.2454 73.1953C33.2637 73.1953 33.8781 73.2744 33.8781 73.2744C38.3372 73.828 48.6667 75.0994 48.6667 82.375C48.6667 87.5763 42.1271 91.5 33.4462 91.5Z" fill="white"/>
<path id="Vector_3" d="M33.4583 97.5833C31.7793 97.5833 30.4167 96.2207 30.4167 94.5417V58.0417C30.4167 56.3627 31.7793 55 33.4583 55C35.1373 55 36.5 56.3627 36.5 58.0417V94.5417C36.5 96.2207 35.1373 97.5833 33.4583 97.5833Z" fill="white"/>
<g id="Group_3">
<g id="Group_4">
<path id="Vector_4" d="M130.792 79.3333H76.0417C74.3627 79.3333 73 77.9707 73 76.2917C73 74.6127 74.3627 73.25 76.0417 73.25H130.792C135.823 73.25 139.917 69.1559 139.917 64.125V15.4583C139.917 10.4274 135.823 6.33333 130.792 6.33333H45.625C40.5941 6.33333 36.5 10.4274 36.5 15.4583V33.7083C36.5 35.3873 35.1373 36.75 33.4583 36.75C31.7793 36.75 30.4167 35.3873 30.4167 33.7083V15.4583C30.4167 7.0755 37.2361 0.25 45.625 0.25H130.792C139.181 0.25 146 7.0755 146 15.4583V64.125C146 72.5078 139.181 79.3333 130.792 79.3333Z" fill="white"/>
</g>
<path id="Vector_5" d="M103.417 61.0833C96.7067 61.0833 91.25 55.6266 91.25 48.9167C91.25 42.2068 96.7067 36.75 103.417 36.75C106.397 36.75 109.281 37.8693 111.538 39.9012C112.171 40.4791 112.542 41.3003 112.542 42.1642C112.542 43.028 112.171 43.8493 111.538 44.4272C110.224 45.6013 109.5 47.2012 109.5 48.9167C109.5 50.6322 110.224 52.2321 111.538 53.4123C112.171 53.9902 112.542 54.8114 112.542 55.6753C112.542 56.5391 112.171 57.3603 111.538 57.9383C109.281 59.964 106.397 61.0833 103.417 61.0833ZM103.417 42.8333C100.059 42.8333 97.3333 45.5648 97.3333 48.9167C97.3333 52.7918 101.257 55.8152 104.956 54.7932C103.958 53.0047 103.417 50.985 103.417 48.9167C103.417 46.8483 103.958 44.8287 104.956 43.0402C104.457 42.9063 103.94 42.8333 103.417 42.8333Z" fill="white"/>
<path id="Vector_6" d="M115.583 61.0833C108.873 61.0833 103.417 55.6266 103.417 48.9167C103.417 42.2068 108.873 36.75 115.583 36.75C122.293 36.75 127.75 42.2068 127.75 48.9167C127.75 55.6266 122.293 61.0833 115.583 61.0833ZM115.583 42.8333C112.225 42.8333 109.5 45.5648 109.5 48.9167C109.5 52.2686 112.225 55 115.583 55C118.941 55 121.667 52.2686 121.667 48.9167C121.667 45.5648 118.941 42.8333 115.583 42.8333Z" fill="white"/>
<path id="Vector_7" d="M57.7917 24.5833H51.7083C50.0293 24.5833 48.6667 23.2207 48.6667 21.5417C48.6667 19.8627 50.0293 18.5 51.7083 18.5H57.7917C59.4707 18.5 60.8333 19.8627 60.8333 21.5417C60.8333 23.2207 59.4707 24.5833 57.7917 24.5833Z" fill="white"/>
<path id="Vector_8" d="M76.0417 24.5833H69.9583C68.2793 24.5833 66.9167 23.2207 66.9167 21.5417C66.9167 19.8627 68.2793 18.5 69.9583 18.5H76.0417C77.7207 18.5 79.0833 19.8627 79.0833 21.5417C79.0833 23.2207 77.7207 24.5833 76.0417 24.5833Z" fill="white"/>
<path id="Vector_9" d="M94.2917 24.5833H88.2083C86.5293 24.5833 85.1667 23.2207 85.1667 21.5417C85.1667 19.8627 86.5293 18.5 88.2083 18.5H94.2917C95.9707 18.5 97.3333 19.8627 97.3333 21.5417C97.3333 23.2207 95.9707 24.5833 94.2917 24.5833Z" fill="white"/>
<path id="Vector_10" d="M112.542 24.5833H106.458C104.779 24.5833 103.417 23.2207 103.417 21.5417C103.417 19.8627 104.779 18.5 106.458 18.5H112.542C114.221 18.5 115.583 19.8627 115.583 21.5417C115.583 23.2207 114.221 24.5833 112.542 24.5833Z" fill="white"/>
<path id="Vector_11" d="M82.125 42.8333H57.7917C56.1127 42.8333 54.75 41.4707 54.75 39.7917C54.75 38.1127 56.1127 36.75 57.7917 36.75H82.125C83.804 36.75 85.1667 38.1127 85.1667 39.7917C85.1667 41.4707 83.804 42.8333 82.125 42.8333Z" fill="white"/>
<path id="Vector_12" d="M82.125 61.0833H76.0417C74.3627 61.0833 73 59.7207 73 58.0417C73 56.3627 74.3627 55 76.0417 55H82.125C83.804 55 85.1667 56.3627 85.1667 58.0417C85.1667 59.7207 83.804 61.0833 82.125 61.0833Z" fill="white"/>
</g>
</g>
</svg>
