<svg width="566" height="544" viewBox="0 0 566 544" fill="none" xmlns="http://www.w3.org/2000/svg">
<path d="M444.452 159.188C428.061 80.716 355.283 22.6667 271.208 22.6667C173.668 22.6667 94.3333 98.9173 94.3333 192.667C94.3333 196.497 94.4984 200.419 94.8522 204.567C41.6246 210.007 0 253.413 0 306C0 362.236 47.6148 408 106.125 408C112.634 408 117.917 402.923 117.917 396.667C117.917 315.429 186.686 249.333 271.208 249.333C355.731 249.333 424.5 315.429 424.5 396.667C424.5 402.923 429.783 408 436.292 408C507.82 408 566 352.081 566 283.333C566 217.804 513.126 163.925 444.452 159.188ZM271.208 272C199.68 272 141.5 327.919 141.5 396.667C141.5 465.415 199.68 521.333 271.208 521.333C342.737 521.333 400.917 465.415 400.917 396.667C400.917 327.919 342.737 272 271.208 272ZM326.724 382.024C324.412 384.223 321.394 385.333 318.375 385.333C315.356 385.333 312.338 384.223 310.027 382.024L283 356.025V464.667C283 470.923 277.717 476 271.208 476C264.699 476 259.417 470.923 259.417 464.667V356.025L232.39 382.001C227.791 386.421 220.316 386.421 215.717 382.001C211.118 377.581 211.118 370.396 215.717 365.976L262.86 320.665C263.945 319.623 265.265 318.784 266.704 318.195C269.581 317.039 272.836 317.039 275.713 318.195C277.175 318.761 278.472 319.6 279.557 320.665L326.7 365.976C331.322 370.419 331.322 377.581 326.724 382.024Z" fill="url(#paint0_linear_611_2231)"/>
<defs>
<linearGradient id="paint0_linear_611_2231" x1="283" y1="22.6667" x2="283" y2="521.333" gradientUnits="userSpaceOnUse">
<stop offset="0.421875" stop-color="#BD00FF"/>
<stop offset="1" stop-color="#0038FF"/>
</linearGradient>
</defs>
</svg>
