<svg width="24" height="24" viewBox="0 0 24 24" fill="none" xmlns="http://www.w3.org/2000/svg">
<g id="Group 1000003569">
<path id="wrench.and.screwdriver" d="M1.7299 22.5721C3.51101 24.3575 5.92251 24.3474 7.63357 22.5924C9.17452 21.0199 9.6148 19.0924 12.1264 15.7346L16.1489 19.7924L16.2789 20.6852C16.339 21.0808 16.5891 21.4359 16.9093 21.659L20.0813 23.8199C20.4415 24.0633 20.8017 24.0633 21.0619 23.7996L22.9731 21.8619C23.2232 21.5982 23.2032 21.2228 22.9731 20.8678L20.8618 17.662C20.6316 17.3171 20.2814 17.0838 19.8912 17.0229L19.0206 16.8911L14.768 12.5796C15.1382 12.1839 15.5285 11.768 15.9587 11.3318C18.1101 12.2955 20.6717 11.9303 22.3727 10.1956C24.2439 8.30866 24.5341 5.30584 23.0732 2.93199L21.9324 4.08848V4.09863L20.3214 5.71163C20.0713 5.97539 19.7611 5.98554 19.5009 5.71163L18.3802 4.57543C18.1001 4.29138 18.0901 3.97689 18.3402 3.72328L19.9412 2.10013L21.0919 0.943638C18.7605 -0.537483 15.8086 -0.253432 13.9375 1.64362C12.4666 3.14503 11.9863 5.27541 12.4966 7.23333L7.01318 1.65376C5.53226 0.152354 3.94128 0.14221 2.49038 1.61319L1.0795 3.05373C-0.3714 4.51456 -0.361394 6.12756 1.11952 7.62897L6.713 13.2998C4.43158 14.8012 2.97067 15.3186 1.70989 16.5766C-0.0211831 18.3214 -0.0311893 20.7562 1.7299 22.5721ZM17.1695 5.45801L18.6204 6.91885C19.3709 7.6797 20.3314 7.69998 21.0419 6.97971L22.3927 5.60004C22.5628 6.87827 22.1726 8.1565 21.262 9.07966C19.631 10.7332 16.9293 10.6521 15.1983 8.91734C13.4772 7.17246 13.4072 4.41311 15.0482 2.76968C15.9487 1.85666 17.2095 1.46102 18.4603 1.62333L17.1094 2.98272C16.369 3.73342 16.399 4.69716 17.1695 5.45801ZM2.19019 6.38118C1.48975 5.67105 1.49976 4.96093 2.18018 4.26094L3.68111 2.71895C4.37154 2.01897 5.08198 2.02912 5.78242 2.73924L11.9563 8.9985C10.4553 10.4492 9.16452 11.5245 8.04382 12.3564L2.19019 6.38118ZM8.29398 8.29852C8.46408 8.49127 8.77428 8.47098 8.93437 8.30866C9.12449 8.11592 9.12449 7.82172 8.94438 7.63912L5.30212 3.9566C5.12201 3.774 4.84183 3.78414 4.67173 3.9566C4.49162 4.13921 4.49162 4.42326 4.67173 4.60586L8.29398 8.29852ZM7.02319 9.57675C7.2033 9.7695 7.49348 9.75935 7.67359 9.57675C7.8437 9.40429 7.8537 9.12024 7.67359 8.93763L4.03133 5.24498C3.87123 5.07252 3.57105 5.07252 3.39093 5.24498C3.21082 5.42758 3.20082 5.73192 3.38093 5.90438L7.02319 9.57675ZM14.0876 10.0333C14.2677 10.2057 14.4478 10.3782 14.6379 10.5202C8.06384 17.378 8.74426 19.0924 6.46284 21.4156C5.42219 22.4808 4.00131 22.5213 2.89062 21.4054C1.77993 20.2591 1.82997 18.8287 2.87061 17.7736C5.16203 15.4607 6.84308 16.1505 13.6073 9.48545C13.7574 9.67819 13.9175 9.8608 14.0876 10.0333ZM17.97 20.2286L17.7599 19.0924L13.157 14.4259C13.3171 14.223 13.4872 14.0303 13.6673 13.8172L18.3202 18.5345L19.4409 18.7272L21.282 21.2025L20.4015 22.0953L17.97 20.2286ZM4.65172 20.8373C5.30212 20.8373 5.83245 20.2997 5.83245 19.6301C5.83245 18.9707 5.30212 18.433 4.65172 18.433C4.00131 18.433 3.46098 18.9707 3.46098 19.6301C3.46098 20.2997 4.00131 20.8373 4.65172 20.8373Z" fill="#BD00FF"/>
</g>
</svg>
