<svg width="25" height="24" viewBox="0 0 25 24" fill="none" xmlns="http://www.w3.org/2000/svg">
<g id="brain.head.profile">
<path id="brain.head.profile_2" d="M14.1449 24C18.051 24 20.4023 22.6556 20.4023 20.4118V15.4883C22.0424 14.1075 23 11.9001 23 9.45647C23 3.77896 19.1603 0 13.3959 0C7.66005 0 3.83928 3.6972 3.83928 9.25662C3.83928 9.56548 3.84876 9.82892 3.8772 10.0833L2.51196 12.4269C2.16117 13.0174 2 13.5806 2 14.1075C2 15.1067 2.65418 15.9152 3.83928 16.1514V17.9955C3.83928 19.8577 5.17607 20.7843 7.03431 20.5935L7.98239 20.4936C8.03928 22.6919 10.3431 24 14.1449 24ZM14.1449 22.2468C11.3765 22.2468 9.71738 21.4292 9.71738 20.112V18.8675C9.71738 18.6586 9.58465 18.5587 9.37607 18.5768L6.81625 18.8403C6.06727 18.922 5.66907 18.6132 5.66907 17.8592V14.9705C5.66907 14.8251 5.5553 14.7252 5.39413 14.7252H4.87269C4.26591 14.7252 3.91512 14.4345 3.91512 13.9803C3.91512 13.7441 4.00045 13.4625 4.17111 13.1809L5.76388 10.4375C5.69752 10.0288 5.65959 9.62907 5.65959 9.22937C5.65959 4.74186 8.75034 1.75322 13.3959 1.75322C18.0605 1.75322 21.1702 4.8327 21.1702 9.45647C21.1702 11.7093 20.1842 13.6624 18.563 14.6071V20.112C18.563 21.4292 16.9038 22.2468 14.1449 22.2468ZM7.1386 7.76684C7.1386 9.50189 8.39007 10.6828 10.2578 10.6828C10.5138 10.6828 10.7508 10.6646 10.9783 10.6192C11.5472 11.0916 12.3625 11.3641 13.2537 11.3641C13.595 11.3641 13.9648 11.3278 14.3251 11.2369C14.6853 11.5821 15.2257 11.782 15.8609 11.782H16.098C16.2686 12.6904 16.8849 13.3081 17.6623 13.3081C18.781 13.3081 19.5774 12.1181 19.5774 10.4285C19.5774 9.98335 19.5585 9.63815 19.53 9.3293C19.8524 8.9296 20.0325 8.40273 20.0325 7.7941C20.0325 6.58592 19.1982 5.64118 17.9278 5.37774C17.6528 4.31491 16.6953 3.55185 15.5291 3.55185C15.4438 3.55185 15.33 3.57002 15.2163 3.58819C14.7991 3.14307 14.1734 2.87055 13.5002 2.87055C12.7607 2.87055 12.116 3.13399 11.6704 3.57002C11.3386 3.44285 10.9973 3.37926 10.637 3.37926C9.36659 3.37926 8.40903 4.21499 8.40903 5.35049V5.35958C7.62212 5.90462 7.1386 6.81302 7.1386 7.76684ZM10.9783 5.21423C10.9688 5.514 11.1869 5.73202 11.4903 5.73202C11.7937 5.73202 11.9928 5.54126 12.0117 5.25057C12.0402 4.43301 12.6564 3.86071 13.5002 3.86071C13.9932 3.86071 14.4388 4.11506 14.619 4.50568C14.6948 4.64194 14.8465 4.65102 15.0646 4.59652C15.1783 4.56927 15.3016 4.5511 15.4343 4.5511C16.2971 4.56018 16.9607 5.19606 16.9607 6.03179C16.9607 8.11204 13.8036 7.80318 13.8036 10.0288C13.8036 10.1287 13.8131 10.2286 13.8321 10.3285C13.6709 10.3558 13.5002 10.3649 13.3391 10.3649C12.9409 10.3649 12.5521 10.2831 12.2298 10.1469C12.9314 9.69266 13.3485 8.95685 13.3485 8.05753C13.3485 8.00303 13.3391 7.94852 13.3391 7.89402C14.344 7.59425 14.8749 6.89478 14.8655 5.82286C14.8655 5.55942 14.619 5.32324 14.3345 5.32324C14.0596 5.32324 13.8226 5.55034 13.8321 5.82286C13.8415 6.43149 13.595 6.78577 13.0546 6.9402C12.9503 6.77668 12.8271 6.63134 12.6754 6.51325C12.4763 6.34973 12.3436 6.28615 12.154 6.28615C11.86 6.28615 11.6515 6.47691 11.6515 6.74035C11.6515 7.03104 11.8126 7.11279 12.0402 7.31264C12.2203 7.47615 12.3151 7.73051 12.3151 8.03936C12.3151 9.02952 11.5093 9.68357 10.2767 9.68357C9.00632 9.68357 8.17201 8.9296 8.17201 7.76684C8.17201 7.25814 8.37111 6.77668 8.7219 6.42241C9.07269 6.93111 9.68894 7.23089 10.4569 7.23089C10.7318 7.23089 10.9783 7.00378 10.9783 6.74035C10.9783 6.46783 10.7413 6.24073 10.4569 6.24073C9.85011 6.24073 9.45192 5.88645 9.45192 5.35049C9.45192 4.7782 9.94492 4.36942 10.6275 4.36942C10.7887 4.36942 10.9594 4.39667 11.1205 4.44209C11.0352 4.67827 10.9878 4.93263 10.9783 5.21423ZM16.6479 9.72899C16.6479 9.99243 16.8564 10.2014 17.1503 10.2286C17.6623 10.265 18.1269 10.1923 18.5251 10.0469C18.5345 10.1559 18.5345 10.2831 18.5345 10.4194C18.5345 11.5185 18.1363 12.3179 17.6623 12.3179C17.2451 12.3179 16.9607 11.8092 16.9607 11.0825C16.9607 10.9463 16.8564 10.8736 16.7237 10.8736C16.6005 10.8736 16.4488 10.8827 16.3065 10.8827C15.349 10.8827 14.856 10.5829 14.856 10.0015C14.856 8.52082 17.7287 8.81151 17.9941 6.39515C18.6104 6.56775 18.9896 7.08554 18.9896 7.7941C18.9896 8.73883 18.2691 9.32021 17.1693 9.23846C16.8849 9.22029 16.6479 9.45647 16.6479 9.72899Z" fill="#BD00FF"/>
</g>
</svg>
