<svg width="26" height="25" viewBox="0 0 26 25" fill="none" xmlns="http://www.w3.org/2000/svg">
<g id="Group 1000003558">
<g id="Group 1000003553">
<g id="Group 1000003552">
<path id="Ellipse 46" d="M16.9826 5.33349C16.9826 7.9316 15.0775 9.91698 12.8698 9.91698C10.6621 9.91698 8.757 7.9316 8.757 5.33349C8.757 2.73538 10.6621 0.75 12.8698 0.75C15.0775 0.75 16.9826 2.73538 16.9826 5.33349Z" stroke="#BD00FF" stroke-width="1.5" stroke-linecap="round"/>
<path id="Ellipse 47" d="M15.8814 2.25839C16.2714 1.66473 16.8057 1.22212 17.4089 0.974977C18.0111 0.728295 18.6626 0.683835 19.2848 0.844758C19.9079 1.00591 20.4842 1.36884 20.9356 1.90007C21.3875 2.43198 21.6916 3.10679 21.8005 3.84151C21.9094 4.57631 21.8166 5.32862 21.5369 6.00104C21.2574 6.67316 20.8071 7.22818 20.2528 7.60409C19.6996 7.97926 19.0652 8.16156 18.4288 8.13695C17.7922 8.11234 17.1691 7.88128 16.6389 7.46235" stroke="#BD00FF" stroke-width="1.5"/>
<path id="Ellipse 49" d="M9.83809 2.2288C9.44304 1.63973 8.9051 1.20321 8.29993 0.962754C7.69589 0.722747 7.04404 0.685281 6.42312 0.853014C5.80127 1.021 5.22793 1.39036 4.78111 1.9268C4.33372 2.46392 4.03566 3.14228 3.93342 3.87826C3.83116 4.61431 3.93077 5.36548 4.21636 6.03457C4.50181 6.70335 4.95691 7.25312 5.51417 7.62275C6.07034 7.99166 6.70616 8.16706 7.34237 8.13554C7.97877 8.10402 8.60005 7.86615 9.1268 7.4412" stroke="#BD00FF" stroke-width="1.5"/>
<path id="Rectangle 4160" d="M12.8692 13.332C20.1011 13.332 21.4665 20.3513 21.7243 23.0019C21.7778 23.5516 21.3366 23.999 20.7843 23.999H4.9541C4.40182 23.999 3.96064 23.5516 4.0141 23.0019C4.2719 20.3513 5.63731 13.332 12.8692 13.332Z" stroke="#BD00FF" stroke-width="1.5" stroke-linecap="round"/>
<path id="Subtract" d="M24.8686 19.3566L24.1304 19.4896V19.4896L24.8686 19.3566ZM14.6317 13.4809L14.0553 13.001L13.2333 13.9883L14.4971 14.2188L14.6317 13.4809ZM21.2679 20.4399L20.5427 20.6312L20.69 21.1899H21.2679V20.4399ZM18.5424 12.3008C20.3906 12.3008 21.6608 13.4121 22.5626 14.9452C23.4696 16.4871 23.9227 18.3363 24.1304 19.4896L25.6067 19.2237C25.3875 18.0068 24.8957 15.953 23.8555 14.1846C22.81 12.4073 21.1306 10.8008 18.5424 10.8008V12.3008ZM15.208 13.9608C16.0379 12.9641 17.1081 12.3008 18.5424 12.3008V10.8008C16.5627 10.8008 15.0993 11.7471 14.0553 13.001L15.208 13.9608ZM14.4971 14.2188C18.2343 14.9001 19.8437 17.9812 20.5427 20.6312L21.9931 20.2487C21.2444 17.41 19.3775 13.5838 14.7662 12.7431L14.4971 14.2188ZM23.9308 19.6899H21.2679V21.1899H23.9308V19.6899ZM24.1304 19.4896C24.1402 19.5437 24.126 19.5859 24.0953 19.621C24.0623 19.6587 24.0066 19.6899 23.9308 19.6899V21.1899C24.9496 21.1899 25.8002 20.298 25.6067 19.2237L24.1304 19.4896Z" fill="#BD00FF"/>
<path id="Subtract_2" d="M11.1073 13.4808L11.2418 14.2187L12.5058 13.9883L11.6837 13.0009L11.1073 13.4808ZM0.870443 19.3566L0.132324 19.2237V19.2237L0.870443 19.3566ZM4.47055 20.4399V21.1899H5.04839L5.19575 20.6312L4.47055 20.4399ZM7.19659 12.3008C8.63092 12.3008 9.70109 12.964 10.5309 13.9607L11.6837 13.0009C10.6397 11.7471 9.17632 10.8008 7.19659 10.8008V12.3008ZM1.60856 19.4896C1.81631 18.3363 2.26942 16.4871 3.17644 14.9452C4.0782 13.4121 5.3484 12.3008 7.19659 12.3008V10.8008C4.60841 10.8008 2.92901 12.4073 1.88353 14.1846C0.843319 15.953 0.351541 18.0067 0.132324 19.2237L1.60856 19.4896ZM1.8082 19.6899C1.73241 19.6899 1.67671 19.6587 1.64369 19.621C1.61298 19.5859 1.59882 19.5437 1.60856 19.4896L0.132324 19.2237C-0.0612153 20.298 0.789435 21.1899 1.8082 21.1899V19.6899ZM4.47055 19.6899H1.8082V21.1899H4.47055V19.6899ZM5.19575 20.6312C5.89471 17.9811 7.50427 14.8998 11.2418 14.2187L10.9728 12.743C6.3611 13.5834 4.49405 17.4099 3.74535 20.2487L5.19575 20.6312Z" fill="#BD00FF"/>
</g>
</g>
</g>
</svg>
