<svg width="28" height="24" viewBox="0 0 28 24" fill="none" xmlns="http://www.w3.org/2000/svg">
<g id="Group 1000003565">
<path id="dollarsign.circle" d="M13.9947 14.4999C14.2709 14.4999 14.4833 14.3611 14.4833 14.1639V13.6745C16.2041 13.5649 17.5 12.8856 17.5 11.7753C17.5 10.7818 16.5653 10.1974 14.717 9.96369L14.4833 9.92717V8.1156C15.1631 8.19595 15.6305 8.47353 15.8323 8.90451C15.9917 9.14557 16.2147 9.28435 16.5971 9.28435C17.022 9.28435 17.3194 9.08713 17.3194 8.80955C17.3194 8.72189 17.2876 8.64154 17.2663 8.55388C16.9795 7.8015 15.9067 7.26095 14.4833 7.15868V6.66927C14.4833 6.47204 14.2709 6.33325 13.9947 6.33325C13.7185 6.33325 13.5167 6.47204 13.5167 6.66927V7.15868C11.8384 7.27556 10.6487 7.97681 10.6487 8.99217C10.6487 9.94178 11.5728 10.4969 13.3361 10.7745L13.5167 10.8037V12.7322C12.6563 12.6445 12.1571 12.3304 11.9871 11.8994C11.8384 11.6365 11.5941 11.505 11.2329 11.505C10.7868 11.505 10.5 11.7095 10.5 12.0017C10.5 12.0821 10.5319 12.1624 10.5637 12.2574C10.8718 13.0317 11.9977 13.5722 13.5167 13.6672V14.1639C13.5167 14.3684 13.7185 14.4999 13.9947 14.4999ZM13.5167 9.75916L13.4423 9.74455C12.5926 9.57654 12.1995 9.32088 12.1995 8.92642C12.1995 8.52467 12.6988 8.19595 13.5167 8.1083V9.75916ZM14.4833 10.9717L14.6851 11.001C15.6093 11.1763 15.9385 11.4392 15.9385 11.8556C15.9385 12.3158 15.4499 12.6518 14.4833 12.7322V10.9717Z" fill="#BD00FF"/>
<path id="lock.display" d="M2.87268 19.7429H10.2332V21.7881H10.1871C9.61022 21.7881 9.13721 22.2514 9.13721 22.8164C9.13721 23.3701 9.61022 23.8333 10.1871 23.8333H17.8129C18.3898 23.8333 18.8628 23.3701 18.8628 22.8164C18.8628 22.2514 18.3898 21.7881 17.8129 21.7881H17.7668V19.7429H25.1158C26.9155 19.7429 28 18.6921 28 16.9294V3.31356C28 1.55085 26.9155 0.5 25.1158 0.5H2.87268C1.08447 0.5 0 1.55085 0 3.31356V16.9294C0 18.6921 1.08447 19.7429 2.87268 19.7429ZM3.01112 17.5847C2.51504 17.5847 2.21508 17.2797 2.21508 16.8051V3.43785C2.21508 2.96328 2.51504 2.65819 3.01112 2.65819H24.9889C25.485 2.65819 25.7849 2.96328 25.7849 3.43785V16.8051C25.7849 17.2797 25.485 17.5847 24.9889 17.5847H3.01112Z" fill="#BD00FF"/>
</g>
</svg>
