<svg width="24" height="20" viewBox="0 0 24 20" fill="none" xmlns="http://www.w3.org/2000/svg">
<g id="Group 1000003565">
<path id="dollarsign.circle" d="M11.9954 12C12.2322 12 12.4143 11.881 12.4143 11.712V11.2925C13.8892 11.1986 15 10.6163 15 9.66458C15 8.81306 14.1988 8.31216 12.6146 8.11181L12.4143 8.0805V6.52773C12.997 6.5966 13.3976 6.83453 13.5706 7.20394C13.7071 7.41055 13.8983 7.52952 14.2261 7.52952C14.5903 7.52952 14.8452 7.36047 14.8452 7.12254C14.8452 7.04741 14.8179 6.97853 14.7997 6.9034C14.5539 6.2585 13.6343 5.79517 12.4143 5.70751V5.28801C12.4143 5.11896 12.2322 5 11.9954 5C11.7587 5 11.5857 5.11896 11.5857 5.28801V5.70751C10.1472 5.80769 9.12747 6.40877 9.12747 7.27907C9.12747 8.09302 9.91958 8.56887 11.431 8.8068L11.5857 8.83184V10.4848C10.8483 10.4097 10.4203 10.1404 10.2747 9.77102C10.1472 9.54562 9.93778 9.43292 9.62822 9.43292C9.24583 9.43292 9 9.60823 9 9.85868C9 9.92755 9.02731 9.99642 9.05463 10.0778C9.31866 10.7415 10.2838 11.2048 11.5857 11.2862V11.712C11.5857 11.8873 11.7587 12 11.9954 12ZM11.5857 7.93649L11.522 7.92397C10.7936 7.77996 10.4568 7.56082 10.4568 7.22272C10.4568 6.87835 10.8847 6.5966 11.5857 6.52147V7.93649ZM12.4143 8.97585L12.5873 9.00089C13.3794 9.15116 13.6616 9.37657 13.6616 9.73345C13.6616 10.1279 13.2428 10.4159 12.4143 10.4848V8.97585Z" fill="white"/>
<path id="lock.display" d="M2.4623 16.4939H8.77132V18.247H8.73177C8.23733 18.247 7.83189 18.6441 7.83189 19.1283C7.83189 19.6029 8.23733 20 8.73177 20H15.2682C15.7627 20 16.1681 19.6029 16.1681 19.1283C16.1681 18.6441 15.7627 18.247 15.2682 18.247H15.2287V16.4939H21.5278C23.0705 16.4939 24 15.5932 24 14.0823V2.41162C24 0.900726 23.0705 0 21.5278 0H2.4623C0.929543 0 0 0.900726 0 2.41162V14.0823C0 15.5932 0.929543 16.4939 2.4623 16.4939ZM2.58096 14.6441C2.15575 14.6441 1.89864 14.3826 1.89864 13.9758V2.51816C1.89864 2.11138 2.15575 1.84988 2.58096 1.84988H21.419C21.8443 1.84988 22.1014 2.11138 22.1014 2.51816V13.9758C22.1014 14.3826 21.8443 14.6441 21.419 14.6441H2.58096Z" fill="white"/>
</g>
</svg>
