<svg width="26" height="26" viewBox="0 0 26 26" fill="none" xmlns="http://www.w3.org/2000/svg">
<g id="Group 1000003554">
<path id="Vector 55" d="M7 6.33203L13 6.33203" stroke="white" stroke-width="1.2" stroke-linecap="round"/>
<path id="Vector 59" d="M7 17L11.5 17" stroke="white" stroke-width="1.2" stroke-linecap="round"/>
<path id="Vector 58" d="M7 11.668L16 11.668" stroke="white" stroke-width="1.2" stroke-linecap="round"/>
<path id="Rectangle 4012" d="M22 11.6667V7C22 4.17157 22 2.75736 21.1213 1.87868C20.2426 0.999999 18.8284 0.999999 16 0.999999H7C4.17157 0.999999 2.75736 0.999999 1.87868 1.87868C1 2.75736 1 4.17157 1 7V19C1 21.8284 1 23.2426 1.87868 24.1213C2.75736 25 4.17157 25 7 25H11.5" stroke="white" stroke-width="1.2" stroke-linecap="round"/>
<g id="Group 8656">
<ellipse id="Ellipse 65" cx="19.75" cy="20.3333" rx="3.75" ry="3.33333" stroke="white" stroke-width="1.2" stroke-linecap="round"/>
<path id="Vector 109" d="M25 25L22.75 23" stroke="white" stroke-width="1.2" stroke-linecap="round"/>
</g>
</g>
</svg>
