<svg width="26" height="24" viewBox="0 0 26 24" fill="none" xmlns="http://www.w3.org/2000/svg">
<g id="Group 1000003556">
<path id="Rectangle 1" d="M1 8.66797C1 7.72516 1 7.25376 1.29289 6.96086C1.58579 6.66797 2.05719 6.66797 3 6.66797H23C23.9428 6.66797 24.4142 6.66797 24.7071 6.96086C25 7.25376 25 7.72516 25 8.66797V11.3346C25 12.2774 25 12.7488 24.7071 13.0417C24.4142 13.3346 23.9428 13.3346 23 13.3346V13.3346C22.0572 13.3346 21.5858 13.3346 21.2929 13.6275C21 13.9204 21 14.3918 21 15.3346V20.668C21 21.6108 21 22.0822 20.7071 22.3751C20.4142 22.668 19.9428 22.668 19 22.668H7C6.05719 22.668 5.58579 22.668 5.29289 22.3751C5 22.0822 5 21.6108 5 20.668V15.3346C5 14.3918 5 13.9204 4.70711 13.6275C4.41421 13.3346 3.94281 13.3346 3 13.3346V13.3346C2.05719 13.3346 1.58579 13.3346 1.29289 13.0417C1 12.7488 1 12.2774 1 11.3346V8.66797Z" stroke="white" stroke-width="1.2"/>
<path id="Vector 3" d="M3.66699 13.332H22.3337" stroke="white" stroke-width="1.2" stroke-linecap="round"/>
<path id="Vector 4" d="M13 5.33203L13 22.6654" stroke="white" stroke-width="1.2" stroke-linecap="round"/>
<path id="Vector 208" d="M13.0003 5.33333L11.5032 3.83618C10.2956 2.62865 8.82356 1.71886 7.2035 1.17884L6.29945 0.877485C5.00439 0.445798 3.66699 1.40974 3.66699 2.77485V3.89181C3.66699 4.75267 4.21785 5.51695 5.03454 5.78918L7.66699 6.66667" stroke="white" stroke-width="1.2" stroke-linecap="round"/>
<path id="Vector 209" d="M12.9997 5.33333L14.4968 3.83618C15.7044 2.62865 17.1764 1.71886 18.7965 1.17884L19.7006 0.877485C20.9956 0.445798 22.333 1.40974 22.333 2.77485V3.89181C22.333 4.75267 21.7821 5.51695 20.9655 5.78918L18.333 6.66667" stroke="white" stroke-width="1.2" stroke-linecap="round"/>
</g>
</svg>
