<svg width="25" height="24" viewBox="0 0 25 24" fill="none" xmlns="http://www.w3.org/2000/svg">
<g id="network.badge.shield.half.filled">
<g id="Group 1000001761">
<path id="network.badge.shield.half.filled_2" d="M11.2277 22.0419C12.3861 22.0518 13.5346 21.8339 14.6238 21.4379C14.7624 21.3983 14.901 21.3488 15.0297 21.2795C14.5941 20.8537 14.2673 20.3587 14.0693 19.8636C13.9604 19.8141 13.8614 19.6557 13.7624 19.4577C13.3663 18.8042 13.0198 18.121 12.7327 17.4279C12.9505 17.1606 13.0891 16.8042 13.0891 16.4279C13.0891 15.6953 12.5941 15.0715 11.9109 14.8933C11.6733 13.8338 11.5446 12.7645 11.5247 11.715C11.7723 11.7348 12.0198 11.7348 12.2673 11.7348C12.6337 11.7348 13 11.715 13.3564 11.6853C13.6337 11.9328 14 12.0913 14.4059 12.0913C15.0099 12.0913 15.5446 11.7348 15.802 11.2299C17.1287 10.8437 18.396 10.2397 19.5346 9.43775C19.5941 9.63578 19.7687 10.2745 19.8182 10.4725C20.3231 10.4824 20.6933 10.7477 21.3864 10.9953C20.6834 6.04472 16.3366 1.58618 11.2178 1.58618C5.61386 1.58618 1 6.2199 1 11.814C1 17.418 5.62376 22.0023 11.2277 22.0419ZM12.3861 3.25947C11.1584 5.3882 10.4158 7.76447 10.2277 10.2199C9.67326 10.1209 9.12871 9.98232 8.59406 9.8041C8.55445 9.42785 8.37624 9.09122 8.11881 8.83379C8.97029 6.71495 10.297 4.78424 12.0297 3.20996C12.1485 3.22976 12.2673 3.23967 12.3861 3.25947ZM4.07921 6.99218C5.43564 4.99216 7.60396 3.5862 10.0891 3.24957C8.69307 4.75453 7.60396 6.48723 6.86138 8.36844C6.58416 8.38824 6.31683 8.47735 6.09901 8.62586C5.36634 8.16051 4.69307 7.61595 4.07921 6.99218ZM14.3762 7.06149C14.3663 6.01197 14.5049 4.97236 14.7921 3.97235C16.6436 4.81394 18.1386 6.29911 19.0297 8.12091C18.0495 8.86349 16.9604 9.43776 15.8119 9.814C15.5743 9.34865 15.1089 9.01201 14.5644 8.9625C14.4455 8.33873 14.3861 7.70506 14.3762 7.06149ZM13.0396 7.06149C13.0396 7.86348 13.1287 8.64567 13.2871 9.41795C13.0396 9.66548 12.8713 10.0021 12.8416 10.3784C12.6535 10.3883 12.4653 10.3883 12.2673 10.3883C12.0297 10.3982 11.802 10.3883 11.5644 10.3784C11.7228 8.22982 12.3168 6.18029 13.3168 4.32879C13.1188 5.21989 13.0297 6.13079 13.0396 7.06149ZM2.58416 11.814C2.58416 10.5368 2.87129 9.31894 3.37624 8.22982C3.9901 8.80408 4.65346 9.31894 5.35643 9.76449C5.34653 9.8338 5.34653 9.91301 5.34653 9.99222C5.34653 10.5269 5.60396 11.0021 6.0099 11.2992C5.82178 12.2695 5.71287 13.2596 5.70297 14.2695C4.60396 13.7249 3.56436 13.0418 2.59406 12.22C2.58416 12.0912 2.58416 11.9526 2.58416 11.814ZM7.0495 14.8537C7.0198 13.7447 7.10891 12.6457 7.31683 11.5863C7.65346 11.517 7.95049 11.3388 8.17822 11.0813C8.83168 11.2992 9.49505 11.4675 10.1782 11.5764C10.1881 12.7744 10.3069 13.9725 10.5545 15.1408C10.3663 15.2794 10.2079 15.4477 10.0891 15.6556C9.0594 15.4972 8.0396 15.2299 7.0495 14.8537ZM2.92079 14.1804C3.81188 14.8042 4.76238 15.3388 5.74257 15.7646C5.79208 16.8042 5.95049 17.824 6.21782 18.8339C4.65346 17.7052 3.46535 16.0715 2.92079 14.1804ZM11.2277 20.4577C10.0693 20.4577 8.96039 20.2201 7.95049 19.7943C7.52475 18.6755 7.24752 17.5072 7.12871 16.3091C8.0693 16.626 9.0297 16.8537 10 17.0022C10.2178 17.5765 10.7624 17.9923 11.4059 18.022C11.7327 18.8438 12.1188 19.6161 12.5545 20.3488C12.1386 20.4181 11.6733 20.4577 11.2277 20.4577Z" fill="white"/>
<path id="e.circle" d="M19.2977 12.0411C16.7192 12.0411 14.5909 14.1704 14.5909 16.7457C14.5909 19.3209 16.7238 21.4502 19.3023 21.4502C21.8762 21.4502 24 19.3209 24 16.7457C24 14.1704 21.8717 12.0411 19.2977 12.0411ZM19.2977 12.9784C21.3851 12.9784 23.0541 14.6573 23.0541 16.7457C23.0541 18.834 21.3851 20.5084 19.3023 20.5084C17.2149 20.5084 15.5368 18.834 15.5323 16.7457C15.5277 14.6573 17.2104 12.9784 19.2977 12.9784ZM20.3164 14.7164H18.2518C18.0289 14.7164 17.888 14.8484 17.888 15.0668C17.888 15.2851 18.0289 15.4125 18.2518 15.4125H19.9071V16.4863H18.3473C18.1381 16.4863 18.0016 16.6001 18.0016 16.8002C18.0016 17.0095 18.1381 17.1233 18.3473 17.1233H19.9071V18.1379H18.2518C18.0289 18.1379 17.888 18.2699 17.888 18.4837C17.888 18.7021 18.0289 18.834 18.2518 18.834H20.3164C20.612 18.834 20.7666 18.6429 20.7666 18.3335V15.2169C20.7666 14.9075 20.612 14.7164 20.3164 14.7164Z" fill="white"/>
</g>
</g>
</svg>
