<svg width="25" height="24" viewBox="0 0 25 24" fill="none" xmlns="http://www.w3.org/2000/svg">
<g id="network.badge.shield.half.filled">
<g id="Group 1000001761">
<path id="network.badge.shield.half.filled_2" d="M11.2277 22.0416C12.3861 22.0515 13.5346 21.8337 14.6238 21.4376C14.7624 21.398 14.901 21.3485 15.0297 21.2792C14.5941 20.8535 14.2673 20.3584 14.0693 19.8634C13.9604 19.8139 13.8614 19.6554 13.7624 19.4574C13.3663 18.804 13.0198 18.1208 12.7327 17.4277C12.9505 17.1604 13.0891 16.8039 13.0891 16.4277C13.0891 15.695 12.5941 15.0712 11.9109 14.893C11.6733 13.8336 11.5446 12.7643 11.5247 11.7148C11.7723 11.7346 12.0198 11.7346 12.2673 11.7346C12.6337 11.7346 13 11.7148 13.3564 11.6851C13.6337 11.9326 14 12.091 14.4059 12.091C15.0099 12.091 15.5446 11.7346 15.802 11.2296C17.1287 10.8435 18.396 10.2395 19.5346 9.43751C19.5941 9.63553 19.7687 10.2743 19.8182 10.4723C20.3231 10.4822 20.6933 10.7475 21.3864 10.995C20.6834 6.04448 16.3366 1.58594 11.2178 1.58594C5.61386 1.58594 1 6.21965 1 11.8138C1 17.4178 5.62376 22.002 11.2277 22.0416ZM12.3861 3.25922C11.1584 5.38796 10.4158 7.76423 10.2277 10.2197C9.67326 10.1207 9.12871 9.98207 8.59406 9.80385C8.55445 9.42761 8.37624 9.09097 8.11881 8.83354C8.97029 6.71471 10.297 4.78399 12.0297 3.20972C12.1485 3.22952 12.2673 3.23942 12.3861 3.25922ZM4.07921 6.99194C5.43564 4.99192 7.60396 3.58596 10.0891 3.24932C8.69307 4.75429 7.60396 6.48698 6.86138 8.36819C6.58416 8.38799 6.31683 8.4771 6.09901 8.62562C5.36634 8.16027 4.69307 7.61571 4.07921 6.99194ZM14.3762 7.06125C14.3663 6.01173 14.5049 4.97211 14.7921 3.9721C16.6436 4.8137 18.1386 6.29886 19.0297 8.12066C18.0495 8.86325 16.9604 9.43751 15.8119 9.81375C15.5743 9.3484 15.1089 9.01176 14.5644 8.96226C14.4455 8.33849 14.3861 7.70482 14.3762 7.06125ZM13.0396 7.06125C13.0396 7.86324 13.1287 8.64542 13.2871 9.41771C13.0396 9.66524 12.8713 10.0019 12.8416 10.3781C12.6535 10.388 12.4653 10.388 12.2673 10.388C12.0297 10.3979 11.802 10.388 11.5644 10.3781C11.7228 8.22958 12.3168 6.18005 13.3168 4.32854C13.1188 5.21964 13.0297 6.13054 13.0396 7.06125ZM2.58416 11.8138C2.58416 10.5365 2.87129 9.3187 3.37624 8.22958C3.9901 8.80384 4.65346 9.3187 5.35643 9.76425C5.34653 9.83355 5.34653 9.91276 5.34653 9.99197C5.34653 10.5266 5.60396 11.0019 6.0099 11.2989C5.82178 12.2692 5.71287 13.2593 5.70297 14.2692C4.60396 13.7247 3.56436 13.0415 2.59406 12.2197C2.58416 12.091 2.58416 11.9524 2.58416 11.8138ZM7.0495 14.8534C7.0198 13.7445 7.10891 12.6455 7.31683 11.5861C7.65346 11.5167 7.95049 11.3385 8.17822 11.0811C8.83168 11.2989 9.49505 11.4672 10.1782 11.5761C10.1881 12.7742 10.3069 13.9722 10.5545 15.1405C10.3663 15.2792 10.2079 15.4475 10.0891 15.6554C9.0594 15.497 8.0396 15.2297 7.0495 14.8534ZM2.92079 14.1801C3.81188 14.8039 4.76238 15.3386 5.74257 15.7643C5.79208 16.8039 5.95049 17.8237 6.21782 18.8337C4.65346 17.7049 3.46535 16.0712 2.92079 14.1801ZM11.2277 20.4574C10.0693 20.4574 8.96039 20.2198 7.95049 19.7941C7.52475 18.6752 7.24752 17.5069 7.12871 16.3089C8.0693 16.6257 9.0297 16.8534 10 17.002C10.2178 17.5762 10.7624 17.9921 11.4059 18.0218C11.7327 18.8436 12.1188 19.6158 12.5545 20.3485C12.1386 20.4178 11.6733 20.4574 11.2277 20.4574Z" fill="#BD00FF"/>
<path id="e.circle" d="M19.2977 12.0401C16.7192 12.0401 14.5909 14.1695 14.5909 16.7447C14.5909 19.3199 16.7238 21.4492 19.3023 21.4492C21.8762 21.4492 24 19.3199 24 16.7447C24 14.1695 21.8717 12.0401 19.2977 12.0401ZM19.2977 12.9774C21.3851 12.9774 23.0541 14.6563 23.0541 16.7447C23.0541 18.8331 21.3851 20.5074 19.3023 20.5074C17.2149 20.5074 15.5368 18.8331 15.5323 16.7447C15.5277 14.6563 17.2104 12.9774 19.2977 12.9774ZM20.3164 14.7154H18.2518C18.0289 14.7154 17.888 14.8474 17.888 15.0658C17.888 15.2842 18.0289 15.4116 18.2518 15.4116H19.9071V16.4853H18.3473C18.1381 16.4853 18.0016 16.5991 18.0016 16.7993C18.0016 17.0086 18.1381 17.1223 18.3473 17.1223H19.9071V18.1369H18.2518C18.0289 18.1369 17.888 18.2689 17.888 18.4827C17.888 18.7011 18.0289 18.8331 18.2518 18.8331H20.3164C20.612 18.8331 20.7666 18.642 20.7666 18.3326V15.2159C20.7666 14.9065 20.612 14.7154 20.3164 14.7154Z" fill="#BD00FF"/>
</g>
</g>
</svg>
