<svg width="20" height="20" viewBox="0 0 20 20" fill="none" xmlns="http://www.w3.org/2000/svg">
<g id="View_alt_light">
<circle id="Ellipse 65_light" cx="10" cy="10" r="2" stroke="#BB9200"/>
<path id="Ellipse 66_light" d="M15.1364 9.38273C15.2668 9.62815 15.332 9.75086 15.332 10C15.332 10.2491 15.2668 10.3719 15.1364 10.6173C14.5709 11.6818 13.0763 13.75 10.0002 13.75C6.92403 13.75 5.42944 11.6818 4.86389 10.6173C4.73351 10.3719 4.66832 10.2491 4.66832 10C4.66832 9.75086 4.73351 9.62815 4.86389 9.38273C5.42944 8.3182 6.92403 6.25 10.0002 6.25C13.0763 6.25 14.5709 8.3182 15.1364 9.38273Z" stroke="#BB9200"/>
<path id="Vector 278" d="M14.5835 2.91699V2.91699C15.9257 2.91699 16.5968 2.91699 17.0778 3.24085C17.2812 3.37772 17.4561 3.55264 17.593 3.75597C17.9168 4.23706 17.9168 4.90815 17.9168 6.25033V6.25033" stroke="#BB9200" stroke-linecap="round"/>
<path id="Vector 280" d="M14.5835 17.083V17.083C15.9257 17.083 16.5968 17.083 17.0778 16.7592C17.2812 16.6223 17.4561 16.4474 17.593 16.244C17.9168 15.7629 17.9168 15.0919 17.9168 13.7497V13.7497" stroke="#BB9200" stroke-linecap="round"/>
<path id="Vector 279" d="M5.4165 2.91699V2.91699C4.07433 2.91699 3.40324 2.91699 2.92215 3.24085C2.71882 3.37772 2.5439 3.55264 2.40702 3.75597C2.08317 4.23706 2.08317 4.90815 2.08317 6.25033V6.25033" stroke="#BB9200" stroke-linecap="round"/>
<path id="Vector 281" d="M5.4165 17.083V17.083C4.07433 17.083 3.40324 17.083 2.92215 16.7592C2.71882 16.6223 2.5439 16.4474 2.40702 16.244C2.08317 15.7629 2.08317 15.0919 2.08317 13.7497V13.7497" stroke="#BB9200" stroke-linecap="round"/>
</g>
</svg>
