<svg width="15" height="15" viewBox="0 0 15 15" fill="none" xmlns="http://www.w3.org/2000/svg">
<g id="akar-icons:linkedin-fill" clip-path="url(#clip0_796_556)" filter="url(#filter0_i_796_556)">
<g id="Group">
<path id="Vector" fill-rule="evenodd" clip-rule="evenodd" d="M0.992188 2.09185C0.992188 1.80033 1.10799 1.52075 1.31413 1.31462C1.52026 1.10848 1.79984 0.992677 2.09136 0.992677H13.0484C13.1929 0.992441 13.336 1.0207 13.4695 1.07584C13.603 1.13098 13.7244 1.21192 13.8266 1.31402C13.9288 1.41612 14.0099 1.53737 14.0651 1.67085C14.1204 1.80432 14.1488 1.94738 14.1488 2.09185V13.0489C14.1489 13.1934 14.1206 13.3365 14.0654 13.47C14.0102 13.6036 13.9292 13.7249 13.827 13.8271C13.7249 13.9293 13.6036 14.0104 13.4701 14.0656C13.3366 14.1209 13.1935 14.1493 13.049 14.1493H2.09136C1.94696 14.1493 1.80398 14.1208 1.67059 14.0655C1.53719 14.0103 1.41599 13.9292 1.31392 13.8271C1.21184 13.725 1.13089 13.6037 1.07569 13.4703C1.02048 13.3369 0.992109 13.1939 0.992188 13.0495V2.09185ZM6.1998 6.00892H7.98132V6.90357C8.23847 6.38927 8.8963 5.9264 9.88484 5.9264C11.78 5.9264 12.2291 6.95081 12.2291 8.83041V12.3121H10.3112V9.2586C10.3112 8.18813 10.0541 7.58412 9.40104 7.58412C8.49503 7.58412 8.11827 8.23537 8.11827 9.2586V12.3121H6.1998V6.00892ZM2.91066 12.2302H4.82913V5.9264H2.91066V12.2296V12.2302ZM5.10362 3.87038C5.10724 4.03464 5.07801 4.19797 5.01765 4.35078C4.95729 4.5036 4.86701 4.64281 4.75212 4.76026C4.63723 4.87771 4.50003 4.97103 4.34858 5.03474C4.19714 5.09845 4.03449 5.13127 3.87019 5.13127C3.70589 5.13127 3.54324 5.09845 3.3918 5.03474C3.24035 4.97103 3.10315 4.87771 2.98826 4.76026C2.87337 4.64281 2.78309 4.5036 2.72273 4.35078C2.66237 4.19797 2.63314 4.03464 2.63676 3.87038C2.64386 3.54796 2.77693 3.24113 3.00747 3.01561C3.23801 2.79009 3.54769 2.66381 3.87019 2.66381C4.19269 2.66381 4.50237 2.79009 4.73291 3.01561C4.96345 3.24113 5.09652 3.54796 5.10362 3.87038Z" fill="#485B7C"/>
</g>
</g>
<defs>
<filter id="filter0_i_796_556" x="0.394531" y="0.394531" width="14.3525" height="18.3525" filterUnits="userSpaceOnUse" color-interpolation-filters="sRGB">
<feFlood flood-opacity="0" result="BackgroundImageFix"/>
<feBlend mode="normal" in="SourceGraphic" in2="BackgroundImageFix" result="shape"/>
<feColorMatrix in="SourceAlpha" type="matrix" values="0 0 0 0 0 0 0 0 0 0 0 0 0 0 0 0 0 0 127 0" result="hardAlpha"/>
<feOffset dy="4"/>
<feGaussianBlur stdDeviation="7.5"/>
<feComposite in2="hardAlpha" operator="arithmetic" k2="-1" k3="1"/>
<feColorMatrix type="matrix" values="0 0 0 0 0 0 0 0 0 0 0 0 0 0 0 0 0 0 0.2 0"/>
<feBlend mode="normal" in2="shape" result="effect1_innerShadow_796_556"/>
</filter>
<clipPath id="clip0_796_556">
<rect width="14.3526" height="14.3526" fill="white" transform="translate(0.394531 0.394531)"/>
</clipPath>
</defs>
</svg>
