<svg width="19" height="19" viewBox="0 0 19 19" fill="none" xmlns="http://www.w3.org/2000/svg">
<g id="icons8_telegram_app 1">
<g id="Vector" filter="url(#filter0_i_796_560)">
<path d="M16.8849 9.48931C16.8849 13.5735 13.5735 16.8849 9.48931 16.8849C5.40511 16.8849 2.09375 13.5735 2.09375 9.48931C2.09375 5.40511 5.40511 2.09375 9.48931 2.09375C13.5735 2.09375 16.8849 5.40511 16.8849 9.48931Z" fill="#485B7C"/>
</g>
<g id="Vector_2" filter="url(#filter1_i_796_560)">
<path d="M4.88676 9.3847C7.47151 8.24763 10.8162 6.86133 11.278 6.66942C12.489 6.16726 12.8607 6.2634 12.6754 7.37569C12.5423 8.17515 12.1584 10.8217 11.8523 12.469C11.6707 13.446 11.2632 13.5617 10.6228 13.1391C10.3147 12.9357 8.75982 11.9073 8.42221 11.6659C8.11418 11.4458 7.68931 11.1811 8.22216 10.6597C8.41186 10.4741 9.65468 9.28708 10.6231 8.36337C10.75 8.24208 10.5906 8.04277 10.4442 8.14003C9.13884 9.00568 7.32915 10.2071 7.09877 10.3635C6.75081 10.5998 6.41653 10.7081 5.81675 10.5358C5.36341 10.4057 4.92078 10.2503 4.74847 10.1912C4.08472 9.9634 4.24224 9.66832 4.88676 9.3847Z" fill="#EBE9E9"/>
</g>
</g>
<defs>
<filter id="filter0_i_796_560" x="2.09375" y="2.09375" width="14.791" height="18.791" filterUnits="userSpaceOnUse" color-interpolation-filters="sRGB">
<feFlood flood-opacity="0" result="BackgroundImageFix"/>
<feBlend mode="normal" in="SourceGraphic" in2="BackgroundImageFix" result="shape"/>
<feColorMatrix in="SourceAlpha" type="matrix" values="0 0 0 0 0 0 0 0 0 0 0 0 0 0 0 0 0 0 127 0" result="hardAlpha"/>
<feOffset dy="4"/>
<feGaussianBlur stdDeviation="7.5"/>
<feComposite in2="hardAlpha" operator="arithmetic" k2="-1" k3="1"/>
<feColorMatrix type="matrix" values="0 0 0 0 0 0 0 0 0 0 0 0 0 0 0 0 0 0 0.2 0"/>
<feBlend mode="normal" in2="shape" result="effect1_innerShadow_796_560"/>
</filter>
<filter id="filter1_i_796_560" x="4.3208" y="6.37891" width="8.39941" height="10.9922" filterUnits="userSpaceOnUse" color-interpolation-filters="sRGB">
<feFlood flood-opacity="0" result="BackgroundImageFix"/>
<feBlend mode="normal" in="SourceGraphic" in2="BackgroundImageFix" result="shape"/>
<feColorMatrix in="SourceAlpha" type="matrix" values="0 0 0 0 0 0 0 0 0 0 0 0 0 0 0 0 0 0 127 0" result="hardAlpha"/>
<feOffset dy="4"/>
<feGaussianBlur stdDeviation="4"/>
<feComposite in2="hardAlpha" operator="arithmetic" k2="-1" k3="1"/>
<feColorMatrix type="matrix" values="0 0 0 0 0 0 0 0 0 0 0 0 0 0 0 0 0 0 0.2 0"/>
<feBlend mode="normal" in2="shape" result="effect1_innerShadow_796_560"/>
</filter>
</defs>
</svg>
