<svg width="17" height="17" viewBox="0 0 17 17" fill="none" xmlns="http://www.w3.org/2000/svg">
<g id="icons8_wechat 1">
<g id="Vector" filter="url(#filter0_i_796_384)">
<path d="M6.63198 2.47852C3.63678 2.47852 1.20068 4.55644 1.20068 7.11109C1.20068 8.47516 1.85838 9.70194 3.05896 10.5905L2.21656 13.119L4.85108 11.4878C5.58241 11.7175 6.47473 11.7986 7.33585 11.7037C8.03473 13.0566 9.61345 13.9801 11.4243 13.9801C11.9747 13.9801 12.4839 13.8765 12.9568 13.7355L15.1446 14.9598L14.5343 12.8669C15.358 12.183 15.8971 11.2307 15.8971 10.1462C15.8971 8.16191 14.1711 6.57944 11.9834 6.34607C11.5541 4.12463 9.3052 2.47852 6.63198 2.47852ZM4.71505 5.03442C5.06699 5.03442 5.35403 5.32146 5.35403 5.6734C5.35403 6.02533 5.06699 6.31237 4.71505 6.31237C4.36312 6.31237 4.07608 6.02533 4.07608 5.6734C4.07608 5.32146 4.36312 5.03442 4.71505 5.03442ZM8.54891 5.03442C8.90084 5.03442 9.18788 5.32146 9.18788 5.6734C9.18788 6.02533 8.90084 6.31237 8.54891 6.31237C8.19697 6.31237 7.90993 6.02533 7.90993 5.6734C7.90993 5.32146 8.19697 5.03442 8.54891 5.03442ZM11.4243 6.95135C13.5796 6.95135 15.2582 8.40028 15.2582 10.1462C15.2582 11.091 14.7764 11.9196 13.9815 12.5087L13.803 12.6422L14.0938 13.6394L13.0554 13.0566L12.9207 13.1015C12.4739 13.2513 11.9634 13.3411 11.4243 13.3411C9.269 13.3411 7.59044 11.8922 7.59044 10.1462C7.59044 8.40028 9.269 6.95135 11.4243 6.95135ZM9.9866 8.86828C9.73076 8.86828 9.50737 9.09167 9.50737 9.34751C9.50737 9.60335 9.73076 9.82674 9.9866 9.82674C10.2424 9.82674 10.4658 9.60335 10.4658 9.34751C10.4658 9.09167 10.2424 8.86828 9.9866 8.86828ZM12.862 8.86828C12.6062 8.86828 12.3828 9.09167 12.3828 9.34751C12.3828 9.60335 12.6062 9.82674 12.862 9.82674C13.1178 9.82674 13.3412 9.60335 13.3412 9.34751C13.3412 9.09167 13.1178 8.86828 12.862 8.86828Z" fill="#485B7C"/>
</g>
</g>
<defs>
<filter id="filter0_i_796_384" x="1.20068" y="2.47852" width="14.6963" height="15.4814" filterUnits="userSpaceOnUse" color-interpolation-filters="sRGB">
<feFlood flood-opacity="0" result="BackgroundImageFix"/>
<feBlend mode="normal" in="SourceGraphic" in2="BackgroundImageFix" result="shape"/>
<feColorMatrix in="SourceAlpha" type="matrix" values="0 0 0 0 0 0 0 0 0 0 0 0 0 0 0 0 0 0 127 0" result="hardAlpha"/>
<feOffset dy="4"/>
<feGaussianBlur stdDeviation="1.5"/>
<feComposite in2="hardAlpha" operator="arithmetic" k2="-1" k3="1"/>
<feColorMatrix type="matrix" values="0 0 0 0 0 0 0 0 0 0 0 0 0 0 0 0 0 0 0.2 0"/>
<feBlend mode="normal" in2="shape" result="effect1_innerShadow_796_384"/>
</filter>
</defs>
</svg>
