<svg width="17" height="17" viewBox="0 0 17 17" fill="none" xmlns="http://www.w3.org/2000/svg">
<g id="icons8_whatsapp 1" filter="url(#filter0_i_796_698)">
<path id="Vector" d="M8.54894 2.15918C5.0202 2.15918 2.15918 5.0202 2.15918 8.54894C2.15918 9.74766 2.49589 10.8653 3.07022 11.8239L2.21638 14.9387L5.39774 14.1036C6.32815 14.6326 7.40224 14.9387 8.54894 14.9387C12.0777 14.9387 14.9387 12.0777 14.9387 8.54894C14.9387 5.0202 12.0777 2.15918 8.54894 2.15918ZM6.36182 5.5683C6.46565 5.5683 6.57234 5.56767 6.66446 5.57246C6.77841 5.57512 6.90244 5.58347 7.02118 5.84598C7.16229 6.15801 7.46954 6.9408 7.50894 7.02014C7.54834 7.09948 7.57627 7.19295 7.52142 7.29678C7.46924 7.40328 7.4421 7.46773 7.36542 7.56198C7.28608 7.65357 7.19914 7.76732 7.12726 7.83654C7.04792 7.91588 6.96599 8.00287 7.05758 8.16102C7.14917 8.31917 7.46724 8.83761 7.93742 9.25614C8.54178 9.79608 9.0517 9.962 9.21038 10.0413C9.36906 10.1207 9.46095 10.1083 9.55254 10.0018C9.64679 9.89799 9.94836 9.5417 10.0549 9.38302C10.1587 9.22434 10.2647 9.2518 10.4085 9.30398C10.5544 9.35616 11.3324 9.73944 11.4911 9.81878C11.6498 9.89812 11.7538 9.93739 11.7937 10.0018C11.8347 10.0684 11.8348 10.3852 11.7033 10.7548C11.5717 11.1238 10.9259 11.4806 10.6362 11.5057C10.3439 11.5328 10.0711 11.6371 8.73614 11.1115C7.12592 10.4773 6.11044 8.82808 6.0311 8.72158C5.95176 8.61775 5.3863 7.86412 5.3863 7.0867C5.3863 6.30662 5.7953 5.92458 5.93854 5.7659C6.08444 5.60722 6.25532 5.5683 6.36182 5.5683Z" fill="#485B7C"/>
</g>
<defs>
<filter id="filter0_i_796_698" x="0.561523" y="0.561523" width="15.9746" height="19.9746" filterUnits="userSpaceOnUse" color-interpolation-filters="sRGB">
<feFlood flood-opacity="0" result="BackgroundImageFix"/>
<feBlend mode="normal" in="SourceGraphic" in2="BackgroundImageFix" result="shape"/>
<feColorMatrix in="SourceAlpha" type="matrix" values="0 0 0 0 0 0 0 0 0 0 0 0 0 0 0 0 0 0 127 0" result="hardAlpha"/>
<feOffset dy="4"/>
<feGaussianBlur stdDeviation="7.5"/>
<feComposite in2="hardAlpha" operator="arithmetic" k2="-1" k3="1"/>
<feColorMatrix type="matrix" values="0 0 0 0 0 0 0 0 0 0 0 0 0 0 0 0 0 0 0.2 0"/>
<feBlend mode="normal" in2="shape" result="effect1_innerShadow_796_698"/>
</filter>
</defs>
</svg>
