<svg width="888" height="888" viewBox="0 0 1093 1093" fill="none" xmlns="http://www.w3.org/2000/svg">
<path d="M437.628 557.348H430.03V554.281H437.628C439.099 554.281 440.291 554.047 441.202 553.578C442.114 553.109 442.778 552.458 443.194 551.625C443.624 550.792 443.839 549.841 443.839 548.773C443.839 547.797 443.624 546.879 443.194 546.02C442.778 545.16 442.114 544.47 441.202 543.949C440.291 543.415 439.099 543.148 437.628 543.148H430.909V568.5H427.14V540.062H437.628C439.776 540.062 441.593 540.434 443.077 541.176C444.562 541.918 445.688 542.947 446.456 544.262C447.224 545.564 447.608 547.055 447.608 548.734C447.608 550.557 447.224 552.113 446.456 553.402C445.688 554.691 444.562 555.674 443.077 556.352C441.593 557.016 439.776 557.348 437.628 557.348ZM460.323 568.891C458.852 568.891 457.517 568.643 456.319 568.148C455.134 567.641 454.112 566.931 453.253 566.02C452.407 565.108 451.756 564.027 451.3 562.777C450.844 561.527 450.616 560.16 450.616 558.676V557.855C450.616 556.137 450.87 554.607 451.378 553.266C451.886 551.911 452.576 550.766 453.448 549.828C454.321 548.891 455.31 548.181 456.417 547.699C457.524 547.217 458.67 546.977 459.854 546.977C461.365 546.977 462.667 547.237 463.761 547.758C464.868 548.279 465.772 549.008 466.476 549.945C467.179 550.87 467.7 551.964 468.038 553.227C468.377 554.477 468.546 555.844 468.546 557.328V558.949H452.765V556H464.933V555.727C464.881 554.789 464.685 553.878 464.347 552.992C464.021 552.107 463.5 551.378 462.784 550.805C462.068 550.232 461.091 549.945 459.854 549.945C459.034 549.945 458.279 550.121 457.589 550.473C456.899 550.811 456.306 551.319 455.812 551.996C455.317 552.673 454.933 553.5 454.659 554.477C454.386 555.453 454.249 556.579 454.249 557.855V558.676C454.249 559.678 454.386 560.622 454.659 561.508C454.946 562.38 455.356 563.148 455.89 563.812C456.437 564.477 457.094 564.997 457.862 565.375C458.644 565.753 459.529 565.941 460.519 565.941C461.795 565.941 462.875 565.681 463.761 565.16C464.646 564.639 465.421 563.943 466.085 563.07L468.272 564.809C467.817 565.499 467.237 566.156 466.534 566.781C465.831 567.406 464.965 567.914 463.937 568.305C462.921 568.695 461.716 568.891 460.323 568.891ZM476.378 550.688V568.5H472.765V547.367H476.28L476.378 550.688ZM482.979 547.25L482.96 550.609C482.66 550.544 482.374 550.505 482.101 550.492C481.84 550.466 481.541 550.453 481.202 550.453C480.369 550.453 479.633 550.583 478.995 550.844C478.357 551.104 477.817 551.469 477.374 551.938C476.931 552.406 476.58 552.966 476.319 553.617C476.072 554.255 475.909 554.958 475.831 555.727L474.815 556.312C474.815 555.036 474.939 553.839 475.187 552.719C475.447 551.599 475.844 550.609 476.378 549.75C476.912 548.878 477.589 548.201 478.409 547.719C479.243 547.224 480.232 546.977 481.378 546.977C481.638 546.977 481.938 547.009 482.276 547.074C482.615 547.126 482.849 547.185 482.979 547.25ZM492.022 568.5H488.409V545.141C488.409 543.617 488.683 542.335 489.229 541.293C489.789 540.238 490.59 539.444 491.632 538.91C492.674 538.363 493.91 538.09 495.343 538.09C495.759 538.09 496.176 538.116 496.593 538.168C497.022 538.22 497.439 538.298 497.843 538.402L497.647 541.352C497.374 541.286 497.062 541.241 496.71 541.215C496.371 541.189 496.033 541.176 495.694 541.176C494.926 541.176 494.262 541.332 493.702 541.645C493.155 541.944 492.739 542.387 492.452 542.973C492.166 543.559 492.022 544.281 492.022 545.141V568.5ZM496.515 547.367V550.141H485.069V547.367H496.515ZM499.581 558.168V557.719C499.581 556.195 499.802 554.783 500.245 553.48C500.688 552.165 501.326 551.026 502.159 550.062C502.993 549.086 504.002 548.331 505.187 547.797C506.371 547.25 507.7 546.977 509.171 546.977C510.655 546.977 511.99 547.25 513.175 547.797C514.373 548.331 515.388 549.086 516.222 550.062C517.068 551.026 517.713 552.165 518.155 553.48C518.598 554.783 518.819 556.195 518.819 557.719V558.168C518.819 559.691 518.598 561.104 518.155 562.406C517.713 563.708 517.068 564.848 516.222 565.824C515.388 566.788 514.379 567.543 513.194 568.09C512.022 568.624 510.694 568.891 509.21 568.891C507.726 568.891 506.391 568.624 505.206 568.09C504.021 567.543 503.006 566.788 502.159 565.824C501.326 564.848 500.688 563.708 500.245 562.406C499.802 561.104 499.581 559.691 499.581 558.168ZM503.194 557.719V558.168C503.194 559.223 503.318 560.219 503.565 561.156C503.813 562.081 504.184 562.901 504.679 563.617C505.187 564.333 505.818 564.9 506.573 565.316C507.328 565.72 508.207 565.922 509.21 565.922C510.2 565.922 511.065 565.72 511.808 565.316C512.563 564.9 513.188 564.333 513.683 563.617C514.177 562.901 514.549 562.081 514.796 561.156C515.056 560.219 515.187 559.223 515.187 558.168V557.719C515.187 556.677 515.056 555.694 514.796 554.77C514.549 553.832 514.171 553.005 513.663 552.289C513.168 551.56 512.543 550.987 511.788 550.57C511.046 550.154 510.174 549.945 509.171 549.945C508.181 549.945 507.309 550.154 506.554 550.57C505.812 550.987 505.187 551.56 504.679 552.289C504.184 553.005 503.813 553.832 503.565 554.77C503.318 555.694 503.194 556.677 503.194 557.719ZM526.964 550.688V568.5H523.351V547.367H526.866L526.964 550.688ZM533.565 547.25L533.546 550.609C533.246 550.544 532.96 550.505 532.687 550.492C532.426 550.466 532.127 550.453 531.788 550.453C530.955 550.453 530.219 550.583 529.581 550.844C528.943 551.104 528.403 551.469 527.96 551.938C527.517 552.406 527.166 552.966 526.905 553.617C526.658 554.255 526.495 554.958 526.417 555.727L525.401 556.312C525.401 555.036 525.525 553.839 525.772 552.719C526.033 551.599 526.43 550.609 526.964 549.75C527.498 548.878 528.175 548.201 528.995 547.719C529.828 547.224 530.818 546.977 531.964 546.977C532.224 546.977 532.524 547.009 532.862 547.074C533.201 547.126 533.435 547.185 533.565 547.25ZM540.499 551.566V568.5H536.866V547.367H540.304L540.499 551.566ZM539.757 557.133L538.077 557.074C538.09 555.629 538.279 554.294 538.644 553.07C539.008 551.833 539.549 550.759 540.265 549.848C540.981 548.936 541.873 548.233 542.94 547.738C544.008 547.23 545.245 546.977 546.651 546.977C547.641 546.977 548.552 547.12 549.386 547.406C550.219 547.68 550.942 548.116 551.554 548.715C552.166 549.314 552.641 550.082 552.979 551.02C553.318 551.957 553.487 553.09 553.487 554.418V568.5H549.874V554.594C549.874 553.487 549.685 552.602 549.308 551.938C548.943 551.273 548.422 550.792 547.745 550.492C547.068 550.18 546.274 550.023 545.362 550.023C544.295 550.023 543.403 550.212 542.687 550.59C541.97 550.967 541.397 551.488 540.968 552.152C540.538 552.816 540.226 553.578 540.03 554.438C539.848 555.284 539.757 556.182 539.757 557.133ZM553.448 555.141L551.026 555.883C551.039 554.724 551.228 553.611 551.593 552.543C551.97 551.475 552.511 550.525 553.214 549.691C553.93 548.858 554.809 548.201 555.851 547.719C556.892 547.224 558.084 546.977 559.425 546.977C560.558 546.977 561.56 547.126 562.433 547.426C563.318 547.725 564.06 548.188 564.659 548.812C565.271 549.424 565.733 550.212 566.046 551.176C566.358 552.139 566.515 553.285 566.515 554.613V568.5H562.882V554.574C562.882 553.389 562.693 552.471 562.315 551.82C561.951 551.156 561.43 550.694 560.753 550.434C560.089 550.16 559.295 550.023 558.37 550.023C557.576 550.023 556.873 550.16 556.261 550.434C555.649 550.707 555.134 551.085 554.718 551.566C554.301 552.035 553.982 552.576 553.761 553.188C553.552 553.799 553.448 554.451 553.448 555.141ZM584.444 564.887V554.008C584.444 553.174 584.275 552.452 583.937 551.84C583.611 551.215 583.116 550.733 582.452 550.395C581.788 550.056 580.968 549.887 579.991 549.887C579.08 549.887 578.279 550.043 577.589 550.355C576.912 550.668 576.378 551.078 575.987 551.586C575.61 552.094 575.421 552.641 575.421 553.227H571.808C571.808 552.471 572.003 551.723 572.394 550.98C572.784 550.238 573.344 549.568 574.073 548.969C574.815 548.357 575.701 547.875 576.729 547.523C577.771 547.159 578.93 546.977 580.206 546.977C581.743 546.977 583.097 547.237 584.269 547.758C585.453 548.279 586.378 549.066 587.042 550.121C587.719 551.163 588.058 552.471 588.058 554.047V563.891C588.058 564.594 588.116 565.342 588.233 566.137C588.364 566.931 588.552 567.615 588.8 568.188V568.5H585.03C584.848 568.083 584.705 567.53 584.601 566.84C584.496 566.137 584.444 565.486 584.444 564.887ZM585.069 555.688L585.108 558.227H581.456C580.427 558.227 579.509 558.311 578.702 558.48C577.895 558.637 577.218 558.878 576.671 559.203C576.124 559.529 575.707 559.939 575.421 560.434C575.134 560.915 574.991 561.482 574.991 562.133C574.991 562.797 575.141 563.402 575.44 563.949C575.74 564.496 576.189 564.932 576.788 565.258C577.4 565.57 578.149 565.727 579.034 565.727C580.141 565.727 581.118 565.492 581.964 565.023C582.81 564.555 583.481 563.982 583.976 563.305C584.483 562.628 584.757 561.97 584.796 561.332L586.339 563.07C586.248 563.617 586 564.223 585.597 564.887C585.193 565.551 584.653 566.189 583.976 566.801C583.312 567.4 582.517 567.901 581.593 568.305C580.681 568.695 579.653 568.891 578.507 568.891C577.075 568.891 575.818 568.611 574.737 568.051C573.67 567.491 572.836 566.742 572.237 565.805C571.651 564.854 571.358 563.793 571.358 562.621C571.358 561.488 571.58 560.492 572.022 559.633C572.465 558.76 573.103 558.038 573.937 557.465C574.77 556.879 575.772 556.436 576.944 556.137C578.116 555.837 579.425 555.688 580.87 555.688H585.069ZM597.354 551.879V568.5H593.741V547.367H597.159L597.354 551.879ZM596.495 557.133L594.991 557.074C595.004 555.629 595.219 554.294 595.636 553.07C596.052 551.833 596.638 550.759 597.394 549.848C598.149 548.936 599.047 548.233 600.089 547.738C601.144 547.23 602.309 546.977 603.585 546.977C604.627 546.977 605.564 547.12 606.397 547.406C607.231 547.68 607.94 548.122 608.526 548.734C609.125 549.346 609.581 550.141 609.894 551.117C610.206 552.081 610.362 553.259 610.362 554.652V568.5H606.729V554.613C606.729 553.507 606.567 552.621 606.241 551.957C605.916 551.28 605.44 550.792 604.815 550.492C604.19 550.18 603.422 550.023 602.511 550.023C601.612 550.023 600.792 550.212 600.05 550.59C599.321 550.967 598.689 551.488 598.155 552.152C597.634 552.816 597.224 553.578 596.925 554.438C596.638 555.284 596.495 556.182 596.495 557.133ZM624.308 565.922C625.167 565.922 625.961 565.746 626.69 565.395C627.42 565.043 628.019 564.561 628.487 563.949C628.956 563.324 629.223 562.615 629.288 561.82H632.726C632.66 563.07 632.237 564.236 631.456 565.316C630.688 566.384 629.679 567.25 628.429 567.914C627.179 568.565 625.805 568.891 624.308 568.891C622.719 568.891 621.332 568.611 620.147 568.051C618.976 567.491 617.999 566.723 617.218 565.746C616.45 564.77 615.87 563.65 615.479 562.387C615.102 561.111 614.913 559.763 614.913 558.344V557.523C614.913 556.104 615.102 554.763 615.479 553.5C615.87 552.224 616.45 551.098 617.218 550.121C617.999 549.145 618.976 548.376 620.147 547.816C621.332 547.257 622.719 546.977 624.308 546.977C625.961 546.977 627.407 547.315 628.644 547.992C629.881 548.656 630.851 549.568 631.554 550.727C632.27 551.872 632.66 553.174 632.726 554.633H629.288C629.223 553.76 628.976 552.973 628.546 552.27C628.129 551.566 627.556 551.007 626.827 550.59C626.111 550.16 625.271 549.945 624.308 549.945C623.201 549.945 622.27 550.167 621.515 550.609C620.772 551.039 620.18 551.625 619.737 552.367C619.308 553.096 618.995 553.91 618.8 554.809C618.618 555.694 618.526 556.599 618.526 557.523V558.344C618.526 559.268 618.618 560.18 618.8 561.078C618.982 561.977 619.288 562.79 619.718 563.52C620.16 564.249 620.753 564.835 621.495 565.277C622.25 565.707 623.188 565.922 624.308 565.922ZM645.558 568.891C644.086 568.891 642.752 568.643 641.554 568.148C640.369 567.641 639.347 566.931 638.487 566.02C637.641 565.108 636.99 564.027 636.534 562.777C636.078 561.527 635.851 560.16 635.851 558.676V557.855C635.851 556.137 636.104 554.607 636.612 553.266C637.12 551.911 637.81 550.766 638.683 549.828C639.555 548.891 640.545 548.181 641.651 547.699C642.758 547.217 643.904 546.977 645.089 546.977C646.599 546.977 647.901 547.237 648.995 547.758C650.102 548.279 651.007 549.008 651.71 549.945C652.413 550.87 652.934 551.964 653.272 553.227C653.611 554.477 653.78 555.844 653.78 557.328V558.949H637.999V556H650.167V555.727C650.115 554.789 649.92 553.878 649.581 552.992C649.256 552.107 648.735 551.378 648.019 550.805C647.302 550.232 646.326 549.945 645.089 549.945C644.269 549.945 643.513 550.121 642.823 550.473C642.133 550.811 641.541 551.319 641.046 551.996C640.551 552.673 640.167 553.5 639.894 554.477C639.62 555.453 639.483 556.579 639.483 557.855V558.676C639.483 559.678 639.62 560.622 639.894 561.508C640.18 562.38 640.59 563.148 641.124 563.812C641.671 564.477 642.328 564.997 643.097 565.375C643.878 565.753 644.763 565.941 645.753 565.941C647.029 565.941 648.11 565.681 648.995 565.16C649.881 564.639 650.655 563.943 651.319 563.07L653.507 564.809C653.051 565.499 652.472 566.156 651.769 566.781C651.065 567.406 650.2 567.914 649.171 568.305C648.155 568.695 646.951 568.891 645.558 568.891Z" fill="white"/>
<path d="M443.029 496.623H443.623C446.123 496.623 448.268 496.321 450.06 495.717C451.873 495.092 453.362 494.196 454.529 493.029C455.695 491.863 456.56 490.436 457.123 488.748C457.685 487.04 457.966 485.102 457.966 482.936V474.311C457.966 472.665 457.8 471.217 457.466 469.967C457.154 468.717 456.695 467.686 456.091 466.873C455.508 466.04 454.82 465.415 454.029 464.998C453.258 464.581 452.404 464.373 451.466 464.373C450.466 464.373 449.581 464.623 448.81 465.123C448.039 465.602 447.383 466.258 446.841 467.092C446.32 467.925 445.914 468.883 445.623 469.967C445.352 471.029 445.216 472.144 445.216 473.311C445.216 474.477 445.352 475.592 445.623 476.654C445.893 477.696 446.3 478.623 446.841 479.436C447.383 480.227 448.06 480.863 448.873 481.342C449.685 481.8 450.643 482.029 451.748 482.029C452.81 482.029 453.758 481.831 454.591 481.436C455.445 481.019 456.164 480.477 456.748 479.811C457.352 479.144 457.81 478.404 458.123 477.592C458.456 476.779 458.623 475.956 458.623 475.123L461.591 476.748C461.591 478.206 461.279 479.644 460.654 481.061C460.029 482.477 459.154 483.769 458.029 484.936C456.925 486.081 455.643 486.998 454.185 487.686C452.727 488.373 451.164 488.717 449.498 488.717C447.373 488.717 445.487 488.331 443.841 487.561C442.195 486.769 440.8 485.686 439.654 484.311C438.529 482.915 437.675 481.29 437.091 479.436C436.508 477.581 436.216 475.571 436.216 473.404C436.216 471.196 436.57 469.123 437.279 467.186C438.008 465.248 439.039 463.54 440.373 462.061C441.727 460.581 443.341 459.425 445.216 458.592C447.112 457.738 449.216 457.311 451.529 457.311C453.841 457.311 455.945 457.758 457.841 458.654C459.737 459.55 461.362 460.821 462.716 462.467C464.07 464.092 465.112 466.04 465.841 468.311C466.591 470.581 466.966 473.102 466.966 475.873V478.998C466.966 481.956 466.643 484.706 465.998 487.248C465.373 489.79 464.425 492.092 463.154 494.154C461.904 496.196 460.341 497.946 458.466 499.404C456.612 500.863 454.456 501.977 451.998 502.748C449.539 503.519 446.789 503.904 443.748 503.904H443.029V496.623ZM479.779 496.623H480.373C482.873 496.623 485.018 496.321 486.81 495.717C488.623 495.092 490.112 494.196 491.279 493.029C492.445 491.863 493.31 490.436 493.873 488.748C494.435 487.04 494.716 485.102 494.716 482.936V474.311C494.716 472.665 494.55 471.217 494.216 469.967C493.904 468.717 493.445 467.686 492.841 466.873C492.258 466.04 491.57 465.415 490.779 464.998C490.008 464.581 489.154 464.373 488.216 464.373C487.216 464.373 486.331 464.623 485.56 465.123C484.789 465.602 484.133 466.258 483.591 467.092C483.07 467.925 482.664 468.883 482.373 469.967C482.102 471.029 481.966 472.144 481.966 473.311C481.966 474.477 482.102 475.592 482.373 476.654C482.643 477.696 483.05 478.623 483.591 479.436C484.133 480.227 484.81 480.863 485.623 481.342C486.435 481.8 487.393 482.029 488.498 482.029C489.56 482.029 490.508 481.831 491.341 481.436C492.195 481.019 492.914 480.477 493.498 479.811C494.102 479.144 494.56 478.404 494.873 477.592C495.206 476.779 495.373 475.956 495.373 475.123L498.341 476.748C498.341 478.206 498.029 479.644 497.404 481.061C496.779 482.477 495.904 483.769 494.779 484.936C493.675 486.081 492.393 486.998 490.935 487.686C489.477 488.373 487.914 488.717 486.248 488.717C484.123 488.717 482.237 488.331 480.591 487.561C478.945 486.769 477.55 485.686 476.404 484.311C475.279 482.915 474.425 481.29 473.841 479.436C473.258 477.581 472.966 475.571 472.966 473.404C472.966 471.196 473.32 469.123 474.029 467.186C474.758 465.248 475.789 463.54 477.123 462.061C478.477 460.581 480.091 459.425 481.966 458.592C483.862 457.738 485.966 457.311 488.279 457.311C490.591 457.311 492.695 457.758 494.591 458.654C496.487 459.55 498.112 460.821 499.466 462.467C500.82 464.092 501.862 466.04 502.591 468.311C503.341 470.581 503.716 473.102 503.716 475.873V478.998C503.716 481.956 503.393 484.706 502.748 487.248C502.123 489.79 501.175 492.092 499.904 494.154C498.654 496.196 497.091 497.946 495.216 499.404C493.362 500.863 491.206 501.977 488.748 502.748C486.289 503.519 483.539 503.904 480.498 503.904H479.779V496.623ZM510.966 499.123C510.966 497.79 511.425 496.675 512.341 495.779C513.279 494.883 514.518 494.436 516.06 494.436C517.602 494.436 518.831 494.883 519.748 495.779C520.685 496.675 521.154 497.79 521.154 499.123C521.154 500.456 520.685 501.571 519.748 502.467C518.831 503.363 517.602 503.811 516.06 503.811C514.518 503.811 513.279 503.363 512.341 502.467C511.425 501.571 510.966 500.456 510.966 499.123ZM535.091 496.623H535.685C538.185 496.623 540.331 496.321 542.123 495.717C543.935 495.092 545.425 494.196 546.591 493.029C547.758 491.863 548.623 490.436 549.185 488.748C549.748 487.04 550.029 485.102 550.029 482.936V474.311C550.029 472.665 549.862 471.217 549.529 469.967C549.216 468.717 548.758 467.686 548.154 466.873C547.57 466.04 546.883 465.415 546.091 464.998C545.32 464.581 544.466 464.373 543.529 464.373C542.529 464.373 541.643 464.623 540.873 465.123C540.102 465.602 539.445 466.258 538.904 467.092C538.383 467.925 537.977 468.883 537.685 469.967C537.414 471.029 537.279 472.144 537.279 473.311C537.279 474.477 537.414 475.592 537.685 476.654C537.956 477.696 538.362 478.623 538.904 479.436C539.445 480.227 540.123 480.863 540.935 481.342C541.748 481.8 542.706 482.029 543.81 482.029C544.873 482.029 545.82 481.831 546.654 481.436C547.508 481.019 548.227 480.477 548.81 479.811C549.414 479.144 549.873 478.404 550.185 477.592C550.518 476.779 550.685 475.956 550.685 475.123L553.654 476.748C553.654 478.206 553.341 479.644 552.716 481.061C552.091 482.477 551.216 483.769 550.091 484.936C548.987 486.081 547.706 486.998 546.248 487.686C544.789 488.373 543.227 488.717 541.56 488.717C539.435 488.717 537.55 488.331 535.904 487.561C534.258 486.769 532.862 485.686 531.716 484.311C530.591 482.915 529.737 481.29 529.154 479.436C528.57 477.581 528.279 475.571 528.279 473.404C528.279 471.196 528.633 469.123 529.341 467.186C530.07 465.248 531.102 463.54 532.435 462.061C533.789 460.581 535.404 459.425 537.279 458.592C539.175 457.738 541.279 457.311 543.591 457.311C545.904 457.311 548.008 457.758 549.904 458.654C551.8 459.55 553.425 460.821 554.779 462.467C556.133 464.092 557.175 466.04 557.904 468.311C558.654 470.581 559.029 473.102 559.029 475.873V478.998C559.029 481.956 558.706 484.706 558.06 487.248C557.435 489.79 556.487 492.092 555.216 494.154C553.966 496.196 552.404 497.946 550.529 499.404C548.675 500.863 546.518 501.977 544.06 502.748C541.602 503.519 538.852 503.904 535.81 503.904H535.091V496.623ZM596.123 490.998C596.123 493.852 595.456 496.258 594.123 498.217C592.789 500.154 590.956 501.623 588.623 502.623C586.31 503.602 583.685 504.092 580.748 504.092C577.81 504.092 575.175 503.602 572.841 502.623C570.508 501.623 568.664 500.154 567.31 498.217C565.956 496.258 565.279 493.852 565.279 490.998C565.279 489.081 565.664 487.352 566.435 485.811C567.206 484.248 568.279 482.915 569.654 481.811C571.05 480.686 572.685 479.831 574.56 479.248C576.435 478.644 578.477 478.342 580.685 478.342C583.643 478.342 586.289 478.863 588.623 479.904C590.956 480.946 592.789 482.415 594.123 484.311C595.456 486.206 596.123 488.436 596.123 490.998ZM587.06 490.404C587.06 489.008 586.789 487.811 586.248 486.811C585.727 485.79 584.987 485.008 584.029 484.467C583.07 483.925 581.956 483.654 580.685 483.654C579.414 483.654 578.3 483.925 577.341 484.467C576.383 485.008 575.633 485.79 575.091 486.811C574.57 487.811 574.31 489.008 574.31 490.404C574.31 491.779 574.57 492.967 575.091 493.967C575.633 494.967 576.383 495.738 577.341 496.279C578.32 496.8 579.456 497.061 580.748 497.061C582.039 497.061 583.154 496.8 584.091 496.279C585.05 495.738 585.779 494.967 586.279 493.967C586.8 492.967 587.06 491.779 587.06 490.404ZM595.154 470.029C595.154 472.342 594.539 474.394 593.31 476.186C592.081 477.956 590.373 479.342 588.185 480.342C586.018 481.342 583.539 481.842 580.748 481.842C577.935 481.842 575.435 481.342 573.248 480.342C571.06 479.342 569.352 477.956 568.123 476.186C566.893 474.394 566.279 472.342 566.279 470.029C566.279 467.279 566.893 464.967 568.123 463.092C569.373 461.196 571.081 459.758 573.248 458.779C575.435 457.8 577.914 457.311 580.685 457.311C583.498 457.311 585.987 457.8 588.154 458.779C590.341 459.758 592.05 461.196 593.279 463.092C594.529 464.967 595.154 467.279 595.154 470.029ZM586.154 470.436C586.154 469.206 585.935 468.144 585.498 467.248C585.06 466.331 584.435 465.623 583.623 465.123C582.831 464.623 581.852 464.373 580.685 464.373C579.56 464.373 578.591 464.613 577.779 465.092C576.987 465.571 576.373 466.269 575.935 467.186C575.518 468.081 575.31 469.165 575.31 470.436C575.31 471.665 575.518 472.748 575.935 473.686C576.373 474.602 576.998 475.321 577.81 475.842C578.623 476.363 579.602 476.623 580.748 476.623C581.893 476.623 582.862 476.363 583.654 475.842C584.466 475.321 585.081 474.602 585.498 473.686C585.935 472.748 586.154 471.665 586.154 470.436ZM602.091 469.123V466.717C602.091 464.988 602.466 463.415 603.216 461.998C603.966 460.581 605.07 459.446 606.529 458.592C607.987 457.738 609.779 457.311 611.904 457.311C614.091 457.311 615.914 457.738 617.373 458.592C618.852 459.446 619.956 460.581 620.685 461.998C621.435 463.415 621.81 464.988 621.81 466.717V469.123C621.81 470.811 621.435 472.363 620.685 473.779C619.956 475.196 618.862 476.331 617.404 477.186C615.945 478.04 614.143 478.467 611.998 478.467C609.831 478.467 608.008 478.04 606.529 477.186C605.07 476.331 603.966 475.196 603.216 473.779C602.466 472.363 602.091 470.811 602.091 469.123ZM608.06 466.717V469.123C608.06 469.852 608.195 470.55 608.466 471.217C608.758 471.863 609.195 472.394 609.779 472.811C610.383 473.206 611.112 473.404 611.966 473.404C612.862 473.404 613.591 473.206 614.154 472.811C614.716 472.394 615.133 471.863 615.404 471.217C615.675 470.55 615.81 469.852 615.81 469.123V466.717C615.81 465.946 615.664 465.238 615.373 464.592C615.102 463.925 614.675 463.394 614.091 462.998C613.529 462.581 612.8 462.373 611.904 462.373C611.07 462.373 610.362 462.581 609.779 462.998C609.195 463.394 608.758 463.925 608.466 464.592C608.195 465.238 608.06 465.946 608.06 466.717ZM623.841 494.717V492.311C623.841 490.602 624.216 489.04 624.966 487.623C625.737 486.206 626.852 485.071 628.31 484.217C629.789 483.363 631.602 482.936 633.748 482.936C635.914 482.936 637.727 483.363 639.185 484.217C640.643 485.071 641.748 486.206 642.498 487.623C643.248 489.04 643.623 490.602 643.623 492.311V494.717C643.623 496.425 643.248 497.988 642.498 499.404C641.768 500.821 640.675 501.956 639.216 502.811C637.758 503.665 635.956 504.092 633.81 504.092C631.643 504.092 629.82 503.665 628.341 502.811C626.862 501.956 625.737 500.821 624.966 499.404C624.216 497.988 623.841 496.425 623.841 494.717ZM629.841 492.311V494.717C629.841 495.467 630.008 496.175 630.341 496.842C630.675 497.508 631.133 498.04 631.716 498.436C632.32 498.831 633.018 499.029 633.81 499.029C634.81 499.029 635.591 498.831 636.154 498.436C636.716 498.04 637.102 497.508 637.31 496.842C637.539 496.175 637.654 495.467 637.654 494.717V492.311C637.654 491.561 637.508 490.863 637.216 490.217C636.925 489.55 636.487 489.019 635.904 488.623C635.341 488.206 634.623 487.998 633.748 487.998C632.873 487.998 632.143 488.206 631.56 488.623C630.998 489.019 630.57 489.55 630.279 490.217C629.987 490.863 629.841 491.561 629.841 492.311ZM635.966 464.467L613.748 500.029L609.373 497.717L631.591 462.154L635.966 464.467Z" fill="white"/>
<path d="M831.231 539.611C831.231 700.668 700.669 831.231 539.611 831.231C378.554 831.231 247.992 700.668 247.992 539.611C247.992 378.554 378.554 247.991 539.611 247.991C700.669 247.991 831.231 378.554 831.231 539.611ZM277.154 539.611C277.154 684.562 394.66 802.069 539.611 802.069C684.563 802.069 802.069 684.562 802.069 539.611C802.069 394.66 684.563 277.153 539.611 277.153C394.66 277.153 277.154 394.66 277.154 539.611Z" fill="#151A20"/>
<path d="M895.525 541.908C895.525 737.205 737.205 895.525 541.908 895.525C346.61 895.525 188.29 737.205 188.29 541.908C188.29 346.61 346.61 188.29 541.908 188.29C737.205 188.29 895.525 346.61 895.525 541.908ZM223.652 541.908C223.652 717.676 366.14 860.164 541.908 860.164C717.676 860.164 860.164 717.676 860.164 541.908C860.164 366.14 717.676 223.652 541.908 223.652C366.14 223.652 223.652 366.14 223.652 541.908Z" fill="#151A20"/>
<path d="M955.227 544.204C955.227 771.206 771.206 955.227 544.204 955.227C317.202 955.227 133.181 771.206 133.181 544.204C133.181 317.202 317.202 133.181 544.204 133.181C771.206 133.181 955.227 317.202 955.227 544.204ZM168.704 544.204C168.704 751.586 336.821 919.703 544.204 919.703C751.586 919.703 919.703 751.586 919.703 544.204C919.703 336.821 751.586 168.704 544.204 168.704C336.821 168.704 168.704 336.821 168.704 544.204Z" fill="#151A20"/>
<path d="M1024.11 546.5C1024.11 810.279 810.279 1024.11 546.5 1024.11C282.721 1024.11 68.8865 810.279 68.8865 546.5C68.8865 282.722 282.721 68.8867 546.5 68.8867C810.279 68.8867 1024.11 282.722 1024.11 546.5ZM105.987 546.5C105.987 789.788 303.212 987.013 546.5 987.013C789.788 987.013 987.012 789.788 987.012 546.5C987.012 303.212 789.788 105.988 546.5 105.988C303.212 105.988 105.987 303.212 105.987 546.5Z" fill="#151A20"/>
<path d="M1093 546.5C1093 848.324 848.324 1093 546.5 1093C244.676 1093 0 848.324 0 546.5C0 244.676 244.676 0 546.5 0C848.324 0 1093 244.676 1093 546.5ZM39.6381 546.5C39.6381 826.432 266.568 1053.36 546.5 1053.36C826.432 1053.36 1053.36 826.432 1053.36 546.5C1053.36 266.568 826.432 39.6381 546.5 39.6381C266.568 39.6381 39.6381 266.568 39.6381 546.5Z" fill="#151A20"/>
<path d="M832.13 103.998C838.066 94.8012 835.44 82.5003 826.035 76.9014C734.547 22.4411 628.998 -4.18449 522.345 0.534065C409.083 5.54503 300.182 45.6573 210.731 115.314C121.28 184.97 55.7071 280.722 23.0962 389.304C-9.51473 497.886 -7.54877 613.922 28.7217 721.337C64.9921 828.752 133.771 922.227 225.531 988.813C317.29 1055.4 427.487 1091.8 540.854 1092.97C654.221 1094.14 765.147 1060.03 858.262 995.35C945.944 934.448 1013.75 849.288 1053.49 750.515C1057.58 740.36 1052.21 728.985 1041.91 725.27C1031.62 721.555 1020.3 726.907 1016.18 737.049C979.246 828.092 916.577 906.584 835.65 962.795C749.288 1022.78 646.408 1054.42 541.264 1053.33C436.119 1052.25 333.915 1018.49 248.811 956.732C163.707 894.975 99.9163 808.28 66.2766 708.656C32.6368 609.032 30.8135 501.412 61.0591 400.705C91.3047 299.999 152.122 211.192 235.085 146.588C318.048 81.9838 419.05 44.7809 524.097 40.1334C622.535 35.7783 719.958 60.2126 804.524 110.229C813.945 115.801 826.194 113.194 832.13 103.998Z" fill="#005F73"/>
<path d="M1005.56 546.5C1015.81 546.5 1024.15 554.809 1023.75 565.047C1020.01 661.397 987.174 754.524 929.353 832.049C867.829 914.538 781.309 974.95 682.674 1004.29C584.04 1033.63 478.567 1030.33 381.961 994.877C285.354 959.425 202.781 893.72 146.537 807.545C90.2928 721.37 63.3855 619.333 69.8215 516.629C76.2575 413.924 115.693 316.046 182.255 237.566C248.818 159.086 338.947 104.204 439.224 81.0903C533.465 59.3677 631.931 66.7972 721.637 102.156C731.169 105.913 735.417 116.895 731.293 126.273C727.168 135.652 716.235 139.872 706.691 136.146C624.314 103.987 534.008 97.3163 447.557 117.243C355.07 138.561 271.941 189.181 210.55 261.564C149.158 333.947 112.786 424.223 106.85 518.949C100.914 613.675 125.731 707.786 177.606 787.267C229.481 866.748 305.64 927.349 394.742 960.047C483.844 992.744 581.124 995.789 672.096 968.729C763.069 941.668 842.869 885.948 899.613 809.867C952.655 738.751 982.9 653.4 986.622 565.046C987.053 554.81 995.318 546.5 1005.56 546.5Z" fill="#5ED500"/>
<path d="M937.465 544.204C947.275 544.204 955.267 552.161 954.843 561.961C951.692 634.846 929.188 705.698 889.499 767.164C846.593 833.612 785.426 886.268 713.337 918.816C641.247 951.363 561.298 962.419 483.081 950.657C404.864 938.894 331.703 904.814 272.374 852.503C213.046 800.193 170.071 731.876 148.606 655.748C127.14 579.62 128.097 498.915 151.36 423.318C174.623 347.72 219.204 280.44 279.755 229.55C335.767 182.475 403.243 151.275 475.159 139.021C484.829 137.373 493.725 144.306 494.953 154.039C496.182 163.771 489.277 172.614 479.614 174.301C414.479 185.674 353.389 214.069 302.611 256.745C247.293 303.236 206.565 364.701 185.312 433.766C164.06 502.83 163.186 576.559 182.796 646.107C202.406 715.656 241.667 778.069 295.868 825.858C350.069 873.647 416.907 904.782 488.364 915.528C559.82 926.274 632.86 916.173 698.719 886.439C764.578 856.704 820.458 808.599 859.656 747.894C895.636 692.172 916.157 628.006 919.283 561.96C919.747 552.161 927.655 544.204 937.465 544.204Z" fill="#4CC9F0"/>
<path d="M860.05 649.79C869.298 652.926 874.294 662.986 870.7 672.065C845.337 736.139 801.742 791.539 745.138 831.291C683.702 874.437 610.128 896.911 535.068 895.459C460.008 894.007 387.359 868.704 327.637 823.214C267.915 777.724 224.22 714.408 202.879 642.431C181.538 570.455 183.657 493.554 208.931 422.862C234.204 352.171 281.32 291.357 343.457 249.226C405.594 207.094 479.527 185.832 554.553 188.516C623.677 190.99 690.423 213.673 746.613 253.566C754.576 259.219 755.87 270.376 749.827 278.046C743.783 285.715 732.692 286.989 724.698 281.38C674.43 246.11 614.909 226.06 553.288 223.855C485.765 221.439 419.225 240.576 363.302 278.494C307.379 316.412 264.975 371.145 242.228 434.767C219.482 498.389 217.575 567.6 236.782 632.379C255.989 697.158 295.314 754.143 349.064 795.084C402.814 836.025 468.198 858.797 535.752 860.104C603.306 861.411 669.522 841.184 724.815 802.353C775.275 766.916 814.247 717.662 837.166 660.691C840.81 651.632 850.803 646.654 860.05 649.79Z" fill="#F72585"/>
<path d="M816.65 539.611C824.703 539.611 831.269 546.144 830.867 554.187C827.996 611.575 808.221 666.958 773.872 713.289C736.622 763.533 684.205 800.469 624.359 818.645C564.512 836.821 500.408 835.275 441.507 814.234C382.607 793.193 332.032 753.772 297.248 701.79C262.465 649.809 245.315 588.022 248.331 525.549C251.347 463.076 274.369 403.227 313.998 354.839C353.628 306.45 407.765 272.084 468.418 256.815C524.349 242.735 583.087 245.58 637.231 264.815C644.819 267.511 648.354 276.073 645.283 283.517C642.211 290.961 633.697 294.464 626.094 291.811C577.746 274.937 525.402 272.541 475.538 285.095C420.95 298.837 372.226 329.766 336.56 373.316C300.893 416.866 280.173 470.729 277.459 526.955C274.745 583.181 290.179 638.789 321.485 685.573C352.79 732.356 398.307 767.834 451.318 786.771C504.328 805.708 562.022 807.1 615.884 790.742C669.746 774.383 716.921 741.14 750.446 695.921C781.07 654.615 798.822 605.314 801.664 554.185C802.111 546.145 808.597 539.611 816.65 539.611Z" fill="#FFC300"/>
</svg>
