<svg width="888" height="888" viewBox="0 0 888 888" fill="none" xmlns="http://www.w3.org/2000/svg">
<path d="M335.691 454.848H328.093V451.781H335.691C337.162 451.781 338.354 451.547 339.265 451.078C340.177 450.609 340.841 449.958 341.257 449.125C341.687 448.292 341.902 447.341 341.902 446.273C341.902 445.297 341.687 444.379 341.257 443.52C340.841 442.66 340.177 441.97 339.265 441.449C338.354 440.915 337.162 440.648 335.691 440.648H328.972V466H325.203V437.562H335.691C337.839 437.562 339.656 437.934 341.14 438.676C342.625 439.418 343.751 440.447 344.519 441.762C345.287 443.064 345.671 444.555 345.671 446.234C345.671 448.057 345.287 449.613 344.519 450.902C343.751 452.191 342.625 453.174 341.14 453.852C339.656 454.516 337.839 454.848 335.691 454.848ZM358.386 466.391C356.915 466.391 355.58 466.143 354.382 465.648C353.197 465.141 352.175 464.431 351.316 463.52C350.47 462.608 349.819 461.527 349.363 460.277C348.907 459.027 348.679 457.66 348.679 456.176V455.355C348.679 453.637 348.933 452.107 349.441 450.766C349.949 449.411 350.639 448.266 351.511 447.328C352.384 446.391 353.373 445.681 354.48 445.199C355.587 444.717 356.733 444.477 357.918 444.477C359.428 444.477 360.73 444.737 361.824 445.258C362.931 445.779 363.836 446.508 364.539 447.445C365.242 448.37 365.763 449.464 366.101 450.727C366.44 451.977 366.609 453.344 366.609 454.828V456.449H350.828V453.5H362.996V453.227C362.944 452.289 362.748 451.378 362.41 450.492C362.084 449.607 361.563 448.878 360.847 448.305C360.131 447.732 359.155 447.445 357.918 447.445C357.097 447.445 356.342 447.621 355.652 447.973C354.962 448.311 354.369 448.819 353.875 449.496C353.38 450.173 352.996 451 352.722 451.977C352.449 452.953 352.312 454.079 352.312 455.355V456.176C352.312 457.178 352.449 458.122 352.722 459.008C353.009 459.88 353.419 460.648 353.953 461.312C354.5 461.977 355.157 462.497 355.925 462.875C356.707 463.253 357.592 463.441 358.582 463.441C359.858 463.441 360.938 463.181 361.824 462.66C362.709 462.139 363.484 461.443 364.148 460.57L366.336 462.309C365.88 462.999 365.3 463.656 364.597 464.281C363.894 464.906 363.028 465.414 362 465.805C360.984 466.195 359.78 466.391 358.386 466.391ZM374.441 448.188V466H370.828V444.867H374.343L374.441 448.188ZM381.043 444.75L381.023 448.109C380.724 448.044 380.437 448.005 380.164 447.992C379.903 447.966 379.604 447.953 379.265 447.953C378.432 447.953 377.696 448.083 377.058 448.344C376.42 448.604 375.88 448.969 375.437 449.438C374.994 449.906 374.643 450.466 374.382 451.117C374.135 451.755 373.972 452.458 373.894 453.227L372.878 453.812C372.878 452.536 373.002 451.339 373.25 450.219C373.51 449.099 373.907 448.109 374.441 447.25C374.975 446.378 375.652 445.701 376.472 445.219C377.306 444.724 378.295 444.477 379.441 444.477C379.701 444.477 380.001 444.509 380.339 444.574C380.678 444.626 380.912 444.685 381.043 444.75ZM390.086 466H386.472V442.641C386.472 441.117 386.746 439.835 387.293 438.793C387.852 437.738 388.653 436.944 389.695 436.41C390.737 435.863 391.974 435.59 393.406 435.59C393.822 435.59 394.239 435.616 394.656 435.668C395.086 435.72 395.502 435.798 395.906 435.902L395.711 438.852C395.437 438.786 395.125 438.741 394.773 438.715C394.434 438.689 394.096 438.676 393.757 438.676C392.989 438.676 392.325 438.832 391.765 439.145C391.218 439.444 390.802 439.887 390.515 440.473C390.229 441.059 390.086 441.781 390.086 442.641V466ZM394.578 444.867V447.641H383.132V444.867H394.578ZM397.644 455.668V455.219C397.644 453.695 397.865 452.283 398.308 450.98C398.751 449.665 399.389 448.526 400.222 447.562C401.056 446.586 402.065 445.831 403.25 445.297C404.434 444.75 405.763 444.477 407.234 444.477C408.718 444.477 410.053 444.75 411.238 445.297C412.436 445.831 413.451 446.586 414.285 447.562C415.131 448.526 415.776 449.665 416.218 450.98C416.661 452.283 416.882 453.695 416.882 455.219V455.668C416.882 457.191 416.661 458.604 416.218 459.906C415.776 461.208 415.131 462.348 414.285 463.324C413.451 464.288 412.442 465.043 411.257 465.59C410.086 466.124 408.757 466.391 407.273 466.391C405.789 466.391 404.454 466.124 403.269 465.59C402.084 465.043 401.069 464.288 400.222 463.324C399.389 462.348 398.751 461.208 398.308 459.906C397.865 458.604 397.644 457.191 397.644 455.668ZM401.257 455.219V455.668C401.257 456.723 401.381 457.719 401.628 458.656C401.876 459.581 402.247 460.401 402.742 461.117C403.25 461.833 403.881 462.4 404.636 462.816C405.391 463.22 406.27 463.422 407.273 463.422C408.263 463.422 409.128 463.22 409.871 462.816C410.626 462.4 411.251 461.833 411.746 461.117C412.24 460.401 412.612 459.581 412.859 458.656C413.119 457.719 413.25 456.723 413.25 455.668V455.219C413.25 454.177 413.119 453.194 412.859 452.27C412.612 451.332 412.234 450.505 411.726 449.789C411.231 449.06 410.606 448.487 409.851 448.07C409.109 447.654 408.237 447.445 407.234 447.445C406.244 447.445 405.372 447.654 404.617 448.07C403.875 448.487 403.25 449.06 402.742 449.789C402.247 450.505 401.876 451.332 401.628 452.27C401.381 453.194 401.257 454.177 401.257 455.219ZM425.027 448.188V466H421.414V444.867H424.929L425.027 448.188ZM431.628 444.75L431.609 448.109C431.309 448.044 431.023 448.005 430.75 447.992C430.489 447.966 430.19 447.953 429.851 447.953C429.018 447.953 428.282 448.083 427.644 448.344C427.006 448.604 426.466 448.969 426.023 449.438C425.58 449.906 425.229 450.466 424.968 451.117C424.721 451.755 424.558 452.458 424.48 453.227L423.464 453.812C423.464 452.536 423.588 451.339 423.836 450.219C424.096 449.099 424.493 448.109 425.027 447.25C425.561 446.378 426.238 445.701 427.058 445.219C427.891 444.724 428.881 444.477 430.027 444.477C430.287 444.477 430.587 444.509 430.925 444.574C431.264 444.626 431.498 444.685 431.628 444.75ZM438.562 449.066V466H434.929V444.867H438.367L438.562 449.066ZM437.82 454.633L436.14 454.574C436.153 453.129 436.342 451.794 436.707 450.57C437.071 449.333 437.612 448.259 438.328 447.348C439.044 446.436 439.936 445.733 441.003 445.238C442.071 444.73 443.308 444.477 444.714 444.477C445.704 444.477 446.615 444.62 447.449 444.906C448.282 445.18 449.005 445.616 449.617 446.215C450.229 446.814 450.704 447.582 451.043 448.52C451.381 449.457 451.55 450.59 451.55 451.918V466H447.937V452.094C447.937 450.987 447.748 450.102 447.371 449.438C447.006 448.773 446.485 448.292 445.808 447.992C445.131 447.68 444.337 447.523 443.425 447.523C442.358 447.523 441.466 447.712 440.75 448.09C440.033 448.467 439.461 448.988 439.031 449.652C438.601 450.316 438.289 451.078 438.093 451.938C437.911 452.784 437.82 453.682 437.82 454.633ZM451.511 452.641L449.089 453.383C449.102 452.224 449.291 451.111 449.656 450.043C450.033 448.975 450.574 448.025 451.277 447.191C451.993 446.358 452.872 445.701 453.914 445.219C454.955 444.724 456.147 444.477 457.488 444.477C458.621 444.477 459.623 444.626 460.496 444.926C461.381 445.225 462.123 445.688 462.722 446.312C463.334 446.924 463.796 447.712 464.109 448.676C464.421 449.639 464.578 450.785 464.578 452.113V466H460.945V452.074C460.945 450.889 460.756 449.971 460.378 449.32C460.014 448.656 459.493 448.194 458.816 447.934C458.152 447.66 457.358 447.523 456.433 447.523C455.639 447.523 454.936 447.66 454.324 447.934C453.712 448.207 453.197 448.585 452.781 449.066C452.364 449.535 452.045 450.076 451.824 450.688C451.615 451.299 451.511 451.951 451.511 452.641ZM482.507 462.387V451.508C482.507 450.674 482.338 449.952 482 449.34C481.674 448.715 481.179 448.233 480.515 447.895C479.851 447.556 479.031 447.387 478.054 447.387C477.143 447.387 476.342 447.543 475.652 447.855C474.975 448.168 474.441 448.578 474.05 449.086C473.673 449.594 473.484 450.141 473.484 450.727H469.871C469.871 449.971 470.066 449.223 470.457 448.48C470.847 447.738 471.407 447.068 472.136 446.469C472.878 445.857 473.764 445.375 474.793 445.023C475.834 444.659 476.993 444.477 478.269 444.477C479.806 444.477 481.16 444.737 482.332 445.258C483.516 445.779 484.441 446.566 485.105 447.621C485.782 448.663 486.121 449.971 486.121 451.547V461.391C486.121 462.094 486.179 462.842 486.296 463.637C486.427 464.431 486.615 465.115 486.863 465.688V466H483.093C482.911 465.583 482.768 465.03 482.664 464.34C482.559 463.637 482.507 462.986 482.507 462.387ZM483.132 453.188L483.171 455.727H479.519C478.49 455.727 477.572 455.811 476.765 455.98C475.958 456.137 475.281 456.378 474.734 456.703C474.187 457.029 473.77 457.439 473.484 457.934C473.197 458.415 473.054 458.982 473.054 459.633C473.054 460.297 473.204 460.902 473.503 461.449C473.803 461.996 474.252 462.432 474.851 462.758C475.463 463.07 476.212 463.227 477.097 463.227C478.204 463.227 479.181 462.992 480.027 462.523C480.873 462.055 481.544 461.482 482.039 460.805C482.546 460.128 482.82 459.47 482.859 458.832L484.402 460.57C484.311 461.117 484.063 461.723 483.66 462.387C483.256 463.051 482.716 463.689 482.039 464.301C481.375 464.9 480.58 465.401 479.656 465.805C478.744 466.195 477.716 466.391 476.57 466.391C475.138 466.391 473.881 466.111 472.8 465.551C471.733 464.991 470.899 464.242 470.3 463.305C469.714 462.354 469.421 461.293 469.421 460.121C469.421 458.988 469.643 457.992 470.086 457.133C470.528 456.26 471.166 455.538 472 454.965C472.833 454.379 473.836 453.936 475.007 453.637C476.179 453.337 477.488 453.188 478.933 453.188H483.132ZM495.418 449.379V466H491.804V444.867H495.222L495.418 449.379ZM494.558 454.633L493.054 454.574C493.067 453.129 493.282 451.794 493.699 450.57C494.115 449.333 494.701 448.259 495.457 447.348C496.212 446.436 497.11 445.733 498.152 445.238C499.207 444.73 500.372 444.477 501.648 444.477C502.69 444.477 503.627 444.62 504.461 444.906C505.294 445.18 506.003 445.622 506.589 446.234C507.188 446.846 507.644 447.641 507.957 448.617C508.269 449.581 508.425 450.759 508.425 452.152V466H504.793V452.113C504.793 451.007 504.63 450.121 504.304 449.457C503.979 448.78 503.503 448.292 502.878 447.992C502.253 447.68 501.485 447.523 500.574 447.523C499.675 447.523 498.855 447.712 498.113 448.09C497.384 448.467 496.752 448.988 496.218 449.652C495.697 450.316 495.287 451.078 494.988 451.938C494.701 452.784 494.558 453.682 494.558 454.633ZM522.371 463.422C523.23 463.422 524.024 463.246 524.753 462.895C525.483 462.543 526.082 462.061 526.55 461.449C527.019 460.824 527.286 460.115 527.351 459.32H530.789C530.724 460.57 530.3 461.736 529.519 462.816C528.751 463.884 527.742 464.75 526.492 465.414C525.242 466.065 523.868 466.391 522.371 466.391C520.782 466.391 519.395 466.111 518.211 465.551C517.039 464.991 516.062 464.223 515.281 463.246C514.513 462.27 513.933 461.15 513.543 459.887C513.165 458.611 512.976 457.263 512.976 455.844V455.023C512.976 453.604 513.165 452.263 513.543 451C513.933 449.724 514.513 448.598 515.281 447.621C516.062 446.645 517.039 445.876 518.211 445.316C519.395 444.757 520.782 444.477 522.371 444.477C524.024 444.477 525.47 444.815 526.707 445.492C527.944 446.156 528.914 447.068 529.617 448.227C530.333 449.372 530.724 450.674 530.789 452.133H527.351C527.286 451.26 527.039 450.473 526.609 449.77C526.192 449.066 525.619 448.507 524.89 448.09C524.174 447.66 523.334 447.445 522.371 447.445C521.264 447.445 520.333 447.667 519.578 448.109C518.836 448.539 518.243 449.125 517.8 449.867C517.371 450.596 517.058 451.41 516.863 452.309C516.681 453.194 516.589 454.099 516.589 455.023V455.844C516.589 456.768 516.681 457.68 516.863 458.578C517.045 459.477 517.351 460.29 517.781 461.02C518.224 461.749 518.816 462.335 519.558 462.777C520.313 463.207 521.251 463.422 522.371 463.422ZM543.621 466.391C542.149 466.391 540.815 466.143 539.617 465.648C538.432 465.141 537.41 464.431 536.55 463.52C535.704 462.608 535.053 461.527 534.597 460.277C534.141 459.027 533.914 457.66 533.914 456.176V455.355C533.914 453.637 534.168 452.107 534.675 450.766C535.183 449.411 535.873 448.266 536.746 447.328C537.618 446.391 538.608 445.681 539.714 445.199C540.821 444.717 541.967 444.477 543.152 444.477C544.662 444.477 545.964 444.737 547.058 445.258C548.165 445.779 549.07 446.508 549.773 447.445C550.476 448.37 550.997 449.464 551.336 450.727C551.674 451.977 551.843 453.344 551.843 454.828V456.449H536.062V453.5H548.23V453.227C548.178 452.289 547.983 451.378 547.644 450.492C547.319 449.607 546.798 448.878 546.082 448.305C545.365 447.732 544.389 447.445 543.152 447.445C542.332 447.445 541.576 447.621 540.886 447.973C540.196 448.311 539.604 448.819 539.109 449.496C538.614 450.173 538.23 451 537.957 451.977C537.683 452.953 537.546 454.079 537.546 455.355V456.176C537.546 457.178 537.683 458.122 537.957 459.008C538.243 459.88 538.653 460.648 539.187 461.312C539.734 461.977 540.391 462.497 541.16 462.875C541.941 463.253 542.826 463.441 543.816 463.441C545.092 463.441 546.173 463.181 547.058 462.66C547.944 462.139 548.718 461.443 549.382 460.57L551.57 462.309C551.114 462.999 550.535 463.656 549.832 464.281C549.128 464.906 548.263 465.414 547.234 465.805C546.218 466.195 545.014 466.391 543.621 466.391Z" fill="white"/>
<path d="M359.853 406.072H360.447C362.947 406.072 365.093 405.77 366.885 405.166C368.697 404.541 370.187 403.645 371.353 402.479C372.52 401.312 373.385 399.885 373.947 398.197C374.51 396.489 374.791 394.551 374.791 392.385V383.76C374.791 382.114 374.624 380.666 374.291 379.416C373.978 378.166 373.52 377.135 372.916 376.322C372.333 375.489 371.645 374.864 370.853 374.447C370.083 374.031 369.228 373.822 368.291 373.822C367.291 373.822 366.406 374.072 365.635 374.572C364.864 375.051 364.208 375.708 363.666 376.541C363.145 377.374 362.739 378.333 362.447 379.416C362.176 380.479 362.041 381.593 362.041 382.76C362.041 383.926 362.176 385.041 362.447 386.104C362.718 387.145 363.124 388.072 363.666 388.885C364.208 389.676 364.885 390.312 365.697 390.791C366.51 391.249 367.468 391.479 368.572 391.479C369.635 391.479 370.583 391.281 371.416 390.885C372.27 390.468 372.989 389.926 373.572 389.26C374.176 388.593 374.635 387.854 374.947 387.041C375.281 386.229 375.447 385.406 375.447 384.572L378.416 386.197C378.416 387.656 378.103 389.093 377.478 390.51C376.853 391.926 375.978 393.218 374.853 394.385C373.749 395.531 372.468 396.447 371.01 397.135C369.551 397.822 367.989 398.166 366.322 398.166C364.197 398.166 362.312 397.781 360.666 397.01C359.02 396.218 357.624 395.135 356.478 393.76C355.353 392.364 354.499 390.739 353.916 388.885C353.333 387.031 353.041 385.02 353.041 382.854C353.041 380.645 353.395 378.572 354.103 376.635C354.833 374.697 355.864 372.989 357.197 371.51C358.551 370.031 360.166 368.874 362.041 368.041C363.937 367.187 366.041 366.76 368.353 366.76C370.666 366.76 372.77 367.208 374.666 368.104C376.562 368.999 378.187 370.27 379.541 371.916C380.895 373.541 381.937 375.489 382.666 377.76C383.416 380.031 383.791 382.551 383.791 385.322V388.447C383.791 391.406 383.468 394.156 382.822 396.697C382.197 399.239 381.249 401.541 379.978 403.604C378.728 405.645 377.166 407.395 375.291 408.854C373.437 410.312 371.281 411.426 368.822 412.197C366.364 412.968 363.614 413.354 360.572 413.354H359.853V406.072ZM413.447 366.947H414.76V374.135H414.228C411.853 374.135 409.739 374.489 407.885 375.197C406.031 375.906 404.458 376.916 403.166 378.229C401.895 379.52 400.916 381.083 400.228 382.916C399.562 384.749 399.228 386.801 399.228 389.072V396.635C399.228 398.26 399.385 399.697 399.697 400.947C400.031 402.176 400.499 403.208 401.103 404.041C401.728 404.854 402.458 405.468 403.291 405.885C404.124 406.281 405.062 406.479 406.103 406.479C407.083 406.479 407.968 406.27 408.76 405.854C409.572 405.437 410.26 404.854 410.822 404.104C411.406 403.333 411.843 402.437 412.135 401.416C412.447 400.374 412.603 399.239 412.603 398.01C412.603 396.781 412.447 395.645 412.135 394.604C411.843 393.562 411.406 392.666 410.822 391.916C410.239 391.145 409.531 390.551 408.697 390.135C407.864 389.718 406.926 389.51 405.885 389.51C404.468 389.51 403.218 389.843 402.135 390.51C401.072 391.156 400.239 391.989 399.635 393.01C399.031 394.031 398.708 395.104 398.666 396.229L395.947 394.479C396.01 392.874 396.343 391.354 396.947 389.916C397.572 388.479 398.426 387.208 399.51 386.104C400.614 384.979 401.937 384.104 403.478 383.479C405.02 382.833 406.76 382.51 408.697 382.51C410.822 382.51 412.687 382.916 414.291 383.729C415.916 384.541 417.27 385.656 418.353 387.072C419.437 388.489 420.249 390.124 420.791 391.979C421.333 393.833 421.603 395.812 421.603 397.916C421.603 400.124 421.239 402.176 420.51 404.072C419.801 405.968 418.77 407.624 417.416 409.041C416.083 410.458 414.478 411.562 412.603 412.354C410.728 413.145 408.624 413.541 406.291 413.541C403.874 413.541 401.676 413.104 399.697 412.229C397.739 411.333 396.051 410.083 394.635 408.479C393.218 406.874 392.124 404.968 391.353 402.76C390.603 400.551 390.228 398.135 390.228 395.51V392.01C390.228 388.343 390.76 384.989 391.822 381.947C392.906 378.885 394.458 376.239 396.478 374.01C398.499 371.76 400.937 370.02 403.791 368.791C406.645 367.562 409.864 366.947 413.447 366.947ZM427.791 408.572C427.791 407.239 428.249 406.124 429.166 405.229C430.103 404.333 431.343 403.885 432.885 403.885C434.426 403.885 435.656 404.333 436.572 405.229C437.51 406.124 437.978 407.239 437.978 408.572C437.978 409.906 437.51 411.02 436.572 411.916C435.656 412.812 434.426 413.26 432.885 413.26C431.343 413.26 430.103 412.812 429.166 411.916C428.249 411.02 427.791 409.906 427.791 408.572ZM454.76 386.26H459.572C461.114 386.26 462.385 385.999 463.385 385.479C464.385 384.937 465.124 384.187 465.603 383.229C466.103 382.249 466.353 381.114 466.353 379.822C466.353 378.656 466.124 377.624 465.666 376.729C465.228 375.812 464.551 375.104 463.635 374.604C462.718 374.083 461.562 373.822 460.166 373.822C459.062 373.822 458.041 374.041 457.103 374.479C456.166 374.916 455.416 375.531 454.853 376.322C454.291 377.114 454.01 378.072 454.01 379.197H444.978C444.978 376.697 445.645 374.52 446.978 372.666C448.333 370.812 450.145 369.364 452.416 368.322C454.687 367.281 457.187 366.76 459.916 366.76C462.999 366.76 465.697 367.26 468.01 368.26C470.322 369.239 472.124 370.687 473.416 372.604C474.708 374.52 475.353 376.895 475.353 379.729C475.353 381.166 475.02 382.562 474.353 383.916C473.687 385.249 472.728 386.458 471.478 387.541C470.249 388.604 468.749 389.458 466.978 390.104C465.208 390.729 463.218 391.041 461.01 391.041H454.76V386.26ZM454.76 393.104V388.447H461.01C463.489 388.447 465.666 388.729 467.541 389.291C469.416 389.854 470.989 390.666 472.26 391.729C473.531 392.77 474.489 394.01 475.135 395.447C475.781 396.864 476.103 398.437 476.103 400.166C476.103 402.291 475.697 404.187 474.885 405.854C474.072 407.499 472.926 408.895 471.447 410.041C469.989 411.187 468.281 412.062 466.322 412.666C464.364 413.249 462.228 413.541 459.916 413.541C457.999 413.541 456.114 413.281 454.26 412.76C452.426 412.218 450.76 411.416 449.26 410.354C447.781 409.27 446.593 407.916 445.697 406.291C444.822 404.645 444.385 402.697 444.385 400.447H453.416C453.416 401.614 453.708 402.656 454.291 403.572C454.874 404.489 455.676 405.208 456.697 405.729C457.739 406.249 458.895 406.51 460.166 406.51C461.603 406.51 462.833 406.249 463.853 405.729C464.895 405.187 465.687 404.437 466.228 403.479C466.791 402.499 467.072 401.364 467.072 400.072C467.072 398.406 466.77 397.072 466.166 396.072C465.562 395.051 464.697 394.301 463.572 393.822C462.447 393.343 461.114 393.104 459.572 393.104H454.76ZM482.166 378.572V376.166C482.166 374.437 482.541 372.864 483.291 371.447C484.041 370.031 485.145 368.895 486.603 368.041C488.062 367.187 489.853 366.76 491.978 366.76C494.166 366.76 495.989 367.187 497.447 368.041C498.926 368.895 500.031 370.031 500.76 371.447C501.51 372.864 501.885 374.437 501.885 376.166V378.572C501.885 380.26 501.51 381.812 500.76 383.229C500.031 384.645 498.937 385.781 497.478 386.635C496.02 387.489 494.218 387.916 492.072 387.916C489.906 387.916 488.083 387.489 486.603 386.635C485.145 385.781 484.041 384.645 483.291 383.229C482.541 381.812 482.166 380.26 482.166 378.572ZM488.135 376.166V378.572C488.135 379.301 488.27 379.999 488.541 380.666C488.833 381.312 489.27 381.843 489.853 382.26C490.458 382.656 491.187 382.854 492.041 382.854C492.937 382.854 493.666 382.656 494.228 382.26C494.791 381.843 495.208 381.312 495.478 380.666C495.749 379.999 495.885 379.301 495.885 378.572V376.166C495.885 375.395 495.739 374.687 495.447 374.041C495.176 373.374 494.749 372.843 494.166 372.447C493.603 372.031 492.874 371.822 491.978 371.822C491.145 371.822 490.437 372.031 489.853 372.447C489.27 372.843 488.833 373.374 488.541 374.041C488.27 374.687 488.135 375.395 488.135 376.166ZM503.916 404.166V401.76C503.916 400.051 504.291 398.489 505.041 397.072C505.812 395.656 506.926 394.52 508.385 393.666C509.864 392.812 511.676 392.385 513.822 392.385C515.989 392.385 517.801 392.812 519.26 393.666C520.718 394.52 521.822 395.656 522.572 397.072C523.322 398.489 523.697 400.051 523.697 401.76V404.166C523.697 405.874 523.322 407.437 522.572 408.854C521.843 410.27 520.749 411.406 519.291 412.26C517.833 413.114 516.031 413.541 513.885 413.541C511.718 413.541 509.895 413.114 508.416 412.26C506.937 411.406 505.812 410.27 505.041 408.854C504.291 407.437 503.916 405.874 503.916 404.166ZM509.916 401.76V404.166C509.916 404.916 510.083 405.624 510.416 406.291C510.749 406.958 511.208 407.489 511.791 407.885C512.395 408.281 513.093 408.479 513.885 408.479C514.885 408.479 515.666 408.281 516.228 407.885C516.791 407.489 517.176 406.958 517.385 406.291C517.614 405.624 517.728 404.916 517.728 404.166V401.76C517.728 401.01 517.583 400.312 517.291 399.666C516.999 398.999 516.562 398.468 515.978 398.072C515.416 397.656 514.697 397.447 513.822 397.447C512.947 397.447 512.218 397.656 511.635 398.072C511.072 398.468 510.645 398.999 510.353 399.666C510.062 400.312 509.916 401.01 509.916 401.76ZM516.041 373.916L493.822 409.479L489.447 407.166L511.666 371.604L516.041 373.916Z" fill="white"/>
<path d="M675.328 438.403C675.328 569.253 569.253 675.327 438.403 675.327C307.554 675.327 201.479 569.253 201.479 438.403C201.479 307.553 307.554 201.479 438.403 201.479C569.253 201.479 675.328 307.553 675.328 438.403ZM225.171 438.403C225.171 556.168 320.639 651.635 438.403 651.635C556.168 651.635 651.635 556.168 651.635 438.403C651.635 320.638 556.168 225.171 438.403 225.171C320.639 225.171 225.171 320.638 225.171 438.403Z" fill="#151A20"/>
<path d="M727.563 440.269C727.563 598.937 598.937 727.563 440.269 727.563C281.601 727.563 152.975 598.937 152.975 440.269C152.975 281.601 281.601 152.975 440.269 152.975C598.937 152.975 727.563 281.601 727.563 440.269ZM181.704 440.269C181.704 583.07 297.468 698.833 440.269 698.833C583.07 698.833 698.834 583.07 698.834 440.269C698.834 297.467 583.07 181.704 440.269 181.704C297.468 181.704 181.704 297.467 181.704 440.269Z" fill="#151A20"/>
<path d="M776.067 442.135C776.067 626.561 626.56 776.068 442.134 776.068C257.708 776.068 108.202 626.561 108.202 442.135C108.202 257.709 257.708 108.202 442.134 108.202C626.56 108.202 776.067 257.709 776.067 442.135ZM137.063 442.135C137.063 610.621 273.648 747.207 442.134 747.207C610.621 747.207 747.206 610.621 747.206 442.135C747.206 273.648 610.621 137.063 442.134 137.063C273.648 137.063 137.063 273.648 137.063 442.135Z" fill="#151A20"/>
<path d="M832.034 444C832.034 658.305 658.305 832.034 444 832.034C229.695 832.034 55.9664 658.305 55.9664 444C55.9664 229.695 229.695 55.9668 444 55.9668C658.305 55.9668 832.034 229.695 832.034 444ZM86.1088 444C86.1088 641.658 246.342 801.892 444 801.892C641.658 801.892 801.891 641.658 801.891 444C801.891 246.343 641.658 86.1092 444 86.1092C246.342 86.1092 86.1088 246.343 86.1088 444Z" fill="#151A20"/>
<path d="M888 444C888 689.214 689.214 888 444 888C198.786 888 0 689.214 0 444C0 198.786 198.786 0 444 0C689.214 0 888 198.786 888 444ZM32.2037 444C32.2037 671.429 216.571 855.796 444 855.796C671.429 855.796 855.796 671.429 855.796 444C855.796 216.571 671.429 32.2037 444 32.2037C216.571 32.2037 32.2037 216.571 32.2037 444Z" fill="#151A20"/>
<path d="M676.058 84.492C680.881 77.0206 678.747 67.0267 671.106 62.478C596.778 18.2321 511.025 -3.39966 424.376 0.433897C332.356 4.50502 243.881 37.0939 171.207 93.6857C98.5334 150.277 45.2588 228.07 18.7643 316.287C-7.73017 404.504 -6.13294 498.776 23.3347 586.045C52.8024 673.313 108.682 749.257 183.231 803.354C257.78 857.452 347.309 887.025 439.413 887.976C531.517 888.928 621.638 861.211 697.289 808.665C768.525 759.186 823.611 689.998 855.902 609.75C859.221 601.5 854.86 592.259 846.495 589.24C838.13 586.222 828.932 590.57 825.589 598.811C795.581 672.777 744.667 736.548 678.918 782.216C608.754 830.95 525.17 856.657 439.746 855.774C354.322 854.892 271.287 827.464 202.145 777.29C133.003 727.116 81.1763 656.681 53.8459 575.742C26.5156 494.803 25.0342 407.368 49.607 325.55C74.1798 243.732 123.59 171.581 190.993 119.094C258.396 66.6071 340.454 36.3819 425.799 32.6061C505.774 29.0678 584.925 48.9193 653.63 89.5544C661.284 94.0815 671.235 91.9635 676.058 84.492Z" fill="#005F73"/>
<path d="M816.962 444C825.286 444 832.064 450.751 831.741 459.068C828.7 537.348 802.023 613.008 755.046 675.992C705.062 743.01 634.769 792.091 554.634 815.928C474.499 839.765 388.808 837.083 310.321 808.281C231.834 779.478 164.748 726.097 119.053 656.084C73.3578 586.072 51.4971 503.173 56.726 419.732C61.9549 336.29 93.9938 256.769 148.072 193.009C202.15 129.249 275.375 84.6599 356.844 65.8815C433.41 48.2332 513.408 54.2692 586.289 82.9963C594.033 86.0486 597.484 94.9708 594.133 102.59C590.783 110.21 581.9 113.638 574.146 110.611C507.22 84.484 433.851 79.0642 363.614 95.2537C288.474 112.573 220.937 153.699 171.06 212.506C121.182 271.313 91.6321 344.657 86.8094 421.617C81.9867 498.577 102.149 575.036 144.295 639.61C186.441 704.184 248.315 753.419 320.705 779.983C393.096 806.548 472.13 809.022 546.04 787.037C619.95 765.052 684.783 719.783 730.884 657.971C773.978 600.193 798.55 530.85 801.574 459.068C801.924 450.752 808.639 444 816.962 444Z" fill="#5ED500"/>
<path d="M761.637 442.135C769.606 442.135 776.1 448.6 775.756 456.562C773.195 515.777 754.912 573.34 722.667 623.277C687.808 677.262 638.114 720.043 579.545 746.486C520.977 772.929 456.022 781.911 392.476 772.355C328.929 762.799 269.489 735.11 221.289 692.611C173.088 650.112 138.173 594.608 120.734 532.758C103.294 470.909 104.071 405.341 122.971 343.922C141.871 282.503 178.091 227.842 227.285 186.497C272.792 148.251 327.612 122.903 386.04 112.947C393.896 111.609 401.123 117.241 402.121 125.148C403.119 133.055 397.51 140.239 389.659 141.61C336.741 150.85 287.108 173.919 245.854 208.591C200.912 246.362 167.822 296.299 150.556 352.41C133.289 408.521 132.579 468.422 148.512 524.926C164.444 581.43 196.341 632.137 240.376 670.963C284.411 709.789 338.713 735.084 396.768 743.815C454.822 752.545 514.163 744.339 567.669 720.181C621.176 696.024 666.575 656.941 698.421 607.622C727.653 562.35 744.325 510.219 746.865 456.561C747.242 448.6 753.667 442.135 761.637 442.135Z" fill="#4CC9F0"/>
<path d="M698.742 527.917C706.255 530.465 710.314 538.638 707.394 546.014C686.788 598.071 651.37 643.08 605.382 675.376C555.469 710.43 495.694 728.689 434.712 727.509C373.73 726.329 314.707 705.772 266.186 668.814C217.665 631.856 182.166 580.415 164.827 521.938C147.489 463.462 149.211 400.984 169.744 343.551C190.277 286.118 228.556 236.711 279.039 202.481C329.522 168.252 389.588 150.977 450.542 153.158C506.702 155.168 560.929 173.597 606.581 206.007C613.049 210.6 614.101 219.664 609.191 225.896C604.281 232.127 595.27 233.162 588.776 228.605C547.935 199.95 499.578 183.661 449.515 181.869C394.656 179.906 340.597 195.454 295.162 226.26C249.728 257.066 215.277 301.533 196.797 353.223C178.317 404.913 176.767 461.142 192.372 513.771C207.976 566.4 239.926 612.697 283.594 645.96C327.263 679.222 380.384 697.723 435.268 698.785C490.151 699.847 543.949 683.414 588.871 651.865C629.866 623.075 661.529 583.059 680.149 536.774C683.11 529.413 691.229 525.369 698.742 527.917Z" fill="#F72585"/>
<path d="M663.482 438.403C670.024 438.403 675.359 443.711 675.032 450.245C672.699 496.869 656.634 541.865 628.727 579.506C598.463 620.326 555.877 650.335 507.256 665.102C458.634 679.869 406.552 678.613 358.699 661.518C310.846 644.423 269.757 612.396 241.497 570.164C213.237 527.933 199.304 477.734 201.755 426.978C204.205 376.222 222.909 327.599 255.106 288.286C287.302 248.973 331.286 221.053 380.563 208.647C426.003 197.208 473.725 199.52 517.714 215.147C523.879 217.337 526.751 224.293 524.255 230.341C521.76 236.389 514.843 239.235 508.666 237.079C469.386 223.37 426.859 221.424 386.347 231.623C341.997 242.788 302.412 267.916 273.435 303.298C244.458 338.679 227.625 382.44 225.419 428.12C223.214 473.801 235.754 518.98 261.188 556.988C286.622 594.997 323.602 623.821 366.67 639.207C409.738 654.592 456.611 655.723 500.37 642.432C544.13 629.142 582.457 602.134 609.694 565.396C634.575 531.837 648.997 491.783 651.306 450.244C651.67 443.711 656.939 438.403 663.482 438.403Z" fill="#FFC300"/>
</svg>
