<svg width="152" height="152" viewBox="0 0 152 152" fill="none" xmlns="http://www.w3.org/2000/svg">
<path d="M2.66436 96.0293L1 95.0645V127.867H151V1L149.96 2.44715L148.087 13.5419L147.047 15.4715L145.175 14.5067L143.094 9.68288L141.846 10.1653L139.974 20.7777L138.725 27.531H137.061L135.397 21.26L134.281 20.7777H133.108L130.82 36.2139L130.196 37.1787L129.155 38.1434L128.115 34.7667L126.451 14.5067L125.411 12.0948L124.37 13.0596L122.29 29.4605L121.042 31.3901L118.753 28.4958L117.505 26.0839H115.84L114.176 35.2491L113.136 38.6258L111.055 39.5906L109.391 44.4144L108.351 45.3792L107.311 44.4144L105.022 31.8725L103.15 30.9077L100.861 43.932L100.029 45.8615L98.7809 45.3792L96.2843 37.1787L94.4119 36.6963L92.9556 31.3901L91.9154 27.531L90.8752 26.5663L90.043 28.0134L87.9625 46.3439L87.3384 49.2382L86.5062 49.7206L85.466 44.8968L83.3856 19.3305L82.7614 17.401H82.3454L81.3051 18.8481L79.6408 33.3196L78.8086 36.2139L77.1442 37.1787L75.0638 46.8263L74.4397 48.2734H73.3994L72.1512 46.3439L70.9029 42.0025L69.8627 41.0377L68.1983 43.4496L67.1581 51.6501L66.1179 54.5444L65.0777 55.5092L63.2053 53.0973L61.749 50.203L60.2926 49.7206L59.6685 48.2734L58.0042 42.9672L56.9639 41.5201L55.9237 42.9672L54.2594 63.7097L53.0111 71.4278H51.7628L49.8904 66.1216L48.8502 65.1568L47.1859 64.6744L45.7295 71.9102L44.2732 75.7692L43.4411 76.2516L41.7767 70.463L39.9043 68.0511L38.656 69.0159L36.1595 90.7231L35.1193 91.6878L33.4549 87.8288L31.1664 83.9697H30.1262L28.8779 80.593L27.0055 79.1459L25.7573 80.593L24.0929 92.6526L22.4286 95.0645L21.3883 96.0293L19.932 97.4764L17.6436 98.4412L16.3953 96.0293L14.939 90.7231L13.0666 89.7583L11.4022 86.864L9.94591 84.9345L9.11373 85.4169L8.28155 89.2759L6.6172 98.4412L5.57698 100.371L4.32871 99.8883L2.66436 96.0293Z" fill="url(#paint0_linear_611_7116)"/>
<path d="M151 1C148.857 1 148.857 23.187 146.714 23.187C144.571 23.187 144.661 13.8764 142.429 13.8764C140.196 13.8764 140.375 41.2139 138.143 41.2139C135.911 41.2139 136.268 30.2393 133.857 30.2393C131.446 30.2393 132.071 56.9033 129.571 56.9033C127.071 56.9033 127.429 17.6403 125.286 17.6403C123.143 17.6403 123.321 46.2853 121 46.2853C118.679 46.2853 119.036 38.4406 116.714 38.4406C114.393 38.4406 114.75 58.0523 112.429 58.0523C110.107 58.0523 110.375 67.561 108.143 67.561C105.911 67.561 106.089 46.1664 103.857 46.1664C101.625 46.1664 101.893 68.6704 99.5714 68.6704C97.25 68.6704 97.7857 55.0808 95.2857 55.0808C92.7857 55.0808 93.2321 39.9461 91 39.9461C88.7679 39.9461 89.0357 74.4944 86.7143 74.4944C84.3929 74.4944 84.75 25.168 82.4286 25.168C80.1071 25.168 80.375 54.645 78.1429 54.645C75.9107 54.645 76.3571 72.2757 73.8571 72.2757C71.3571 72.2757 71.9821 61.5784 69.5714 61.5784C67.1607 61.5784 67.7857 83.3692 65.2857 83.3692C62.7857 83.3692 63.4107 74.9699 61 74.9699C58.5893 74.9699 59.0357 62.252 56.7143 62.252C54.3929 62.252 54.75 107.933 52.4286 107.933C50.1071 107.933 50.6429 96.7607 48.1429 96.7607C45.6429 96.7607 46 114.233 43.8571 114.233C41.7143 114.233 41.9821 101.753 39.5714 101.753C37.1607 101.753 37.5179 137.807 35.2857 137.807C33.0536 137.807 33.5 126.951 31 126.951C28.5 126.951 29.125 119.067 26.7143 119.067C24.3036 119.067 24.75 143.235 22.4286 143.235C20.1071 143.235 20.6429 148.306 18.1429 148.306C15.6429 148.306 16.3571 134.954 13.8571 134.954C11.3571 134.954 11.7143 127.822 9.57142 127.822C7.42857 127.822 7.42857 151 5.28571 151C3.14286 151 3.32143 142.838 1 142.838" stroke="#00D5FF" stroke-width="2"/>
<circle cx="10" cy="83.5" r="1.25" fill="#00D4FF" stroke="#004C69" stroke-width="2"/>
<circle cx="26.5" cy="77.5" r="1.25" fill="#00D4FF" stroke="#004C69" stroke-width="2"/>
<circle cx="39.25" cy="66.25" r="1.25" fill="#00D4FF" stroke="#004C69" stroke-width="2"/>
<circle cx="56.5" cy="40" r="1.25" fill="#00D4FF" stroke="#004C69" stroke-width="2"/>
<circle cx="70" cy="40" r="1.25" fill="#00D4FF" stroke="#004C69" stroke-width="2"/>
<circle cx="82" cy="16.75" r="1.25" fill="#00D4FF" stroke="#004C69" stroke-width="2"/>
<circle cx="91" cy="26.5" r="1.25" fill="#00D4FF" stroke="#004C69" stroke-width="2"/>
<circle cx="104.5" cy="32.5" r="1.25" fill="#00D4FF" stroke="#004C69" stroke-width="2"/>
<circle cx="124.75" cy="12.25" r="1.25" fill="#00D4FF" stroke="#004C69" stroke-width="2"/>
<circle cx="142.75" cy="7.75" r="1.25" fill="#00D4FF" stroke="#004C69" stroke-width="2"/>
<circle cx="133" cy="20.5" r="1.25" fill="#00D4FF" stroke="#004C69" stroke-width="2"/>
<circle cx="48.25" cy="63.25" r="1.25" fill="#00D4FF" stroke="#004C69" stroke-width="2"/>
<defs>
<linearGradient id="paint0_linear_611_7116" x1="76" y1="1" x2="76" y2="127.867" gradientUnits="userSpaceOnUse">
<stop stop-color="#00D4FF" stop-opacity="0.12"/>
<stop offset="1" stop-color="white" stop-opacity="0"/>
</linearGradient>
</defs>
</svg>
