<svg width="150" height="170" viewBox="0 0 150 170" fill="none" xmlns="http://www.w3.org/2000/svg">
<g clip-path="url(#clip0_611_7087)">
<path fill-rule="evenodd" clip-rule="evenodd" d="M0.737724 42.66L1.97371 45.5692C3.2097 49.4481 6.09368 56.2363 8.56565 53.3271C11.0376 49.4481 13.9216 35.8718 16.3936 33.9323C18.8656 31.9928 21.7495 42.66 24.2215 40.7205C26.6935 38.781 29.1655 25.2046 32.0494 28.1138C34.5214 31.9928 36.9934 53.3271 39.8774 58.1758C42.3494 63.0245 44.8213 53.3271 47.7053 53.3271C50.1773 53.3271 52.6493 63.0245 55.5332 66.9035C58.0052 70.7824 60.4772 66.9035 63.3612 54.2968C65.8331 42.66 68.3051 21.3257 71.1891 19.3862C73.6611 18.4164 76.1331 35.8718 78.605 33.9323C81.489 31.9928 83.961 10.6585 86.433 14.5375C89.3169 18.4164 91.7889 45.5692 94.2609 44.5994C97.1449 42.66 99.6168 10.6585 102.089 1.93083C104.973 -6.79684 107.445 7.74928 109.917 19.3862C112.801 31.9928 115.273 42.66 117.745 45.5692C120.629 49.4481 123.101 45.5692 125.573 49.4481C128.045 53.3271 130.929 63.0245 133.401 66.9035C135.873 70.7824 138.756 66.9035 141.228 60.1153C143.7 53.3271 146.584 42.66 147.82 36.8415L149.056 31.9928V84.3588H147.82C146.584 84.3588 143.7 84.3588 141.228 84.3588C138.756 84.3588 135.873 84.3588 133.401 84.3588C130.929 84.3588 128.045 84.3588 125.573 84.3588C123.101 84.3588 120.629 84.3588 117.745 84.3588C115.273 84.3588 112.801 84.3588 109.917 84.3588C107.445 84.3588 104.973 84.3588 102.089 84.3588C99.6168 84.3588 97.1449 84.3588 94.2609 84.3588C91.7889 84.3588 89.3169 84.3588 86.433 84.3588C83.961 84.3588 81.489 84.3588 78.605 84.3588C76.1331 84.3588 73.6611 84.3588 71.1891 84.3588C68.3051 84.3588 65.8331 84.3588 63.3612 84.3588C60.4772 84.3588 58.0052 84.3588 55.5332 84.3588C52.6493 84.3588 50.1773 84.3588 47.7053 84.3588C44.8213 84.3588 42.3494 84.3588 39.8774 84.3588C36.9934 84.3588 34.5214 84.3588 32.0494 84.3588C29.1655 84.3588 26.6935 84.3588 24.2215 84.3588C21.7495 84.3588 18.8656 84.3588 16.3936 84.3588C13.9216 84.3588 11.0376 84.3588 8.56565 84.3588C6.09368 84.3588 3.2097 84.3588 1.97371 84.3588H0.737724V42.66Z" fill="#B5179E" fill-opacity="0.54"/>
<path fill-rule="evenodd" clip-rule="evenodd" d="M149.057 42.66L147.821 45.5692C146.585 49.4481 143.701 56.2363 141.229 53.3271C138.757 49.4481 135.873 35.8718 133.401 33.9323C130.929 31.9928 128.045 42.66 125.573 40.7205C123.101 38.781 120.629 25.2046 117.745 28.1138C115.273 31.9928 112.801 53.3271 109.917 58.1758C107.445 63.0245 104.973 53.3271 102.089 53.3271C99.617 53.3271 97.145 63.0245 94.261 66.9035C91.789 70.7824 89.3171 66.9035 86.4331 54.2968C83.9611 42.66 81.4891 21.3257 78.6051 19.3862C76.1332 18.4164 73.6612 35.8718 71.1892 33.9323C68.3052 31.9928 65.8333 10.6585 63.3613 14.5375C60.4773 18.4164 58.0053 45.5692 55.5333 44.5994C52.6494 42.66 50.1774 10.6585 47.7054 1.93083C44.8214 -6.79684 42.3495 7.74928 39.8775 19.3862C36.9935 31.9928 34.5215 42.66 32.0496 45.5692C29.1656 49.4481 26.6936 45.5692 24.2216 49.4481C21.7496 53.3271 18.8657 63.0245 16.3937 66.9035C13.9217 70.7824 11.0378 66.9035 8.56577 60.1153C6.0938 53.3271 3.20982 42.66 1.97383 36.8415L0.737839 31.9928V84.3588H1.97383C3.20982 84.3588 6.0938 84.3588 8.56577 84.3588C11.0378 84.3588 13.9217 84.3588 16.3937 84.3588C18.8657 84.3588 21.7496 84.3588 24.2216 84.3588C26.6936 84.3588 29.1656 84.3588 32.0496 84.3588C34.5215 84.3588 36.9935 84.3588 39.8775 84.3588C42.3495 84.3588 44.8214 84.3588 47.7054 84.3588C50.1774 84.3588 52.6494 84.3588 55.5333 84.3588C58.0053 84.3588 60.4773 84.3588 63.3613 84.3588C65.8333 84.3588 68.3052 84.3588 71.1892 84.3588C73.6612 84.3588 76.1332 84.3588 78.6051 84.3588C81.4891 84.3588 83.9611 84.3588 86.4331 84.3588C89.3171 84.3588 91.789 84.3588 94.261 84.3588C97.145 84.3588 99.617 84.3588 102.089 84.3588C104.973 84.3588 107.445 84.3588 109.917 84.3588C112.801 84.3588 115.273 84.3588 117.745 84.3588C120.629 84.3588 123.101 84.3588 125.573 84.3588C128.045 84.3588 130.929 84.3588 133.401 84.3588C135.873 84.3588 138.757 84.3588 141.229 84.3588C143.701 84.3588 146.585 84.3588 147.821 84.3588H149.057V42.66Z" fill="#E7B2DF" fill-opacity="0.68"/>
<path fill-rule="evenodd" clip-rule="evenodd" d="M0.943596 51.5894L2.17958 53.8892C3.80878 59.9519 10.322 78.2864 13.7155 66.921C16.1875 60.0218 18.2474 43.1571 20.3074 32.425C22.3674 20.9263 24.4274 15.5602 26.8994 18.6265C28.9593 20.9263 31.0193 32.4249 33.0793 43.1571C37.7634 67.5604 36.8103 64.3515 46.2632 58.4886C48.3232 56.9555 50.3832 62.3215 52.4431 66.921C54.5031 70.7539 56.9751 73.8202 59.0351 65.3879C61.4699 55.4211 63.876 1.57043 71.91 0.0373614C79.9439 -1.49571 88.8018 51.7815 90.2438 46.7986C91.6858 41.8157 93.8488 14.9856 99.1017 18.6265C104.355 22.2675 108.475 48.5231 110.535 50.0563C112.595 51.5894 115.067 34.7247 117.127 36.2578C125.153 42.2318 126.038 57.5471 136.49 60.7884C138.55 62.3215 140.61 56.9555 142.67 58.4886C145.142 60.0218 147.202 67.6876 148.026 72.2871L149.262 76.12V84.5523H148.026C147.202 84.5523 145.142 84.5523 142.67 84.5523C140.61 84.5523 138.55 84.5523 136.49 84.5523C134.018 84.5523 131.958 84.5523 129.898 84.5523C127.838 84.5523 125.778 84.5523 123.307 84.5523C121.247 84.5523 119.187 84.5523 117.127 84.5523C115.067 84.5523 112.595 84.5523 110.535 84.5523C108.475 84.5523 106.415 84.5523 103.943 84.5523C101.883 84.5523 99.8227 84.5523 97.7627 84.5523C95.7028 84.5523 93.2308 84.5523 91.1708 84.5523C89.1108 84.5523 87.0508 84.5523 84.5788 84.5523C82.5189 84.5523 80.4589 84.5523 78.3989 84.5523C76.3389 84.5523 73.8669 84.5523 71.807 84.5523C69.747 84.5523 67.687 84.5523 65.627 84.5523C63.155 84.5523 61.0951 84.5523 59.0351 84.5523C56.9751 84.5523 54.5031 84.5523 52.4431 84.5523C50.3832 84.5523 48.3232 84.5523 46.2632 84.5523C43.7912 84.5523 41.7312 84.5523 39.6713 84.5523C37.6113 84.5523 35.1393 84.5523 33.0793 84.5523C31.0193 84.5523 28.9593 84.5523 26.8994 84.5523C24.4274 84.5523 22.3674 84.5523 20.3074 84.5523C18.2474 84.5523 16.1875 84.5523 13.7155 84.5523C11.6555 84.5523 9.59552 84.5523 7.53554 84.5523C5.06356 84.5523 3.00358 84.5523 2.17958 84.5523H0.943596V51.5894Z" fill="#5D17B5" fill-opacity="0.59"/>
<path fill-rule="evenodd" clip-rule="evenodd" d="M0.84066 73.3004L2.07665 74.0719C3.70584 76.1057 10.219 82.2565 13.6125 78.4437C16.0845 76.1292 18.1445 70.4715 20.2045 66.8712C22.2645 63.0137 24.3245 61.2135 26.7964 62.2422C28.8564 63.0137 30.9164 66.8712 32.9764 70.4715C37.6605 78.6582 36.7073 77.5817 46.1603 75.6149C48.2202 75.1005 50.2802 76.9007 52.3402 78.4437C54.4002 79.7295 56.8722 80.7582 58.9321 77.9294C61.367 74.5858 63.7731 56.5203 71.807 56.006C79.841 55.4917 88.6989 73.3648 90.1409 71.6932C91.5829 70.0215 93.7458 61.0207 98.9988 62.2422C104.252 63.4636 108.372 72.2717 110.432 72.786C112.492 73.3004 114.964 67.6427 117.024 68.157C125.05 70.1611 125.935 75.299 136.387 76.3864C138.447 76.9007 140.507 75.1005 142.567 75.6149C145.039 76.1292 147.099 78.7009 147.923 80.2439L149.159 81.5297V84.3585H147.923C147.099 84.3585 145.039 84.3585 142.567 84.3585C140.507 84.3585 138.447 84.3585 136.387 84.3585C133.915 84.3585 131.855 84.3585 129.796 84.3585C127.736 84.3585 125.676 84.3585 123.204 84.3585C121.144 84.3585 119.084 84.3585 117.024 84.3585C114.964 84.3585 112.492 84.3585 110.432 84.3585C108.372 84.3585 106.312 84.3585 103.84 84.3585C101.78 84.3585 99.7198 84.3585 97.6598 84.3585C95.5998 84.3585 93.1278 84.3585 91.0679 84.3585C89.0079 84.3585 86.9479 84.3585 84.4759 84.3585C82.4159 84.3585 80.3559 84.3585 78.296 84.3585C76.236 84.3585 73.764 84.3585 71.704 84.3585C69.6441 84.3585 67.5841 84.3585 65.5241 84.3585C63.0521 84.3585 60.9921 84.3585 58.9321 84.3585C56.8722 84.3585 54.4002 84.3585 52.3402 84.3585C50.2802 84.3585 48.2202 84.3585 46.1603 84.3585C43.6883 84.3585 41.6283 84.3585 39.5683 84.3585C37.5083 84.3585 35.0364 84.3585 32.9764 84.3585C30.9164 84.3585 28.8564 84.3585 26.7964 84.3585C24.3245 84.3585 22.2645 84.3585 20.2045 84.3585C18.1445 84.3585 16.0845 84.3585 13.6125 84.3585C11.5526 84.3585 9.49258 84.3585 7.4326 84.3585C4.96062 84.3585 2.90064 84.3585 2.07665 84.3585H0.84066V73.3004Z" fill="#0400DA" fill-opacity="0.38"/>
<path fill-rule="evenodd" clip-rule="evenodd" d="M0.394356 126.639L1.63606 123.717C2.87776 119.82 5.77507 113 8.25848 115.923C10.7419 119.82 13.6392 133.459 16.1226 135.407C18.606 137.356 21.5033 126.639 23.9867 128.588C26.4701 130.536 28.9535 144.175 31.8509 141.253C34.3343 137.356 36.8177 115.923 39.715 111.052C42.1984 106.181 44.6818 115.923 47.5791 115.923C50.0625 115.923 52.5459 106.181 55.4432 102.284C57.9266 98.3869 60.41 102.284 63.3074 114.949C65.7908 126.639 68.2742 148.072 71.1715 150.021C73.6549 150.995 76.1383 133.459 78.6217 135.407C81.519 137.356 84.0024 158.789 86.4858 154.892C89.3831 150.995 91.8665 123.717 94.35 124.691C97.2473 126.639 99.7307 158.789 102.214 167.557C105.111 176.325 107.595 161.712 110.078 150.021C112.976 137.356 115.459 126.639 117.942 123.717C120.84 119.82 123.323 123.717 125.806 119.82C128.29 115.923 131.187 106.181 133.671 102.284C136.154 98.3869 139.051 102.284 141.535 109.103C144.018 115.923 146.915 126.639 148.157 132.485L149.399 137.356V84.7477H148.157C146.915 84.7477 144.018 84.7477 141.535 84.7477C139.051 84.7477 136.154 84.7477 133.671 84.7477C131.187 84.7477 128.29 84.7477 125.806 84.7477C123.323 84.7477 120.84 84.7477 117.942 84.7477C115.459 84.7477 112.976 84.7477 110.078 84.7477C107.595 84.7477 105.111 84.7477 102.214 84.7477C99.7307 84.7477 97.2473 84.7477 94.35 84.7477C91.8665 84.7477 89.3831 84.7477 86.4858 84.7477C84.0024 84.7477 81.519 84.7477 78.6217 84.7477C76.1383 84.7477 73.6549 84.7477 71.1715 84.7477C68.2742 84.7477 65.7908 84.7477 63.3074 84.7477C60.41 84.7477 57.9266 84.7477 55.4432 84.7477C52.5459 84.7477 50.0625 84.7477 47.5791 84.7477C44.6818 84.7477 42.1984 84.7477 39.715 84.7477C36.8177 84.7477 34.3343 84.7477 31.8509 84.7477C28.9535 84.7477 26.4701 84.7477 23.9867 84.7477C21.5033 84.7477 18.606 84.7477 16.1226 84.7477C13.6392 84.7477 10.7419 84.7477 8.25848 84.7477C5.77507 84.7477 2.87776 84.7477 1.63606 84.7477H0.394356V126.639Z" fill="#B5179E" fill-opacity="0.24"/>
<path fill-rule="evenodd" clip-rule="evenodd" d="M149.399 126.639L148.157 123.717C146.916 119.82 144.018 113 141.535 115.923C139.051 119.82 136.154 133.459 133.671 135.407C131.187 137.356 128.29 126.639 125.807 128.588C123.323 130.536 120.84 144.175 117.942 141.253C115.459 137.356 112.976 115.923 110.078 111.052C107.595 106.181 105.112 115.923 102.214 115.923C99.7308 115.923 97.2474 106.181 94.3501 102.284C91.8667 98.3869 89.3833 102.284 86.486 114.949C84.0025 126.639 81.5191 148.072 78.6218 150.021C76.1384 150.995 73.655 133.459 71.1716 135.407C68.2743 137.356 65.7909 158.789 63.3075 154.892C60.4102 150.995 57.9268 123.717 55.4434 124.691C52.5461 126.639 50.0626 158.789 47.5792 167.557C44.6819 176.325 42.1985 161.712 39.7151 150.021C36.8178 137.356 34.3344 126.639 31.851 123.717C28.9537 119.82 26.4703 123.717 23.9869 119.82C21.5035 115.923 18.6061 106.181 16.1227 102.284C13.6393 98.3869 10.742 102.284 8.25861 109.103C5.77521 115.923 2.8779 126.639 1.6362 132.485L0.394485 137.356V84.7477H1.6362C2.8779 84.7477 5.77521 84.7477 8.25861 84.7477C10.742 84.7477 13.6393 84.7477 16.1227 84.7477C18.6061 84.7477 21.5035 84.7477 23.9869 84.7477C26.4703 84.7477 28.9537 84.7477 31.851 84.7477C34.3344 84.7477 36.8178 84.7477 39.7151 84.7477C42.1985 84.7477 44.6819 84.7477 47.5792 84.7477C50.0626 84.7477 52.5461 84.7477 55.4434 84.7477C57.9268 84.7477 60.4102 84.7477 63.3075 84.7477C65.7909 84.7477 68.2743 84.7477 71.1716 84.7477C73.655 84.7477 76.1384 84.7477 78.6218 84.7477C81.5191 84.7477 84.0025 84.7477 86.486 84.7477C89.3833 84.7477 91.8667 84.7477 94.3501 84.7477C97.2474 84.7477 99.7308 84.7477 102.214 84.7477C105.112 84.7477 107.595 84.7477 110.078 84.7477C112.976 84.7477 115.459 84.7477 117.942 84.7477C120.84 84.7477 123.323 84.7477 125.807 84.7477C128.29 84.7477 131.187 84.7477 133.671 84.7477C136.154 84.7477 139.051 84.7477 141.535 84.7477C144.018 84.7477 146.916 84.7477 148.157 84.7477H149.399V126.639Z" fill="#B5179E" fill-opacity="0.33"/>
<path fill-rule="evenodd" clip-rule="evenodd" d="M0.601173 117.668L1.84288 115.358C3.4796 109.267 10.0229 90.8477 13.4321 102.266C15.9155 109.197 17.985 126.14 20.0545 136.921C22.124 148.473 24.1935 153.864 26.677 150.783C28.7465 148.473 30.816 136.921 32.8855 126.14C37.5913 101.623 36.6337 104.847 46.1303 110.737C48.1998 112.277 50.2693 106.886 52.3388 102.266C54.4083 98.4151 56.8918 95.3346 58.9613 103.806C61.4073 113.819 63.8246 167.918 71.8957 169.459C79.9668 170.999 88.8656 117.475 90.3143 122.481C91.7629 127.487 93.9359 154.441 99.2132 150.783C104.49 147.126 108.629 120.749 110.699 119.208C112.768 117.668 115.252 134.611 117.321 133.071C125.385 127.069 126.274 111.683 136.775 108.427C138.844 106.886 140.914 112.277 142.983 110.737C145.467 109.197 147.536 101.496 148.364 96.8748L149.606 93.0242V84.5528H148.364C147.536 84.5528 145.467 84.5528 142.983 84.5528C140.914 84.5528 138.844 84.5528 136.775 84.5528C134.291 84.5528 132.222 84.5528 130.152 84.5528C128.083 84.5528 126.013 84.5528 123.53 84.5528C121.46 84.5528 119.391 84.5528 117.321 84.5528C115.252 84.5528 112.768 84.5528 110.699 84.5528C108.629 84.5528 106.56 84.5528 104.076 84.5528C102.007 84.5528 99.9375 84.5528 97.868 84.5528C95.7985 84.5528 93.3151 84.5528 91.2456 84.5528C89.176 84.5528 87.1065 84.5528 84.6231 84.5528C82.5536 84.5528 80.4841 84.5528 78.4146 84.5528C76.3451 84.5528 73.8617 84.5528 71.7922 84.5528C69.7227 84.5528 67.6532 84.5528 65.5837 84.5528C63.1003 84.5528 61.0308 84.5528 58.9613 84.5528C56.8918 84.5528 54.4083 84.5528 52.3388 84.5528C50.2693 84.5528 48.1998 84.5528 46.1303 84.5528C43.6469 84.5528 41.5774 84.5528 39.5079 84.5528C37.4384 84.5528 34.955 84.5528 32.8855 84.5528C30.816 84.5528 28.7465 84.5528 26.677 84.5528C24.1935 84.5528 22.124 84.5528 20.0545 84.5528C17.985 84.5528 15.9155 84.5528 13.4321 84.5528C11.3626 84.5528 9.2931 84.5528 7.22359 84.5528C4.74019 84.5528 2.67068 84.5528 1.84288 84.5528H0.601173V117.668Z" fill="#B5179E" fill-opacity="0.51"/>
</g>
<defs>
<clipPath id="clip0_611_7087">
<rect width="150" height="169.5" fill="white"/>
</clipPath>
</defs>
</svg>
