<svg width="166" height="166" viewBox="0 0 166 166" fill="none" xmlns="http://www.w3.org/2000/svg">
<path d="M83 8C92.8491 8 102.602 9.93993 111.701 13.709C120.801 17.4781 129.069 23.0026 136.033 29.967C142.997 36.9314 148.522 45.1993 152.291 54.2988C156.06 63.3982 158 73.1509 158 83C158 92.8492 156.06 102.602 152.291 111.701C148.522 120.801 142.997 129.069 136.033 136.033C129.069 142.997 120.801 148.522 111.701 152.291C102.602 156.06 92.8491 158 83 158C73.1508 158 63.3981 156.06 54.2987 152.291C45.1993 148.522 36.9314 142.997 29.967 136.033C23.0026 129.069 17.4781 120.801 13.709 111.701C9.93992 102.602 8 92.8491 8 83C8 73.1508 9.93994 63.3981 13.7091 54.2987C17.4782 45.1993 23.0026 36.9314 29.967 29.967C36.9314 23.0026 45.1994 17.4781 54.2988 13.709C63.3982 9.93992 73.1509 7.99999 83 8L83 8Z" stroke="#151A20" stroke-width="16" stroke-linecap="round" stroke-linejoin="round"/>
<path d="M64.7822 10.2462C81.6142 6.03144 99.3868 7.7833 115.072 15.2033C130.757 22.6233 143.384 35.2524 150.802 50.9387C158.219 66.625 159.968 84.3979 155.751 101.229C151.533 118.061 141.611 132.909 127.673 143.244C113.735 153.579 96.6448 158.762 79.3141 157.909C61.9834 157.057 45.4846 150.221 32.6287 138.567C19.7729 126.914 11.3556 111.163 8.8109 93.999C6.26623 76.835 9.75167 59.3196 18.6734 44.4373" stroke="#E80054" stroke-width="16" stroke-linecap="round" stroke-linejoin="round"/>
<path d="M83 22.4229C90.9551 22.4229 98.8322 23.9897 106.182 27.034C113.531 30.0783 120.209 34.5403 125.834 40.1654C131.459 45.7905 135.921 52.4685 138.966 59.818C142.01 67.1675 143.577 75.0447 143.577 82.9998C143.577 90.9549 142.01 98.832 138.966 106.182C135.921 113.531 131.459 120.209 125.834 125.834C120.209 131.459 113.531 135.921 106.182 138.966C98.8322 142.01 90.955 143.577 83 143.577C75.0449 143.577 67.1677 142.01 59.8182 138.966C52.4687 135.921 45.7907 131.459 40.1656 125.834C34.5405 120.209 30.0785 113.531 27.0342 106.182C23.9899 98.832 22.4231 90.9548 22.4231 82.9997C22.4231 75.0447 23.9899 67.1675 27.0342 59.818C30.0785 52.4684 34.5406 45.7905 40.1657 40.1654C45.7908 34.5403 52.4687 30.0783 59.8182 27.034C67.1678 23.9897 75.0449 22.4228 83 22.4229L83 22.4229Z" stroke="#151A20" stroke-width="16" stroke-linecap="round" stroke-linejoin="round"/>
<path d="M83 22.4229C94.7159 22.4229 106.18 25.8203 116.005 32.2036C125.829 38.587 133.591 47.6822 138.352 58.3876C143.112 69.0929 144.665 80.9489 142.824 92.5193C140.983 104.09 135.826 114.878 127.978 123.577C120.13 132.276 109.928 138.513 98.608 141.531C87.2876 144.55 75.3347 144.221 64.1974 140.585C53.0602 136.948 43.2164 130.16 35.8587 121.043C28.5009 111.925 23.945 100.87 22.7428 89.2157" stroke="#FFC300" stroke-width="16" stroke-linecap="round" stroke-linejoin="round"/>
<path d="M83 36.8457C89.061 36.8457 95.0627 38.0395 100.662 40.359C106.262 42.6784 111.35 46.0781 115.636 50.3639C119.921 54.6496 123.321 59.7376 125.641 65.3372C127.96 70.9369 129.154 76.9385 129.154 82.9996C129.154 89.0606 127.96 95.0622 125.641 100.662C123.321 106.262 119.921 111.349 115.636 115.635C111.35 119.921 106.262 123.321 100.662 125.64C95.0627 127.96 89.061 129.153 83 129.153C76.939 129.153 70.9373 127.96 65.3377 125.64C59.738 123.321 54.6501 119.921 50.3643 115.635C46.0785 111.349 42.6789 106.261 40.3594 100.662C38.04 95.0622 36.8462 89.0605 36.8462 82.9995C36.8462 76.9385 38.04 70.9369 40.3594 65.3372C42.6789 59.7376 46.0785 54.6496 50.3643 50.3638C54.6501 46.0781 59.7381 42.6784 65.3377 40.3589C70.9374 38.0395 76.939 36.8457 83 36.8457L83 36.8457Z" stroke="#151A20" stroke-width="16" stroke-linecap="round" stroke-linejoin="round"/>
<path d="M83 36.8457C90.2084 36.8457 97.3166 38.5341 103.755 41.7757C110.193 45.0173 115.783 49.7218 120.076 55.5125C124.369 61.3031 127.246 68.0187 128.477 75.1214C129.707 82.224 129.257 89.5161 127.162 96.4133C125.067 103.311 121.385 109.621 116.412 114.84C111.44 120.058 105.313 124.039 98.5251 126.464C91.7368 128.889 84.4749 129.69 77.3212 128.803C70.1676 127.916 63.3212 125.366 57.3305 121.356" stroke="#00D5FF" stroke-width="16" stroke-linecap="round" stroke-linejoin="round"/>
<path d="M66.5052 87.3232H66.6908C67.472 87.3232 68.1426 87.2288 68.7025 87.04C69.2689 86.8447 69.7344 86.5648 70.099 86.2002C70.4636 85.8356 70.7338 85.3896 70.9095 84.8623C71.0853 84.3285 71.1732 83.723 71.1732 83.0459V80.3506C71.1732 79.8363 71.1211 79.3838 71.017 78.9932C70.9193 78.6025 70.7761 78.2803 70.5873 78.0264C70.405 77.766 70.1901 77.5706 69.9427 77.4404C69.7019 77.3102 69.4349 77.2451 69.142 77.2451C68.8295 77.2451 68.5528 77.3232 68.3119 77.4795C68.071 77.6292 67.8659 77.8343 67.6967 78.0947C67.5339 78.3551 67.4069 78.6546 67.3158 78.9932C67.2312 79.3252 67.1888 79.6735 67.1888 80.0381C67.1888 80.4027 67.2312 80.751 67.3158 81.083C67.4004 81.4085 67.5274 81.6982 67.6967 81.9521C67.8659 82.1995 68.0775 82.3981 68.3314 82.5479C68.5853 82.6911 68.8848 82.7627 69.2299 82.7627C69.5619 82.7627 69.8581 82.7008 70.1185 82.5771C70.3855 82.4469 70.6101 82.2777 70.7924 82.0693C70.9812 81.861 71.1244 81.6299 71.222 81.376C71.3262 81.1221 71.3783 80.8649 71.3783 80.6045L72.306 81.1123C72.306 81.568 72.2084 82.0173 72.0131 82.46C71.8177 82.9027 71.5443 83.3063 71.1927 83.6709C70.8477 84.029 70.4473 84.3154 69.9916 84.5303C69.5358 84.7451 69.0476 84.8525 68.5267 84.8525C67.8627 84.8525 67.2735 84.7321 66.7592 84.4912C66.2448 84.2438 65.8086 83.9053 65.4506 83.4756C65.099 83.0394 64.8321 82.5316 64.6498 81.9521C64.4675 81.3727 64.3763 80.7445 64.3763 80.0674C64.3763 79.3773 64.487 78.7295 64.7084 78.124C64.9362 77.5186 65.2585 76.9847 65.6752 76.5225C66.0983 76.0602 66.6029 75.6989 67.1888 75.4385C67.7813 75.1715 68.4388 75.0381 69.1615 75.0381C69.8842 75.0381 70.5417 75.1781 71.1342 75.458C71.7266 75.738 72.2344 76.1351 72.6576 76.6494C73.0808 77.1572 73.4063 77.766 73.6342 78.4756C73.8685 79.1852 73.9857 79.973 73.9857 80.8389V81.8154C73.9857 82.7399 73.8848 83.5993 73.683 84.3936C73.4877 85.1878 73.1914 85.9072 72.7943 86.5518C72.4037 87.1898 71.9154 87.7367 71.3295 88.1924C70.75 88.6481 70.0762 88.9964 69.308 89.2373C68.5398 89.4782 67.6804 89.5986 66.7299 89.5986H66.5052V87.3232ZM77.9896 87.3232H78.1752C78.9564 87.3232 79.627 87.2288 80.1869 87.04C80.7533 86.8447 81.2188 86.5648 81.5834 86.2002C81.948 85.8356 82.2181 85.3896 82.3939 84.8623C82.5697 84.3285 82.6576 83.723 82.6576 83.0459V80.3506C82.6576 79.8363 82.6055 79.3838 82.5013 78.9932C82.4037 78.6025 82.2605 78.2803 82.0717 78.0264C81.8894 77.766 81.6745 77.5706 81.4271 77.4404C81.1862 77.3102 80.9193 77.2451 80.6263 77.2451C80.3138 77.2451 80.0372 77.3232 79.7963 77.4795C79.5554 77.6292 79.3503 77.8343 79.181 78.0947C79.0183 78.3551 78.8913 78.6546 78.8002 78.9932C78.7155 79.3252 78.6732 79.6735 78.6732 80.0381C78.6732 80.4027 78.7155 80.751 78.8002 81.083C78.8848 81.4085 79.0118 81.6982 79.181 81.9521C79.3503 82.1995 79.5619 82.3981 79.8158 82.5479C80.0697 82.6911 80.3692 82.7627 80.7142 82.7627C81.0463 82.7627 81.3425 82.7008 81.6029 82.5771C81.8698 82.4469 82.0944 82.2777 82.2767 82.0693C82.4655 81.861 82.6088 81.6299 82.7064 81.376C82.8106 81.1221 82.8627 80.8649 82.8627 80.6045L83.7904 81.1123C83.7904 81.568 83.6927 82.0173 83.4974 82.46C83.3021 82.9027 83.0287 83.3063 82.6771 83.6709C82.3321 84.029 81.9317 84.3154 81.476 84.5303C81.0202 84.7451 80.5319 84.8525 80.0111 84.8525C79.347 84.8525 78.7579 84.7321 78.2435 84.4912C77.7292 84.2438 77.293 83.9053 76.9349 83.4756C76.5834 83.0394 76.3164 82.5316 76.1342 81.9521C75.9519 81.3727 75.8607 80.7445 75.8607 80.0674C75.8607 79.3773 75.9714 78.7295 76.1927 78.124C76.4206 77.5186 76.7429 76.9847 77.1595 76.5225C77.5827 76.0602 78.0873 75.6989 78.6732 75.4385C79.2657 75.1715 79.9232 75.0381 80.6459 75.0381C81.3685 75.0381 82.0261 75.1781 82.6185 75.458C83.211 75.738 83.7188 76.1351 84.142 76.6494C84.5651 77.1572 84.8907 77.766 85.1185 78.4756C85.3529 79.1852 85.4701 79.973 85.4701 80.8389V81.8154C85.4701 82.7399 85.3692 83.5993 85.1674 84.3936C84.972 85.1878 84.6758 85.9072 84.2787 86.5518C83.8881 87.1898 83.3998 87.7367 82.8138 88.1924C82.2344 88.6481 81.5606 88.9964 80.7924 89.2373C80.0241 89.4782 79.1648 89.5986 78.2142 89.5986H77.9896V87.3232ZM87.4427 78.7295V77.9775C87.4427 77.4372 87.5599 76.9456 87.7943 76.5029C88.0287 76.0602 88.3737 75.7054 88.8295 75.4385C89.2852 75.1715 89.8451 75.0381 90.5092 75.0381C91.1927 75.0381 91.7624 75.1715 92.2181 75.4385C92.6804 75.7054 93.0254 76.0602 93.2533 76.5029C93.4877 76.9456 93.6049 77.4372 93.6049 77.9775V78.7295C93.6049 79.2568 93.4877 79.7419 93.2533 80.1846C93.0254 80.6273 92.6836 80.9821 92.2279 81.249C91.7722 81.516 91.209 81.6494 90.5385 81.6494C89.8614 81.6494 89.2917 81.516 88.8295 81.249C88.3737 80.9821 88.0287 80.6273 87.7943 80.1846C87.5599 79.7419 87.4427 79.2568 87.4427 78.7295ZM89.308 77.9775V78.7295C89.308 78.9574 89.3503 79.1755 89.4349 79.3838C89.5261 79.5856 89.6628 79.7516 89.8451 79.8818C90.0339 80.0055 90.2618 80.0674 90.5287 80.0674C90.8086 80.0674 91.0365 80.0055 91.2123 79.8818C91.3881 79.7516 91.5183 79.5856 91.6029 79.3838C91.6875 79.1755 91.7299 78.9574 91.7299 78.7295V77.9775C91.7299 77.7367 91.6843 77.5153 91.5931 77.3135C91.5085 77.1051 91.375 76.9391 91.1927 76.8154C91.017 76.6852 90.7891 76.6201 90.5092 76.6201C90.2487 76.6201 90.0274 76.6852 89.8451 76.8154C89.6628 76.9391 89.5261 77.1051 89.4349 77.3135C89.3503 77.5153 89.308 77.7367 89.308 77.9775ZM94.2396 86.7275V85.9756C94.2396 85.4417 94.3568 84.9535 94.5912 84.5107C94.8321 84.068 95.1804 83.7132 95.6361 83.4463C96.0983 83.1794 96.6648 83.0459 97.3353 83.0459C98.0124 83.0459 98.5788 83.1794 99.0345 83.4463C99.4903 83.7132 99.8353 84.068 100.07 84.5107C100.304 84.9535 100.421 85.4417 100.421 85.9756V86.7275C100.421 87.2614 100.304 87.7497 100.07 88.1924C99.8418 88.6351 99.5 88.9899 99.0443 89.2568C98.5886 89.5238 98.0254 89.6572 97.3549 89.6572C96.6778 89.6572 96.1081 89.5238 95.6459 89.2568C95.1836 88.9899 94.8321 88.6351 94.5912 88.1924C94.3568 87.7497 94.2396 87.2614 94.2396 86.7275ZM96.1146 85.9756V86.7275C96.1146 86.9619 96.1667 87.1833 96.2709 87.3916C96.375 87.5999 96.5183 87.766 96.7006 87.8896C96.8894 88.0133 97.1075 88.0752 97.3549 88.0752C97.6674 88.0752 97.9115 88.0133 98.0873 87.8896C98.2631 87.766 98.3835 87.5999 98.4486 87.3916C98.5202 87.1833 98.556 86.9619 98.556 86.7275V85.9756C98.556 85.7412 98.5105 85.5231 98.4193 85.3213C98.3282 85.113 98.1914 84.9469 98.0092 84.8232C97.8334 84.693 97.6088 84.6279 97.3353 84.6279C97.0619 84.6279 96.834 84.693 96.6517 84.8232C96.476 84.9469 96.3425 85.113 96.2513 85.3213C96.1602 85.5231 96.1146 85.7412 96.1146 85.9756ZM98.0287 77.2744L91.0853 88.3877L89.7181 87.665L96.6615 76.5518L98.0287 77.2744Z" fill="white"/>
</svg>
