<svg width="160" height="160" viewBox="0 0 160 160" fill="none" xmlns="http://www.w3.org/2000/svg">
<path d="M23.4315 136.569C12.2433 125.38 4.62399 111.126 1.53718 95.6072C-1.54964 80.0887 0.0346269 64.0034 6.08964 49.3853C12.1446 34.7672 22.3984 22.2729 35.5544 13.4824C48.7103 4.69192 64.1775 -1.88681e-07 80 0C95.8225 1.88681e-07 111.29 4.69192 124.446 13.4824C137.602 22.2729 147.855 34.7672 153.91 49.3853C159.965 64.0034 161.55 80.0887 158.463 95.6072C155.376 111.126 147.757 125.38 136.569 136.569L130.912 130.912C140.981 120.842 147.838 108.013 150.617 94.0465C153.395 80.0799 151.969 65.6031 146.519 52.4468C141.07 39.2905 131.841 28.0457 120.001 20.1342C108.161 12.2227 94.2403 8 80 8C65.7597 8 51.8393 12.2227 39.9989 20.1342C28.1586 28.0456 18.9302 39.2905 13.4807 52.4468C8.03116 65.6031 6.60532 80.0799 9.38346 94.0465C12.1616 108.013 19.0189 120.842 29.0883 130.912L23.4315 136.569Z" fill="white" fill-opacity="0.1"/>
<path d="M23.4315 136.569C8.42855 121.566 6.74425e-07 101.217 0 80C-6.74424e-07 58.7827 8.42854 38.4344 23.4315 23.4315C38.4344 8.42855 58.7827 2.27629e-06 80 0C101.217 -2.27629e-06 121.566 8.42854 136.569 23.4314L130.912 29.0883C117.409 15.5857 99.0956 8 80 8C60.9044 8 42.5909 15.5857 29.0883 29.0883C15.5857 42.5909 8 60.9044 8 80C8 99.0956 15.5857 117.409 29.0883 130.912L23.4315 136.569Z" fill="url(#paint0_angular_611_7163)"/>
<path d="M43.336 120.823C45.004 120.823 46.072 119.299 46.072 116.239C46.072 113.191 45.004 111.703 43.336 111.703C41.656 111.703 40.588 113.179 40.588 116.239C40.588 119.299 41.656 120.823 43.336 120.823ZM43.336 119.947C42.328 119.947 41.656 118.831 41.656 116.239C41.656 113.671 42.328 112.591 43.336 112.591C44.332 112.591 45.004 113.671 45.004 116.239C45.004 118.831 44.332 119.947 43.336 119.947Z" fill="white" fill-opacity="0.6"/>
<path d="M23.028 85.667H28.56V84.719H26.124C25.68 84.719 25.14 84.767 24.684 84.803C26.748 82.847 28.128 81.059 28.128 79.307C28.128 77.735 27.144 76.703 25.572 76.703C24.456 76.703 23.7 77.219 22.98 77.999L23.616 78.623C24.096 78.047 24.72 77.603 25.44 77.603C26.532 77.603 27.06 78.335 27.06 79.343C27.06 80.855 25.788 82.607 23.028 85.019V85.667ZM32.2883 85.823C33.7763 85.823 35.1683 84.731 35.1683 82.799C35.1683 80.867 33.9803 80.003 32.5163 80.003C31.9883 80.003 31.5923 80.135 31.2083 80.351L31.4243 77.807H34.7483V76.871H30.4643L30.1883 80.987L30.7763 81.347C31.2803 81.011 31.6523 80.831 32.2402 80.831C33.3443 80.831 34.0643 81.575 34.0643 82.835C34.0643 84.119 33.2243 84.911 32.1923 84.911C31.1723 84.911 30.5363 84.443 30.0323 83.939L29.4923 84.659C30.0803 85.247 30.9202 85.823 32.2883 85.823Z" fill="white" fill-opacity="0.6"/>
<path d="M41.4653 51.656C42.9533 51.656 44.3453 50.564 44.3453 48.632C44.3453 46.7 43.1573 45.836 41.6933 45.836C41.1653 45.836 40.7693 45.968 40.3853 46.184L40.6013 43.64H43.9253V42.704H39.6413L39.3653 46.82L39.9533 47.18C40.4573 46.844 40.8293 46.664 41.4173 46.664C42.5213 46.664 43.2413 47.408 43.2413 48.668C43.2413 49.952 42.4013 50.744 41.3693 50.744C40.3493 50.744 39.7133 50.276 39.2093 49.772L38.6693 50.492C39.2573 51.08 40.0973 51.656 41.4653 51.656ZM48.3256 51.656C49.9936 51.656 51.0616 50.132 51.0616 47.072C51.0616 44.024 49.9936 42.536 48.3256 42.536C46.6456 42.536 45.5776 44.012 45.5776 47.072C45.5776 50.132 46.6456 51.656 48.3256 51.656ZM48.3256 50.78C47.3176 50.78 46.6456 49.664 46.6456 47.072C46.6456 44.504 47.3176 43.424 48.3256 43.424C49.3216 43.424 49.9936 44.504 49.9936 47.072C49.9936 49.664 49.3216 50.78 48.3256 50.78Z" fill="white" fill-opacity="0.6"/>
<path d="M76.5427 34H77.6827C77.8147 30.556 78.1987 28.516 80.2627 25.864V25.204H74.7547V26.14H79.0147C77.2987 28.54 76.6867 30.664 76.5427 34ZM83.9549 34.156C85.4429 34.156 86.8349 33.064 86.8349 31.132C86.8349 29.2 85.6469 28.336 84.1829 28.336C83.6549 28.336 83.2589 28.468 82.8749 28.684L83.0909 26.14H86.4149V25.204H82.1309L81.8549 29.32L82.4429 29.68C82.9469 29.344 83.3189 29.164 83.9069 29.164C85.0109 29.164 85.7309 29.908 85.7309 31.168C85.7309 32.452 84.8909 33.244 83.8589 33.244C82.8389 33.244 82.2029 32.776 81.6989 32.272L81.1589 32.992C81.7469 33.58 82.5869 34.156 83.9549 34.156Z" fill="white" fill-opacity="0.6"/>
<path d="M110.223 51.5H115.047V50.588H113.283V42.704H112.443C111.963 42.98 111.399 43.184 110.619 43.328V44.024H112.179V50.588H110.223V51.5ZM119.159 51.656C120.827 51.656 121.895 50.132 121.895 47.072C121.895 44.024 120.827 42.536 119.159 42.536C117.479 42.536 116.411 44.012 116.411 47.072C116.411 50.132 117.479 51.656 119.159 51.656ZM119.159 50.78C118.151 50.78 117.479 49.664 117.479 47.072C117.479 44.504 118.151 43.424 119.159 43.424C120.155 43.424 120.827 44.504 120.827 47.072C120.827 49.664 120.155 50.78 119.159 50.78ZM125.815 51.656C127.483 51.656 128.551 50.132 128.551 47.072C128.551 44.024 127.483 42.536 125.815 42.536C124.135 42.536 123.067 44.012 123.067 47.072C123.067 50.132 124.135 51.656 125.815 51.656ZM125.815 50.78C124.807 50.78 124.135 49.664 124.135 47.072C124.135 44.504 124.807 43.424 125.815 43.424C126.811 43.424 127.483 44.504 127.483 47.072C127.483 49.664 126.811 50.78 125.815 50.78Z" fill="white" fill-opacity="0.6"/>
<path d="M122.723 85.667H127.547V84.755H125.783V76.871H124.943C124.463 77.147 123.899 77.351 123.119 77.495V78.191H124.679V84.755H122.723V85.667ZM128.851 85.667H134.383V84.719H131.947C131.503 84.719 130.963 84.767 130.507 84.803C132.571 82.847 133.951 81.059 133.951 79.307C133.951 77.735 132.967 76.703 131.395 76.703C130.279 76.703 129.523 77.219 128.803 77.999L129.439 78.623C129.919 78.047 130.543 77.603 131.263 77.603C132.355 77.603 132.883 78.335 132.883 79.343C132.883 80.855 131.611 82.607 128.851 85.019V85.667ZM138.111 85.823C139.599 85.823 140.991 84.731 140.991 82.799C140.991 80.867 139.803 80.003 138.339 80.003C137.811 80.003 137.415 80.135 137.031 80.351L137.247 77.807H140.571V76.871H136.287L136.011 80.987L136.599 81.347C137.103 81.011 137.475 80.831 138.063 80.831C139.167 80.831 139.887 81.575 139.887 82.835C139.887 84.119 139.047 84.911 138.015 84.911C136.995 84.911 136.359 84.443 135.855 83.939L135.315 84.659C135.903 85.247 136.743 85.823 138.111 85.823Z" fill="white" fill-opacity="0.6"/>
<path d="M108.556 120.667H113.38V119.755H111.616V111.871H110.776C110.296 112.147 109.732 112.351 108.952 112.495V113.191H110.512V119.755H108.556V120.667ZM117.288 120.823C118.776 120.823 120.168 119.731 120.168 117.799C120.168 115.867 118.98 115.003 117.516 115.003C116.988 115.003 116.592 115.135 116.208 115.351L116.424 112.807H119.748V111.871H115.464L115.188 115.987L115.776 116.347C116.28 116.011 116.652 115.831 117.24 115.831C118.344 115.831 119.064 116.575 119.064 117.835C119.064 119.119 118.224 119.911 117.192 119.911C116.172 119.911 115.536 119.443 115.032 118.939L114.492 119.659C115.08 120.247 115.92 120.823 117.288 120.823ZM124.149 120.823C125.817 120.823 126.885 119.299 126.885 116.239C126.885 113.191 125.817 111.703 124.149 111.703C122.469 111.703 121.401 113.179 121.401 116.239C121.401 119.299 122.469 120.823 124.149 120.823ZM124.149 119.947C123.141 119.947 122.469 118.831 122.469 116.239C122.469 113.671 123.141 112.591 124.149 112.591C125.145 112.591 125.817 113.671 125.817 116.239C125.817 118.831 125.145 119.947 124.149 119.947Z" fill="white" fill-opacity="0.6"/>
<mask id="mask0_611_7163" style="mask-type:luminance" maskUnits="userSpaceOnUse" x="13" y="13" width="134" height="115">
<path d="M33.5501 127.821C24.0525 118.595 17.517 106.751 14.7767 93.797C12.0364 80.8432 13.2155 67.3667 18.1637 55.0855C23.1118 42.8043 31.6049 32.2747 42.5603 24.8389C53.5157 17.403 66.4372 13.3978 79.6776 13.3338C92.9179 13.2697 105.878 17.1498 116.904 24.4793C127.931 31.8088 136.526 42.2558 141.592 54.4885C146.659 66.7213 147.969 80.1857 145.354 93.1655C142.739 106.145 136.318 118.052 126.91 127.369L117.528 117.895C125.055 110.442 130.191 100.916 132.283 90.5323C134.375 80.1485 133.327 69.3769 129.274 59.5907C125.221 49.8045 118.345 41.447 109.523 35.5834C100.702 29.7198 90.3344 26.6157 79.742 26.667C69.1497 26.7182 58.8126 29.9224 50.0483 35.871C41.2839 41.8197 34.4895 50.2434 30.531 60.0683C26.5724 69.8933 25.6291 80.6745 27.8214 91.0376C30.0136 101.401 35.242 110.876 42.8401 118.257L33.5501 127.821Z" fill="white"/>
</mask>
<g mask="url(#mask0_611_7163)">
<circle opacity="0.6" cx="80" cy="79.9997" r="64.6667" stroke="white" stroke-opacity="0.6" stroke-width="4" stroke-dasharray="1 6"/>
<circle cx="80" cy="79.9997" r="62.6667" stroke="white" stroke-opacity="0.6" stroke-width="8" stroke-dasharray="2 57"/>
</g>
<path d="M45.8716 151V133.912H43.4236L40.0876 136.792V139.504L43.4236 136.576V151H45.8716ZM61.4764 146.248V138.664C61.4764 135.616 59.2444 133.768 56.5324 133.768C53.8204 133.768 51.6124 135.616 51.6124 138.664V146.248C51.6124 149.296 53.8204 151.144 56.5324 151.144C59.2444 151.144 61.4764 149.296 61.4764 146.248ZM59.0284 146.176C59.0284 147.832 58.0924 148.96 56.5324 148.96C54.9724 148.96 54.0604 147.832 54.0604 146.176V138.736C54.0604 137.08 54.9724 135.952 56.5324 135.952C58.0924 135.952 59.0284 137.08 59.0284 138.736V146.176ZM74.2733 146.248V138.664C74.2733 135.616 72.0413 133.768 69.3293 133.768C66.6173 133.768 64.4093 135.616 64.4093 138.664V146.248C64.4093 149.296 66.6173 151.144 69.3293 151.144C72.0413 151.144 74.2733 149.296 74.2733 146.248ZM71.8253 146.176C71.8253 147.832 70.8893 148.96 69.3293 148.96C67.7693 148.96 66.8573 147.832 66.8573 146.176V138.736C66.8573 137.08 67.7693 135.952 69.3293 135.952C70.8893 135.952 71.8253 137.08 71.8253 138.736V146.176ZM100.732 151V143.224C100.732 141.856 100.372 140.704 99.4358 139.792C98.7158 139.096 97.6118 138.688 96.3638 138.688C94.7558 138.688 93.5318 139.264 92.5478 140.464C91.7798 139.288 90.6038 138.688 89.0918 138.688C87.8678 138.688 86.6678 139.168 85.8518 140.056V138.832H83.4518V151H85.8998V143.584C85.8998 141.712 87.0518 140.872 88.4198 140.872C89.7878 140.872 90.8678 141.688 90.8678 143.584V151H93.3158V143.464C93.3158 141.712 94.5158 140.872 95.8358 140.872C97.2038 140.872 98.2838 141.688 98.2838 143.584V151H100.732ZM111.747 132.136H109.395L102.555 152.776H104.907L111.747 132.136ZM122.616 147.28C122.616 145.12 121.272 144.04 118.992 143.848L117.072 143.68C115.776 143.56 115.392 143.008 115.392 142.288C115.392 141.376 116.136 140.728 117.6 140.728C118.752 140.728 119.832 140.968 120.6 141.616L122.136 140.056C121.008 139.072 119.448 138.688 117.624 138.688C115.08 138.688 113.04 140.032 113.04 142.408C113.04 144.544 114.36 145.576 116.64 145.768L118.584 145.936C119.76 146.032 120.216 146.56 120.216 147.376C120.216 148.528 119.04 149.056 117.552 149.056C116.352 149.056 115.032 148.792 114.048 147.784L112.44 149.392C113.88 150.808 115.56 151.144 117.552 151.144C120.456 151.144 122.616 149.824 122.616 147.28Z" fill="white"/>
<path d="M71.891 87.1087L105.789 53.2109L76.2574 77.7521L71.891 87.1087Z" fill="#FF903E"/>
<path d="M71.891 87.1087L105.789 53.2109L81.2476 82.7423L71.891 87.1087Z" fill="#FF903E"/>
<g filter="url(#filter0_d_611_7163)">
<circle cx="80" cy="79.8818" r="5.29289" fill="white"/>
</g>
<defs>
<filter id="filter0_d_611_7163" x="66.7071" y="66.5889" width="26.5858" height="26.5859" filterUnits="userSpaceOnUse" color-interpolation-filters="sRGB">
<feFlood flood-opacity="0" result="BackgroundImageFix"/>
<feColorMatrix in="SourceAlpha" type="matrix" values="0 0 0 0 0 0 0 0 0 0 0 0 0 0 0 0 0 0 127 0" result="hardAlpha"/>
<feOffset/>
<feGaussianBlur stdDeviation="4"/>
<feComposite in2="hardAlpha" operator="out"/>
<feColorMatrix type="matrix" values="0 0 0 0 0 0 0 0 0 0 0 0 0 0 0 0 0 0 0.4 0"/>
<feBlend mode="normal" in2="BackgroundImageFix" result="effect1_dropShadow_611_7163"/>
<feBlend mode="normal" in="SourceGraphic" in2="effect1_dropShadow_611_7163" result="shape"/>
</filter>
<radialGradient id="paint0_angular_611_7163" cx="0" cy="0" r="1" gradientUnits="userSpaceOnUse" gradientTransform="translate(80 80) rotate(-45) scale(81.3173)">
<stop offset="0.5" stop-color="#FF903E" stop-opacity="0.2"/>
<stop offset="1" stop-color="#FF903E"/>
</radialGradient>
</defs>
</svg>
