<svg width="150" height="150" viewBox="0 0 150 150" fill="none" xmlns="http://www.w3.org/2000/svg">
<path opacity="0.2" d="M150 75C150 116.421 116.421 150 75 150C33.5786 150 0 116.421 0 75C0 33.5786 33.5786 0 75 0C116.421 0 150 33.5786 150 75ZM9.75 75C9.75 111.037 38.9634 140.25 75 140.25C111.037 140.25 140.25 111.037 140.25 75C140.25 38.9634 111.037 9.75 75 9.75C38.9634 9.75 9.75 38.9634 9.75 75Z" fill="black"/>
<mask id="path-2-inside-1_611_7139" fill="white">
<path d="M145.125 75C147.817 75 150.017 77.1851 149.842 79.8718C148.923 93.9852 144.028 107.588 135.676 119.084C127.324 130.58 115.899 139.438 102.761 144.673C100.26 145.67 97.5018 144.253 96.6698 141.693C95.8378 139.132 97.248 136.399 99.7394 135.378C110.923 130.796 120.647 123.182 127.788 113.353C134.93 103.524 139.166 91.9231 140.068 79.8707C140.269 77.1858 142.433 75 145.125 75Z"/>
</mask>
<path d="M145.125 75C147.817 75 150.017 77.1851 149.842 79.8718C148.923 93.9852 144.028 107.588 135.676 119.084C127.324 130.58 115.899 139.438 102.761 144.673C100.26 145.67 97.5018 144.253 96.6698 141.693C95.8378 139.132 97.248 136.399 99.7394 135.378C110.923 130.796 120.647 123.182 127.788 113.353C134.93 103.524 139.166 91.9231 140.068 79.8707C140.269 77.1858 142.433 75 145.125 75Z" stroke="url(#paint0_linear_611_7139)" stroke-width="32" stroke-linecap="round" mask="url(#path-2-inside-1_611_7139)"/>
<mask id="path-3-inside-2_611_7139" fill="white">
<path d="M94.485 142.364C95.2331 144.95 93.7453 147.67 91.1158 148.248C81.9514 150.264 72.4751 150.546 63.1803 149.063C53.8855 147.579 44.9676 144.362 36.886 139.594C34.5672 138.225 33.9998 135.178 35.5157 132.953C37.0317 130.728 40.0562 130.17 42.3882 131.516C49.2737 135.489 56.8397 138.177 64.7169 139.435C72.594 140.692 80.621 140.492 88.4011 138.859C91.0361 138.306 93.7369 139.777 94.485 142.364Z"/>
</mask>
<path d="M94.485 142.364C95.2331 144.95 93.7453 147.67 91.1158 148.248C81.9514 150.264 72.4751 150.546 63.1803 149.063C53.8855 147.579 44.9676 144.362 36.886 139.594C34.5672 138.225 33.9998 135.178 35.5157 132.953C37.0317 130.728 40.0562 130.17 42.3882 131.516C49.2737 135.489 56.8397 138.177 64.7169 139.435C72.594 140.692 80.621 140.492 88.4011 138.859C91.0361 138.306 93.7369 139.777 94.485 142.364Z" stroke="url(#paint1_linear_611_7139)" stroke-width="32" stroke-linecap="round" mask="url(#path-3-inside-2_611_7139)"/>
<mask id="path-4-inside-3_611_7139" fill="white">
<path d="M34.3275 132.125C32.766 134.318 29.7106 134.842 27.6234 133.142C20.349 127.214 14.2399 119.964 9.62654 111.76C5.01317 103.556 1.99253 94.5695 0.707075 85.2744C0.338245 82.6074 2.37349 80.269 5.05882 80.0742C7.74415 79.8794 10.0603 81.9028 10.455 84.5661C11.6205 92.4297 14.2153 100.028 18.1251 106.981C22.0348 113.934 27.1794 120.099 33.293 125.181C35.3636 126.901 35.8891 129.932 34.3275 132.125Z"/>
</mask>
<path d="M34.3275 132.125C32.766 134.318 29.7106 134.842 27.6234 133.142C20.349 127.214 14.2399 119.964 9.62654 111.76C5.01317 103.556 1.99253 94.5695 0.707075 85.2744C0.338245 82.6074 2.37349 80.269 5.05882 80.0742C7.74415 79.8794 10.0603 81.9028 10.455 84.5661C11.6205 92.4297 14.2153 100.028 18.1251 106.981C22.0348 113.934 27.1794 120.099 33.293 125.181C35.3636 126.901 35.8891 129.932 34.3275 132.125Z" stroke="url(#paint2_linear_611_7139)" stroke-width="32" stroke-linecap="round" mask="url(#path-4-inside-3_611_7139)"/>
<mask id="path-5-inside-4_611_7139" fill="white">
<path d="M4.9668 78.587C2.27794 78.7247 -0.0300645 76.6551 0.00715926 73.9629C0.146019 63.9202 2.30114 53.9901 6.363 44.7682C10.4249 35.5463 16.2964 27.2531 23.612 20.3715C25.5731 18.5267 28.658 18.8324 30.3715 20.9092C32.085 22.986 31.7761 26.0459 29.833 27.9096C23.6817 33.8096 18.7342 40.8693 15.2858 48.6983C11.8374 56.5274 9.96868 64.9431 9.76807 73.4641C9.7047 76.1558 7.65566 78.4493 4.9668 78.587Z"/>
</mask>
<path d="M4.9668 78.587C2.27794 78.7247 -0.0300645 76.6551 0.00715926 73.9629C0.146019 63.9202 2.30114 53.9901 6.363 44.7682C10.4249 35.5463 16.2964 27.2531 23.612 20.3715C25.5731 18.5267 28.658 18.8324 30.3715 20.9092C32.085 22.986 31.7761 26.0459 29.833 27.9096C23.6817 33.8096 18.7342 40.8693 15.2858 48.6983C11.8374 56.5274 9.96868 64.9431 9.76807 73.4641C9.7047 76.1558 7.65566 78.4493 4.9668 78.587Z" stroke="url(#paint3_linear_611_7139)" stroke-width="32" stroke-linecap="round" mask="url(#path-5-inside-4_611_7139)"/>
<mask id="path-6-inside-5_611_7139" fill="white">
<path d="M31.8038 19.7587C30.1453 17.6377 30.512 14.5594 32.7362 13.0422C42.8608 6.13566 54.5466 1.80107 66.7779 0.45205C80.6278 -1.0755 94.6295 1.28543 107.213 7.27008C119.796 13.2547 130.463 22.6265 138.018 34.3344C144.69 44.6739 148.702 56.4744 149.734 68.6869C149.96 71.3697 147.804 73.5967 145.112 73.6486C142.42 73.7005 140.215 71.5569 139.962 68.8764C138.982 58.4763 135.516 48.438 129.826 39.6209C123.253 29.435 113.972 21.2816 103.025 16.075C92.0776 10.8683 79.8962 8.81431 67.8468 10.1433C57.4165 11.2937 47.4421 14.9396 38.7557 20.7421C36.5169 22.2376 33.4623 21.8796 31.8038 19.7587Z"/>
</mask>
<path d="M31.8038 19.7587C30.1453 17.6377 30.512 14.5594 32.7362 13.0422C42.8608 6.13566 54.5466 1.80107 66.7779 0.45205C80.6278 -1.0755 94.6295 1.28543 107.213 7.27008C119.796 13.2547 130.463 22.6265 138.018 34.3344C144.69 44.6739 148.702 56.4744 149.734 68.6869C149.96 71.3697 147.804 73.5967 145.112 73.6486C142.42 73.7005 140.215 71.5569 139.962 68.8764C138.982 58.4763 135.516 48.438 129.826 39.6209C123.253 29.435 113.972 21.2816 103.025 16.075C92.0776 10.8683 79.8962 8.81431 67.8468 10.1433C57.4165 11.2937 47.4421 14.9396 38.7557 20.7421C36.5169 22.2376 33.4623 21.8796 31.8038 19.7587Z" stroke="url(#paint4_linear_611_7139)" stroke-width="32" stroke-linecap="round" mask="url(#path-6-inside-5_611_7139)"/>
<path d="M45.4891 98.3789L48.868 98.0664C49.1544 99.6549 49.7013 100.807 50.5086 101.523C51.3159 102.24 52.351 102.598 53.6141 102.598C54.6948 102.598 55.6388 102.35 56.4461 101.855C57.2664 101.361 57.937 100.703 58.4578 99.8828C58.9786 99.0495 59.4148 97.9297 59.7664 96.5234C60.118 95.1172 60.2938 93.6849 60.2938 92.2266C60.2938 92.0703 60.2872 91.8359 60.2742 91.5234C59.5711 92.6432 58.6076 93.5547 57.3836 94.2578C56.1727 94.9479 54.8576 95.293 53.4383 95.293C51.0685 95.293 49.0633 94.4336 47.4227 92.7148C45.782 90.9961 44.9617 88.7305 44.9617 85.918C44.9617 83.0143 45.8146 80.6771 47.5203 78.9062C49.2391 77.1354 51.3875 76.25 53.9656 76.25C55.8276 76.25 57.5268 76.7513 59.0633 77.7539C60.6128 78.7565 61.7846 80.1888 62.5789 82.0508C63.3862 83.8997 63.7898 86.582 63.7898 90.0977C63.7898 93.7565 63.3927 96.6732 62.5984 98.8477C61.8042 101.009 60.6193 102.656 59.0438 103.789C57.4813 104.922 55.6453 105.488 53.5359 105.488C51.2964 105.488 49.4669 104.87 48.0477 103.633C46.6284 102.383 45.7755 100.632 45.4891 98.3789ZM59.8836 85.7422C59.8836 83.724 59.3432 82.1224 58.2625 80.9375C57.1948 79.7526 55.9057 79.1602 54.3953 79.1602C52.8328 79.1602 51.4721 79.7982 50.3133 81.0742C49.1544 82.3503 48.575 84.0039 48.575 86.0352C48.575 87.8581 49.1219 89.3424 50.2156 90.4883C51.3224 91.6211 52.6831 92.1875 54.2977 92.1875C55.9253 92.1875 57.2599 91.6211 58.3016 90.4883C59.3563 89.3424 59.8836 87.7604 59.8836 85.7422ZM66.6617 80.1172V76.7383H85.1969V79.4727C83.374 81.4128 81.5641 83.9909 79.7672 87.207C77.9833 90.4232 76.6031 93.7305 75.6266 97.1289C74.9234 99.5247 74.4742 102.148 74.2789 105H70.6656C70.7047 102.747 71.1474 100.026 71.9938 96.8359C72.8401 93.6458 74.051 90.5729 75.6266 87.6172C77.2151 84.6484 78.9013 82.1484 80.6852 80.1172H66.6617ZM87.893 97.5L91.5844 97.1875C91.8578 98.9844 92.4893 100.339 93.4789 101.25C94.4815 102.148 95.6859 102.598 97.0922 102.598C98.7849 102.598 100.217 101.96 101.389 100.684C102.561 99.4076 103.147 97.7148 103.147 95.6055C103.147 93.6003 102.58 92.0182 101.448 90.8594C100.328 89.7005 98.8565 89.1211 97.0336 89.1211C95.9008 89.1211 94.8786 89.3815 93.9672 89.9023C93.0557 90.4102 92.3396 91.0742 91.8188 91.8945L88.518 91.4648L91.2914 76.7578H105.53V80.1172H94.1039L92.5609 87.8125C94.2797 86.6146 96.0831 86.0156 97.9711 86.0156C100.471 86.0156 102.58 86.8815 104.299 88.6133C106.018 90.3451 106.877 92.5716 106.877 95.293C106.877 97.8841 106.122 100.124 104.612 102.012C102.776 104.329 100.269 105.488 97.0922 105.488C94.488 105.488 92.3591 104.759 90.7055 103.301C89.0648 101.842 88.1273 99.9089 87.893 97.5Z" fill="white"/>
<path d="M55.7046 65V52.5107H51.2441V49.9678H63.1899V52.5107H58.7397V65H55.7046ZM62.9131 59.4014C62.9131 58.4443 63.1489 57.5181 63.6206 56.6226C64.0923 55.7271 64.7588 55.0435 65.6201 54.5718C66.4883 54.1001 67.4556 53.8643 68.522 53.8643C70.1694 53.8643 71.5195 54.4009 72.5723 55.4741C73.625 56.5405 74.1514 57.8906 74.1514 59.5244C74.1514 61.1719 73.6182 62.5391 72.5518 63.626C71.4922 64.7061 70.1558 65.2461 68.5425 65.2461C67.5444 65.2461 66.5908 65.0205 65.6816 64.5693C64.7793 64.1182 64.0923 63.4585 63.6206 62.5903C63.1489 61.7153 62.9131 60.6523 62.9131 59.4014ZM65.8662 59.5552C65.8662 60.6353 66.1226 61.4624 66.6353 62.0366C67.1479 62.6108 67.7803 62.8979 68.5322 62.8979C69.2842 62.8979 69.9131 62.6108 70.4189 62.0366C70.9316 61.4624 71.188 60.6284 71.188 59.5347C71.188 58.4683 70.9316 57.6479 70.4189 57.0737C69.9131 56.4995 69.2842 56.2124 68.5322 56.2124C67.7803 56.2124 67.1479 56.4995 66.6353 57.0737C66.1226 57.6479 65.8662 58.4751 65.8662 59.5552ZM81.4111 54.1104V56.4072H79.4424V60.7959C79.4424 61.6846 79.4595 62.2041 79.4937 62.3545C79.5347 62.498 79.6201 62.6177 79.75 62.7134C79.8867 62.8091 80.0508 62.8569 80.2422 62.8569C80.5088 62.8569 80.895 62.7646 81.4009 62.5801L81.647 64.8154C80.9771 65.1025 80.2183 65.2461 79.3706 65.2461C78.8511 65.2461 78.3828 65.1606 77.9658 64.9897C77.5488 64.812 77.2412 64.5864 77.043 64.313C76.8516 64.0327 76.7183 63.6567 76.6431 63.1851C76.5815 62.8501 76.5508 62.1733 76.5508 61.1548V56.4072H75.228V54.1104H76.5508V51.9468L79.4424 50.2651V54.1104H81.4111ZM85.564 57.4326L82.9492 56.9609C83.2432 55.9082 83.749 55.1289 84.4668 54.623C85.1846 54.1172 86.251 53.8643 87.666 53.8643C88.9512 53.8643 89.9082 54.0181 90.5371 54.3257C91.166 54.6265 91.6069 55.0127 91.8599 55.4844C92.1196 55.9492 92.2495 56.8071 92.2495 58.0581L92.2188 61.4214C92.2188 62.3784 92.2632 63.0859 92.3521 63.5439C92.4478 63.9951 92.6221 64.4805 92.875 65H90.0244C89.9492 64.8086 89.8569 64.5249 89.7476 64.1489C89.6997 63.978 89.6655 63.8652 89.645 63.8105C89.1528 64.2891 88.6265 64.6479 88.0659 64.8872C87.5054 65.1265 86.9072 65.2461 86.2715 65.2461C85.1504 65.2461 84.2651 64.9419 83.6157 64.3335C82.9731 63.7251 82.6519 62.9561 82.6519 62.0264C82.6519 61.4111 82.7988 60.8643 83.0928 60.3857C83.3867 59.9004 83.7969 59.5312 84.3232 59.2783C84.8564 59.0186 85.6221 58.793 86.6201 58.6016C87.9668 58.3486 88.8999 58.1128 89.4194 57.894V57.6069C89.4194 57.0532 89.2827 56.6602 89.0093 56.4277C88.7358 56.1885 88.2197 56.0688 87.4609 56.0688C86.9482 56.0688 86.5483 56.1714 86.2612 56.3765C85.9741 56.5747 85.7417 56.9268 85.564 57.4326ZM89.4194 59.7705C89.0503 59.8936 88.4658 60.0405 87.666 60.2114C86.8662 60.3823 86.3433 60.5498 86.0972 60.7139C85.7212 60.9805 85.5332 61.3188 85.5332 61.729C85.5332 62.1323 85.6836 62.481 85.9844 62.7749C86.2852 63.0688 86.668 63.2158 87.1328 63.2158C87.6523 63.2158 88.1479 63.0449 88.6196 62.7031C88.9683 62.4434 89.1973 62.1255 89.3066 61.7495C89.3818 61.5034 89.4194 61.0352 89.4194 60.3447V59.7705ZM95.1001 65V49.9678H97.9814V65H95.1001Z" fill="white"/>
<defs>
<linearGradient id="paint0_linear_611_7139" x1="127.717" y1="20.1087" x2="25.2717" y2="130.707" gradientUnits="userSpaceOnUse">
<stop stop-color="#EF9D00"/>
<stop offset="1" stop-color="#FFEE32"/>
</linearGradient>
<linearGradient id="paint1_linear_611_7139" x1="127.717" y1="20.1087" x2="25.2717" y2="130.707" gradientUnits="userSpaceOnUse">
<stop stop-color="#FF0F3C"/>
<stop offset="1" stop-color="#FF5878"/>
</linearGradient>
<linearGradient id="paint2_linear_611_7139" x1="130" y1="16.5625" x2="89.6808" y2="153.457" gradientUnits="userSpaceOnUse">
<stop stop-color="#0098EF"/>
<stop offset="0.968018" stop-color="#BCEBFF"/>
</linearGradient>
<linearGradient id="paint3_linear_611_7139" x1="127.717" y1="20.1087" x2="25.2717" y2="130.707" gradientUnits="userSpaceOnUse">
<stop stop-color="#58B90A"/>
<stop offset="1" stop-color="#A5FF32"/>
</linearGradient>
<linearGradient id="paint4_linear_611_7139" x1="127.717" y1="20.1087" x2="25.2717" y2="130.707" gradientUnits="userSpaceOnUse">
<stop stop-color="#AA00E5"/>
<stop offset="1" stop-color="#E961FF"/>
</linearGradient>
</defs>
</svg>
