<svg width="153" height="156" viewBox="0 0 153 156" fill="none" xmlns="http://www.w3.org/2000/svg">
<circle opacity="0.4" cx="78" cy="81" r="74" stroke="#ADE1FF" stroke-width="2"/>
<circle cx="78" cy="81" r="71.25" fill="white" fill-opacity="0.04"/>
<circle cx="78" cy="81" r="70.25" stroke="white" stroke-opacity="0.1" stroke-width="2"/>
<mask id="mask0_611_6954" style="mask-type:alpha" maskUnits="userSpaceOnUse" x="3" y="6" width="150" height="150">
<circle cx="78" cy="81" r="75" fill="white"/>
</mask>
<g mask="url(#mask0_611_6954)">
<g opacity="0.6">
<path d="M48.342 17.5106C84.7924 32.8582 125.892 32.8582 162.342 17.5106V30H-65.658V17.5106C-29.2076 2.16312 11.8917 2.16312 48.342 17.5106Z" fill="url(#paint0_linear_611_6954)"/>
<rect x="-65.658" y="30" width="228" height="126" fill="url(#paint1_linear_611_6954)"/>
</g>
<path d="M48.342 29.5106C11.8917 44.8582 -29.2076 44.8582 -65.658 29.5106V42H162.342V29.5106C125.892 14.1631 84.7924 14.1631 48.342 29.5106Z" fill="url(#paint2_linear_611_6954)"/>
<rect width="228" height="114" transform="matrix(-1 0 0 1 162.342 42)" fill="url(#paint3_linear_611_6954)"/>
</g>
<path d="M40.1855 70.8C40.1855 65.52 36.6655 62.28 31.7455 62.28C26.8255 62.28 23.3455 65.72 23.3455 70.96C23.3455 75.96 26.6655 79.2 30.7855 79.2C31.6655 79.2 32.5855 79.08 33.3455 78.76L27.2255 91H31.5855L38.0655 77.8C39.3055 75.32 40.1855 73.12 40.1855 70.8ZM36.1055 70.88C36.1055 73.96 34.3055 75.8 31.7455 75.8C29.0255 75.8 27.4255 73.68 27.4255 70.88C27.4255 67.84 29.1855 65.92 31.7455 65.92C34.3055 65.92 36.1055 67.84 36.1055 70.88ZM61.5136 91V87.36H49.9136L58.8336 76.44C60.5936 74.28 61.5136 72.8 61.5136 70.28C61.5136 65.36 58.1536 62.28 53.2736 62.28C48.4336 62.28 44.9936 65.48 44.9936 70.32H49.0736C49.0736 67.12 51.1136 65.92 53.2736 65.92C55.9136 65.92 57.4336 67.68 57.4336 70.24C57.4336 71.68 56.9936 72.72 55.9136 74.04L44.9536 87.36V91H61.5136ZM71.7617 91V86.12H66.8817V91H71.7617ZM89.0945 91V62.52H85.0145L79.4545 67.32V71.84L85.0145 66.96V91H89.0945ZM127.583 85.8V81.76C127.583 78.32 125.103 76.28 121.983 76.28C118.863 76.28 116.383 78.32 116.383 81.76V85.8C116.383 89.24 118.863 91.28 121.983 91.28C125.103 91.28 127.583 89.24 127.583 85.8ZM121.383 62.52H118.143L104.703 91H107.983L121.383 62.52ZM109.743 71.76V67.72C109.743 64.28 107.263 62.24 104.143 62.24C101.023 62.24 98.5427 64.28 98.5427 67.72V71.76C98.5427 75.2 101.023 77.2 104.143 77.2C107.263 77.2 109.743 75.2 109.743 71.76ZM124.503 85.68C124.503 87.48 123.703 88.56 121.983 88.56C120.263 88.56 119.463 87.52 119.463 85.68V81.88C119.463 80.04 120.263 79 121.983 79C123.703 79 124.503 80.08 124.503 81.88V85.68ZM106.663 71.64C106.663 73.44 105.863 74.48 104.143 74.48C102.423 74.48 101.623 73.48 101.623 71.64V67.84C101.623 66 102.423 64.96 104.143 64.96C105.863 64.96 106.663 66.04 106.663 67.84V71.64Z" fill="white"/>
<path d="M33.3455 78.76L35.1343 79.6544C35.5086 78.9058 35.3772 78.0033 34.805 77.3926C34.2327 76.7818 33.3407 76.5919 32.5694 76.9167L33.3455 78.76ZM27.2255 91L25.4366 90.1056C25.1266 90.7255 25.1598 91.4618 25.5242 92.0515C25.8886 92.6411 26.5323 93 27.2255 93V91ZM31.5855 91V93C32.3483 93 33.0447 92.5661 33.3808 91.8813L31.5855 91ZM38.0655 77.8L36.2766 76.9056C36.2744 76.9099 36.2723 76.9143 36.2701 76.9187L38.0655 77.8ZM42.1855 70.8C42.1855 67.7013 41.1421 65.031 39.2127 63.1339C37.2898 61.2432 34.6494 60.28 31.7455 60.28V64.28C33.7615 64.28 35.3411 64.9368 36.4082 65.9861C37.4689 67.029 38.1855 68.6187 38.1855 70.8H42.1855ZM31.7455 60.28C28.8062 60.28 26.1722 61.3166 24.2722 63.255C22.3736 65.1919 21.3455 67.8879 21.3455 70.96H25.3455C25.3455 68.7921 26.0573 67.1481 27.1288 66.055C28.1988 64.9634 29.7647 64.28 31.7455 64.28V60.28ZM21.3455 70.96C21.3455 76.9406 25.4408 81.2 30.7855 81.2V77.2C27.8901 77.2 25.3455 74.9794 25.3455 70.96H21.3455ZM30.7855 81.2C31.8134 81.2 33.0262 81.0645 34.1216 80.6033L32.5694 76.9167C32.1448 77.0955 31.5175 77.2 30.7855 77.2V81.2ZM31.5566 77.8656L25.4366 90.1056L29.0143 91.8944L35.1343 79.6544L31.5566 77.8656ZM27.2255 93H31.5855V89H27.2255V93ZM33.3808 91.8813L39.8608 78.6813L36.2701 76.9187L29.7901 90.1187L33.3808 91.8813ZM39.8543 78.6944C41.1131 76.1769 42.1855 73.6184 42.1855 70.8H38.1855C38.1855 72.6216 37.4979 74.4631 36.2766 76.9056L39.8543 78.6944ZM34.1055 70.88C34.1055 72.0343 33.7727 72.7468 33.4072 73.1479C33.0557 73.5337 32.5243 73.8 31.7455 73.8V77.8C33.5267 77.8 35.1753 77.1463 36.3638 75.8421C37.5382 74.5532 38.1055 72.8057 38.1055 70.88H34.1055ZM31.7455 73.8C30.9508 73.8 30.4403 73.512 30.0962 73.1028C29.7209 72.6565 29.4255 71.9146 29.4255 70.88H25.4255C25.4255 72.6454 25.93 74.3635 27.0347 75.6772C28.1706 77.028 29.8202 77.8 31.7455 77.8V73.8ZM29.4255 70.88C29.4255 69.739 29.7526 69.0048 30.1241 68.5844C30.4766 68.1855 30.9953 67.92 31.7455 67.92V63.92C29.9356 63.92 28.2943 64.6145 27.1268 65.9356C25.9783 67.2352 25.4255 68.981 25.4255 70.88H29.4255ZM31.7455 67.92C32.4981 67.92 33.0316 68.1877 33.3954 68.5941C33.775 69.018 34.1055 69.7505 34.1055 70.88H38.1055C38.1055 68.9695 37.536 67.222 36.3755 65.9259C35.1993 64.6123 33.5528 63.92 31.7455 63.92V67.92ZM61.5136 91V93C62.6182 93 63.5136 92.1046 63.5136 91H61.5136ZM61.5136 87.36H63.5136C63.5136 86.2554 62.6182 85.36 61.5136 85.36V87.36ZM49.9136 87.36L48.3647 86.0948C47.876 86.693 47.7755 87.5192 48.1066 88.2172C48.4377 88.9151 49.1411 89.36 49.9136 89.36V87.36ZM58.8336 76.44L60.3825 77.7052L60.3841 77.7033L58.8336 76.44ZM44.9936 70.32H42.9936C42.9936 71.4246 43.889 72.32 44.9936 72.32V70.32ZM49.0736 70.32V72.32C50.1782 72.32 51.0736 71.4246 51.0736 70.32H49.0736ZM55.9136 74.04L57.458 75.3108L57.4615 75.3065L55.9136 74.04ZM44.9536 87.36L43.4092 86.0892C43.1146 86.4472 42.9536 86.8964 42.9536 87.36H44.9536ZM44.9536 91H42.9536C42.9536 92.1046 43.849 93 44.9536 93V91ZM63.5136 91V87.36H59.5136V91H63.5136ZM61.5136 85.36H49.9136V89.36H61.5136V85.36ZM51.4625 88.6252L60.3825 77.7052L57.2847 75.1748L48.3647 86.0948L51.4625 88.6252ZM60.3841 77.7033C62.2347 75.4322 63.5136 73.5001 63.5136 70.28H59.5136C59.5136 72.0999 58.9525 73.1278 57.2831 75.1767L60.3841 77.7033ZM63.5136 70.28C63.5136 67.3469 62.5001 64.7988 60.605 62.9887C58.7208 61.189 56.1353 60.28 53.2736 60.28V64.28C55.2919 64.28 56.8264 64.911 57.8422 65.8813C58.8471 66.8412 59.5136 68.2931 59.5136 70.28H63.5136ZM53.2736 60.28C50.4085 60.28 47.8198 61.2332 45.9342 63.0415C44.0401 64.8581 42.9936 67.4068 42.9936 70.32H46.9936C46.9936 68.3932 47.6671 66.9219 48.7029 65.9285C49.7473 64.9268 51.2987 64.28 53.2736 64.28V60.28ZM44.9936 72.32H49.0736V68.32H44.9936V72.32ZM51.0736 70.32C51.0736 69.1685 51.4235 68.6561 51.6994 68.4085C52.0159 68.1244 52.5395 67.92 53.2736 67.92V63.92C51.8477 63.92 50.2713 64.3156 49.0278 65.4315C47.7437 66.5839 47.0736 68.2715 47.0736 70.32H51.0736ZM53.2736 67.92C54.1299 67.92 54.6079 68.1918 54.8821 68.4853C55.1735 68.7972 55.4336 69.3495 55.4336 70.24H59.4336C59.4336 68.5705 58.9337 66.9628 57.8051 65.7547C56.6593 64.5282 55.0573 63.92 53.2736 63.92V67.92ZM55.4336 70.24C55.4336 71.1066 55.2329 71.7136 54.3657 72.7735L57.4615 75.3065C58.7543 73.7264 59.4336 72.2533 59.4336 70.24H55.4336ZM54.3692 72.7692L43.4092 86.0892L46.498 88.6308L57.458 75.3108L54.3692 72.7692ZM42.9536 87.36V91H46.9536V87.36H42.9536ZM44.9536 93H61.5136V89H44.9536V93ZM71.7617 91V93C72.8663 93 73.7617 92.1046 73.7617 91H71.7617ZM71.7617 86.12H73.7617C73.7617 85.0154 72.8663 84.12 71.7617 84.12V86.12ZM66.8817 86.12V84.12C65.7771 84.12 64.8817 85.0154 64.8817 86.12H66.8817ZM66.8817 91H64.8817C64.8817 92.1046 65.7771 93 66.8817 93V91ZM73.7617 91V86.12H69.7617V91H73.7617ZM71.7617 84.12H66.8817V88.12H71.7617V84.12ZM64.8817 86.12V91H68.8817V86.12H64.8817ZM66.8817 93H71.7617V89H66.8817V93ZM89.0945 91V93C90.1991 93 91.0945 92.1046 91.0945 91H89.0945ZM89.0945 62.52H91.0945C91.0945 61.4154 90.1991 60.52 89.0945 60.52V62.52ZM85.0145 62.52V60.52C84.5347 60.52 84.0708 60.6925 83.7076 61.0061L85.0145 62.52ZM79.4545 67.32L78.1476 65.8061C77.7075 66.186 77.4545 66.7386 77.4545 67.32H79.4545ZM79.4545 71.84H77.4545C77.4545 72.6253 77.9141 73.3379 78.6295 73.6619C79.3449 73.9858 80.1836 73.8612 80.7738 73.3431L79.4545 71.84ZM85.0145 66.96H87.0145C87.0145 66.1747 86.5549 65.4621 85.8396 65.1381C85.1242 64.8141 84.2854 64.9388 83.6952 65.4569L85.0145 66.96ZM85.0145 91H83.0145C83.0145 92.1046 83.91 93 85.0145 93V91ZM91.0945 91V62.52H87.0945V91H91.0945ZM89.0945 60.52H85.0145V64.52H89.0945V60.52ZM83.7076 61.0061L78.1476 65.8061L80.7615 68.8339L86.3215 64.0339L83.7076 61.0061ZM77.4545 67.32V71.84H81.4545V67.32H77.4545ZM80.7738 73.3431L86.3338 68.4631L83.6952 65.4569L78.1352 70.3369L80.7738 73.3431ZM83.0145 66.96V91H87.0145V66.96H83.0145ZM85.0145 93H89.0945V89H85.0145V93ZM121.383 62.52L123.192 63.3715C123.484 62.752 123.438 62.0264 123.071 61.4483C122.704 60.8702 122.067 60.52 121.383 60.52V62.52ZM118.143 62.52V60.52C117.369 60.52 116.664 60.9665 116.334 61.6664L118.143 62.52ZM104.703 91L102.894 90.1465C102.602 90.766 102.647 91.4921 103.013 92.0707C103.38 92.6494 104.018 93 104.703 93V91ZM107.983 91V93C108.757 93 109.463 92.5525 109.792 91.8515L107.983 91ZM129.583 85.8V81.76H125.583V85.8H129.583ZM129.583 81.76C129.583 79.5316 128.765 77.6151 127.315 76.266C125.885 74.9346 123.975 74.28 121.983 74.28V78.28C123.11 78.28 124.001 78.6454 124.59 79.194C125.16 79.7249 125.583 80.5484 125.583 81.76H129.583ZM121.983 74.28C119.99 74.28 118.081 74.9346 116.65 76.266C115.2 77.6151 114.383 79.5316 114.383 81.76H118.383C118.383 80.5484 118.805 79.7249 119.375 79.194C119.965 78.6454 120.855 78.28 121.983 78.28V74.28ZM114.383 81.76V85.8H118.383V81.76H114.383ZM114.383 85.8C114.383 88.0284 115.2 89.9449 116.65 91.294C118.081 92.6254 119.99 93.28 121.983 93.28V89.28C120.855 89.28 119.965 88.9146 119.375 88.366C118.805 87.8351 118.383 87.0116 118.383 85.8H114.383ZM121.983 93.28C123.975 93.28 125.885 92.6254 127.315 91.294C128.765 89.9449 129.583 88.0284 129.583 85.8H125.583C125.583 87.0116 125.16 87.8351 124.59 88.366C124.001 88.9146 123.11 89.28 121.983 89.28V93.28ZM121.383 60.52H118.143V64.52H121.383V60.52ZM116.334 61.6664L102.894 90.1465L106.511 91.8535L119.951 63.3736L116.334 61.6664ZM104.703 93H107.983V89H104.703V93ZM109.792 91.8515L123.192 63.3715L119.573 61.6685L106.173 90.1485L109.792 91.8515ZM111.743 71.76V67.72H107.743V71.76H111.743ZM111.743 67.72C111.743 65.4916 110.925 63.5751 109.475 62.226C108.045 60.8946 106.135 60.24 104.143 60.24V64.24C105.27 64.24 106.161 64.6054 106.75 65.154C107.32 65.6849 107.743 66.5084 107.743 67.72H111.743ZM104.143 60.24C102.15 60.24 100.241 60.8946 98.8101 62.226C97.3604 63.5751 96.5427 65.4916 96.5427 67.72H100.543C100.543 66.5084 100.965 65.6849 101.535 65.154C102.125 64.6054 103.015 64.24 104.143 64.24V60.24ZM96.5427 67.72V71.76H100.543V67.72H96.5427ZM96.5427 71.76C96.5427 73.99 97.3619 75.9006 98.8179 77.2413C100.252 78.5619 102.161 79.2 104.143 79.2V75.2C103.004 75.2 102.113 74.8381 101.527 74.2987C100.963 73.7794 100.543 72.97 100.543 71.76H96.5427ZM104.143 79.2C106.124 79.2 108.033 78.5619 109.467 77.2413C110.923 75.9006 111.743 73.99 111.743 71.76H107.743C107.743 72.97 107.322 73.7794 106.758 74.2987C106.172 74.8381 105.281 75.2 104.143 75.2V79.2ZM122.503 85.68C122.503 85.9873 122.468 86.2001 122.429 86.3368C122.41 86.4033 122.391 86.4471 122.377 86.4735C122.364 86.4993 122.356 86.5094 122.355 86.5101C122.355 86.5103 122.358 86.5073 122.362 86.5044C122.365 86.5017 122.362 86.505 122.346 86.5115C122.313 86.5249 122.206 86.56 121.983 86.56V90.56C123.283 90.56 124.538 90.1327 125.42 89.0799C126.251 88.0893 126.503 86.836 126.503 85.68H122.503ZM121.983 86.56C121.751 86.56 121.638 86.5246 121.604 86.5108C121.58 86.5014 121.592 86.5034 121.604 86.5174C121.615 86.5307 121.463 86.3538 121.463 85.68H117.463C117.463 86.8462 117.71 88.1093 118.551 89.1026C119.445 90.157 120.705 90.56 121.983 90.56V86.56ZM121.463 85.68V81.88H117.463V85.68H121.463ZM121.463 81.88C121.463 81.2062 121.615 81.0293 121.604 81.0426C121.592 81.0566 121.58 81.0586 121.604 81.0492C121.638 81.0354 121.751 81 121.983 81V77C120.705 77 119.445 77.403 118.551 78.4574C117.71 79.4507 117.463 80.7138 117.463 81.88H121.463ZM121.983 81C122.206 81 122.313 81.0351 122.346 81.0485C122.362 81.055 122.365 81.0583 122.362 81.0556C122.358 81.0527 122.355 81.0497 122.355 81.0499C122.356 81.0506 122.364 81.0607 122.377 81.0865C122.391 81.1129 122.41 81.1567 122.429 81.2232C122.468 81.3599 122.503 81.5727 122.503 81.88H126.503C126.503 80.724 126.251 79.4707 125.42 78.4801C124.538 77.4273 123.283 77 121.983 77V81ZM122.503 81.88V85.68H126.503V81.88H122.503ZM104.663 71.64C104.663 72.2846 104.514 72.4507 104.528 72.4347C104.54 72.4207 104.551 72.4198 104.525 72.4302C104.488 72.4447 104.374 72.48 104.143 72.48V76.48C105.419 76.48 106.675 76.0778 107.567 75.0353C108.411 74.0493 108.663 72.7954 108.663 71.64H104.663ZM104.143 72.48C103.902 72.48 103.783 72.4446 103.744 72.4295C103.717 72.4191 103.733 72.4216 103.751 72.4419C103.775 72.4705 103.623 72.3147 103.623 71.64H99.6227C99.6227 72.8053 99.87 74.0695 100.725 75.0581C101.627 76.1019 102.889 76.48 104.143 76.48V72.48ZM103.623 71.64V67.84H99.6227V71.64H103.623ZM103.623 67.84C103.623 67.1662 103.775 66.9893 103.764 67.0026C103.752 67.0166 103.74 67.0187 103.764 67.0092C103.798 66.9954 103.911 66.96 104.143 66.96V62.96C102.865 62.96 101.605 63.363 100.711 64.4174C99.8703 65.4107 99.6227 66.6738 99.6227 67.84H103.623ZM104.143 66.96C104.366 66.96 104.473 66.9951 104.506 67.0085C104.522 67.015 104.525 67.0183 104.522 67.0156C104.518 67.0127 104.515 67.0097 104.515 67.0099C104.516 67.0106 104.524 67.0207 104.537 67.0465C104.551 67.0729 104.57 67.1167 104.589 67.1832C104.628 67.3199 104.663 67.5327 104.663 67.84H108.663C108.663 66.684 108.411 65.4307 107.58 64.4401C106.698 63.3873 105.443 62.96 104.143 62.96V66.96ZM104.663 67.84V71.64H108.663V67.84H104.663Z" fill="black" fill-opacity="0.2"/>
<defs>
<linearGradient id="paint0_linear_611_6954" x1="-65.658" y1="18" x2="162.342" y2="18" gradientUnits="userSpaceOnUse">
<stop stop-color="#725CFA"/>
<stop offset="1" stop-color="#EF7BE3"/>
</linearGradient>
<linearGradient id="paint1_linear_611_6954" x1="-65.658" y1="93" x2="162.342" y2="93" gradientUnits="userSpaceOnUse">
<stop stop-color="#725CFA"/>
<stop offset="1" stop-color="#EF7BE3"/>
</linearGradient>
<linearGradient id="paint2_linear_611_6954" x1="162.342" y1="30" x2="-65.658" y2="30" gradientUnits="userSpaceOnUse">
<stop stop-color="#725CFA"/>
<stop offset="1" stop-color="#EF7BE3"/>
</linearGradient>
<linearGradient id="paint3_linear_611_6954" x1="0" y1="57" x2="228" y2="57" gradientUnits="userSpaceOnUse">
<stop stop-color="#725CFA"/>
<stop offset="1" stop-color="#EF7BE3"/>
</linearGradient>
</defs>
</svg>
