<svg width="150" height="150" viewBox="0 0 150 150" fill="none" xmlns="http://www.w3.org/2000/svg">
<path d="M21.9665 128.032C11.4776 117.543 4.33451 104.179 1.44062 89.6308C-1.45328 75.0822 0.0319744 60.0022 5.70855 46.2978C11.3851 32.5933 20.9981 20.8799 33.3317 12.6388C45.6654 4.3977 60.1659 -0.000976739 74.9995 -0.000976562C89.8331 -0.000976386 104.334 4.3977 116.667 12.6388C129.001 20.8799 138.614 32.5933 144.29 46.2978C149.967 60.0022 151.452 75.0822 148.558 89.6308C145.665 104.179 138.521 117.543 128.033 128.032L106.819 106.819C113.113 100.525 117.399 92.5072 119.135 83.7781C120.871 75.0489 119.98 66.0009 116.574 57.7783C113.168 49.5556 107.4 42.5276 100 37.5829C92.6 32.6382 83.8997 29.999 74.9995 29.999C66.0993 29.999 57.3991 32.6382 49.9989 37.5829C42.5986 42.5276 36.8309 49.5556 33.4249 57.7783C30.019 66.0009 29.1278 75.0489 30.8642 83.7781C32.6005 92.5072 36.8863 100.525 43.1797 106.819L21.9665 128.032Z" fill="url(#paint0_angular_611_7025)" fill-opacity="0.2"/>
<path d="M21.9665 128.032C15.0021 121.068 9.47765 112.8 5.70855 103.7C1.93944 94.6009 -0.000489142 84.8482 -0.000488281 74.999C-0.00048742 65.1499 1.93945 55.3972 5.70855 46.2978C9.47765 37.1983 15.0021 28.9304 21.9665 21.966L24.0878 24.0873C17.402 30.7731 12.0985 38.7104 8.48019 47.4458C4.86185 56.1813 2.99951 65.5438 2.99951 74.999C2.99951 84.4542 4.86185 93.8168 8.48018 102.552C12.0985 111.288 17.402 119.225 24.0878 125.911L21.9665 128.032Z" fill="#36F097"/>
<path d="M21.9665 21.966C36.0317 7.90079 55.1083 -0.000974428 74.9995 -0.000976562C94.8907 -0.000978697 113.967 7.90078 128.033 21.966L125.911 24.0873C112.409 10.5847 94.0951 2.99902 74.9995 2.99902C55.9039 2.99903 37.5904 10.5847 24.0878 24.0873L21.9665 21.966Z" fill="#1ED6FF"/>
<path d="M128.033 21.966C142.098 36.0312 150 55.1078 150 74.999C150 94.8902 142.098 113.967 128.033 128.032L125.911 125.911C139.414 112.408 147 94.0946 147 74.999C147 55.9034 139.414 37.5899 125.911 24.0873L128.033 21.966Z" fill="#5A3FFF"/>
<mask id="mask0_611_7025" style="mask-type:luminance" maskUnits="userSpaceOnUse" x="3" y="3" width="144" height="124">
<path d="M24.9213 126.557C14.6816 116.611 7.6355 103.841 4.68115 89.8753C1.72679 75.9094 2.998 61.3801 8.33273 48.1394C13.6675 34.8987 22.8241 23.5465 34.6354 15.5297C46.4466 7.513 60.3776 3.19488 74.6524 3.12584C88.9272 3.0568 102.899 7.23995 114.787 15.1421C126.676 23.0442 135.942 34.3073 141.404 47.4958C146.867 60.6842 148.279 75.2006 145.459 89.1944C142.64 103.188 135.718 116.026 125.575 126.07L115.46 115.856C123.574 107.821 129.112 97.5506 131.368 86.3555C133.623 75.1605 132.493 63.5474 128.123 52.9966C123.753 42.4459 116.341 33.4354 106.83 27.1137C97.3194 20.792 86.1417 17.4454 74.7219 17.5007C63.3021 17.5559 52.1573 21.0104 42.7083 27.4238C33.2593 33.8372 25.934 42.919 21.6662 53.5115C17.3984 64.1041 16.3814 75.7275 18.7449 86.9002C21.1084 98.073 26.7453 108.289 34.937 116.246L24.9213 126.557Z" fill="white"/>
</mask>
<g mask="url(#mask0_611_7025)">
<circle opacity="0.6" cx="75" cy="75" r="69.875" stroke="white" stroke-opacity="0.6" stroke-width="4" stroke-dasharray="1 10"/>
<circle cx="75" cy="75" r="67.875" stroke="white" stroke-opacity="0.6" stroke-width="8" stroke-dasharray="2 48"/>
</g>
<path d="M32.086 124.156C33.754 124.156 34.822 122.632 34.822 119.572C34.822 116.524 33.754 115.036 32.086 115.036C30.406 115.036 29.338 116.512 29.338 119.572C29.338 122.632 30.406 124.156 32.086 124.156ZM32.086 123.28C31.078 123.28 30.406 122.164 30.406 119.572C30.406 117.004 31.078 115.924 32.086 115.924C33.082 115.924 33.754 117.004 33.754 119.572C33.754 122.164 33.082 123.28 32.086 123.28Z" fill="white" fill-opacity="0.6"/>
<path d="M13.028 82.75H18.56V81.802H16.124C15.68 81.802 15.14 81.85 14.684 81.886C16.748 79.93 18.128 78.142 18.128 76.39C18.128 74.818 17.144 73.786 15.572 73.786C14.456 73.786 13.7 74.302 12.98 75.082L13.616 75.706C14.096 75.13 14.72 74.686 15.44 74.686C16.532 74.686 17.06 75.418 17.06 76.426C17.06 77.938 15.788 79.69 13.028 82.102V82.75ZM22.4923 82.906C24.1603 82.906 25.2283 81.382 25.2283 78.322C25.2283 75.274 24.1603 73.786 22.4923 73.786C20.8123 73.786 19.7443 75.262 19.7443 78.322C19.7443 81.382 20.8123 82.906 22.4923 82.906ZM22.4923 82.03C21.4843 82.03 20.8123 80.914 20.8123 78.322C20.8123 75.754 21.4843 74.674 22.4923 74.674C23.4883 74.674 24.1603 75.754 24.1603 78.322C24.1603 80.914 23.4883 82.03 22.4923 82.03Z" fill="white" fill-opacity="0.6"/>
<path d="M30.13 38.2L32.134 35.2C32.386 34.768 32.626 34.336 32.842 33.904H32.89C32.866 34.36 32.818 35.068 32.818 35.5V38.2H30.13ZM35.026 38.2H33.862V32.704H32.65L28.99 38.356V39.076H32.818V41.5H33.862V39.076H35.026V38.2ZM38.7423 41.656C40.4103 41.656 41.4783 40.132 41.4783 37.072C41.4783 34.024 40.4103 32.536 38.7423 32.536C37.0623 32.536 35.9943 34.012 35.9943 37.072C35.9943 40.132 37.0623 41.656 38.7423 41.656ZM38.7423 40.78C37.7343 40.78 37.0623 39.664 37.0623 37.072C37.0623 34.504 37.7343 33.424 38.7423 33.424C39.7383 33.424 40.4103 34.504 40.4103 37.072C40.4103 39.664 39.7383 40.78 38.7423 40.78Z" fill="white" fill-opacity="0.6"/>
<path d="M74.237 23.929C73.133 23.929 72.473 22.933 72.341 21.109C72.917 20.293 73.589 19.981 74.141 19.981C75.209 19.981 75.725 20.737 75.725 21.925C75.725 23.125 75.077 23.929 74.237 23.929ZM76.601 16.561C76.121 16.045 75.461 15.661 74.549 15.661C72.845 15.661 71.297 16.981 71.297 20.425C71.297 23.329 72.545 24.781 74.237 24.781C75.605 24.781 76.757 23.629 76.757 21.925C76.757 20.089 75.809 19.165 74.321 19.165C73.625 19.165 72.857 19.573 72.317 20.233C72.365 17.497 73.385 16.573 74.585 16.573C75.125 16.573 75.653 16.825 76.001 17.245L76.601 16.561ZM80.6173 24.781C82.2853 24.781 83.3533 23.257 83.3533 20.197C83.3533 17.149 82.2853 15.661 80.6173 15.661C78.9373 15.661 77.8693 17.137 77.8693 20.197C77.8693 23.257 78.9373 24.781 80.6173 24.781ZM80.6173 23.905C79.6093 23.905 78.9373 22.789 78.9373 20.197C78.9373 17.629 79.6093 16.549 80.6173 16.549C81.6133 16.549 82.2853 17.629 82.2853 20.197C82.2853 22.789 81.6133 23.905 80.6173 23.905Z" fill="white" fill-opacity="0.6"/>
<path d="M115.848 41.656C117.504 41.656 118.608 40.66 118.608 39.376C118.608 38.176 117.888 37.516 117.12 37.072V37.012C117.648 36.604 118.296 35.812 118.296 34.888C118.296 33.532 117.384 32.572 115.884 32.572C114.504 32.572 113.472 33.46 113.472 34.804C113.472 35.728 114.012 36.388 114.66 36.832V36.892C113.856 37.324 113.04 38.14 113.04 39.316C113.04 40.672 114.228 41.656 115.848 41.656ZM116.448 36.724C115.416 36.316 114.468 35.86 114.468 34.804C114.468 33.952 115.056 33.376 115.86 33.376C116.808 33.376 117.36 34.084 117.36 34.948C117.36 35.596 117.048 36.196 116.448 36.724ZM115.872 40.84C114.816 40.84 114.036 40.156 114.036 39.22C114.036 38.38 114.528 37.684 115.236 37.228C116.484 37.732 117.564 38.176 117.564 39.352C117.564 40.228 116.88 40.84 115.872 40.84ZM122.492 41.656C124.16 41.656 125.228 40.132 125.228 37.072C125.228 34.024 124.16 32.536 122.492 32.536C120.812 32.536 119.744 34.012 119.744 37.072C119.744 40.132 120.812 41.656 122.492 41.656ZM122.492 40.78C121.484 40.78 120.812 39.664 120.812 37.072C120.812 34.504 121.484 33.424 122.492 33.424C123.488 33.424 124.16 34.504 124.16 37.072C124.16 39.664 123.488 40.78 122.492 40.78Z" fill="white" fill-opacity="0.6"/>
<path d="M126.056 82.75H130.88V81.838H129.116V73.954H128.276C127.796 74.23 127.232 74.434 126.452 74.578V75.274H128.012V81.838H126.056V82.75ZM134.992 82.906C136.66 82.906 137.728 81.382 137.728 78.322C137.728 75.274 136.66 73.786 134.992 73.786C133.312 73.786 132.244 75.262 132.244 78.322C132.244 81.382 133.312 82.906 134.992 82.906ZM134.992 82.03C133.984 82.03 133.312 80.914 133.312 78.322C133.312 75.754 133.984 74.674 134.992 74.674C135.988 74.674 136.66 75.754 136.66 78.322C136.66 80.914 135.988 82.03 134.992 82.03ZM141.649 82.906C143.317 82.906 144.385 81.382 144.385 78.322C144.385 75.274 143.317 73.786 141.649 73.786C139.969 73.786 138.901 75.262 138.901 78.322C138.901 81.382 139.969 82.906 141.649 82.906ZM141.649 82.03C140.641 82.03 139.969 80.914 139.969 78.322C139.969 75.754 140.641 74.674 141.649 74.674C142.645 74.674 143.317 75.754 143.317 78.322C143.317 80.914 142.645 82.03 141.649 82.03Z" fill="white" fill-opacity="0.6"/>
<path d="M109.806 124H114.63V123.088H112.866V115.204H112.026C111.546 115.48 110.982 115.684 110.202 115.828V116.524H111.762V123.088H109.806V124ZM115.934 124H121.466V123.052H119.03C118.586 123.052 118.046 123.1 117.59 123.136C119.654 121.18 121.034 119.392 121.034 117.64C121.034 116.068 120.05 115.036 118.478 115.036C117.362 115.036 116.606 115.552 115.886 116.332L116.522 116.956C117.002 116.38 117.626 115.936 118.346 115.936C119.438 115.936 119.966 116.668 119.966 117.676C119.966 119.188 118.694 120.94 115.934 123.352V124ZM125.398 124.156C127.066 124.156 128.134 122.632 128.134 119.572C128.134 116.524 127.066 115.036 125.398 115.036C123.718 115.036 122.65 116.512 122.65 119.572C122.65 122.632 123.718 124.156 125.398 124.156ZM125.398 123.28C124.39 123.28 123.718 122.164 123.718 119.572C123.718 117.004 124.39 115.924 125.398 115.924C126.394 115.924 127.066 117.004 127.066 119.572C127.066 122.164 126.394 123.28 125.398 123.28Z" fill="white" fill-opacity="0.6"/>
<path d="M74.2817 72.3193L115.21 64.2256L75.7183 77.6806L74.2817 72.3193Z" fill="#ADE1FF"/>
<g filter="url(#filter0_d_611_7025)">
<ellipse cx="75" cy="75" rx="5.55051" ry="5.55051" transform="rotate(-15 75 75)" fill="#051D28"/>
<path d="M78.9125 73.9516C79.4915 76.1125 78.2092 78.3335 76.0484 78.9125C73.8876 79.4915 71.6665 78.2092 71.0875 76.0483C70.5085 73.8875 71.7909 71.6665 73.9517 71.0875C76.1125 70.5085 78.3335 71.7908 78.9125 73.9516Z" stroke="white" stroke-width="3"/>
</g>
<defs>
<filter id="filter0_d_611_7025" x="61.4481" y="61.4482" width="27.1038" height="27.1035" filterUnits="userSpaceOnUse" color-interpolation-filters="sRGB">
<feFlood flood-opacity="0" result="BackgroundImageFix"/>
<feColorMatrix in="SourceAlpha" type="matrix" values="0 0 0 0 0 0 0 0 0 0 0 0 0 0 0 0 0 0 127 0" result="hardAlpha"/>
<feOffset/>
<feGaussianBlur stdDeviation="4"/>
<feComposite in2="hardAlpha" operator="out"/>
<feColorMatrix type="matrix" values="0 0 0 0 0 0 0 0 0 0 0 0 0 0 0 0 0 0 0.4 0"/>
<feBlend mode="normal" in2="BackgroundImageFix" result="effect1_dropShadow_611_7025"/>
<feBlend mode="normal" in="SourceGraphic" in2="effect1_dropShadow_611_7025" result="shape"/>
</filter>
<radialGradient id="paint0_angular_611_7025" cx="0" cy="0" r="1" gradientUnits="userSpaceOnUse" gradientTransform="translate(74.9995 74.999) rotate(90) scale(75)">
<stop stop-color="#36F097"/>
<stop offset="1" stop-color="#5A3FFF"/>
</radialGradient>
</defs>
</svg>
