<svg width="150" height="150" viewBox="0 0 150 150" fill="none" xmlns="http://www.w3.org/2000/svg">
<path d="M74.9999 0L139.952 37.5V112.5L74.9999 150L10.048 112.5V37.5L74.9999 0Z" fill="white" fill-opacity="0.04"/>
<path d="M10.548 37.7887L74.9999 0.57735L139.452 37.7887V112.211L74.9999 149.423L10.548 112.211V37.7887Z" stroke="white" stroke-opacity="0.1"/>
<path d="M24.9819 46.1223L75 17.2443L125.018 46.1223V103.878L75 132.756L24.9819 103.878V46.1223Z" stroke="white" stroke-opacity="0.1"/>
<path d="M39.4156 54.455L75 33.9104L110.584 54.455V95.5443L75 116.089L39.4156 95.5443V54.455Z" stroke="white" stroke-opacity="0.1"/>
<path d="M53.8494 62.7887L75 50.5774L96.1506 62.7887V87.2113L75 99.4226L53.8494 87.2113V62.7887Z" stroke="white" stroke-opacity="0.1"/>
<path d="M81.7169 71.1223L75 67.2443L68.2831 71.1223V78.8783L75 82.7563L81.7169 78.8783V71.1223Z" stroke="white" stroke-opacity="0.1"/>
<path d="M69.7661 2.97949H71.0681V-1.09451H72.7621C75.0021 -1.09451 76.5421 -2.10251 76.5421 -4.27251C76.5421 -6.51251 75.0021 -7.28251 72.6921 -7.28251H69.7661V2.97949ZM71.0681 -2.14451V-6.23251H72.5381C74.3441 -6.23251 75.2541 -5.75651 75.2541 -4.27251C75.2541 -2.80251 74.4001 -2.14451 72.5941 -2.14451H71.0681ZM81.3174 3.16149C83.4594 3.16149 84.8034 1.87349 84.8034 0.249492C84.8034 -1.27651 83.8794 -1.97651 82.6894 -2.49451L81.2194 -3.12451C80.4214 -3.46051 79.5254 -3.83851 79.5254 -4.83251C79.5254 -5.75651 80.2814 -6.34451 81.4434 -6.34451C82.3954 -6.34451 83.1514 -5.96651 83.7814 -5.37851L84.4674 -6.20451C83.7394 -6.96051 82.6614 -7.47851 81.4434 -7.47851C79.5814 -7.47851 78.2094 -6.33051 78.2094 -4.74851C78.2094 -3.25051 79.3434 -2.52251 80.2954 -2.11651L81.7794 -1.47251C82.7454 -1.03851 83.4874 -0.702508 83.4874 0.347492C83.4874 1.35549 82.6754 2.02749 81.3314 2.02749C80.2674 2.02749 79.2314 1.52349 78.4894 0.753492L77.7194 1.63549C78.6154 2.57349 79.8614 3.16149 81.3174 3.16149Z" fill="white" fill-opacity="0.6"/>
<path d="M146.945 42.5575L147.449 40.9895C147.813 39.8275 148.149 38.7215 148.471 37.5175H148.527C148.863 38.7075 149.185 39.8275 149.563 40.9895L150.053 42.5575H146.945ZM151.355 46.7295H152.727L149.241 36.4675H147.799L144.313 46.7295H145.629L146.623 43.5935H150.375L151.355 46.7295ZM154.175 46.7295H155.477V36.4675H154.175V46.7295Z" fill="white" fill-opacity="0.6"/>
<path d="M-9.62592 124.516C-8.29592 124.516 -7.28792 123.984 -6.47592 123.046L-7.18992 122.234C-7.84792 122.948 -8.58992 123.382 -9.56992 123.382C-11.5299 123.382 -12.7619 121.758 -12.7619 119.168C-12.7619 116.606 -11.4739 115.01 -9.52792 115.01C-8.64592 115.01 -7.95992 115.416 -7.42792 115.99L-6.72792 115.15C-7.31592 114.492 -8.29592 113.876 -9.54192 113.876C-12.1459 113.876 -14.0919 115.892 -14.0919 119.21C-14.0919 122.542 -12.1739 124.516 -9.62592 124.516ZM-4.36619 120.484L-2.02819 116.984C-1.73419 116.48 -1.45419 115.976 -1.20219 115.472H-1.14619C-1.17419 116.004 -1.23019 116.83 -1.23019 117.334V120.484H-4.36619ZM1.34581 120.484H-0.0121902V114.072H-1.42619L-5.69619 120.666V121.506H-1.23019V124.334H-0.0121902V121.506H1.34581V120.484ZM3.18943 124.334H5.82143C8.91543 124.334 10.6094 122.416 10.6094 119.168C10.6094 115.906 8.91543 114.072 5.76543 114.072H3.18943V124.334ZM4.49143 123.27V115.122H5.65343C8.07543 115.122 9.26543 116.564 9.26543 119.168C9.26543 121.758 8.07543 123.27 5.65343 123.27H4.49143Z" fill="white" fill-opacity="0.6"/>
<path d="M149.549 124.516C150.879 124.516 151.887 123.984 152.699 123.046L151.985 122.234C151.327 122.948 150.585 123.382 149.605 123.382C147.645 123.382 146.413 121.758 146.413 119.168C146.413 116.606 147.701 115.01 149.647 115.01C150.529 115.01 151.215 115.416 151.747 115.99L152.447 115.15C151.859 114.492 150.879 113.876 149.633 113.876C147.029 113.876 145.083 115.892 145.083 119.21C145.083 122.542 147.001 124.516 149.549 124.516ZM154.599 124.334H157.231C160.325 124.334 162.019 122.416 162.019 119.168C162.019 115.906 160.325 114.072 157.175 114.072H154.599V124.334ZM155.901 123.27V115.122H157.063C159.485 115.122 160.675 116.564 160.675 119.168C160.675 121.758 159.485 123.27 157.063 123.27H155.901ZM165.512 115.122H167.234C168.844 115.122 169.726 115.598 169.726 116.956C169.726 118.286 168.844 118.93 167.234 118.93H165.512V115.122ZM171.322 124.334L168.69 119.84C170.09 119.504 171.014 118.552 171.014 116.956C171.014 114.814 169.516 114.072 167.43 114.072H164.21V124.334H165.512V119.98H167.36L169.852 124.334H171.322Z" fill="white" fill-opacity="0.6"/>
<path d="M-4.7602 42.5575L-4.2562 40.9895C-3.8922 39.8275 -3.5562 38.7215 -3.2342 37.5175H-3.1782C-2.8422 38.7075 -2.5202 39.8275 -2.1422 40.9895L-1.6522 42.5575H-4.7602ZM-0.350203 46.7295H1.0218L-2.4642 36.4675H-3.9062L-7.3922 46.7295H-6.0762L-5.0822 43.5935H-1.3302L-0.350203 46.7295ZM2.4697 46.7295H8.5457V45.6235H3.7717V41.8855H7.6637V40.7795H3.7717V37.5595H8.3917V36.4675H2.4697V46.7295Z" fill="white" fill-opacity="0.6"/>
<path d="M75 6.25L18.2292 42.1875L40.625 94.7917L75 130.729L105.729 92.7083L107.292 56.25L75 6.25Z" stroke="#52ACFF" stroke-width="2" stroke-linejoin="round"/>
<circle cx="40.625" cy="94.7917" r="1.04167" fill="#52ACFF"/>
<circle cx="75" cy="130.729" r="1.04167" fill="#52ACFF"/>
<circle cx="105.729" cy="92.7077" r="1.04167" fill="#52ACFF"/>
<circle cx="107.292" cy="56.2497" r="1.04167" fill="#52ACFF"/>
<circle cx="75" cy="6.24967" r="1.04167" fill="#52ACFF"/>
<circle cx="18.2292" cy="42.1872" r="1.04167" fill="#52ACFF"/>
<path d="M75 23.4375L38.0208 53.6458L61.4583 82.8125L75 122.396L129.427 106.51L111.979 53.6458L75 23.4375Z" stroke="#725CFA" stroke-width="2" stroke-linejoin="round"/>
<circle cx="61.4583" cy="82.8122" r="1.04167" fill="#725CFA"/>
<circle cx="75" cy="122.395" r="1.04167" fill="#725CFA"/>
<circle cx="129.167" cy="106.25" r="1.04167" fill="#725CFA"/>
<circle cx="111.979" cy="53.6452" r="1.04167" fill="#725CFA"/>
<circle cx="75" cy="23.4372" r="1.04167" fill="#725CFA"/>
<circle cx="38.0208" cy="53.6452" r="1.04167" fill="#725CFA"/>
<path d="M75 15.1045L56.25 64.0628L17.1875 108.334L75 111.979L120.833 101.563L79.6875 72.3962L75 15.1045Z" stroke="#76FFFF" stroke-width="2" stroke-linejoin="round"/>
<circle cx="17.1875" cy="108.334" r="1.04167" fill="#76FFFF"/>
<circle cx="75" cy="111.979" r="1.04167" fill="#76FFFF"/>
<circle cx="120.833" cy="101.562" r="1.04167" fill="#76FFFF"/>
<circle cx="79.6875" cy="72.3962" r="1.04167" fill="#76FFFF"/>
<circle cx="75" cy="15.1042" r="1.04167" fill="#76FFFF"/>
<circle cx="56.25" cy="64.0622" r="1.04167" fill="#76FFFF"/>
<path d="M101.042 59.8955L75 28.6455L62.5 67.708L46.875 91.1455L75 94.7913L84.8958 80.7288L101.042 59.8955Z" stroke="#EF7BE3" stroke-width="2" stroke-linejoin="round"/>
<circle cx="46.875" cy="91.1452" r="1.04167" fill="#EF7BE3"/>
<circle cx="75" cy="94.7907" r="1.04167" fill="#EF7BE3"/>
<circle cx="84.8958" cy="80.7282" r="1.04167" fill="#EF7BE3"/>
<circle cx="101.042" cy="59.8952" r="1.04167" fill="#EF7BE3"/>
<circle cx="75" cy="28.6452" r="1.04167" fill="#EF7BE3"/>
<circle cx="62.5" cy="67.7077" r="1.04167" fill="#EF7BE3"/>
</svg>
