<svg width="150" height="150" viewBox="0 0 150 150" fill="none" xmlns="http://www.w3.org/2000/svg">
<rect width="150" height="150" rx="75" fill="#00B4D8"/>
<path d="M75 75V0C54.3473 0 35.6497 8.54305 22.1154 22.1154L75 75Z" fill="#F72585"/>
<path d="M75 74.9998H0C0 54.3471 8.54305 35.6496 22.1154 22.1152L75 74.9998Z" fill="#B5179E"/>
<path d="M75 75.0001H0C0 95.6529 8.54305 114.35 22.1154 127.885L75 75.0001Z" fill="#7209B7"/>
<path d="M75 75V150C54.3473 150 35.6497 141.457 22.1154 127.885L75 75Z" fill="#560BAD"/>
<path d="M75 75V150C95.6527 150 114.35 141.457 127.885 127.885L75 75Z" fill="#3B009A"/>
</svg>
