<svg width="62" height="30" viewBox="0 0 62 30" fill="none" xmlns="http://www.w3.org/2000/svg">
<path d="M7.70531 7.48294C11.9606 3.35022 18.8597 3.35023 23.115 7.48294L30.8198 14.9659L23.115 22.4488C18.8597 26.5815 11.9606 26.5815 7.70531 22.4488V22.4488C3.45004 18.3161 3.45004 11.6156 7.70531 7.48294V7.48294Z" stroke="url(#paint0_angular_417_52109)" stroke-width="4.46429"/>
<path d="M53.8728 22.5171C49.6175 26.6498 42.7184 26.6498 38.4631 22.5171L30.7583 15.0341L38.4631 7.55119C42.7184 3.41848 49.6175 3.41848 53.8728 7.55119V7.55119C58.1281 11.6839 58.1281 18.3844 53.8728 22.5171V22.5171Z" stroke="url(#paint1_angular_417_52109)" stroke-width="4.46429"/>
<defs>
<radialGradient id="paint0_angular_417_52109" cx="0" cy="0" r="1" gradientUnits="userSpaceOnUse" gradientTransform="translate(15.4102 14.9659) scale(19.3285 18.7718)">
<stop stop-color="#4BBEFF"/>
<stop offset="0.479167" stop-color="#359EFF" stop-opacity="0.5"/>
<stop offset="1" stop-color="#D26BFF" stop-opacity="0.15"/>
</radialGradient>
<radialGradient id="paint1_angular_417_52109" cx="0" cy="0" r="1" gradientUnits="userSpaceOnUse" gradientTransform="translate(46.168 15.0341) rotate(180) scale(19.3285 18.7718)">
<stop stop-color="#4BBEFF"/>
<stop offset="0.479167" stop-color="#359EFF" stop-opacity="0.5"/>
<stop offset="1" stop-color="#D26BFF" stop-opacity="0.15"/>
</radialGradient>
</defs>
</svg>

