<svg width="60" height="60" viewBox="0 0 60 60" fill="none" xmlns="http://www.w3.org/2000/svg">
<g id="Group">
<path id="Vector" d="M27.8653 27.9911C28.3396 28.2781 28.5767 28.2781 28.8139 28.2781C29.2882 28.2781 29.5253 28.2781 29.9996 28.2781C30.4739 28.2781 30.7111 28.2781 31.1854 28.2781C31.4226 28.2781 31.8969 27.9911 32.134 27.9911C32.134 27.9911 32.134 27.9911 32.3712 27.9911C34.5056 26.8427 36.1656 24.2589 36.1656 21.3881C36.1656 17.3689 33.5569 14.2109 30.2368 14.2109C26.9166 14.2109 24.0708 17.3689 24.0708 21.3881C24.0708 24.546 25.7309 27.1298 27.8653 27.9911Z" fill="url(#paint0_linear_611_5520)"/>
<path id="Vector_2" d="M19.3281 38.6144C19.3281 39.4756 19.8024 40.0498 20.5139 40.0498H39.4862C40.1976 40.0498 40.672 39.4756 40.672 38.6144C40.672 34.3081 38.7747 30.2889 36.166 27.9922C34.506 30.0018 32.3716 31.4372 30 31.4372C27.6285 31.4372 25.4941 30.0018 23.834 27.9922C21.2254 30.2889 19.3281 34.3081 19.3281 38.6144Z" fill="url(#paint1_linear_611_5520)"/>
<path id="Vector_3" d="M11.6205 31.4368H15.415C16.1264 31.4368 16.6008 30.8626 16.6008 30.0014C16.6008 29.1401 16.1264 28.5659 15.415 28.5659H11.6205C11.1462 25.408 8.77469 22.8242 5.92884 22.8242C2.60869 22.8242 0 25.9822 0 30.0014C0 34.0206 2.60869 37.1785 5.92884 37.1785C8.77469 37.1785 11.1462 34.5947 11.6205 31.4368ZM5.92884 34.3077C4.03161 34.3077 2.37154 32.2981 2.37154 30.0014C2.37154 27.7047 4.03161 25.6951 5.92884 25.6951C7.82607 25.6951 9.48615 27.7047 9.48615 30.0014C9.48615 32.2981 7.82607 34.3077 5.92884 34.3077Z" fill="url(#paint2_linear_611_5520)"/>
<path id="Vector_4" d="M46.9563 45.6454C45.7706 45.6454 44.5848 46.2195 43.6362 46.7937L41.739 44.497C41.2646 43.9229 40.5532 43.9229 40.0789 44.497C39.6046 45.0712 39.6046 45.9325 40.0789 46.5066L41.9761 48.8033C41.2646 49.9517 41.0275 51.3871 41.0275 52.8225C41.0275 56.8417 43.6362 59.9997 46.9563 59.9997C50.2765 59.9997 52.8852 56.8417 52.8852 52.8225C52.8852 48.8033 50.2765 45.6454 46.9563 45.6454ZM46.9563 57.1288C45.0591 57.1288 43.399 55.1192 43.399 52.8225C43.399 50.5258 45.0591 48.5162 46.9563 48.5162C48.8536 48.5162 50.5136 50.5258 50.5136 52.8225C50.5136 55.1192 48.8536 57.1288 46.9563 57.1288Z" fill="url(#paint3_linear_611_5520)"/>
<path id="Vector_5" d="M41.7392 15.5026L43.6364 13.2059C44.585 13.7801 45.7708 14.3543 46.9566 14.3543C50.2767 14.3543 52.8854 11.1963 52.8854 7.17715C52.8854 3.15794 50.2767 0 46.9566 0C43.6364 0 41.0277 3.15794 41.0277 7.17715C41.0277 8.61257 41.2649 10.048 41.9763 11.1963L40.0791 13.493C39.6048 14.0672 39.6048 14.9285 40.0791 15.5026C40.5534 16.0768 41.2649 16.0768 41.7392 15.5026ZM46.9566 2.87086C48.8538 2.87086 50.5139 4.88046 50.5139 7.17715C50.5139 9.47383 48.8538 11.4834 46.9566 11.4834C45.0593 11.4834 43.3993 9.47383 43.3993 7.17715C43.3993 4.88046 45.0593 2.87086 46.9566 2.87086Z" fill="url(#paint4_linear_611_5520)"/>
<path id="Vector_6" d="M18.261 44.497L16.3637 46.7937C15.4151 46.2195 14.2294 45.6454 13.0436 45.6454C9.72344 45.6454 7.11475 48.8033 7.11475 52.8225C7.11475 56.8417 9.72344 59.9997 13.0436 59.9997C16.3637 59.9997 18.9724 56.8417 18.9724 52.8225C18.9724 51.3871 18.7353 49.9517 18.0238 48.8033L19.921 46.5066C20.3954 45.9325 20.3954 45.0712 19.921 44.497C19.4467 43.9229 18.7353 43.9229 18.261 44.497ZM13.0436 57.1288C11.1464 57.1288 9.48628 55.1192 9.48628 52.8225C9.48628 50.5258 11.1464 48.5162 13.0436 48.5162C14.9408 48.5162 16.6009 50.5258 16.6009 52.8225C16.6009 55.1192 14.9408 57.1288 13.0436 57.1288Z" fill="url(#paint5_linear_611_5520)"/>
<path id="Vector_7" d="M13.0435 14.3543C14.2293 14.3543 15.4151 13.7801 16.3637 13.2059L18.2609 15.5026C18.7352 16.0768 19.4467 16.0768 19.921 15.5026C20.3953 14.9285 20.3953 14.0672 19.921 13.493L18.0238 11.1963C18.7352 10.048 18.9724 8.61257 18.9724 7.17715C18.9724 3.15794 16.3637 0 13.0435 0C9.72338 0 7.11469 3.15794 7.11469 7.17715C7.11469 11.1963 9.72338 14.3543 13.0435 14.3543ZM13.0435 2.87086C14.9408 2.87086 16.6008 4.88046 16.6008 7.17715C16.6008 9.47383 14.9408 11.4834 13.0435 11.4834C11.1463 11.4834 9.48622 9.47383 9.48622 7.17715C9.48622 4.88046 11.1463 2.87086 13.0435 2.87086Z" fill="url(#paint6_linear_611_5520)"/>
<path id="Vector_8" d="M54.0713 22.8242C51.2255 22.8242 48.8539 25.408 48.3796 28.5659H44.5852C43.8737 28.5659 43.3994 29.1401 43.3994 30.0014C43.3994 30.8626 43.8737 31.4368 44.5852 31.4368H48.3796C48.8539 34.5947 51.2255 37.1785 54.0713 37.1785C57.3915 37.1785 60.0002 34.0206 60.0002 30.0014C60.0002 25.9822 57.3915 22.8242 54.0713 22.8242ZM54.0713 34.3077C52.1741 34.3077 50.514 32.2981 50.514 30.0014C50.514 27.7047 52.1741 25.6951 54.0713 25.6951C55.9686 25.6951 57.6286 27.7047 57.6286 30.0014C57.6286 32.2981 55.9686 34.3077 54.0713 34.3077Z" fill="url(#paint7_linear_611_5520)"/>
</g>
<defs>
<linearGradient id="paint0_linear_611_5520" x1="23.8692" y1="14.2109" x2="37.9279" y2="26.4982" gradientUnits="userSpaceOnUse">
<stop stop-color="#4BBEFF"/>
<stop offset="0.510417" stop-color="#359EFF" stop-opacity="0.5"/>
<stop offset="1" stop-color="#D06BFF"/>
</linearGradient>
<linearGradient id="paint1_linear_611_5520" x1="18.9724" y1="27.9922" x2="29.2985" y2="46.5731" gradientUnits="userSpaceOnUse">
<stop stop-color="#4BBEFF"/>
<stop offset="0.510417" stop-color="#359EFF" stop-opacity="0.5"/>
<stop offset="1" stop-color="#D06BFF"/>
</linearGradient>
<linearGradient id="paint2_linear_611_5520" x1="-0.276679" y1="22.8242" x2="14.0118" y2="39.6219" gradientUnits="userSpaceOnUse">
<stop stop-color="#4BBEFF"/>
<stop offset="0.510417" stop-color="#359EFF" stop-opacity="0.5"/>
<stop offset="1" stop-color="#D06BFF"/>
</linearGradient>
<linearGradient id="paint3_linear_611_5520" x1="39.5038" y1="44.0664" x2="55.3299" y2="57.356" gradientUnits="userSpaceOnUse">
<stop stop-color="#4BBEFF"/>
<stop offset="0.510417" stop-color="#359EFF" stop-opacity="0.5"/>
<stop offset="1" stop-color="#D06BFF"/>
</linearGradient>
<linearGradient id="paint4_linear_611_5520" x1="39.504" y1="-6.00485e-08" x2="55.3302" y2="13.2896" gradientUnits="userSpaceOnUse">
<stop stop-color="#4BBEFF"/>
<stop offset="0.510417" stop-color="#359EFF" stop-opacity="0.5"/>
<stop offset="1" stop-color="#D06BFF"/>
</linearGradient>
<linearGradient id="paint5_linear_611_5520" x1="6.89538" y1="44.0664" x2="22.7215" y2="57.356" gradientUnits="userSpaceOnUse">
<stop stop-color="#4BBEFF"/>
<stop offset="0.510417" stop-color="#359EFF" stop-opacity="0.5"/>
<stop offset="1" stop-color="#D06BFF"/>
</linearGradient>
<linearGradient id="paint6_linear_611_5520" x1="6.89532" y1="-6.00485e-08" x2="22.7215" y2="13.2896" gradientUnits="userSpaceOnUse">
<stop stop-color="#4BBEFF"/>
<stop offset="0.510417" stop-color="#359EFF" stop-opacity="0.5"/>
<stop offset="1" stop-color="#D06BFF"/>
</linearGradient>
<linearGradient id="paint7_linear_611_5520" x1="43.1227" y1="22.8242" x2="57.4112" y2="39.6219" gradientUnits="userSpaceOnUse">
<stop stop-color="#4BBEFF"/>
<stop offset="0.510417" stop-color="#359EFF" stop-opacity="0.5"/>
<stop offset="1" stop-color="#D06BFF"/>
</linearGradient>
</defs>
</svg>
