<svg width="58" height="60" viewBox="0 0 58 60" fill="none" xmlns="http://www.w3.org/2000/svg">
<g id="Group">
<path id="Vector" d="M26.75 12C27.25 12.25 27.5 12.25 27.75 12.25C28.25 12.25 28.5 12.25 29 12.25C29.5 12.25 29.75 12.25 30.25 12.25C30.5 12.25 31 12 31.25 12C31.25 12 31.25 12 31.5 12C33.75 11 35.5 8.75 35.5 6.25C35.25 2.75 32.5 0 29 0C25.5 0 22.75 2.75 22.75 6.25C22.75 9 24.5 11.25 26.75 12Z" fill="url(#paint0_linear_836_2855)"/>
<path id="Vector_2" d="M9.25 49.5C9.75 49.75 10 49.75 10.25 49.75C10.75 49.75 11 49.75 11.5 49.75C12 49.75 12.25 49.75 12.75 49.75C13 49.75 13.5 49.5 13.75 49.5C13.75 49.5 13.75 49.5 14 49.5C16.25 48.5 18 46.25 18 43.75C17.75 40.25 15 37.5 11.5 37.5C8 37.5 5.25 40.25 5.25 43.75C5.25 46.5 7 48.75 9.25 49.5Z" fill="url(#paint1_linear_836_2855)"/>
<path id="Vector_3" d="M19 22.5H39C39.75 22.5 40.25 22 40.25 21.25C40.25 17.5 38.25 14 35.5 12C33.75 13.75 31.5 15 29 15C26.5 15 24.25 13.75 22.5 12C19.75 14 17.75 17.5 17.75 21.25C17.75 22 18.25 22.5 19 22.5Z" fill="url(#paint2_linear_836_2855)"/>
<path id="Vector_4" d="M40.25 43.75C40.25 46.5 42 48.75 44.25 49.5C44.25 49.5 44.25 49.5 44.5 49.5C44.75 49.5 45 49.75 45.5 49.75C46 49.75 46.25 49.75 46.75 49.75C47.25 49.75 47.5 49.75 48 49.75C48.25 49.75 48.75 49.5 49 49.5C49 49.5 49 49.5 49.25 49.5C51.5 48.5 53.25 46.25 53.25 43.75C53.25 40.25 50.5 37.5 47 37.5C43.5 37.5 40.25 40.25 40.25 43.75Z" fill="url(#paint3_linear_836_2855)"/>
<path id="Vector_5" d="M53 49.5C51.25 51.25 49 52.5 46.5 52.5C44 52.5 41.75 51.25 40 49.5C37 51.5 35.25 55 35.25 58.75C35.25 59.5 35.75 60 36.5 60H56.5C57.25 60 57.75 59.5 57.75 58.75C57.75 55 55.75 51.5 53 49.5Z" fill="url(#paint4_linear_836_2855)"/>
<path id="Vector_6" d="M18 49.5C16.25 51.25 14 52.5 11.5 52.5C9 52.5 6.75 51.25 5 49.5C2 51.5 0.25 55 0.25 58.75C0.25 59.5 0.75 60 1.5 60H21.5C22.25 60 22.75 59.5 22.75 58.75C22.75 55 20.75 51.5 18 49.5Z" fill="url(#paint5_linear_836_2855)"/>
<path id="Vector_7" d="M11.5 35C12.25 35 12.75 34.5 12.75 33.75V15H16.5C17.25 15 17.75 14.5 17.75 13.75C17.75 13 17.25 12.5 16.5 12.5H11.5C10.75 12.5 10.25 13 10.25 13.75V33.75C10.25 34.5 10.75 35 11.5 35Z" fill="url(#paint6_linear_836_2855)"/>
<path id="Vector_8" d="M41.5 15H45.25V33.75C45.25 34.5 45.75 35 46.5 35C47.25 35 47.75 34.5 47.75 33.75V13.75C47.75 13 47.25 12.5 46.5 12.5H41.5C40.75 12.5 40.25 13 40.25 13.75C40.25 14.5 40.75 15 41.5 15Z" fill="url(#paint7_linear_836_2855)"/>
</g>
<defs>
<linearGradient id="paint0_linear_836_2855" x1="24.2467" y1="0.91875" x2="34.4658" y2="12.7866" gradientUnits="userSpaceOnUse">
<stop stop-color="#4BBEFF"/>
<stop offset="0.510417" stop-color="#359EFF" stop-opacity="0.5"/>
<stop offset="1" stop-color="#D06BFF"/>
</linearGradient>
<linearGradient id="paint1_linear_836_2855" x1="6.74674" y1="38.4188" x2="16.9658" y2="50.2866" gradientUnits="userSpaceOnUse">
<stop stop-color="#4BBEFF"/>
<stop offset="0.510417" stop-color="#359EFF" stop-opacity="0.5"/>
<stop offset="1" stop-color="#D06BFF"/>
</linearGradient>
<linearGradient id="paint2_linear_836_2855" x1="20.3913" y1="12.7875" x2="26.6972" y2="27.8649" gradientUnits="userSpaceOnUse">
<stop stop-color="#4BBEFF"/>
<stop offset="0.510417" stop-color="#359EFF" stop-opacity="0.5"/>
<stop offset="1" stop-color="#D06BFF"/>
</linearGradient>
<linearGradient id="paint3_linear_836_2855" x1="41.7761" y1="38.4188" x2="51.9638" y2="50.4822" gradientUnits="userSpaceOnUse">
<stop stop-color="#4BBEFF"/>
<stop offset="0.510417" stop-color="#359EFF" stop-opacity="0.5"/>
<stop offset="1" stop-color="#D06BFF"/>
</linearGradient>
<linearGradient id="paint4_linear_836_2855" x1="37.8913" y1="50.2875" x2="44.1972" y2="65.3649" gradientUnits="userSpaceOnUse">
<stop stop-color="#4BBEFF"/>
<stop offset="0.510417" stop-color="#359EFF" stop-opacity="0.5"/>
<stop offset="1" stop-color="#D06BFF"/>
</linearGradient>
<linearGradient id="paint5_linear_836_2855" x1="2.8913" y1="50.2875" x2="9.19719" y2="65.3649" gradientUnits="userSpaceOnUse">
<stop stop-color="#4BBEFF"/>
<stop offset="0.510417" stop-color="#359EFF" stop-opacity="0.5"/>
<stop offset="1" stop-color="#D06BFF"/>
</linearGradient>
<linearGradient id="paint6_linear_836_2855" x1="11.1304" y1="14.1875" x2="23.5333" y2="18.8005" gradientUnits="userSpaceOnUse">
<stop stop-color="#4BBEFF"/>
<stop offset="0.510417" stop-color="#359EFF" stop-opacity="0.5"/>
<stop offset="1" stop-color="#D06BFF"/>
</linearGradient>
<linearGradient id="paint7_linear_836_2855" x1="41.1304" y1="14.1875" x2="53.5333" y2="18.8005" gradientUnits="userSpaceOnUse">
<stop stop-color="#4BBEFF"/>
<stop offset="0.510417" stop-color="#359EFF" stop-opacity="0.5"/>
<stop offset="1" stop-color="#D06BFF"/>
</linearGradient>
</defs>
</svg>
