<svg width="1246" height="315" viewBox="0 0 1246 315" fill="none" xmlns="http://www.w3.org/2000/svg">
<rect width="1246" height="315" rx="10" fill="url(#paint0_linear_611_5103)" fill-opacity="0.4"/>
<path d="M121.262 212C119.262 212 117.562 211.25 116.162 209.75C114.762 208.25 114.062 206.45 114.062 204.35V185.45H64.1119C61.8119 185.45 60.0119 184.75 58.7119 183.35C57.4119 181.95 56.6619 180.35 56.4619 178.55C56.3619 176.65 56.8619 174.95 57.9619 173.45L115.412 98.15C116.212 97.15 117.112 96.35 118.112 95.75C119.212 95.15 120.412 94.85 121.712 94.85C123.812 94.85 125.512 95.6 126.812 97.1C128.112 98.6 128.762 100.45 128.762 102.65V171.65H137.762C139.862 171.65 141.662 172.15 143.162 173.15C144.662 174.15 145.412 175.95 145.412 178.55C145.412 180.45 144.662 182.1 143.162 183.5C141.662 184.8 139.862 185.45 137.762 185.45H128.762V204.35C128.762 206.45 128.062 208.25 126.662 209.75C125.262 211.25 123.462 212 121.262 212ZM73.1119 175.85L69.0619 171.65H114.062V109.85L118.712 115.85L73.1119 175.85ZM169.31 214.4C166.51 214.4 164.06 213.4 161.96 211.4C159.96 209.3 158.96 206.85 158.96 204.05C158.96 201.15 159.96 198.7 161.96 196.7C164.06 194.6 166.51 193.55 169.31 193.55C172.21 193.55 174.66 194.6 176.66 196.7C178.66 198.7 179.66 201.15 179.66 204.05C179.66 206.85 178.66 209.3 176.66 211.4C174.66 213.4 172.21 214.4 169.31 214.4ZM235.052 212C227.852 212 221.352 210.35 215.552 207.05C209.852 203.65 205.302 199.05 201.902 193.25C198.602 187.45 196.952 180.95 196.952 173.75C196.952 171.55 197.652 169.75 199.052 168.35C200.452 166.85 202.252 166.1 204.452 166.1C206.652 166.1 208.502 166.85 210.002 168.35C211.502 169.75 212.252 171.55 212.252 173.75C212.252 178.05 213.252 181.95 215.252 185.45C217.252 188.95 219.952 191.7 223.352 193.7C226.852 195.7 230.752 196.7 235.052 196.7C239.452 196.7 243.352 195.7 246.752 193.7C250.252 191.7 253.002 188.95 255.002 185.45C257.002 181.95 258.002 178.05 258.002 173.75C258.002 169.35 257.002 165.45 255.002 162.05C253.002 158.55 250.252 155.8 246.752 153.8C243.352 151.8 239.452 150.8 235.052 150.8H210.002C207.802 150.8 206.002 150.1 204.602 148.7C203.202 147.2 202.502 145.35 202.502 143.15V102.65C202.502 100.45 203.202 98.6 204.602 97.1C206.002 95.6 207.802 94.85 210.002 94.85H260.102C262.202 94.85 264.002 95.65 265.502 97.25C267.002 98.75 267.752 100.55 267.752 102.65C267.752 104.65 267.002 106.4 265.502 107.9C264.102 109.4 262.302 110.15 260.102 110.15H217.652V135.5H235.052C242.352 135.5 248.852 137.2 254.552 140.6C260.352 143.9 264.902 148.45 268.202 154.25C271.602 159.95 273.302 166.45 273.302 173.75C273.302 180.95 271.602 187.45 268.202 193.25C264.902 199.05 260.352 203.65 254.552 207.05C248.852 210.35 242.352 212 235.052 212Z" fill="white"/>
<path d="M342.793 189.638L343.978 193.335L344.089 193.682H344.454H348.307L345.184 195.983L344.895 196.196L345.004 196.538L346.194 200.249L343.089 197.962L342.793 197.744L342.496 197.962L339.392 200.249L340.581 196.538L340.691 196.196L340.402 195.983L337.279 193.682H341.132H341.497L341.608 193.335L342.793 189.638Z" stroke="#BB9200"/>
<path d="M363.509 189.638L364.694 193.335L364.805 193.682H365.17H369.023L365.9 195.983L365.611 196.196L365.72 196.538L366.91 200.249L363.805 197.962L363.509 197.744L363.212 197.962L360.108 200.249L361.297 196.538L361.407 196.196L361.118 195.983L357.994 193.682H361.848H362.213L362.324 193.335L363.509 189.638Z" stroke="#BB9200"/>
<path d="M384.224 189.638L385.409 193.335L385.52 193.682H385.885H389.738L386.615 195.983L386.325 196.196L386.435 196.538L387.624 200.249L384.52 197.962L384.224 197.744L383.927 197.962L380.823 200.249L382.012 196.538L382.122 196.196L381.832 195.983L378.709 193.682H382.563H382.927L383.039 193.335L384.224 189.638Z" stroke="#BB9200"/>
<path d="M404.94 189.638L406.124 193.335L406.236 193.682H406.601H410.454L407.331 195.983L407.041 196.196L407.151 196.538L408.34 200.249L405.236 197.962L404.94 197.744L404.643 197.962L401.539 200.249L402.728 196.538L402.838 196.196L402.548 195.983L399.425 193.682H403.278H403.643L403.755 193.335L404.94 189.638Z" stroke="#BB9200"/>
<path d="M425.655 189.638L426.84 193.335L426.951 193.682H427.316H431.169L428.046 195.983L427.757 196.196L427.867 196.538L429.056 200.249L425.952 197.962L425.655 197.744L425.359 197.962L422.254 200.249L423.444 196.538L423.553 196.196L423.264 195.983L420.141 193.682H423.994H424.359L424.47 193.335L425.655 189.638Z" stroke="#BB9200"/>
<path d="M342.793 207.638L343.978 211.335L344.089 211.682H344.454H348.307L345.184 213.983L344.895 214.196L345.004 214.538L346.194 218.249L343.089 215.962L342.793 215.744L342.496 215.962L339.392 218.249L340.581 214.538L340.691 214.196L340.402 213.983L337.279 211.682H341.132H341.497L341.608 211.335L342.793 207.638Z" fill="#BB9200" stroke="#BB9200"/>
<path d="M363.509 207.638L364.694 211.335L364.805 211.682H365.17H369.023L365.9 213.983L365.611 214.196L365.72 214.538L366.91 218.249L363.805 215.962L363.509 215.744L363.212 215.962L360.108 218.249L361.297 214.538L361.407 214.196L361.118 213.983L357.994 211.682H361.848H362.213L362.324 211.335L363.509 207.638Z" fill="#BB9200" stroke="#BB9200"/>
<path d="M384.224 207.638L385.409 211.335L385.52 211.682H385.885H389.738L386.615 213.983L386.325 214.196L386.435 214.538L387.624 218.249L384.52 215.962L384.224 215.744L383.927 215.962L380.823 218.249L382.012 214.538L382.122 214.196L381.832 213.983L378.709 211.682H382.563H382.927L383.039 211.335L384.224 207.638Z" fill="#BB9200" stroke="#BB9200"/>
<path d="M404.94 207.638L406.124 211.335L406.236 211.682H406.601H410.454L407.331 213.983L407.041 214.196L407.151 214.538L408.34 218.249L405.236 215.962L404.94 215.744L404.643 215.962L401.539 218.249L402.728 214.538L402.838 214.196L402.548 213.983L399.425 211.682H403.278H403.643L403.755 211.335L404.94 207.638Z" fill="#BB9200" stroke="#BB9200"/>
<path d="M342.793 225.638L343.978 229.335L344.089 229.682H344.454H348.307L345.184 231.983L344.895 232.196L345.004 232.538L346.194 236.249L343.089 233.962L342.793 233.744L342.496 233.962L339.392 236.249L340.581 232.538L340.691 232.196L340.402 231.983L337.279 229.682H341.132H341.497L341.608 229.335L342.793 225.638Z" fill="#BB9200" stroke="#BB9200"/>
<path d="M363.509 225.638L364.694 229.335L364.805 229.682H365.17H369.023L365.9 231.983L365.611 232.196L365.72 232.538L366.91 236.249L363.805 233.962L363.509 233.744L363.212 233.962L360.108 236.249L361.297 232.538L361.407 232.196L361.118 231.983L357.994 229.682H361.848H362.213L362.324 229.335L363.509 225.638Z" fill="#BB9200" stroke="#BB9200"/>
<path d="M384.224 225.638L385.409 229.335L385.52 229.682H385.885H389.738L386.615 231.983L386.325 232.196L386.435 232.538L387.624 236.249L384.52 233.962L384.224 233.744L383.927 233.962L380.823 236.249L382.012 232.538L382.122 232.196L381.832 231.983L378.709 229.682H382.563H382.927L383.039 229.335L384.224 225.638Z" fill="#BB9200" stroke="#BB9200"/>
<path d="M342.793 243.638L343.978 247.335L344.089 247.682H344.454H348.307L345.184 249.983L344.895 250.196L345.004 250.538L346.194 254.249L343.089 251.962L342.793 251.744L342.496 251.962L339.392 254.249L340.581 250.538L340.691 250.196L340.402 249.983L337.279 247.682H341.132H341.497L341.608 247.335L342.793 243.638Z" fill="#BB9200" stroke="#BB9200"/>
<path d="M363.509 243.638L364.694 247.335L364.805 247.682H365.17H369.023L365.9 249.983L365.611 250.196L365.72 250.538L366.91 254.249L363.805 251.962L363.509 251.744L363.212 251.962L360.108 254.249L361.297 250.538L361.407 250.196L361.118 249.983L357.994 247.682H361.848H362.213L362.324 247.335L363.509 243.638Z" fill="#BB9200" stroke="#BB9200"/>
<path d="M342.793 261.638L343.978 265.335L344.089 265.682H344.454H348.307L345.184 267.983L344.895 268.196L345.004 268.538L346.194 272.249L343.089 269.962L342.793 269.744L342.496 269.962L339.392 272.249L340.581 268.538L340.691 268.196L340.402 267.983L337.279 265.682H341.132H341.497L341.608 265.335L342.793 261.638Z" fill="#BB9200" stroke="#BB9200"/>
<rect x="453" y="194" width="718" height="4" rx="2" fill="url(#paint1_linear_611_5103)" fill-opacity="0.4"/>
<g clip-path="url(#clip0_611_5103)">
<rect x="453" y="212" width="718" height="4" rx="2" fill="url(#paint2_linear_611_5103)" fill-opacity="0.4"/>
<rect x="453" y="212" width="728" height="4" rx="2" fill="url(#paint3_linear_611_5103)"/>
</g>
<g clip-path="url(#clip1_611_5103)">
<rect x="453" y="229" width="718" height="4" rx="2" fill="url(#paint4_linear_611_5103)" fill-opacity="0.4"/>
<rect x="453" y="229" width="728" height="4" rx="2" fill="url(#paint5_linear_611_5103)"/>
</g>
<g clip-path="url(#clip2_611_5103)">
<rect x="453" y="248" width="718" height="4" rx="2" fill="url(#paint6_linear_611_5103)" fill-opacity="0.4"/>
<rect x="453" y="248" width="728" height="4" rx="2" fill="url(#paint7_linear_611_5103)"/>
</g>
<g clip-path="url(#clip3_611_5103)">
<rect x="453" y="266" width="718" height="4" rx="2" fill="url(#paint8_linear_611_5103)" fill-opacity="0.4"/>
<rect x="453" y="266" width="728" height="4" rx="2" fill="url(#paint9_linear_611_5103)"/>
</g>
<path d="M425.312 111.12C424.72 111.12 424.14 111.036 423.572 110.868C423.012 110.692 422.54 110.452 422.156 110.148L422.816 108.936C423.12 109.184 423.488 109.384 423.92 109.536C424.36 109.688 424.816 109.764 425.288 109.764C425.84 109.764 426.272 109.648 426.584 109.416C426.904 109.184 427.064 108.872 427.064 108.48C427.064 108.216 426.996 107.984 426.86 107.784C426.732 107.584 426.5 107.432 426.164 107.328C425.836 107.224 425.384 107.172 424.808 107.172H422.78L423.212 102.6H428.144V103.908H423.788L424.604 103.164L424.28 106.584L423.464 105.852H425.156C425.988 105.852 426.656 105.964 427.16 106.188C427.672 106.404 428.044 106.708 428.276 107.1C428.516 107.484 428.636 107.924 428.636 108.42C428.636 108.908 428.516 109.356 428.276 109.764C428.036 110.172 427.668 110.5 427.172 110.748C426.684 110.996 426.064 111.12 425.312 111.12ZM430.472 111.084C430.2 111.084 429.968 110.992 429.776 110.808C429.584 110.616 429.488 110.376 429.488 110.088C429.488 109.784 429.584 109.544 429.776 109.368C429.968 109.184 430.2 109.092 430.472 109.092C430.744 109.092 430.976 109.184 431.168 109.368C431.36 109.544 431.456 109.784 431.456 110.088C431.456 110.376 431.36 110.616 431.168 110.808C430.976 110.992 430.744 111.084 430.472 111.084ZM435.829 111.12C435.165 111.12 434.565 110.952 434.029 110.616C433.501 110.28 433.085 109.792 432.781 109.152C432.477 108.504 432.325 107.72 432.325 106.8C432.325 105.88 432.477 105.1 432.781 104.46C433.085 103.812 433.501 103.32 434.029 102.984C434.565 102.648 435.165 102.48 435.829 102.48C436.501 102.48 437.101 102.648 437.629 102.984C438.157 103.32 438.573 103.812 438.877 104.46C439.189 105.1 439.345 105.88 439.345 106.8C439.345 107.72 439.189 108.504 438.877 109.152C438.573 109.792 438.157 110.28 437.629 110.616C437.101 110.952 436.501 111.12 435.829 111.12ZM435.829 109.764C436.221 109.764 436.561 109.66 436.849 109.452C437.137 109.236 437.361 108.908 437.521 108.468C437.689 108.028 437.773 107.472 437.773 106.8C437.773 106.12 437.689 105.564 437.521 105.132C437.361 104.692 437.137 104.368 436.849 104.16C436.561 103.944 436.221 103.836 435.829 103.836C435.453 103.836 435.117 103.944 434.821 104.16C434.533 104.368 434.305 104.692 434.137 105.132C433.977 105.564 433.897 106.12 433.897 106.8C433.897 107.472 433.977 108.028 434.137 108.468C434.305 108.908 434.533 109.236 434.821 109.452C435.117 109.66 435.453 109.764 435.829 109.764Z" fill="#BB9200"/>
<path d="M597.408 109.092V108.012L601.548 102.6H603.216L599.136 108.012L598.356 107.772H605.016V109.092H597.408ZM602.016 111V109.092L602.064 107.772V106.08H603.528V111H602.016ZM606.843 111.084C606.571 111.084 606.339 110.992 606.147 110.808C605.955 110.616 605.859 110.376 605.859 110.088C605.859 109.784 605.955 109.544 606.147 109.368C606.339 109.184 606.571 109.092 606.843 109.092C607.115 109.092 607.347 109.184 607.539 109.368C607.731 109.544 607.827 109.784 607.827 110.088C607.827 110.376 607.731 110.616 607.539 110.808C607.347 110.992 607.115 111.084 606.843 111.084ZM612.2 111.12C611.536 111.12 610.936 110.952 610.4 110.616C609.872 110.28 609.456 109.792 609.152 109.152C608.848 108.504 608.696 107.72 608.696 106.8C608.696 105.88 608.848 105.1 609.152 104.46C609.456 103.812 609.872 103.32 610.4 102.984C610.936 102.648 611.536 102.48 612.2 102.48C612.872 102.48 613.472 102.648 614 102.984C614.528 103.32 614.944 103.812 615.248 104.46C615.56 105.1 615.716 105.88 615.716 106.8C615.716 107.72 615.56 108.504 615.248 109.152C614.944 109.792 614.528 110.28 614 110.616C613.472 110.952 612.872 111.12 612.2 111.12ZM612.2 109.764C612.592 109.764 612.932 109.66 613.22 109.452C613.508 109.236 613.732 108.908 613.892 108.468C614.06 108.028 614.144 107.472 614.144 106.8C614.144 106.12 614.06 105.564 613.892 105.132C613.732 104.692 613.508 104.368 613.22 104.16C612.932 103.944 612.592 103.836 612.2 103.836C611.824 103.836 611.488 103.944 611.192 104.16C610.904 104.368 610.676 104.692 610.508 105.132C610.348 105.564 610.268 106.12 610.268 106.8C610.268 107.472 610.348 108.028 610.508 108.468C610.676 108.908 610.904 109.236 611.192 109.452C611.488 109.66 611.824 109.764 612.2 109.764Z" fill="#BB9200"/>
<path d="M772.408 109.092V108.012L776.548 102.6H778.216L774.136 108.012L773.356 107.772H780.016V109.092H772.408ZM777.016 111V109.092L777.064 107.772V106.08H778.528V111H777.016ZM781.843 111.084C781.571 111.084 781.339 110.992 781.147 110.808C780.955 110.616 780.859 110.376 780.859 110.088C780.859 109.784 780.955 109.544 781.147 109.368C781.339 109.184 781.571 109.092 781.843 109.092C782.115 109.092 782.347 109.184 782.539 109.368C782.731 109.544 782.827 109.784 782.827 110.088C782.827 110.376 782.731 110.616 782.539 110.808C782.347 110.992 782.115 111.084 781.843 111.084ZM787.2 111.12C786.536 111.12 785.936 110.952 785.4 110.616C784.872 110.28 784.456 109.792 784.152 109.152C783.848 108.504 783.696 107.72 783.696 106.8C783.696 105.88 783.848 105.1 784.152 104.46C784.456 103.812 784.872 103.32 785.4 102.984C785.936 102.648 786.536 102.48 787.2 102.48C787.872 102.48 788.472 102.648 789 102.984C789.528 103.32 789.944 103.812 790.248 104.46C790.56 105.1 790.716 105.88 790.716 106.8C790.716 107.72 790.56 108.504 790.248 109.152C789.944 109.792 789.528 110.28 789 110.616C788.472 110.952 787.872 111.12 787.2 111.12ZM787.2 109.764C787.592 109.764 787.932 109.66 788.22 109.452C788.508 109.236 788.732 108.908 788.892 108.468C789.06 108.028 789.144 107.472 789.144 106.8C789.144 106.12 789.06 105.564 788.892 105.132C788.732 104.692 788.508 104.368 788.22 104.16C787.932 103.944 787.592 103.836 787.2 103.836C786.824 103.836 786.488 103.944 786.192 104.16C785.904 104.368 785.676 104.692 785.508 105.132C785.348 105.564 785.268 106.12 785.268 106.8C785.268 107.472 785.348 108.028 785.508 108.468C785.676 108.908 785.904 109.236 786.192 109.452C786.488 109.66 786.824 109.764 787.2 109.764Z" fill="#BB9200"/>
<path d="M950.312 111.12C949.72 111.12 949.14 111.036 948.572 110.868C948.012 110.692 947.54 110.452 947.156 110.148L947.816 108.936C948.12 109.184 948.488 109.384 948.92 109.536C949.36 109.688 949.816 109.764 950.288 109.764C950.84 109.764 951.272 109.648 951.584 109.416C951.904 109.184 952.064 108.872 952.064 108.48C952.064 108.216 951.996 107.984 951.86 107.784C951.732 107.584 951.5 107.432 951.164 107.328C950.836 107.224 950.384 107.172 949.808 107.172H947.78L948.212 102.6H953.144V103.908H948.788L949.604 103.164L949.28 106.584L948.464 105.852H950.156C950.988 105.852 951.656 105.964 952.16 106.188C952.672 106.404 953.044 106.708 953.276 107.1C953.516 107.484 953.636 107.924 953.636 108.42C953.636 108.908 953.516 109.356 953.276 109.764C953.036 110.172 952.668 110.5 952.172 110.748C951.684 110.996 951.064 111.12 950.312 111.12ZM955.472 111.084C955.2 111.084 954.968 110.992 954.776 110.808C954.584 110.616 954.488 110.376 954.488 110.088C954.488 109.784 954.584 109.544 954.776 109.368C954.968 109.184 955.2 109.092 955.472 109.092C955.744 109.092 955.976 109.184 956.168 109.368C956.36 109.544 956.456 109.784 956.456 110.088C956.456 110.376 956.36 110.616 956.168 110.808C955.976 110.992 955.744 111.084 955.472 111.084ZM960.829 111.12C960.165 111.12 959.565 110.952 959.029 110.616C958.501 110.28 958.085 109.792 957.781 109.152C957.477 108.504 957.325 107.72 957.325 106.8C957.325 105.88 957.477 105.1 957.781 104.46C958.085 103.812 958.501 103.32 959.029 102.984C959.565 102.648 960.165 102.48 960.829 102.48C961.501 102.48 962.101 102.648 962.629 102.984C963.157 103.32 963.573 103.812 963.877 104.46C964.189 105.1 964.345 105.88 964.345 106.8C964.345 107.72 964.189 108.504 963.877 109.152C963.573 109.792 963.157 110.28 962.629 110.616C962.101 110.952 961.501 111.12 960.829 111.12ZM960.829 109.764C961.221 109.764 961.561 109.66 961.849 109.452C962.137 109.236 962.361 108.908 962.521 108.468C962.689 108.028 962.773 107.472 962.773 106.8C962.773 106.12 962.689 105.564 962.521 105.132C962.361 104.692 962.137 104.368 961.849 104.16C961.561 103.944 961.221 103.836 960.829 103.836C960.453 103.836 960.117 103.944 959.821 104.16C959.533 104.368 959.305 104.692 959.137 105.132C958.977 105.564 958.897 106.12 958.897 106.8C958.897 107.472 958.977 108.028 959.137 108.468C959.305 108.908 959.533 109.236 959.821 109.452C960.117 109.66 960.453 109.764 960.829 109.764Z" fill="#BB9200"/>
<path d="M339.752 90.072C338.68 90.072 337.836 89.764 337.22 89.148C336.604 88.532 336.296 87.62 336.296 86.412V81.6H337.184V86.376C337.184 87.368 337.408 88.1 337.856 88.572C338.304 89.044 338.936 89.28 339.752 89.28C340.576 89.28 341.212 89.044 341.66 88.572C342.108 88.1 342.332 87.368 342.332 86.376V81.6H343.196V86.412C343.196 87.62 342.888 88.532 342.272 89.148C341.664 89.764 340.824 90.072 339.752 90.072ZM347.384 90.06C346.864 90.06 346.372 89.988 345.908 89.844C345.444 89.692 345.08 89.504 344.816 89.28L345.2 88.608C345.456 88.8 345.784 88.968 346.184 89.112C346.584 89.248 347.004 89.316 347.444 89.316C348.044 89.316 348.476 89.224 348.74 89.04C349.004 88.848 349.136 88.596 349.136 88.284C349.136 88.052 349.06 87.872 348.908 87.744C348.764 87.608 348.572 87.508 348.332 87.444C348.092 87.372 347.824 87.312 347.528 87.264C347.232 87.216 346.936 87.16 346.64 87.096C346.352 87.032 346.088 86.94 345.848 86.82C345.608 86.692 345.412 86.52 345.26 86.304C345.116 86.088 345.044 85.8 345.044 85.44C345.044 85.096 345.14 84.788 345.332 84.516C345.524 84.244 345.804 84.032 346.172 83.88C346.548 83.72 347.004 83.64 347.54 83.64C347.948 83.64 348.356 83.696 348.764 83.808C349.172 83.912 349.508 84.052 349.772 84.228L349.4 84.912C349.12 84.72 348.82 84.584 348.5 84.504C348.18 84.416 347.86 84.372 347.54 84.372C346.972 84.372 346.552 84.472 346.28 84.672C346.016 84.864 345.884 85.112 345.884 85.416C345.884 85.656 345.956 85.844 346.1 85.98C346.252 86.116 346.448 86.224 346.688 86.304C346.936 86.376 347.204 86.436 347.492 86.484C347.788 86.532 348.08 86.592 348.368 86.664C348.664 86.728 348.932 86.82 349.172 86.94C349.42 87.052 349.616 87.216 349.76 87.432C349.912 87.64 349.988 87.916 349.988 88.26C349.988 88.628 349.884 88.948 349.676 89.22C349.476 89.484 349.18 89.692 348.788 89.844C348.404 89.988 347.936 90.06 347.384 90.06ZM354.227 90.06C353.571 90.06 352.995 89.924 352.499 89.652C352.003 89.372 351.615 88.992 351.335 88.512C351.055 88.024 350.915 87.468 350.915 86.844C350.915 86.22 351.047 85.668 351.311 85.188C351.583 84.708 351.951 84.332 352.415 84.06C352.887 83.78 353.415 83.64 353.999 83.64C354.591 83.64 355.115 83.776 355.571 84.048C356.035 84.312 356.399 84.688 356.663 85.176C356.927 85.656 357.059 86.212 357.059 86.844C357.059 86.884 357.055 86.928 357.047 86.976C357.047 87.016 357.047 87.06 357.047 87.108H351.563V86.472H356.591L356.255 86.724C356.255 86.268 356.155 85.864 355.955 85.512C355.763 85.152 355.499 84.872 355.163 84.672C354.827 84.472 354.439 84.372 353.999 84.372C353.567 84.372 353.179 84.472 352.835 84.672C352.491 84.872 352.223 85.152 352.031 85.512C351.839 85.872 351.743 86.284 351.743 86.748V86.88C351.743 87.36 351.847 87.784 352.055 88.152C352.271 88.512 352.567 88.796 352.943 89.004C353.327 89.204 353.763 89.304 354.251 89.304C354.635 89.304 354.991 89.236 355.319 89.1C355.655 88.964 355.943 88.756 356.183 88.476L356.663 89.028C356.383 89.364 356.031 89.62 355.607 89.796C355.191 89.972 354.731 90.06 354.227 90.06ZM358.793 90V83.7H359.609V85.416L359.525 85.116C359.701 84.636 359.997 84.272 360.413 84.024C360.829 83.768 361.345 83.64 361.961 83.64V84.468C361.929 84.468 361.897 84.468 361.865 84.468C361.833 84.46 361.801 84.456 361.769 84.456C361.105 84.456 360.585 84.66 360.209 85.068C359.833 85.468 359.645 86.04 359.645 86.784V90H358.793ZM367.723 85.356H372.163V86.112H367.723V85.356ZM367.819 89.232H372.871V90H366.931V81.6H372.691V82.368H367.819V89.232ZM373.642 90L376.306 86.544L376.294 86.964L373.762 83.7H374.722L376.798 86.4L376.438 86.388L378.514 83.7H379.45L376.894 87L376.906 86.544L379.594 90H378.622L376.426 87.12L376.762 87.168L374.602 90H373.642ZM384.264 90.06C383.72 90.06 383.228 89.936 382.788 89.688C382.348 89.432 381.996 89.068 381.732 88.596C381.476 88.116 381.348 87.532 381.348 86.844C381.348 86.156 381.476 85.576 381.732 85.104C381.988 84.624 382.336 84.26 382.776 84.012C383.216 83.764 383.712 83.64 384.264 83.64C384.864 83.64 385.4 83.776 385.872 84.048C386.352 84.312 386.728 84.688 387 85.176C387.272 85.656 387.408 86.212 387.408 86.844C387.408 87.484 387.272 88.044 387 88.524C386.728 89.004 386.352 89.38 385.872 89.652C385.4 89.924 384.864 90.06 384.264 90.06ZM381.012 92.328V83.7H381.828V85.596L381.744 86.856L381.864 88.128V92.328H381.012ZM384.204 89.304C384.652 89.304 385.052 89.204 385.404 89.004C385.756 88.796 386.036 88.508 386.244 88.14C386.452 87.764 386.556 87.332 386.556 86.844C386.556 86.356 386.452 85.928 386.244 85.56C386.036 85.192 385.756 84.904 385.404 84.696C385.052 84.488 384.652 84.384 384.204 84.384C383.756 84.384 383.352 84.488 382.992 84.696C382.64 84.904 382.36 85.192 382.152 85.56C381.952 85.928 381.852 86.356 381.852 86.844C381.852 87.332 381.952 87.764 382.152 88.14C382.36 88.508 382.64 88.796 382.992 89.004C383.352 89.204 383.756 89.304 384.204 89.304ZM391.821 90.06C391.165 90.06 390.589 89.924 390.093 89.652C389.597 89.372 389.209 88.992 388.929 88.512C388.649 88.024 388.509 87.468 388.509 86.844C388.509 86.22 388.641 85.668 388.905 85.188C389.177 84.708 389.545 84.332 390.009 84.06C390.481 83.78 391.009 83.64 391.593 83.64C392.185 83.64 392.709 83.776 393.165 84.048C393.629 84.312 393.993 84.688 394.257 85.176C394.521 85.656 394.653 86.212 394.653 86.844C394.653 86.884 394.649 86.928 394.641 86.976C394.641 87.016 394.641 87.06 394.641 87.108H389.157V86.472H394.185L393.849 86.724C393.849 86.268 393.749 85.864 393.549 85.512C393.357 85.152 393.093 84.872 392.757 84.672C392.421 84.472 392.033 84.372 391.593 84.372C391.161 84.372 390.773 84.472 390.429 84.672C390.085 84.872 389.817 85.152 389.625 85.512C389.433 85.872 389.337 86.284 389.337 86.748V86.88C389.337 87.36 389.441 87.784 389.649 88.152C389.865 88.512 390.161 88.796 390.537 89.004C390.921 89.204 391.357 89.304 391.845 89.304C392.229 89.304 392.585 89.236 392.913 89.1C393.249 88.964 393.537 88.756 393.777 88.476L394.257 89.028C393.977 89.364 393.625 89.62 393.201 89.796C392.785 89.972 392.325 90.06 391.821 90.06ZM396.387 90V83.7H397.203V85.416L397.119 85.116C397.295 84.636 397.591 84.272 398.007 84.024C398.423 83.768 398.939 83.64 399.555 83.64V84.468C399.523 84.468 399.491 84.468 399.459 84.468C399.427 84.46 399.395 84.456 399.363 84.456C398.699 84.456 398.179 84.66 397.803 85.068C397.427 85.468 397.239 86.04 397.239 86.784V90H396.387ZM401.11 90V83.7H401.962V90H401.11ZM401.542 82.308C401.366 82.308 401.218 82.248 401.098 82.128C400.978 82.008 400.918 81.864 400.918 81.696C400.918 81.528 400.978 81.388 401.098 81.276C401.218 81.156 401.366 81.096 401.542 81.096C401.718 81.096 401.866 81.152 401.986 81.264C402.106 81.376 402.166 81.516 402.166 81.684C402.166 81.86 402.106 82.008 401.986 82.128C401.874 82.248 401.726 82.308 401.542 82.308ZM407.009 90.06C406.353 90.06 405.777 89.924 405.281 89.652C404.785 89.372 404.397 88.992 404.117 88.512C403.837 88.024 403.697 87.468 403.697 86.844C403.697 86.22 403.829 85.668 404.093 85.188C404.365 84.708 404.733 84.332 405.197 84.06C405.669 83.78 406.197 83.64 406.781 83.64C407.373 83.64 407.897 83.776 408.353 84.048C408.817 84.312 409.181 84.688 409.445 85.176C409.709 85.656 409.841 86.212 409.841 86.844C409.841 86.884 409.837 86.928 409.829 86.976C409.829 87.016 409.829 87.06 409.829 87.108H404.345V86.472H409.373L409.037 86.724C409.037 86.268 408.937 85.864 408.737 85.512C408.545 85.152 408.281 84.872 407.945 84.672C407.609 84.472 407.221 84.372 406.781 84.372C406.349 84.372 405.961 84.472 405.617 84.672C405.273 84.872 405.005 85.152 404.813 85.512C404.621 85.872 404.525 86.284 404.525 86.748V86.88C404.525 87.36 404.629 87.784 404.837 88.152C405.053 88.512 405.349 88.796 405.725 89.004C406.109 89.204 406.545 89.304 407.033 89.304C407.417 89.304 407.773 89.236 408.101 89.1C408.437 88.964 408.725 88.756 408.965 88.476L409.445 89.028C409.165 89.364 408.813 89.62 408.389 89.796C407.973 89.972 407.513 90.06 407.009 90.06ZM414.791 83.64C415.303 83.64 415.751 83.74 416.135 83.94C416.527 84.132 416.831 84.428 417.047 84.828C417.271 85.228 417.383 85.732 417.383 86.34V90H416.531V86.424C416.531 85.76 416.363 85.26 416.027 84.924C415.699 84.58 415.235 84.408 414.635 84.408C414.187 84.408 413.795 84.5 413.459 84.684C413.131 84.86 412.875 85.12 412.691 85.464C412.515 85.8 412.427 86.208 412.427 86.688V90H411.575V83.7H412.391V85.428L412.259 85.104C412.459 84.648 412.779 84.292 413.219 84.036C413.659 83.772 414.183 83.64 414.791 83.64ZM422.3 90.06C421.676 90.06 421.116 89.924 420.62 89.652C420.132 89.372 419.748 88.992 419.468 88.512C419.188 88.024 419.048 87.468 419.048 86.844C419.048 86.212 419.188 85.656 419.468 85.176C419.748 84.696 420.132 84.32 420.62 84.048C421.116 83.776 421.676 83.64 422.3 83.64C422.836 83.64 423.32 83.744 423.752 83.952C424.184 84.16 424.524 84.472 424.772 84.888L424.136 85.32C423.92 85 423.652 84.764 423.332 84.612C423.012 84.46 422.664 84.384 422.288 84.384C421.84 84.384 421.436 84.488 421.076 84.696C420.716 84.896 420.432 85.18 420.224 85.548C420.016 85.916 419.912 86.348 419.912 86.844C419.912 87.34 420.016 87.772 420.224 88.14C420.432 88.508 420.716 88.796 421.076 89.004C421.436 89.204 421.84 89.304 422.288 89.304C422.664 89.304 423.012 89.228 423.332 89.076C423.652 88.924 423.92 88.692 424.136 88.38L424.772 88.812C424.524 89.22 424.184 89.532 423.752 89.748C423.32 89.956 422.836 90.06 422.3 90.06ZM429.016 90.06C428.36 90.06 427.784 89.924 427.288 89.652C426.792 89.372 426.404 88.992 426.124 88.512C425.844 88.024 425.704 87.468 425.704 86.844C425.704 86.22 425.836 85.668 426.1 85.188C426.372 84.708 426.74 84.332 427.204 84.06C427.676 83.78 428.204 83.64 428.788 83.64C429.38 83.64 429.904 83.776 430.36 84.048C430.824 84.312 431.188 84.688 431.452 85.176C431.716 85.656 431.848 86.212 431.848 86.844C431.848 86.884 431.844 86.928 431.836 86.976C431.836 87.016 431.836 87.06 431.836 87.108H426.352V86.472H431.38L431.044 86.724C431.044 86.268 430.944 85.864 430.744 85.512C430.552 85.152 430.288 84.872 429.952 84.672C429.616 84.472 429.228 84.372 428.788 84.372C428.356 84.372 427.968 84.472 427.624 84.672C427.28 84.872 427.012 85.152 426.82 85.512C426.628 85.872 426.532 86.284 426.532 86.748V86.88C426.532 87.36 426.636 87.784 426.844 88.152C427.06 88.512 427.356 88.796 427.732 89.004C428.116 89.204 428.552 89.304 429.04 89.304C429.424 89.304 429.78 89.236 430.108 89.1C430.444 88.964 430.732 88.756 430.972 88.476L431.452 89.028C431.172 89.364 430.82 89.62 430.396 89.796C429.98 89.972 429.52 90.06 429.016 90.06Z" fill="white" fill-opacity="0.6"/>
<path d="M512.256 82.368V85.668H516.6V86.436H512.256V90H511.368V81.6H517.128V82.368H512.256ZM519.481 84.924C519.681 84.5 519.977 84.18 520.369 83.964C520.769 83.748 521.261 83.64 521.845 83.64V84.468L521.641 84.456C520.977 84.456 520.457 84.66 520.081 85.068C519.705 85.476 519.517 86.048 519.517 86.784V90H518.665V83.688H519.481V84.924ZM523.387 83.688H524.239V90H523.387V83.688ZM523.819 82.308C523.643 82.308 523.495 82.248 523.375 82.128C523.255 82.008 523.195 81.864 523.195 81.696C523.195 81.536 523.255 81.396 523.375 81.276C523.495 81.156 523.643 81.096 523.819 81.096C523.995 81.096 524.143 81.156 524.263 81.276C524.383 81.388 524.443 81.524 524.443 81.684C524.443 81.86 524.383 82.008 524.263 82.128C524.143 82.248 523.995 82.308 523.819 82.308ZM532.106 87.108H526.826C526.874 87.764 527.126 88.296 527.582 88.704C528.038 89.104 528.614 89.304 529.31 89.304C529.702 89.304 530.062 89.236 530.39 89.1C530.718 88.956 531.002 88.748 531.242 88.476L531.722 89.028C531.442 89.364 531.09 89.62 530.666 89.796C530.25 89.972 529.79 90.06 529.286 90.06C528.638 90.06 528.062 89.924 527.558 89.652C527.062 89.372 526.674 88.988 526.394 88.5C526.114 88.012 525.974 87.46 525.974 86.844C525.974 86.228 526.106 85.676 526.37 85.188C526.642 84.7 527.01 84.32 527.474 84.048C527.946 83.776 528.474 83.64 529.058 83.64C529.642 83.64 530.166 83.776 530.63 84.048C531.094 84.32 531.458 84.7 531.722 85.188C531.986 85.668 532.118 86.22 532.118 86.844L532.106 87.108ZM529.058 84.372C528.45 84.372 527.938 84.568 527.522 84.96C527.114 85.344 526.882 85.848 526.826 86.472H531.302C531.246 85.848 531.01 85.344 530.594 84.96C530.186 84.568 529.674 84.372 529.058 84.372ZM537.068 83.64C537.86 83.64 538.488 83.872 538.952 84.336C539.424 84.792 539.66 85.46 539.66 86.34V90H538.808V86.424C538.808 85.768 538.644 85.268 538.316 84.924C537.988 84.58 537.52 84.408 536.912 84.408C536.232 84.408 535.692 84.612 535.292 85.02C534.9 85.42 534.704 85.976 534.704 86.688V90H533.852V83.688H534.668V84.852C534.9 84.468 535.22 84.172 535.628 83.964C536.044 83.748 536.524 83.64 537.068 83.64ZM547.757 81.096V90H546.941V88.752C546.685 89.176 546.345 89.5 545.921 89.724C545.505 89.948 545.033 90.06 544.505 90.06C543.913 90.06 543.377 89.924 542.897 89.652C542.417 89.38 542.041 89 541.769 88.512C541.497 88.024 541.361 87.468 541.361 86.844C541.361 86.22 541.497 85.664 541.769 85.176C542.041 84.688 542.417 84.312 542.897 84.048C543.377 83.776 543.913 83.64 544.505 83.64C545.017 83.64 545.477 83.748 545.885 83.964C546.301 84.172 546.641 84.48 546.905 84.888V81.096H547.757ZM544.577 89.304C545.017 89.304 545.413 89.204 545.765 89.004C546.125 88.796 546.405 88.504 546.605 88.128C546.813 87.752 546.917 87.324 546.917 86.844C546.917 86.364 546.813 85.936 546.605 85.56C546.405 85.184 546.125 84.896 545.765 84.696C545.413 84.488 545.017 84.384 544.577 84.384C544.129 84.384 543.725 84.488 543.365 84.696C543.013 84.896 542.733 85.184 542.525 85.56C542.325 85.936 542.225 86.364 542.225 86.844C542.225 87.324 542.325 87.752 542.525 88.128C542.733 88.504 543.013 88.796 543.365 89.004C543.725 89.204 544.129 89.304 544.577 89.304ZM550.129 81.096H550.981V90H550.129V81.096ZM553.352 83.688H554.204V90H553.352V83.688ZM553.784 82.308C553.608 82.308 553.46 82.248 553.34 82.128C553.22 82.008 553.16 81.864 553.16 81.696C553.16 81.536 553.22 81.396 553.34 81.276C553.46 81.156 553.608 81.096 553.784 81.096C553.96 81.096 554.108 81.156 554.228 81.276C554.348 81.388 554.408 81.524 554.408 81.684C554.408 81.86 554.348 82.008 554.228 82.128C554.108 82.248 553.96 82.308 553.784 82.308ZM559.791 83.64C560.583 83.64 561.211 83.872 561.675 84.336C562.147 84.792 562.383 85.46 562.383 86.34V90H561.531V86.424C561.531 85.768 561.367 85.268 561.039 84.924C560.711 84.58 560.243 84.408 559.635 84.408C558.955 84.408 558.415 84.612 558.015 85.02C557.623 85.42 557.427 85.976 557.427 86.688V90H556.575V83.688H557.391V84.852C557.623 84.468 557.943 84.172 558.351 83.964C558.767 83.748 559.247 83.64 559.791 83.64ZM570.215 87.108H564.935C564.983 87.764 565.235 88.296 565.691 88.704C566.147 89.104 566.723 89.304 567.419 89.304C567.811 89.304 568.171 89.236 568.499 89.1C568.827 88.956 569.111 88.748 569.351 88.476L569.831 89.028C569.551 89.364 569.199 89.62 568.775 89.796C568.359 89.972 567.899 90.06 567.395 90.06C566.747 90.06 566.171 89.924 565.667 89.652C565.171 89.372 564.783 88.988 564.503 88.5C564.223 88.012 564.083 87.46 564.083 86.844C564.083 86.228 564.215 85.676 564.479 85.188C564.751 84.7 565.119 84.32 565.583 84.048C566.055 83.776 566.583 83.64 567.167 83.64C567.751 83.64 568.275 83.776 568.739 84.048C569.203 84.32 569.567 84.7 569.831 85.188C570.095 85.668 570.227 86.22 570.227 86.844L570.215 87.108ZM567.167 84.372C566.559 84.372 566.047 84.568 565.631 84.96C565.223 85.344 564.991 85.848 564.935 86.472H569.411C569.355 85.848 569.119 85.344 568.703 84.96C568.295 84.568 567.783 84.372 567.167 84.372ZM573.653 90.06C573.141 90.06 572.649 89.988 572.177 89.844C571.713 89.692 571.349 89.504 571.085 89.28L571.469 88.608C571.733 88.816 572.065 88.988 572.465 89.124C572.865 89.252 573.281 89.316 573.713 89.316C574.289 89.316 574.713 89.228 574.985 89.052C575.265 88.868 575.405 88.612 575.405 88.284C575.405 88.052 575.329 87.872 575.177 87.744C575.025 87.608 574.833 87.508 574.601 87.444C574.369 87.372 574.061 87.304 573.677 87.24C573.165 87.144 572.753 87.048 572.441 86.952C572.129 86.848 571.861 86.676 571.637 86.436C571.421 86.196 571.313 85.864 571.313 85.44C571.313 84.912 571.533 84.48 571.973 84.144C572.413 83.808 573.025 83.64 573.809 83.64C574.217 83.64 574.625 83.696 575.033 83.808C575.441 83.912 575.777 84.052 576.041 84.228L575.669 84.912C575.149 84.552 574.529 84.372 573.809 84.372C573.265 84.372 572.853 84.468 572.573 84.66C572.301 84.852 572.165 85.104 572.165 85.416C572.165 85.656 572.241 85.848 572.393 85.992C572.553 86.136 572.749 86.244 572.981 86.316C573.213 86.38 573.533 86.448 573.941 86.52C574.445 86.616 574.849 86.712 575.153 86.808C575.457 86.904 575.717 87.068 575.933 87.3C576.149 87.532 576.257 87.852 576.257 88.26C576.257 88.812 576.025 89.252 575.561 89.58C575.105 89.9 574.469 90.06 573.653 90.06ZM579.525 90.06C579.013 90.06 578.521 89.988 578.049 89.844C577.585 89.692 577.221 89.504 576.957 89.28L577.341 88.608C577.605 88.816 577.937 88.988 578.337 89.124C578.737 89.252 579.153 89.316 579.585 89.316C580.161 89.316 580.585 89.228 580.857 89.052C581.137 88.868 581.277 88.612 581.277 88.284C581.277 88.052 581.201 87.872 581.049 87.744C580.897 87.608 580.705 87.508 580.473 87.444C580.241 87.372 579.933 87.304 579.549 87.24C579.037 87.144 578.625 87.048 578.313 86.952C578.001 86.848 577.733 86.676 577.509 86.436C577.293 86.196 577.185 85.864 577.185 85.44C577.185 84.912 577.405 84.48 577.845 84.144C578.285 83.808 578.897 83.64 579.681 83.64C580.089 83.64 580.497 83.696 580.905 83.808C581.313 83.912 581.649 84.052 581.913 84.228L581.541 84.912C581.021 84.552 580.401 84.372 579.681 84.372C579.137 84.372 578.725 84.468 578.445 84.66C578.173 84.852 578.037 85.104 578.037 85.416C578.037 85.656 578.113 85.848 578.265 85.992C578.425 86.136 578.621 86.244 578.853 86.316C579.085 86.38 579.405 86.448 579.813 86.52C580.317 86.616 580.721 86.712 581.025 86.808C581.329 86.904 581.589 87.068 581.805 87.3C582.021 87.532 582.129 87.852 582.129 88.26C582.129 88.812 581.897 89.252 581.433 89.58C580.977 89.9 580.341 90.06 579.525 90.06Z" fill="white" fill-opacity="0.6"/>
<path d="M688 90V82.368H685.048V81.6H691.84V82.368H688.888V90H688ZM692.915 90V83.7H693.731V85.416L693.647 85.116C693.823 84.636 694.119 84.272 694.535 84.024C694.951 83.768 695.467 83.64 696.083 83.64V84.468C696.051 84.468 696.019 84.468 695.987 84.468C695.955 84.46 695.923 84.456 695.891 84.456C695.227 84.456 694.707 84.66 694.331 85.068C693.955 85.468 693.767 86.04 693.767 86.784V90H692.915ZM701.116 90V88.608L701.08 88.38V86.052C701.08 85.516 700.928 85.104 700.624 84.816C700.328 84.528 699.884 84.384 699.292 84.384C698.884 84.384 698.496 84.452 698.128 84.588C697.76 84.724 697.448 84.904 697.192 85.128L696.808 84.492C697.128 84.22 697.512 84.012 697.96 83.868C698.408 83.716 698.88 83.64 699.376 83.64C700.192 83.64 700.82 83.844 701.26 84.252C701.708 84.652 701.932 85.264 701.932 86.088V90H701.116ZM698.944 90.06C698.472 90.06 698.06 89.984 697.708 89.832C697.364 89.672 697.1 89.456 696.916 89.184C696.732 88.904 696.64 88.584 696.64 88.224C696.64 87.896 696.716 87.6 696.868 87.336C697.028 87.064 697.284 86.848 697.636 86.688C697.996 86.52 698.476 86.436 699.076 86.436H701.248V87.072H699.1C698.492 87.072 698.068 87.18 697.828 87.396C697.596 87.612 697.48 87.88 697.48 88.2C697.48 88.56 697.62 88.848 697.9 89.064C698.18 89.28 698.572 89.388 699.076 89.388C699.556 89.388 699.968 89.28 700.312 89.064C700.664 88.84 700.92 88.52 701.08 88.104L701.272 88.692C701.112 89.108 700.832 89.44 700.432 89.688C700.04 89.936 699.544 90.06 698.944 90.06ZM706.755 90.06C706.155 90.06 705.615 89.924 705.135 89.652C704.663 89.38 704.291 89.004 704.019 88.524C703.747 88.036 703.611 87.476 703.611 86.844C703.611 86.204 703.747 85.644 704.019 85.164C704.291 84.684 704.663 84.312 705.135 84.048C705.615 83.776 706.155 83.64 706.755 83.64C707.307 83.64 707.799 83.764 708.231 84.012C708.671 84.26 709.019 84.624 709.275 85.104C709.539 85.576 709.671 86.156 709.671 86.844C709.671 87.524 709.543 88.104 709.287 88.584C709.031 89.064 708.683 89.432 708.243 89.688C707.811 89.936 707.315 90.06 706.755 90.06ZM706.815 89.304C707.263 89.304 707.663 89.204 708.015 89.004C708.375 88.796 708.655 88.508 708.855 88.14C709.063 87.764 709.167 87.332 709.167 86.844C709.167 86.348 709.063 85.916 708.855 85.548C708.655 85.18 708.375 84.896 708.015 84.696C707.663 84.488 707.263 84.384 706.815 84.384C706.375 84.384 705.979 84.488 705.627 84.696C705.275 84.896 704.995 85.18 704.787 85.548C704.579 85.916 704.475 86.348 704.475 86.844C704.475 87.332 704.579 87.764 704.787 88.14C704.995 88.508 705.275 88.796 705.627 89.004C705.979 89.204 706.375 89.304 706.815 89.304ZM709.191 90V88.104L709.275 86.832L709.155 85.56V81.096H710.007V90H709.191ZM712.379 90V83.7H713.231V90H712.379ZM712.811 82.308C712.635 82.308 712.487 82.248 712.367 82.128C712.247 82.008 712.187 81.864 712.187 81.696C712.187 81.528 712.247 81.388 712.367 81.276C712.487 81.156 712.635 81.096 712.811 81.096C712.987 81.096 713.135 81.152 713.255 81.264C713.375 81.376 713.435 81.516 713.435 81.684C713.435 81.86 713.375 82.008 713.255 82.128C713.143 82.248 712.995 82.308 712.811 82.308ZM718.818 83.64C719.33 83.64 719.778 83.74 720.162 83.94C720.554 84.132 720.858 84.428 721.074 84.828C721.298 85.228 721.41 85.732 721.41 86.34V90H720.558V86.424C720.558 85.76 720.39 85.26 720.054 84.924C719.726 84.58 719.262 84.408 718.662 84.408C718.214 84.408 717.822 84.5 717.486 84.684C717.158 84.86 716.902 85.12 716.718 85.464C716.542 85.8 716.454 86.208 716.454 86.688V90H715.602V83.7H716.418V85.428L716.286 85.104C716.486 84.648 716.806 84.292 717.246 84.036C717.686 83.772 718.21 83.64 718.818 83.64ZM726.399 92.388C725.823 92.388 725.271 92.304 724.743 92.136C724.215 91.968 723.787 91.728 723.459 91.416L723.891 90.768C724.187 91.032 724.551 91.24 724.983 91.392C725.423 91.552 725.887 91.632 726.375 91.632C727.175 91.632 727.763 91.444 728.139 91.068C728.515 90.7 728.703 90.124 728.703 89.34V87.768L728.823 86.688L728.739 85.608V83.7H729.555V89.232C729.555 90.32 729.287 91.116 728.751 91.62C728.223 92.132 727.439 92.388 726.399 92.388ZM726.243 89.76C725.643 89.76 725.103 89.632 724.623 89.376C724.143 89.112 723.763 88.748 723.483 88.284C723.211 87.82 723.075 87.288 723.075 86.688C723.075 86.088 723.211 85.56 723.483 85.104C723.763 84.64 724.143 84.28 724.623 84.024C725.103 83.768 725.643 83.64 726.243 83.64C726.803 83.64 727.307 83.756 727.755 83.988C728.203 84.22 728.559 84.564 728.823 85.02C729.087 85.476 729.219 86.032 729.219 86.688C729.219 87.344 729.087 87.9 728.823 88.356C728.559 88.812 728.203 89.16 727.755 89.4C727.307 89.64 726.803 89.76 726.243 89.76ZM726.327 89.004C726.791 89.004 727.203 88.908 727.563 88.716C727.923 88.516 728.207 88.244 728.415 87.9C728.623 87.548 728.727 87.144 728.727 86.688C728.727 86.232 728.623 85.832 728.415 85.488C728.207 85.144 727.923 84.876 727.563 84.684C727.203 84.484 726.791 84.384 726.327 84.384C725.871 84.384 725.459 84.484 725.091 84.684C724.731 84.876 724.447 85.144 724.239 85.488C724.039 85.832 723.939 86.232 723.939 86.688C723.939 87.144 724.039 87.548 724.239 87.9C724.447 88.244 724.731 88.516 725.091 88.716C725.459 88.908 725.871 89.004 726.327 89.004ZM735.247 90V81.6H738.391C739.103 81.6 739.715 81.716 740.227 81.948C740.739 82.172 741.131 82.5 741.403 82.932C741.683 83.356 741.823 83.872 741.823 84.48C741.823 85.072 741.683 85.584 741.403 86.016C741.131 86.44 740.739 86.768 740.227 87C739.715 87.224 739.103 87.336 738.391 87.336H735.739L736.135 86.928V90H735.247ZM740.983 90L738.823 86.952H739.783L741.955 90H740.983ZM736.135 87L735.739 86.58H738.367C739.207 86.58 739.843 86.396 740.275 86.028C740.715 85.66 740.935 85.144 740.935 84.48C740.935 83.808 740.715 83.288 740.275 82.92C739.843 82.552 739.207 82.368 738.367 82.368H735.739L736.135 81.948V87ZM746.415 90.06C745.759 90.06 745.183 89.924 744.687 89.652C744.191 89.372 743.803 88.992 743.523 88.512C743.243 88.024 743.103 87.468 743.103 86.844C743.103 86.22 743.235 85.668 743.499 85.188C743.771 84.708 744.139 84.332 744.603 84.06C745.075 83.78 745.603 83.64 746.187 83.64C746.779 83.64 747.303 83.776 747.759 84.048C748.223 84.312 748.587 84.688 748.851 85.176C749.115 85.656 749.247 86.212 749.247 86.844C749.247 86.884 749.243 86.928 749.235 86.976C749.235 87.016 749.235 87.06 749.235 87.108H743.751V86.472H748.779L748.443 86.724C748.443 86.268 748.343 85.864 748.143 85.512C747.951 85.152 747.687 84.872 747.351 84.672C747.015 84.472 746.627 84.372 746.187 84.372C745.755 84.372 745.367 84.472 745.023 84.672C744.679 84.872 744.411 85.152 744.219 85.512C744.027 85.872 743.931 86.284 743.931 86.748V86.88C743.931 87.36 744.035 87.784 744.243 88.152C744.459 88.512 744.755 88.796 745.131 89.004C745.515 89.204 745.951 89.304 746.439 89.304C746.823 89.304 747.179 89.236 747.507 89.1C747.843 88.964 748.131 88.756 748.371 88.476L748.851 89.028C748.571 89.364 748.219 89.62 747.795 89.796C747.379 89.972 746.919 90.06 746.415 90.06ZM752.673 90.06C752.153 90.06 751.661 89.988 751.197 89.844C750.733 89.692 750.369 89.504 750.105 89.28L750.489 88.608C750.745 88.8 751.073 88.968 751.473 89.112C751.873 89.248 752.293 89.316 752.733 89.316C753.333 89.316 753.765 89.224 754.029 89.04C754.293 88.848 754.425 88.596 754.425 88.284C754.425 88.052 754.349 87.872 754.197 87.744C754.053 87.608 753.861 87.508 753.621 87.444C753.381 87.372 753.113 87.312 752.817 87.264C752.521 87.216 752.225 87.16 751.929 87.096C751.641 87.032 751.377 86.94 751.137 86.82C750.897 86.692 750.701 86.52 750.549 86.304C750.405 86.088 750.333 85.8 750.333 85.44C750.333 85.096 750.429 84.788 750.621 84.516C750.813 84.244 751.093 84.032 751.461 83.88C751.837 83.72 752.293 83.64 752.829 83.64C753.237 83.64 753.645 83.696 754.053 83.808C754.461 83.912 754.797 84.052 755.061 84.228L754.689 84.912C754.409 84.72 754.109 84.584 753.789 84.504C753.469 84.416 753.149 84.372 752.829 84.372C752.261 84.372 751.841 84.472 751.569 84.672C751.305 84.864 751.173 85.112 751.173 85.416C751.173 85.656 751.245 85.844 751.389 85.98C751.541 86.116 751.737 86.224 751.977 86.304C752.225 86.376 752.493 86.436 752.781 86.484C753.077 86.532 753.369 86.592 753.657 86.664C753.953 86.728 754.221 86.82 754.461 86.94C754.709 87.052 754.905 87.216 755.049 87.432C755.201 87.64 755.277 87.916 755.277 88.26C755.277 88.628 755.173 88.948 754.965 89.22C754.765 89.484 754.469 89.692 754.077 89.844C753.693 89.988 753.225 90.06 752.673 90.06ZM759.444 90.06C758.908 90.06 758.44 89.96 758.04 89.76C757.64 89.56 757.328 89.26 757.104 88.86C756.888 88.46 756.78 87.96 756.78 87.36V83.7H757.632V87.264C757.632 87.936 757.796 88.444 758.124 88.788C758.46 89.124 758.928 89.292 759.528 89.292C759.968 89.292 760.348 89.204 760.668 89.028C760.996 88.844 761.244 88.58 761.412 88.236C761.588 87.892 761.676 87.48 761.676 87V83.7H762.528V90H761.712V88.272L761.844 88.584C761.644 89.048 761.332 89.412 760.908 89.676C760.492 89.932 760.004 90.06 759.444 90.06ZM764.903 90V81.096H765.755V90H764.903ZM770.153 90.06C769.561 90.06 769.105 89.9 768.785 89.58C768.465 89.26 768.305 88.808 768.305 88.224V82.308H769.157V88.176C769.157 88.544 769.249 88.828 769.433 89.028C769.625 89.228 769.897 89.328 770.249 89.328C770.625 89.328 770.937 89.22 771.185 89.004L771.485 89.616C771.317 89.768 771.113 89.88 770.873 89.952C770.641 90.024 770.401 90.06 770.153 90.06ZM767.177 84.408V83.7H771.077V84.408H767.177Z" fill="white" fill-opacity="0.6"/>
<path d="M860.024 90L863.864 81.6H864.74L868.58 90H867.644L864.116 82.116H864.476L860.948 90H860.024ZM861.536 87.756L861.8 87.036H866.684L866.948 87.756H861.536ZM872.347 90.06C871.723 90.06 871.163 89.924 870.667 89.652C870.179 89.372 869.795 88.992 869.515 88.512C869.235 88.024 869.095 87.468 869.095 86.844C869.095 86.212 869.235 85.656 869.515 85.176C869.795 84.696 870.179 84.32 870.667 84.048C871.163 83.776 871.723 83.64 872.347 83.64C872.883 83.64 873.367 83.744 873.799 83.952C874.231 84.16 874.571 84.472 874.819 84.888L874.183 85.32C873.967 85 873.699 84.764 873.379 84.612C873.059 84.46 872.711 84.384 872.335 84.384C871.887 84.384 871.483 84.488 871.123 84.696C870.763 84.896 870.479 85.18 870.271 85.548C870.063 85.916 869.959 86.348 869.959 86.844C869.959 87.34 870.063 87.772 870.271 88.14C870.479 88.508 870.763 88.796 871.123 89.004C871.483 89.204 871.887 89.304 872.335 89.304C872.711 89.304 873.059 89.228 873.379 89.076C873.699 88.924 873.967 88.692 874.183 88.38L874.819 88.812C874.571 89.22 874.231 89.532 873.799 89.748C873.367 89.956 872.883 90.06 872.347 90.06ZM879.003 90.06C878.379 90.06 877.819 89.924 877.323 89.652C876.835 89.372 876.451 88.992 876.171 88.512C875.891 88.024 875.751 87.468 875.751 86.844C875.751 86.212 875.891 85.656 876.171 85.176C876.451 84.696 876.835 84.32 877.323 84.048C877.819 83.776 878.379 83.64 879.003 83.64C879.539 83.64 880.023 83.744 880.455 83.952C880.887 84.16 881.227 84.472 881.475 84.888L880.839 85.32C880.623 85 880.355 84.764 880.035 84.612C879.715 84.46 879.367 84.384 878.991 84.384C878.543 84.384 878.139 84.488 877.779 84.696C877.419 84.896 877.135 85.18 876.927 85.548C876.719 85.916 876.615 86.348 876.615 86.844C876.615 87.34 876.719 87.772 876.927 88.14C877.135 88.508 877.419 88.796 877.779 89.004C878.139 89.204 878.543 89.304 878.991 89.304C879.367 89.304 879.715 89.228 880.035 89.076C880.355 88.924 880.623 88.692 880.839 88.38L881.475 88.812C881.227 89.22 880.887 89.532 880.455 89.748C880.023 89.956 879.539 90.06 879.003 90.06ZM885.753 90.06C885.217 90.06 884.749 89.96 884.349 89.76C883.949 89.56 883.637 89.26 883.413 88.86C883.197 88.46 883.089 87.96 883.089 87.36V83.7H883.941V87.264C883.941 87.936 884.105 88.444 884.433 88.788C884.769 89.124 885.237 89.292 885.837 89.292C886.277 89.292 886.657 89.204 886.977 89.028C887.305 88.844 887.553 88.58 887.721 88.236C887.897 87.892 887.985 87.48 887.985 87V83.7H888.837V90H888.021V88.272L888.153 88.584C887.953 89.048 887.641 89.412 887.217 89.676C886.801 89.932 886.313 90.06 885.753 90.06ZM891.211 90V83.7H892.027V85.416L891.943 85.116C892.119 84.636 892.415 84.272 892.831 84.024C893.247 83.768 893.763 83.64 894.379 83.64V84.468C894.347 84.468 894.315 84.468 894.283 84.468C894.251 84.46 894.219 84.456 894.187 84.456C893.523 84.456 893.003 84.66 892.627 85.068C892.251 85.468 892.063 86.04 892.063 86.784V90H891.211ZM899.413 90V88.608L899.377 88.38V86.052C899.377 85.516 899.225 85.104 898.921 84.816C898.625 84.528 898.181 84.384 897.589 84.384C897.181 84.384 896.793 84.452 896.425 84.588C896.057 84.724 895.745 84.904 895.489 85.128L895.105 84.492C895.425 84.22 895.809 84.012 896.257 83.868C896.705 83.716 897.177 83.64 897.673 83.64C898.489 83.64 899.117 83.844 899.557 84.252C900.005 84.652 900.229 85.264 900.229 86.088V90H899.413ZM897.241 90.06C896.769 90.06 896.357 89.984 896.005 89.832C895.661 89.672 895.397 89.456 895.213 89.184C895.029 88.904 894.937 88.584 894.937 88.224C894.937 87.896 895.013 87.6 895.165 87.336C895.325 87.064 895.581 86.848 895.933 86.688C896.293 86.52 896.773 86.436 897.373 86.436H899.545V87.072H897.397C896.789 87.072 896.365 87.18 896.125 87.396C895.893 87.612 895.777 87.88 895.777 88.2C895.777 88.56 895.917 88.848 896.197 89.064C896.477 89.28 896.869 89.388 897.373 89.388C897.853 89.388 898.265 89.28 898.609 89.064C898.961 88.84 899.217 88.52 899.377 88.104L899.569 88.692C899.409 89.108 899.129 89.44 898.729 89.688C898.337 89.936 897.841 90.06 897.241 90.06ZM905.159 90.06C904.535 90.06 903.975 89.924 903.479 89.652C902.991 89.372 902.607 88.992 902.327 88.512C902.047 88.024 901.907 87.468 901.907 86.844C901.907 86.212 902.047 85.656 902.327 85.176C902.607 84.696 902.991 84.32 903.479 84.048C903.975 83.776 904.535 83.64 905.159 83.64C905.695 83.64 906.179 83.744 906.611 83.952C907.043 84.16 907.383 84.472 907.631 84.888L906.995 85.32C906.779 85 906.511 84.764 906.191 84.612C905.871 84.46 905.523 84.384 905.147 84.384C904.699 84.384 904.295 84.488 903.935 84.696C903.575 84.896 903.291 85.18 903.083 85.548C902.875 85.916 902.771 86.348 902.771 86.844C902.771 87.34 902.875 87.772 903.083 88.14C903.291 88.508 903.575 88.796 903.935 89.004C904.295 89.204 904.699 89.304 905.147 89.304C905.523 89.304 905.871 89.228 906.191 89.076C906.511 88.924 906.779 88.692 906.995 88.38L907.631 88.812C907.383 89.22 907.043 89.532 906.611 89.748C906.179 89.956 905.695 90.06 905.159 90.06ZM909.259 92.388C908.963 92.388 908.679 92.34 908.407 92.244C908.143 92.148 907.915 92.004 907.723 91.812L908.119 91.176C908.279 91.328 908.451 91.444 908.635 91.524C908.827 91.612 909.039 91.656 909.271 91.656C909.551 91.656 909.791 91.576 909.991 91.416C910.199 91.264 910.395 90.992 910.579 90.6L910.987 89.676L911.083 89.544L913.675 83.7H914.515L911.359 90.756C911.183 91.164 910.987 91.488 910.771 91.728C910.563 91.968 910.335 92.136 910.087 92.232C909.839 92.336 909.563 92.388 909.259 92.388ZM910.939 90.18L908.035 83.7H908.923L911.491 89.484L910.939 90.18Z" fill="white" fill-opacity="0.6"/>
<path d="M344.116 106.768C343.967 106.912 343.899 107.12 343.933 107.324L344.442 110.141C344.485 110.38 344.384 110.622 344.184 110.76C343.988 110.903 343.728 110.92 343.514 110.805L340.978 109.483C340.89 109.436 340.792 109.411 340.692 109.408H340.537C340.483 109.416 340.43 109.433 340.382 109.459L337.845 110.788C337.72 110.851 337.578 110.874 337.439 110.851C337.1 110.787 336.874 110.464 336.929 110.123L337.439 107.306C337.473 107.101 337.404 106.892 337.256 106.746L335.188 104.741C335.015 104.574 334.955 104.322 335.034 104.094C335.111 103.868 335.307 103.702 335.543 103.665L338.389 103.252C338.606 103.23 338.796 103.098 338.893 102.903L340.147 100.332C340.177 100.275 340.215 100.222 340.262 100.178L340.313 100.137C340.34 100.108 340.371 100.083 340.406 100.063L340.468 100.04L340.565 100H340.806C341.022 100.022 341.211 100.151 341.31 100.344L342.581 102.903C342.673 103.09 342.851 103.22 343.056 103.252L345.902 103.665C346.143 103.699 346.344 103.865 346.423 104.094C346.498 104.324 346.434 104.576 346.257 104.741L344.116 106.768Z" fill="#BB9200"/>
<path d="M519.116 106.768C518.967 106.912 518.899 107.12 518.933 107.324L519.442 110.141C519.485 110.38 519.384 110.622 519.184 110.76C518.988 110.903 518.728 110.92 518.514 110.805L515.978 109.483C515.89 109.436 515.792 109.411 515.692 109.408H515.537C515.483 109.416 515.43 109.433 515.382 109.459L512.845 110.788C512.72 110.851 512.578 110.874 512.439 110.851C512.1 110.787 511.874 110.464 511.929 110.123L512.439 107.306C512.473 107.101 512.404 106.892 512.256 106.746L510.188 104.741C510.015 104.574 509.955 104.322 510.034 104.094C510.111 103.868 510.307 103.702 510.543 103.665L513.389 103.252C513.606 103.23 513.796 103.098 513.893 102.903L515.147 100.332C515.177 100.275 515.215 100.222 515.262 100.178L515.313 100.137C515.34 100.108 515.371 100.083 515.406 100.063L515.468 100.04L515.565 100H515.806C516.022 100.022 516.211 100.151 516.31 100.344L517.581 102.903C517.673 103.09 517.851 103.22 518.056 103.252L520.902 103.665C521.143 103.699 521.344 103.865 521.423 104.094C521.498 104.324 521.434 104.576 521.257 104.741L519.116 106.768Z" fill="#BB9200"/>
<path d="M694.116 106.768C693.967 106.912 693.899 107.12 693.933 107.324L694.442 110.141C694.485 110.38 694.384 110.622 694.184 110.76C693.988 110.903 693.728 110.92 693.514 110.805L690.978 109.483C690.89 109.436 690.792 109.411 690.692 109.408H690.537C690.483 109.416 690.43 109.433 690.382 109.459L687.845 110.788C687.72 110.851 687.578 110.874 687.439 110.851C687.1 110.787 686.874 110.464 686.929 110.123L687.439 107.306C687.473 107.101 687.404 106.892 687.256 106.746L685.188 104.741C685.015 104.574 684.955 104.322 685.034 104.094C685.111 103.868 685.307 103.702 685.543 103.665L688.389 103.252C688.606 103.23 688.796 103.098 688.893 102.903L690.147 100.332C690.177 100.275 690.215 100.222 690.262 100.178L690.313 100.137C690.34 100.108 690.371 100.083 690.406 100.063L690.468 100.04L690.565 100H690.806C691.022 100.022 691.211 100.151 691.31 100.344L692.581 102.903C692.673 103.09 692.851 103.22 693.056 103.252L695.902 103.665C696.143 103.699 696.344 103.865 696.423 104.094C696.498 104.324 696.434 104.576 696.257 104.741L694.116 106.768Z" fill="#BB9200"/>
<path d="M869.116 106.768C868.967 106.912 868.899 107.12 868.933 107.324L869.442 110.141C869.485 110.38 869.384 110.622 869.184 110.76C868.988 110.903 868.728 110.92 868.514 110.805L865.978 109.483C865.89 109.436 865.792 109.411 865.692 109.408H865.537C865.483 109.416 865.43 109.433 865.382 109.459L862.845 110.788C862.72 110.851 862.578 110.874 862.439 110.851C862.1 110.787 861.874 110.464 861.929 110.123L862.439 107.306C862.473 107.101 862.404 106.892 862.256 106.746L860.188 104.741C860.015 104.574 859.955 104.322 860.034 104.094C860.111 103.868 860.307 103.702 860.543 103.665L863.389 103.252C863.606 103.23 863.796 103.098 863.893 102.903L865.147 100.332C865.177 100.275 865.215 100.222 865.262 100.178L865.313 100.137C865.34 100.108 865.371 100.083 865.406 100.063L865.468 100.04L865.565 100H865.806C866.022 100.022 866.211 100.151 866.31 100.344L867.581 102.903C867.673 103.09 867.851 103.22 868.056 103.252L870.902 103.665C871.143 103.699 871.344 103.865 871.423 104.094C871.498 104.324 871.434 104.576 871.257 104.741L869.116 106.768Z" fill="#BB9200"/>
<path d="M360.116 106.768C359.967 106.912 359.899 107.12 359.933 107.324L360.442 110.141C360.485 110.38 360.384 110.622 360.184 110.76C359.988 110.903 359.728 110.92 359.514 110.805L356.978 109.483C356.89 109.436 356.792 109.411 356.692 109.408H356.537C356.483 109.416 356.43 109.433 356.382 109.459L353.845 110.788C353.72 110.851 353.578 110.874 353.439 110.851C353.1 110.787 352.874 110.464 352.929 110.123L353.439 107.306C353.473 107.101 353.404 106.892 353.256 106.746L351.188 104.741C351.015 104.574 350.955 104.322 351.034 104.094C351.111 103.868 351.307 103.702 351.543 103.665L354.389 103.252C354.606 103.23 354.796 103.098 354.893 102.903L356.147 100.332C356.177 100.275 356.215 100.222 356.262 100.178L356.313 100.137C356.34 100.108 356.371 100.083 356.406 100.063L356.468 100.04L356.565 100H356.806C357.022 100.022 357.211 100.151 357.31 100.344L358.581 102.903C358.673 103.09 358.851 103.22 359.056 103.252L361.902 103.665C362.143 103.699 362.344 103.865 362.423 104.094C362.498 104.324 362.434 104.576 362.257 104.741L360.116 106.768Z" fill="#BB9200"/>
<path d="M535.116 106.768C534.967 106.912 534.899 107.12 534.933 107.324L535.442 110.141C535.485 110.38 535.384 110.622 535.184 110.76C534.988 110.903 534.728 110.92 534.514 110.805L531.978 109.483C531.89 109.436 531.792 109.411 531.692 109.408H531.537C531.483 109.416 531.43 109.433 531.382 109.459L528.845 110.788C528.72 110.851 528.578 110.874 528.439 110.851C528.1 110.787 527.874 110.464 527.929 110.123L528.439 107.306C528.473 107.101 528.404 106.892 528.256 106.746L526.188 104.741C526.015 104.574 525.955 104.322 526.034 104.094C526.111 103.868 526.307 103.702 526.543 103.665L529.389 103.252C529.606 103.23 529.796 103.098 529.893 102.903L531.147 100.332C531.177 100.275 531.215 100.222 531.262 100.178L531.313 100.137C531.34 100.108 531.371 100.083 531.406 100.063L531.468 100.04L531.565 100H531.806C532.022 100.022 532.211 100.151 532.31 100.344L533.581 102.903C533.673 103.09 533.851 103.22 534.056 103.252L536.902 103.665C537.143 103.699 537.344 103.865 537.423 104.094C537.498 104.324 537.434 104.576 537.257 104.741L535.116 106.768Z" fill="#BB9200"/>
<path d="M710.116 106.768C709.967 106.912 709.899 107.12 709.933 107.324L710.442 110.141C710.485 110.38 710.384 110.622 710.184 110.76C709.988 110.903 709.728 110.92 709.514 110.805L706.978 109.483C706.89 109.436 706.792 109.411 706.692 109.408H706.537C706.483 109.416 706.43 109.433 706.382 109.459L703.845 110.788C703.72 110.851 703.578 110.874 703.439 110.851C703.1 110.787 702.874 110.464 702.929 110.123L703.439 107.306C703.473 107.101 703.404 106.892 703.256 106.746L701.188 104.741C701.015 104.574 700.955 104.322 701.034 104.094C701.111 103.868 701.307 103.702 701.543 103.665L704.389 103.252C704.606 103.23 704.796 103.098 704.893 102.903L706.147 100.332C706.177 100.275 706.215 100.222 706.262 100.178L706.313 100.137C706.34 100.108 706.371 100.083 706.406 100.063L706.468 100.04L706.565 100H706.806C707.022 100.022 707.211 100.151 707.31 100.344L708.581 102.903C708.673 103.09 708.851 103.22 709.056 103.252L711.902 103.665C712.143 103.699 712.344 103.865 712.423 104.094C712.498 104.324 712.434 104.576 712.257 104.741L710.116 106.768Z" fill="#BB9200"/>
<path d="M885.116 106.768C884.967 106.912 884.899 107.12 884.933 107.324L885.442 110.141C885.485 110.38 885.384 110.622 885.184 110.76C884.988 110.903 884.728 110.92 884.514 110.805L881.978 109.483C881.89 109.436 881.792 109.411 881.692 109.408H881.537C881.483 109.416 881.43 109.433 881.382 109.459L878.845 110.788C878.72 110.851 878.578 110.874 878.439 110.851C878.1 110.787 877.874 110.464 877.929 110.123L878.439 107.306C878.473 107.101 878.404 106.892 878.256 106.746L876.188 104.741C876.015 104.574 875.955 104.322 876.034 104.094C876.111 103.868 876.307 103.702 876.543 103.665L879.389 103.252C879.606 103.23 879.796 103.098 879.893 102.903L881.147 100.332C881.177 100.275 881.215 100.222 881.262 100.178L881.313 100.137C881.34 100.108 881.371 100.083 881.406 100.063L881.468 100.04L881.565 100H881.806C882.022 100.022 882.211 100.151 882.31 100.344L883.581 102.903C883.673 103.09 883.851 103.22 884.056 103.252L886.902 103.665C887.143 103.699 887.344 103.865 887.423 104.094C887.498 104.324 887.434 104.576 887.257 104.741L885.116 106.768Z" fill="#BB9200"/>
<path d="M376.116 106.768C375.967 106.912 375.899 107.12 375.933 107.324L376.442 110.141C376.485 110.38 376.384 110.622 376.184 110.76C375.988 110.903 375.728 110.92 375.514 110.805L372.978 109.483C372.89 109.436 372.792 109.411 372.692 109.408H372.537C372.483 109.416 372.43 109.433 372.382 109.459L369.845 110.788C369.72 110.851 369.578 110.874 369.439 110.851C369.1 110.787 368.874 110.464 368.929 110.123L369.439 107.306C369.473 107.101 369.404 106.892 369.256 106.746L367.188 104.741C367.015 104.574 366.955 104.322 367.034 104.094C367.111 103.868 367.307 103.702 367.543 103.665L370.389 103.252C370.606 103.23 370.796 103.098 370.893 102.903L372.147 100.332C372.177 100.275 372.215 100.222 372.262 100.178L372.313 100.137C372.34 100.108 372.371 100.083 372.406 100.063L372.468 100.04L372.565 100H372.806C373.022 100.022 373.211 100.151 373.31 100.344L374.581 102.903C374.673 103.09 374.851 103.22 375.056 103.252L377.902 103.665C378.143 103.699 378.344 103.865 378.423 104.094C378.498 104.324 378.434 104.576 378.257 104.741L376.116 106.768Z" fill="#BB9200"/>
<path d="M551.116 106.768C550.967 106.912 550.899 107.12 550.933 107.324L551.442 110.141C551.485 110.38 551.384 110.622 551.184 110.76C550.988 110.903 550.728 110.92 550.514 110.805L547.978 109.483C547.89 109.436 547.792 109.411 547.692 109.408H547.537C547.483 109.416 547.43 109.433 547.382 109.459L544.845 110.788C544.72 110.851 544.578 110.874 544.439 110.851C544.1 110.787 543.874 110.464 543.929 110.123L544.439 107.306C544.473 107.101 544.404 106.892 544.256 106.746L542.188 104.741C542.015 104.574 541.955 104.322 542.034 104.094C542.111 103.868 542.307 103.702 542.543 103.665L545.389 103.252C545.606 103.23 545.796 103.098 545.893 102.903L547.147 100.332C547.177 100.275 547.215 100.222 547.262 100.178L547.313 100.137C547.34 100.108 547.371 100.083 547.406 100.063L547.468 100.04L547.565 100H547.806C548.022 100.022 548.211 100.151 548.31 100.344L549.581 102.903C549.673 103.09 549.851 103.22 550.056 103.252L552.902 103.665C553.143 103.699 553.344 103.865 553.423 104.094C553.498 104.324 553.434 104.576 553.257 104.741L551.116 106.768Z" fill="#BB9200"/>
<path d="M726.116 106.768C725.967 106.912 725.899 107.12 725.933 107.324L726.442 110.141C726.485 110.38 726.384 110.622 726.184 110.76C725.988 110.903 725.728 110.92 725.514 110.805L722.978 109.483C722.89 109.436 722.792 109.411 722.692 109.408H722.537C722.483 109.416 722.43 109.433 722.382 109.459L719.845 110.788C719.72 110.851 719.578 110.874 719.439 110.851C719.1 110.787 718.874 110.464 718.929 110.123L719.439 107.306C719.473 107.101 719.404 106.892 719.256 106.746L717.188 104.741C717.015 104.574 716.955 104.322 717.034 104.094C717.111 103.868 717.307 103.702 717.543 103.665L720.389 103.252C720.606 103.23 720.796 103.098 720.893 102.903L722.147 100.332C722.177 100.275 722.215 100.222 722.262 100.178L722.313 100.137C722.34 100.108 722.371 100.083 722.406 100.063L722.468 100.04L722.565 100H722.806C723.022 100.022 723.211 100.151 723.31 100.344L724.581 102.903C724.673 103.09 724.851 103.22 725.056 103.252L727.902 103.665C728.143 103.699 728.344 103.865 728.423 104.094C728.498 104.324 728.434 104.576 728.257 104.741L726.116 106.768Z" fill="#BB9200"/>
<path d="M901.116 106.768C900.967 106.912 900.899 107.12 900.933 107.324L901.442 110.141C901.485 110.38 901.384 110.622 901.184 110.76C900.988 110.903 900.728 110.92 900.514 110.805L897.978 109.483C897.89 109.436 897.792 109.411 897.692 109.408H897.537C897.483 109.416 897.43 109.433 897.382 109.459L894.845 110.788C894.72 110.851 894.578 110.874 894.439 110.851C894.1 110.787 893.874 110.464 893.929 110.123L894.439 107.306C894.473 107.101 894.404 106.892 894.256 106.746L892.188 104.741C892.015 104.574 891.955 104.322 892.034 104.094C892.111 103.868 892.307 103.702 892.543 103.665L895.389 103.252C895.606 103.23 895.796 103.098 895.893 102.903L897.147 100.332C897.177 100.275 897.215 100.222 897.262 100.178L897.313 100.137C897.34 100.108 897.371 100.083 897.406 100.063L897.468 100.04L897.565 100H897.806C898.022 100.022 898.211 100.151 898.31 100.344L899.581 102.903C899.673 103.09 899.851 103.22 900.056 103.252L902.902 103.665C903.143 103.699 903.344 103.865 903.423 104.094C903.498 104.324 903.434 104.576 903.257 104.741L901.116 106.768Z" fill="#BB9200"/>
<path d="M392.116 106.768C391.967 106.912 391.899 107.12 391.933 107.324L392.442 110.141C392.485 110.38 392.384 110.622 392.184 110.76C391.988 110.903 391.728 110.92 391.514 110.805L388.978 109.483C388.89 109.436 388.792 109.411 388.692 109.408H388.537C388.483 109.416 388.43 109.433 388.382 109.459L385.845 110.788C385.72 110.851 385.578 110.874 385.439 110.851C385.1 110.787 384.874 110.464 384.929 110.123L385.439 107.306C385.473 107.101 385.404 106.892 385.256 106.746L383.188 104.741C383.015 104.574 382.955 104.322 383.034 104.094C383.111 103.868 383.307 103.702 383.543 103.665L386.389 103.252C386.606 103.23 386.796 103.098 386.893 102.903L388.147 100.332C388.177 100.275 388.215 100.222 388.262 100.178L388.313 100.137C388.34 100.108 388.371 100.083 388.406 100.063L388.468 100.04L388.565 100H388.806C389.022 100.022 389.211 100.151 389.31 100.344L390.581 102.903C390.673 103.09 390.851 103.22 391.056 103.252L393.902 103.665C394.143 103.699 394.344 103.865 394.423 104.094C394.498 104.324 394.434 104.576 394.257 104.741L392.116 106.768Z" fill="#BB9200"/>
<path d="M567.116 106.768C566.967 106.912 566.899 107.12 566.933 107.324L567.442 110.141C567.485 110.38 567.384 110.622 567.184 110.76C566.988 110.903 566.728 110.92 566.514 110.805L563.978 109.483C563.89 109.436 563.792 109.411 563.692 109.408H563.537C563.483 109.416 563.43 109.433 563.382 109.459L560.845 110.788C560.72 110.851 560.578 110.874 560.439 110.851C560.1 110.787 559.874 110.464 559.929 110.123L560.439 107.306C560.473 107.101 560.404 106.892 560.256 106.746L558.188 104.741C558.015 104.574 557.955 104.322 558.034 104.094C558.111 103.868 558.307 103.702 558.543 103.665L561.389 103.252C561.606 103.23 561.796 103.098 561.893 102.903L563.147 100.332C563.177 100.275 563.215 100.222 563.262 100.178L563.313 100.137C563.34 100.108 563.371 100.083 563.406 100.063L563.468 100.04L563.565 100H563.806C564.022 100.022 564.211 100.151 564.31 100.344L565.581 102.903C565.673 103.09 565.851 103.22 566.056 103.252L568.902 103.665C569.143 103.699 569.344 103.865 569.423 104.094C569.498 104.324 569.434 104.576 569.257 104.741L567.116 106.768Z" fill="#BB9200"/>
<path d="M742.116 106.768C741.967 106.912 741.899 107.12 741.933 107.324L742.442 110.141C742.485 110.38 742.384 110.622 742.184 110.76C741.988 110.903 741.728 110.92 741.514 110.805L738.978 109.483C738.89 109.436 738.792 109.411 738.692 109.408H738.537C738.483 109.416 738.43 109.433 738.382 109.459L735.845 110.788C735.72 110.851 735.578 110.874 735.439 110.851C735.1 110.787 734.874 110.464 734.929 110.123L735.439 107.306C735.473 107.101 735.404 106.892 735.256 106.746L733.188 104.741C733.015 104.574 732.955 104.322 733.034 104.094C733.111 103.868 733.307 103.702 733.543 103.665L736.389 103.252C736.606 103.23 736.796 103.098 736.893 102.903L738.147 100.332C738.177 100.275 738.215 100.222 738.262 100.178L738.313 100.137C738.34 100.108 738.371 100.083 738.406 100.063L738.468 100.04L738.565 100H738.806C739.022 100.022 739.211 100.151 739.31 100.344L740.581 102.903C740.673 103.09 740.851 103.22 741.056 103.252L743.902 103.665C744.143 103.699 744.344 103.865 744.423 104.094C744.498 104.324 744.434 104.576 744.257 104.741L742.116 106.768Z" fill="#BB9200"/>
<path d="M917.116 106.768C916.967 106.912 916.899 107.12 916.933 107.324L917.442 110.141C917.485 110.38 917.384 110.622 917.184 110.76C916.988 110.903 916.728 110.92 916.514 110.805L913.978 109.483C913.89 109.436 913.792 109.411 913.692 109.408H913.537C913.483 109.416 913.43 109.433 913.382 109.459L910.845 110.788C910.72 110.851 910.578 110.874 910.439 110.851C910.1 110.787 909.874 110.464 909.929 110.123L910.439 107.306C910.473 107.101 910.404 106.892 910.256 106.746L908.188 104.741C908.015 104.574 907.955 104.322 908.034 104.094C908.111 103.868 908.307 103.702 908.543 103.665L911.389 103.252C911.606 103.23 911.796 103.098 911.893 102.903L913.147 100.332C913.177 100.275 913.215 100.222 913.262 100.178L913.313 100.137C913.34 100.108 913.371 100.083 913.406 100.063L913.468 100.04L913.565 100H913.806C914.022 100.022 914.211 100.151 914.31 100.344L915.581 102.903C915.673 103.09 915.851 103.22 916.056 103.252L918.902 103.665C919.143 103.699 919.344 103.865 919.423 104.094C919.498 104.324 919.434 104.576 919.257 104.741L917.116 106.768Z" fill="#BB9200"/>
<path d="M408.116 106.768C407.967 106.912 407.899 107.12 407.933 107.324L408.442 110.141C408.485 110.38 408.384 110.622 408.184 110.76C407.988 110.903 407.728 110.92 407.514 110.805L404.978 109.483C404.89 109.436 404.792 109.411 404.692 109.408H404.537C404.483 109.416 404.43 109.433 404.382 109.459L401.845 110.788C401.72 110.851 401.578 110.874 401.439 110.851C401.1 110.787 400.874 110.464 400.929 110.123L401.439 107.306C401.473 107.101 401.404 106.892 401.256 106.746L399.188 104.741C399.015 104.574 398.955 104.322 399.034 104.094C399.111 103.868 399.307 103.702 399.543 103.665L402.389 103.252C402.606 103.23 402.796 103.098 402.893 102.903L404.147 100.332C404.177 100.275 404.215 100.222 404.262 100.178L404.313 100.137C404.34 100.108 404.371 100.083 404.406 100.063L404.468 100.04L404.565 100H404.806C405.022 100.022 405.211 100.151 405.31 100.344L406.581 102.903C406.673 103.09 406.851 103.22 407.056 103.252L409.902 103.665C410.143 103.699 410.344 103.865 410.423 104.094C410.498 104.324 410.434 104.576 410.257 104.741L408.116 106.768Z" fill="#BB9200"/>
<path d="M582.772 106.405L582.772 106.405L582.768 106.409C582.501 106.668 582.379 107.041 582.44 107.406L582.44 107.406L582.441 107.413L582.95 110.23C582.958 110.275 582.939 110.321 582.9 110.348L582.9 110.348L582.889 110.356C582.85 110.385 582.796 110.389 582.751 110.365L582.751 110.365L582.746 110.362L580.211 109.04C580.053 108.957 579.88 108.913 579.706 108.908L579.699 108.908H579.692H579.537H579.5L579.463 108.913C579.355 108.929 579.248 108.963 579.147 109.018L576.618 110.343C576.589 110.357 576.557 110.362 576.525 110.359C576.457 110.342 576.412 110.277 576.422 110.207L576.931 107.395L576.931 107.395L576.932 107.387C576.992 107.021 576.871 106.649 576.607 106.389L576.607 106.389L576.604 106.387L574.536 104.382C574.503 104.35 574.492 104.301 574.507 104.258L574.508 104.255C574.525 104.204 574.568 104.168 574.619 104.159L577.452 103.748C577.834 103.705 578.169 103.471 578.34 103.127L578.34 103.127L578.343 103.122L579.593 100.559C579.595 100.555 579.598 100.551 579.6 100.548L579.62 100.532L579.655 100.505L579.657 100.503L579.658 100.502L579.664 100.5H579.771C579.812 100.509 579.846 100.535 579.865 100.57L581.133 103.124C581.297 103.459 581.615 103.69 581.98 103.746L581.98 103.746L581.984 103.747L584.83 104.16L584.831 104.16C584.885 104.167 584.93 104.204 584.949 104.254C584.962 104.297 584.949 104.345 584.915 104.377L584.913 104.378L582.772 106.405Z" stroke="#BB9200"/>
<path d="M757.772 106.405L757.772 106.405L757.768 106.409C757.501 106.668 757.379 107.041 757.44 107.406L757.44 107.406L757.441 107.413L757.95 110.23C757.958 110.275 757.939 110.321 757.9 110.348L757.9 110.348L757.889 110.356C757.85 110.385 757.796 110.389 757.751 110.365L757.751 110.365L757.746 110.362L755.211 109.04C755.053 108.957 754.88 108.913 754.706 108.908L754.699 108.908H754.692H754.537H754.5L754.463 108.913C754.355 108.929 754.248 108.963 754.147 109.018L751.618 110.343C751.589 110.357 751.557 110.362 751.525 110.359C751.457 110.342 751.412 110.277 751.422 110.207L751.931 107.395L751.931 107.395L751.932 107.387C751.992 107.021 751.871 106.649 751.607 106.389L751.607 106.389L751.604 106.387L749.536 104.382C749.503 104.35 749.492 104.301 749.507 104.258L749.508 104.255C749.525 104.204 749.568 104.168 749.619 104.159L752.452 103.748C752.834 103.705 753.169 103.471 753.34 103.127L753.34 103.127L753.343 103.122L754.593 100.559C754.595 100.555 754.598 100.551 754.6 100.548L754.62 100.532L754.655 100.505L754.657 100.503L754.658 100.502L754.664 100.5H754.771C754.812 100.509 754.846 100.535 754.865 100.57L756.133 103.124C756.297 103.459 756.615 103.69 756.98 103.746L756.98 103.746L756.984 103.747L759.83 104.16L759.831 104.16C759.885 104.167 759.93 104.204 759.949 104.254C759.962 104.297 759.949 104.345 759.915 104.377L759.913 104.378L757.772 106.405Z" stroke="#BB9200"/>
<path d="M933.116 106.768C932.967 106.912 932.899 107.12 932.933 107.324L933.442 110.141C933.485 110.38 933.384 110.622 933.184 110.76C932.988 110.903 932.728 110.92 932.514 110.805L929.978 109.483C929.89 109.436 929.792 109.411 929.692 109.408H929.537C929.483 109.416 929.43 109.433 929.382 109.459L926.845 110.788C926.72 110.851 926.578 110.874 926.439 110.851C926.1 110.787 925.874 110.464 925.929 110.123L926.439 107.306C926.473 107.101 926.404 106.892 926.256 106.746L924.188 104.741C924.015 104.574 923.955 104.322 924.034 104.094C924.111 103.868 924.307 103.702 924.543 103.665L927.389 103.252C927.606 103.23 927.796 103.098 927.893 102.903L929.147 100.332C929.177 100.275 929.215 100.222 929.262 100.178L929.313 100.137C929.34 100.108 929.371 100.083 929.406 100.063L929.468 100.04L929.565 100H929.806C930.022 100.022 930.211 100.151 930.31 100.344L931.581 102.903C931.673 103.09 931.851 103.22 932.056 103.252L934.902 103.665C935.143 103.699 935.344 103.865 935.423 104.094C935.498 104.324 935.434 104.576 935.257 104.741L933.116 106.768Z" fill="#BB9200"/>
<rect x="1051" y="81" width="120" height="30" rx="6" fill="url(#paint10_linear_611_5103)"/>
<path d="M1085.11 95.9297C1085.11 94.4714 1085.33 93.2474 1085.77 92.2578C1086.09 91.5286 1086.54 90.8743 1087.1 90.2949C1087.66 89.7155 1088.28 89.2858 1088.95 89.0059C1089.84 88.6283 1090.87 88.4395 1092.04 88.4395C1094.15 88.4395 1095.83 89.0938 1097.1 90.4023C1098.37 91.7109 1099 93.5306 1099 95.8613C1099 98.1725 1098.37 99.9824 1097.12 101.291C1095.86 102.593 1094.18 103.244 1092.08 103.244C1089.95 103.244 1088.25 102.596 1087 101.301C1085.74 99.9987 1085.11 98.2083 1085.11 95.9297ZM1088.09 95.832C1088.09 97.4531 1088.47 98.6836 1089.21 99.5234C1089.96 100.357 1090.91 100.773 1092.07 100.773C1093.22 100.773 1094.16 100.36 1094.9 99.5332C1095.64 98.6999 1096.01 97.4531 1096.01 95.793C1096.01 94.1523 1095.65 92.9284 1094.93 92.1211C1094.21 91.3138 1093.26 90.9102 1092.07 90.9102C1090.88 90.9102 1089.91 91.3203 1089.19 92.1406C1088.46 92.9544 1088.09 94.1849 1088.09 95.832ZM1103.87 103H1101.13V92.6289H1103.68V94.1035C1104.11 93.4069 1104.5 92.9479 1104.85 92.7266C1105.2 92.5052 1105.6 92.3945 1106.04 92.3945C1106.67 92.3945 1107.27 92.5671 1107.85 92.9121L1107 95.3047C1106.54 95.0052 1106.11 94.8555 1105.71 94.8555C1105.32 94.8555 1105 94.9629 1104.73 95.1777C1104.47 95.3861 1104.25 95.7669 1104.1 96.3203C1103.95 96.8737 1103.87 98.0326 1103.87 99.7969V103ZM1118.55 103H1116V101.477C1115.58 102.069 1115.08 102.512 1114.5 102.805C1113.93 103.091 1113.35 103.234 1112.76 103.234C1111.57 103.234 1110.55 102.756 1109.69 101.799C1108.85 100.835 1108.42 99.4941 1108.42 97.7754C1108.42 96.0176 1108.84 94.6829 1109.66 93.7715C1110.49 92.8535 1111.54 92.3945 1112.8 92.3945C1113.96 92.3945 1114.96 92.8763 1115.81 93.8398V88.6836H1118.55V103ZM1111.23 97.5898C1111.23 98.6966 1111.38 99.4974 1111.69 99.9922C1112.13 100.708 1112.75 101.066 1113.54 101.066C1114.17 101.066 1114.71 100.799 1115.15 100.266C1115.6 99.7253 1115.82 98.9212 1115.82 97.8535C1115.82 96.6621 1115.6 95.806 1115.17 95.2852C1114.74 94.7578 1114.19 94.4941 1113.52 94.4941C1112.87 94.4941 1112.32 94.7546 1111.88 95.2754C1111.44 95.7897 1111.23 96.5612 1111.23 97.5898ZM1127.27 99.6992L1130.01 100.158C1129.65 101.161 1129.1 101.926 1128.34 102.453C1127.58 102.974 1126.63 103.234 1125.49 103.234C1123.69 103.234 1122.36 102.645 1121.49 101.467C1120.81 100.523 1120.46 99.3314 1120.46 97.8926C1120.46 96.1738 1120.91 94.8294 1121.81 93.8594C1122.71 92.8828 1123.85 92.3945 1125.22 92.3945C1126.76 92.3945 1127.98 92.9056 1128.87 93.9277C1129.76 94.9434 1130.19 96.5026 1130.15 98.6055H1123.28C1123.3 99.4193 1123.52 100.054 1123.94 100.51C1124.36 100.959 1124.89 101.184 1125.52 101.184C1125.95 101.184 1126.31 101.066 1126.61 100.832C1126.9 100.598 1127.12 100.22 1127.27 99.6992ZM1127.43 96.9258C1127.41 96.1315 1127.2 95.5293 1126.81 95.1191C1126.42 94.7025 1125.95 94.4941 1125.39 94.4941C1124.79 94.4941 1124.29 94.7122 1123.9 95.1484C1123.51 95.5846 1123.32 96.1771 1123.33 96.9258H1127.43ZM1135.03 103H1132.28V92.6289H1134.83V94.1035C1135.27 93.4069 1135.66 92.9479 1136 92.7266C1136.35 92.5052 1136.75 92.3945 1137.19 92.3945C1137.82 92.3945 1138.42 92.5671 1139 92.9121L1138.15 95.3047C1137.69 95.0052 1137.26 94.8555 1136.86 94.8555C1136.48 94.8555 1136.15 94.9629 1135.88 95.1777C1135.62 95.3861 1135.41 95.7669 1135.25 96.3203C1135.1 96.8737 1135.03 98.0326 1135.03 99.7969V103Z" fill="white"/>
<defs>
<linearGradient id="paint0_linear_611_5103" x1="623" y1="0" x2="623" y2="315" gradientUnits="userSpaceOnUse">
<stop stop-color="#333333"/>
<stop offset="1" stop-color="#888888" stop-opacity="0.6"/>
</linearGradient>
<linearGradient id="paint1_linear_611_5103" x1="453" y1="196" x2="1171" y2="195.999" gradientUnits="userSpaceOnUse">
<stop stop-color="#333333"/>
<stop offset="1" stop-color="#888888" stop-opacity="0.6"/>
</linearGradient>
<linearGradient id="paint2_linear_611_5103" x1="453" y1="214" x2="1171" y2="213.999" gradientUnits="userSpaceOnUse">
<stop stop-color="#333333"/>
<stop offset="1" stop-color="#888888" stop-opacity="0.6"/>
</linearGradient>
<linearGradient id="paint3_linear_611_5103" x1="453" y1="214" x2="1181" y2="213.999" gradientUnits="userSpaceOnUse">
<stop stop-color="#F3AF3D"/>
<stop offset="1" stop-color="#F09338"/>
</linearGradient>
<linearGradient id="paint4_linear_611_5103" x1="453" y1="231" x2="1171" y2="230.999" gradientUnits="userSpaceOnUse">
<stop stop-color="#333333"/>
<stop offset="1" stop-color="#888888" stop-opacity="0.6"/>
</linearGradient>
<linearGradient id="paint5_linear_611_5103" x1="453" y1="231" x2="1181" y2="230.999" gradientUnits="userSpaceOnUse">
<stop stop-color="#F3AF3D"/>
<stop offset="1" stop-color="#F09338"/>
</linearGradient>
<linearGradient id="paint6_linear_611_5103" x1="453" y1="250" x2="1171" y2="249.999" gradientUnits="userSpaceOnUse">
<stop stop-color="#333333"/>
<stop offset="1" stop-color="#888888" stop-opacity="0.6"/>
</linearGradient>
<linearGradient id="paint7_linear_611_5103" x1="453" y1="250" x2="1181" y2="249.999" gradientUnits="userSpaceOnUse">
<stop stop-color="#F3AF3D"/>
<stop offset="1" stop-color="#F09338"/>
</linearGradient>
<linearGradient id="paint8_linear_611_5103" x1="453" y1="268" x2="1171" y2="267.999" gradientUnits="userSpaceOnUse">
<stop stop-color="#333333"/>
<stop offset="1" stop-color="#888888" stop-opacity="0.6"/>
</linearGradient>
<linearGradient id="paint9_linear_611_5103" x1="453" y1="268" x2="1181" y2="267.999" gradientUnits="userSpaceOnUse">
<stop stop-color="#F3AF3D"/>
<stop offset="1" stop-color="#F09338"/>
</linearGradient>
<linearGradient id="paint10_linear_611_5103" x1="1111" y1="81" x2="1111" y2="111" gradientUnits="userSpaceOnUse">
<stop stop-color="#7940CF"/>
<stop offset="1" stop-color="#5921CB"/>
</linearGradient>
<clipPath id="clip0_611_5103">
<rect x="453" y="212" width="718" height="4" rx="2" fill="white"/>
</clipPath>
<clipPath id="clip1_611_5103">
<rect x="453" y="229" width="718" height="4" rx="2" fill="white"/>
</clipPath>
<clipPath id="clip2_611_5103">
<rect x="453" y="248" width="718" height="4" rx="2" fill="white"/>
</clipPath>
<clipPath id="clip3_611_5103">
<rect x="453" y="266" width="718" height="4" rx="2" fill="white"/>
</clipPath>
</defs>
</svg>
