<svg width="1093" height="315" viewBox="0 0 1093 315" fill="none" xmlns="http://www.w3.org/2000/svg">
<path d="M2.65137 29V7.8623H10.8838C15.0293 7.8623 17.9004 10.6455 17.9004 14.791V14.8203C17.9004 18.9512 15.0293 21.7783 10.8838 21.7783H5.93262V29H2.65137ZM10.0635 10.6309H5.93262V19.0244H10.0635C12.9053 19.0244 14.5605 17.4863 14.5605 14.835V14.8057C14.5605 12.1689 12.9053 10.6309 10.0635 10.6309ZM28.0078 29.3076C23.3496 29.3076 20.5371 26.1289 20.5371 21.0898V21.0752C20.5371 16.1094 23.4082 12.7842 27.8467 12.7842C32.2852 12.7842 35.0098 15.9922 35.0098 20.7676V21.8809H23.7305C23.7891 24.9277 25.459 26.7002 28.0811 26.7002C30.1172 26.7002 31.333 25.6895 31.7139 24.8691L31.7725 24.752L34.834 24.7373L34.8047 24.8691C34.2773 26.9639 32.0801 29.3076 28.0078 29.3076ZM27.8613 15.3916C25.6934 15.3916 24.0527 16.8711 23.7744 19.6104H31.8604C31.6113 16.7686 30.0146 15.3916 27.8613 15.3916ZM38.7891 29V13.0918H41.9678V15.4941H42.2021C42.7734 13.8096 44.2529 12.8135 46.377 12.8135C46.8896 12.8135 47.4463 12.8867 47.7686 12.96V15.8896C47.1973 15.7725 46.6553 15.6992 46.0547 15.6992C43.623 15.6992 41.9678 17.1934 41.9678 19.4932V29H38.7891ZM52.749 29V15.5967H50.127V13.0918H52.749V11.4219C52.749 8.25781 54.3457 6.70508 57.6709 6.70508C58.374 6.70508 58.9893 6.74902 59.5459 6.85156V9.18066C59.2529 9.13672 58.8281 9.10742 58.3301 9.10742C56.5723 9.10742 55.8838 9.95703 55.8838 11.5684V13.0918H59.4141V15.5967H55.9131V29H52.749ZM69.1113 29.3076C64.4385 29.3076 61.582 26.1875 61.582 21.0605V21.0312C61.582 15.9189 64.4531 12.7842 69.1113 12.7842C73.7549 12.7842 76.626 15.9043 76.626 21.0312V21.0605C76.626 26.1875 73.7695 29.3076 69.1113 29.3076ZM69.1113 26.6562C71.8359 26.6562 73.3887 24.5762 73.3887 21.0605V21.0312C73.3887 17.501 71.8359 15.4355 69.1113 15.4355C66.3721 15.4355 64.834 17.501 64.834 21.0312V21.0605C64.834 24.5908 66.3721 26.6562 69.1113 26.6562ZM80.4199 29V13.0918H83.5986V15.4941H83.833C84.4043 13.8096 85.8838 12.8135 88.0078 12.8135C88.5205 12.8135 89.0771 12.8867 89.3994 12.96V15.8896C88.8281 15.7725 88.2861 15.6992 87.6855 15.6992C85.2539 15.6992 83.5986 17.1934 83.5986 19.4932V29H80.4199ZM92.666 29V13.0918H95.8447V15.5381H96.0791C96.7822 13.7949 98.335 12.7842 100.415 12.7842C102.583 12.7842 104.121 13.9121 104.824 15.626H105.073C105.879 13.9121 107.71 12.7842 109.922 12.7842C113.13 12.7842 115.005 14.7178 115.005 18.0283V29H111.841V18.79C111.841 16.5928 110.845 15.5088 108.765 15.5088C106.743 15.5088 105.41 17.0176 105.41 18.9365V29H102.246V18.4678C102.246 16.6514 101.06 15.5088 99.1846 15.5088C97.2656 15.5088 95.8447 17.1494 95.8447 19.2295V29H92.666ZM123.809 29.2637C120.776 29.2637 118.535 27.418 118.535 24.5322V24.5029C118.535 21.6611 120.674 20.0059 124.468 19.7715L128.774 19.5225V18.1162C128.774 16.373 127.676 15.4062 125.522 15.4062C123.765 15.4062 122.607 16.0508 122.227 17.1787L122.212 17.2373H119.15L119.165 17.1348C119.546 14.5273 122.051 12.7842 125.669 12.7842C129.668 12.7842 131.924 14.7764 131.924 18.1162V29H128.774V26.7441H128.525C127.588 28.3555 125.918 29.2637 123.809 29.2637ZM121.699 24.4004C121.699 25.8652 122.944 26.7295 124.658 26.7295C127.031 26.7295 128.774 25.1768 128.774 23.126V21.7637L124.893 22.0127C122.695 22.1445 121.699 22.9355 121.699 24.3711V24.4004ZM136.406 29V13.0918H139.585V15.5088H139.819C140.596 13.8096 142.119 12.7842 144.434 12.7842C147.993 12.7842 149.956 14.9082 149.956 18.7021V29H146.792V19.4492C146.792 16.8125 145.693 15.5088 143.364 15.5088C141.035 15.5088 139.585 17.1055 139.585 19.6689V29H136.406ZM161.089 29.3076C156.445 29.3076 153.604 26.1436 153.604 21.002V20.9727C153.604 15.9336 156.431 12.7842 161.074 12.7842C165.073 12.7842 167.461 15.04 167.9 18.1309V18.2041L164.854 18.2188L164.839 18.1748C164.487 16.6074 163.198 15.4355 161.089 15.4355C158.438 15.4355 156.841 17.5449 156.841 20.9727V21.002C156.841 24.5176 158.467 26.6562 161.089 26.6562C163.081 26.6562 164.312 25.748 164.824 24.0342L164.854 23.9609H167.9L167.871 24.0928C167.3 27.1836 165.029 29.3076 161.089 29.3076ZM178.184 29.3076C173.525 29.3076 170.713 26.1289 170.713 21.0898V21.0752C170.713 16.1094 173.584 12.7842 178.022 12.7842C182.461 12.7842 185.186 15.9922 185.186 20.7676V21.8809H173.906C173.965 24.9277 175.635 26.7002 178.257 26.7002C180.293 26.7002 181.509 25.6895 181.89 24.8691L181.948 24.752L185.01 24.7373L184.98 24.8691C184.453 26.9639 182.256 29.3076 178.184 29.3076ZM178.037 15.3916C175.869 15.3916 174.229 16.8711 173.95 19.6104H182.036C181.787 16.7686 180.19 15.3916 178.037 15.3916Z" fill="white"/>
<rect y="63" width="1093" height="252" rx="10" fill="url(#paint0_linear_349_2049)" fill-opacity="0.4"/>
<path d="M97.9545 238C90.7545 238 84.2545 236.35 78.4545 233.05C72.7545 229.65 68.2045 225.05 64.8045 219.25C61.5045 213.45 59.8545 206.95 59.8545 199.75C59.8545 197.55 60.5545 195.75 61.9545 194.35C63.3545 192.85 65.1545 192.1 67.3545 192.1C69.5545 192.1 71.4045 192.85 72.9045 194.35C74.4045 195.75 75.1545 197.55 75.1545 199.75C75.1545 204.05 76.1545 207.95 78.1545 211.45C80.1545 214.95 82.8545 217.7 86.2545 219.7C89.7545 221.7 93.6545 222.7 97.9545 222.7C102.354 222.7 106.254 221.7 109.654 219.7C113.154 217.7 115.904 214.95 117.904 211.45C119.904 207.95 120.904 204.05 120.904 199.75C120.904 195.35 119.904 191.45 117.904 188.05C115.904 184.55 113.154 181.8 109.654 179.8C106.254 177.8 102.354 176.8 97.9545 176.8H72.9045C70.7045 176.8 68.9045 176.1 67.5045 174.7C66.1045 173.2 65.4045 171.35 65.4045 169.15V128.65C65.4045 126.45 66.1045 124.6 67.5045 123.1C68.9045 121.6 70.7045 120.85 72.9045 120.85H123.004C125.104 120.85 126.904 121.65 128.404 123.25C129.904 124.75 130.654 126.55 130.654 128.65C130.654 130.65 129.904 132.4 128.404 133.9C127.004 135.4 125.204 136.15 123.004 136.15H80.5545V161.5H97.9545C105.254 161.5 111.754 163.2 117.454 166.6C123.254 169.9 127.804 174.45 131.104 180.25C134.504 185.95 136.204 192.45 136.204 199.75C136.204 206.95 134.504 213.45 131.104 219.25C127.804 225.05 123.254 229.65 117.454 233.05C111.754 236.35 105.254 238 97.9545 238ZM162.29 240.4C159.49 240.4 157.04 239.4 154.94 237.4C152.94 235.3 151.94 232.85 151.94 230.05C151.94 227.15 152.94 224.7 154.94 222.7C157.04 220.6 159.49 219.55 162.29 219.55C165.19 219.55 167.64 220.6 169.64 222.7C171.64 224.7 172.64 227.15 172.64 230.05C172.64 232.85 171.64 235.3 169.64 237.4C167.64 239.4 165.19 240.4 162.29 240.4ZM217.527 238C209.927 238 203.427 235.7 198.027 231.1C192.727 226.4 188.677 219.7 185.877 211C183.077 202.2 181.677 191.65 181.677 179.35C181.677 167.05 183.077 156.55 185.877 147.85C188.677 139.05 192.727 132.35 198.027 127.75C203.427 123.05 209.927 120.7 217.527 120.7C225.127 120.7 231.577 123.1 236.877 127.9C242.277 132.6 246.377 139.35 249.177 148.15C251.977 156.85 253.377 167.25 253.377 179.35C253.377 191.45 251.977 201.9 249.177 210.7C246.377 219.4 242.277 226.15 236.877 230.95C231.577 235.65 225.127 238 217.527 238ZM217.527 222.4C222.127 222.4 225.927 220.55 228.927 216.85C231.927 213.05 234.177 207.9 235.677 201.4C237.177 194.9 237.927 187.55 237.927 179.35C237.927 171.15 237.177 163.8 235.677 157.3C234.177 150.8 231.927 145.65 228.927 141.85C225.927 138.05 222.127 136.15 217.527 136.15C212.927 136.15 209.127 138.05 206.127 141.85C203.127 145.55 200.877 150.65 199.377 157.15C197.877 163.65 197.127 171.05 197.127 179.35C197.127 187.65 197.877 195.05 199.377 201.55C200.877 208.05 203.127 213.15 206.127 216.85C209.227 220.55 213.027 222.4 217.527 222.4Z" fill="white"/>
<path d="M331.793 185.638L332.978 189.335L333.089 189.682H333.454H337.307L334.184 191.983L333.895 192.196L334.004 192.538L335.194 196.249L332.089 193.962L331.793 193.744L331.496 193.962L328.392 196.249L329.581 192.538L329.691 192.196L329.402 191.983L326.279 189.682H330.132H330.497L330.608 189.335L331.793 185.638Z" fill="#BB9200" stroke="#BB9200"/>
<path d="M352.793 185.638L353.978 189.335L354.089 189.682H354.454H358.307L355.184 191.983L354.895 192.196L355.004 192.538L356.194 196.249L353.089 193.962L352.793 193.744L352.496 193.962L349.392 196.249L350.581 192.538L350.691 192.196L350.402 191.983L347.279 189.682H351.132H351.497L351.608 189.335L352.793 185.638Z" fill="#BB9200" stroke="#BB9200"/>
<path d="M372.793 185.638L373.978 189.335L374.089 189.682H374.454H378.307L375.184 191.983L374.895 192.196L375.004 192.538L376.194 196.249L373.089 193.962L372.793 193.744L372.496 193.962L369.392 196.249L370.581 192.538L370.691 192.196L370.402 191.983L367.279 189.682H371.132H371.497L371.608 189.335L372.793 185.638Z" fill="#BB9200" stroke="#BB9200"/>
<path d="M393.793 185.638L394.978 189.335L395.089 189.682H395.454H399.307L396.184 191.983L395.895 192.196L396.004 192.538L397.194 196.249L394.089 193.962L393.793 193.744L393.496 193.962L390.392 196.249L391.581 192.538L391.691 192.196L391.402 191.983L388.279 189.682H392.132H392.497L392.608 189.335L393.793 185.638Z" fill="#BB9200" stroke="#BB9200"/>
<path d="M414.793 185.638L415.978 189.335L416.089 189.682H416.454H420.307L417.184 191.983L416.895 192.196L417.004 192.538L418.194 196.249L415.089 193.962L414.793 193.744L414.496 193.962L411.392 196.249L412.581 192.538L412.691 192.196L412.402 191.983L409.279 189.682H413.132H413.497L413.608 189.335L414.793 185.638Z" fill="#BB9200" stroke="#BB9200"/>
<path d="M331.793 203.638L332.978 207.335L333.089 207.682H333.454H337.307L334.184 209.983L333.895 210.196L334.004 210.538L335.194 214.249L332.089 211.962L331.793 211.744L331.496 211.962L328.392 214.249L329.581 210.538L329.691 210.196L329.402 209.983L326.279 207.682H330.132H330.497L330.608 207.335L331.793 203.638Z" fill="#BB9200" stroke="#BB9200"/>
<path d="M352.509 203.638L353.694 207.335L353.805 207.682H354.17H358.023L354.9 209.983L354.611 210.196L354.72 210.538L355.91 214.249L352.805 211.962L352.509 211.744L352.212 211.962L349.108 214.249L350.297 210.538L350.407 210.196L350.118 209.983L346.994 207.682H350.848H351.213L351.324 207.335L352.509 203.638Z" fill="#BB9200" stroke="#BB9200"/>
<path d="M373.224 203.638L374.409 207.335L374.52 207.682H374.885H378.738L375.615 209.983L375.325 210.196L375.435 210.538L376.624 214.249L373.52 211.962L373.224 211.744L372.927 211.962L369.823 214.249L371.012 210.538L371.122 210.196L370.832 209.983L367.709 207.682H371.563H371.927L372.039 207.335L373.224 203.638Z" fill="#BB9200" stroke="#BB9200"/>
<path d="M393.939 203.638L395.124 207.335L395.236 207.682H395.6H399.454L396.331 209.983L396.041 210.196L396.151 210.538L397.34 214.249L394.236 211.962L393.939 211.744L393.643 211.962L390.539 214.249L391.728 210.538L391.838 210.196L391.548 209.983L388.425 207.682H392.278H392.643L392.755 207.335L393.939 203.638Z" fill="#BB9200" stroke="#BB9200"/>
<path d="M331.793 221.638L332.978 225.335L333.089 225.682H333.454H337.307L334.184 227.983L333.895 228.196L334.004 228.538L335.194 232.249L332.089 229.962L331.793 229.744L331.496 229.962L328.392 232.249L329.581 228.538L329.691 228.196L329.402 227.983L326.279 225.682H330.132H330.497L330.608 225.335L331.793 221.638Z" fill="#BB9200" stroke="#BB9200"/>
<path d="M352.509 221.638L353.694 225.335L353.805 225.682H354.17H358.023L354.9 227.983L354.611 228.196L354.72 228.538L355.91 232.249L352.805 229.962L352.509 229.744L352.212 229.962L349.108 232.249L350.297 228.538L350.407 228.196L350.118 227.983L346.994 225.682H350.848H351.213L351.324 225.335L352.509 221.638Z" fill="#BB9200" stroke="#BB9200"/>
<path d="M373.224 221.638L374.409 225.335L374.52 225.682H374.885H378.738L375.615 227.983L375.325 228.196L375.435 228.538L376.624 232.249L373.52 229.962L373.224 229.744L372.927 229.962L369.823 232.249L371.012 228.538L371.122 228.196L370.832 227.983L367.709 225.682H371.563H371.927L372.039 225.335L373.224 221.638Z" fill="#BB9200" stroke="#BB9200"/>
<path d="M331.793 239.638L332.978 243.335L333.089 243.682H333.454H337.307L334.184 245.983L333.895 246.196L334.004 246.538L335.194 250.249L332.089 247.962L331.793 247.744L331.496 247.962L328.392 250.249L329.581 246.538L329.691 246.196L329.402 245.983L326.279 243.682H330.132H330.497L330.608 243.335L331.793 239.638Z" fill="#BB9200" stroke="#BB9200"/>
<path d="M352.509 239.638L353.694 243.335L353.805 243.682H354.17H358.023L354.9 245.983L354.611 246.196L354.72 246.538L355.91 250.249L352.805 247.962L352.509 247.744L352.212 247.962L349.108 250.249L350.297 246.538L350.407 246.196L350.118 245.983L346.994 243.682H350.848H351.213L351.324 243.335L352.509 239.638Z" fill="#BB9200" stroke="#BB9200"/>
<path d="M331.793 257.638L332.978 261.335L333.089 261.682H333.454H337.307L334.184 263.983L333.895 264.196L334.004 264.538L335.194 268.249L332.089 265.962L331.793 265.744L331.496 265.962L328.392 268.249L329.581 264.538L329.691 264.196L329.402 263.983L326.279 261.682H330.132H330.497L330.608 261.335L331.793 257.638Z" fill="#BB9200" stroke="#BB9200"/>
<g clip-path="url(#clip0_349_2049)">
<rect x="442" y="208" width="586" height="4" rx="2" fill="url(#paint1_linear_349_2049)" fill-opacity="0.4"/>
<rect x="442" y="208" width="728" height="4" rx="2" fill="url(#paint2_linear_349_2049)"/>
</g>
<g clip-path="url(#clip1_349_2049)">
<rect x="442" y="225" width="586" height="4" rx="2" fill="url(#paint3_linear_349_2049)" fill-opacity="0.4"/>
<rect x="442" y="225" width="728" height="4" rx="2" fill="url(#paint4_linear_349_2049)"/>
</g>
<g clip-path="url(#clip2_349_2049)">
<rect x="442" y="244" width="586" height="4" rx="2" fill="url(#paint5_linear_349_2049)" fill-opacity="0.4"/>
<rect x="442" y="244" width="728" height="4" rx="2" fill="url(#paint6_linear_349_2049)"/>
</g>
<g clip-path="url(#clip3_349_2049)">
<rect x="442" y="262" width="586" height="4" rx="2" fill="url(#paint7_linear_349_2049)" fill-opacity="0.4"/>
<rect x="442" y="262" width="728" height="4" rx="2" fill="url(#paint8_linear_349_2049)"/>
</g>
<path d="M414.844 142.205C413.18 142.205 412.031 141.168 411.914 139.797L411.908 139.721H413.139L413.145 139.768C413.256 140.512 413.93 141.104 414.855 141.104C415.898 141.104 416.625 140.359 416.625 139.299V139.287C416.625 138.244 415.887 137.506 414.867 137.506C414.352 137.506 413.912 137.658 413.578 137.963C413.426 138.098 413.291 138.262 413.191 138.455H412.061L412.482 133.545H417.398V134.658H413.514L413.256 137.354H413.355C413.713 136.785 414.375 136.457 415.154 136.457C416.742 136.457 417.879 137.641 417.879 139.264V139.275C417.879 141.01 416.625 142.205 414.844 142.205ZM420.076 142.088C419.59 142.088 419.215 141.713 419.215 141.238C419.215 140.758 419.59 140.383 420.076 140.383C420.562 140.383 420.932 140.758 420.932 141.238C420.932 141.713 420.562 142.088 420.076 142.088ZM425.361 142.205C423.41 142.205 422.238 140.5 422.238 137.775V137.764C422.238 135.039 423.41 133.34 425.361 133.34C427.307 133.34 428.484 135.039 428.484 137.764V137.775C428.484 140.5 427.307 142.205 425.361 142.205ZM425.361 141.115C426.492 141.115 427.16 139.844 427.16 137.775V137.764C427.16 135.695 426.492 134.436 425.361 134.436C424.225 134.436 423.562 135.695 423.562 137.764V137.775C423.562 139.844 424.225 141.115 425.361 141.115Z" fill="#BB9200"/>
<path d="M328.477 121.205C326.355 121.205 325.049 119.945 325.049 118.088V112.545H326.361V117.988C326.361 119.213 327.129 120.045 328.477 120.045C329.824 120.045 330.586 119.213 330.586 117.988V112.545H331.898V118.088C331.898 119.945 330.604 121.205 328.477 121.205ZM336.182 121.123C334.646 121.123 333.674 120.402 333.551 119.336V119.33H334.822L334.828 119.336C334.986 119.816 335.449 120.139 336.205 120.139C336.99 120.139 337.535 119.781 337.535 119.26V119.248C337.535 118.85 337.236 118.58 336.498 118.41L335.484 118.176C334.283 117.9 333.727 117.355 333.727 116.424V116.418C333.727 115.311 334.758 114.514 336.199 114.514C337.652 114.514 338.584 115.24 338.695 116.277V116.283H337.482V116.271C337.359 115.826 336.908 115.492 336.193 115.492C335.496 115.492 334.992 115.838 334.992 116.348V116.359C334.992 116.758 335.285 117.004 336 117.174L337.008 117.402C338.232 117.689 338.818 118.211 338.818 119.131V119.143C338.818 120.32 337.693 121.123 336.182 121.123ZM343.008 121.123C341.145 121.123 340.02 119.852 340.02 117.836V117.83C340.02 115.844 341.168 114.514 342.943 114.514C344.719 114.514 345.809 115.797 345.809 117.707V118.152H341.297C341.32 119.371 341.988 120.08 343.037 120.08C343.852 120.08 344.338 119.676 344.49 119.348L344.514 119.301L345.738 119.295L345.727 119.348C345.516 120.186 344.637 121.123 343.008 121.123ZM342.949 115.557C342.082 115.557 341.426 116.148 341.314 117.244H344.549C344.449 116.107 343.811 115.557 342.949 115.557ZM347.32 121V114.637H348.592V115.598H348.686C348.914 114.924 349.506 114.525 350.355 114.525C350.561 114.525 350.783 114.555 350.912 114.584V115.756C350.684 115.709 350.467 115.68 350.227 115.68C349.254 115.68 348.592 116.277 348.592 117.197V121H347.32ZM355.553 121V112.545H360.92V113.676H356.865V116.148H360.703V117.238H356.865V119.869H360.92V121H355.553ZM362.18 121L364.295 117.83L362.162 114.637H363.633L365.004 116.91H365.104L366.463 114.637H367.869L365.766 117.777L367.893 121H366.445L365.051 118.703H364.957L363.562 121H362.18ZM369.211 123.121V114.637H370.482V115.639H370.576C370.945 114.941 371.643 114.525 372.533 114.525C374.139 114.525 375.17 115.809 375.17 117.812V117.824C375.17 119.84 374.15 121.105 372.533 121.105C371.66 121.105 370.916 120.678 370.576 119.992H370.482V123.121H369.211ZM372.176 120.021C373.236 120.021 373.875 119.189 373.875 117.824V117.812C373.875 116.441 373.236 115.615 372.176 115.615C371.115 115.615 370.459 116.453 370.459 117.812V117.824C370.459 119.184 371.115 120.021 372.176 120.021ZM379.371 121.123C377.508 121.123 376.383 119.852 376.383 117.836V117.83C376.383 115.844 377.531 114.514 379.307 114.514C381.082 114.514 382.172 115.797 382.172 117.707V118.152H377.66C377.684 119.371 378.352 120.08 379.4 120.08C380.215 120.08 380.701 119.676 380.854 119.348L380.877 119.301L382.102 119.295L382.09 119.348C381.879 120.186 381 121.123 379.371 121.123ZM379.312 115.557C378.445 115.557 377.789 116.148 377.678 117.244H380.912C380.812 116.107 380.174 115.557 379.312 115.557ZM383.684 121V114.637H384.955V115.598H385.049C385.277 114.924 385.869 114.525 386.719 114.525C386.924 114.525 387.146 114.555 387.275 114.584V115.756C387.047 115.709 386.83 115.68 386.59 115.68C385.617 115.68 384.955 116.277 384.955 117.197V121H383.684ZM389.15 113.5C388.711 113.5 388.354 113.143 388.354 112.709C388.354 112.27 388.711 111.912 389.15 111.912C389.584 111.912 389.947 112.27 389.947 112.709C389.947 113.143 389.584 113.5 389.15 113.5ZM388.512 121V114.637H389.777V121H388.512ZM394.301 121.123C392.438 121.123 391.312 119.852 391.312 117.836V117.83C391.312 115.844 392.461 114.514 394.236 114.514C396.012 114.514 397.102 115.797 397.102 117.707V118.152H392.59C392.613 119.371 393.281 120.08 394.33 120.08C395.145 120.08 395.631 119.676 395.783 119.348L395.807 119.301L397.031 119.295L397.02 119.348C396.809 120.186 395.93 121.123 394.301 121.123ZM394.242 115.557C393.375 115.557 392.719 116.148 392.607 117.244H395.842C395.742 116.107 395.104 115.557 394.242 115.557ZM398.613 121V114.637H399.885V115.604H399.979C400.289 114.924 400.898 114.514 401.824 114.514C403.248 114.514 404.033 115.363 404.033 116.881V121H402.768V117.18C402.768 116.125 402.328 115.604 401.396 115.604C400.465 115.604 399.885 116.242 399.885 117.268V121H398.613ZM408.486 121.123C406.629 121.123 405.492 119.857 405.492 117.801V117.789C405.492 115.773 406.623 114.514 408.48 114.514C410.08 114.514 411.035 115.416 411.211 116.652V116.682L409.992 116.688L409.986 116.67C409.846 116.043 409.33 115.574 408.486 115.574C407.426 115.574 406.787 116.418 406.787 117.789V117.801C406.787 119.207 407.438 120.062 408.486 120.062C409.283 120.062 409.775 119.699 409.98 119.014L409.992 118.984H411.211L411.199 119.037C410.971 120.273 410.062 121.123 408.486 121.123ZM415.324 121.123C413.461 121.123 412.336 119.852 412.336 117.836V117.83C412.336 115.844 413.484 114.514 415.26 114.514C417.035 114.514 418.125 115.797 418.125 117.707V118.152H413.613C413.637 119.371 414.305 120.08 415.354 120.08C416.168 120.08 416.654 119.676 416.807 119.348L416.83 119.301L418.055 119.295L418.043 119.348C417.832 120.186 416.953 121.123 415.324 121.123ZM415.266 115.557C414.398 115.557 413.742 116.148 413.631 117.244H416.865C416.766 116.107 416.127 115.557 415.266 115.557Z" fill="white" fill-opacity="0.6"/>
<path d="M333.116 137.768C332.967 137.912 332.899 138.12 332.933 138.324L333.442 141.141C333.485 141.38 333.384 141.622 333.184 141.76C332.988 141.903 332.728 141.92 332.514 141.805L329.978 140.483C329.89 140.436 329.792 140.411 329.692 140.408H329.537C329.483 140.416 329.43 140.433 329.382 140.459L326.845 141.788C326.72 141.851 326.578 141.874 326.439 141.851C326.1 141.787 325.874 141.464 325.929 141.123L326.439 138.306C326.473 138.101 326.404 137.892 326.256 137.746L324.188 135.741C324.015 135.574 323.955 135.322 324.034 135.094C324.111 134.868 324.307 134.702 324.543 134.665L327.389 134.252C327.606 134.23 327.796 134.098 327.893 133.903L329.147 131.332C329.177 131.275 329.215 131.222 329.262 131.178L329.313 131.137C329.34 131.108 329.371 131.083 329.406 131.063L329.468 131.04L329.565 131H329.806C330.022 131.022 330.211 131.151 330.31 131.344L331.581 133.903C331.673 134.09 331.851 134.22 332.056 134.252L334.902 134.665C335.143 134.699 335.344 134.865 335.423 135.094C335.498 135.324 335.434 135.576 335.257 135.741L333.116 137.768Z" fill="#BB9200"/>
<path d="M349.116 137.768C348.967 137.912 348.899 138.12 348.933 138.324L349.442 141.141C349.485 141.38 349.384 141.622 349.184 141.76C348.988 141.903 348.728 141.92 348.514 141.805L345.978 140.483C345.89 140.436 345.792 140.411 345.692 140.408H345.537C345.483 140.416 345.43 140.433 345.382 140.459L342.845 141.788C342.72 141.851 342.578 141.874 342.439 141.851C342.1 141.787 341.874 141.464 341.929 141.123L342.439 138.306C342.473 138.101 342.404 137.892 342.256 137.746L340.188 135.741C340.015 135.574 339.955 135.322 340.034 135.094C340.111 134.868 340.307 134.702 340.543 134.665L343.389 134.252C343.606 134.23 343.796 134.098 343.893 133.903L345.147 131.332C345.177 131.275 345.215 131.222 345.262 131.178L345.313 131.137C345.34 131.108 345.371 131.083 345.406 131.063L345.468 131.04L345.565 131H345.806C346.022 131.022 346.211 131.151 346.31 131.344L347.581 133.903C347.673 134.09 347.851 134.22 348.056 134.252L350.902 134.665C351.143 134.699 351.344 134.865 351.423 135.094C351.498 135.324 351.434 135.576 351.257 135.741L349.116 137.768Z" fill="#BB9200"/>
<path d="M365.116 137.768C364.967 137.912 364.899 138.12 364.933 138.324L365.442 141.141C365.485 141.38 365.384 141.622 365.184 141.76C364.988 141.903 364.728 141.92 364.514 141.805L361.978 140.483C361.89 140.436 361.792 140.411 361.692 140.408H361.537C361.483 140.416 361.43 140.433 361.382 140.459L358.845 141.788C358.72 141.851 358.578 141.874 358.439 141.851C358.1 141.787 357.874 141.464 357.929 141.123L358.439 138.306C358.473 138.101 358.404 137.892 358.256 137.746L356.188 135.741C356.015 135.574 355.955 135.322 356.034 135.094C356.111 134.868 356.307 134.702 356.543 134.665L359.389 134.252C359.606 134.23 359.796 134.098 359.893 133.903L361.147 131.332C361.177 131.275 361.215 131.222 361.262 131.178L361.313 131.137C361.34 131.108 361.371 131.083 361.406 131.063L361.468 131.04L361.565 131H361.806C362.022 131.022 362.211 131.151 362.31 131.344L363.581 133.903C363.673 134.09 363.851 134.22 364.056 134.252L366.902 134.665C367.143 134.699 367.344 134.865 367.423 135.094C367.498 135.324 367.434 135.576 367.257 135.741L365.116 137.768Z" fill="#BB9200"/>
<path d="M381.116 137.768C380.967 137.912 380.899 138.12 380.933 138.324L381.442 141.141C381.485 141.38 381.384 141.622 381.184 141.76C380.988 141.903 380.728 141.92 380.514 141.805L377.978 140.483C377.89 140.436 377.792 140.411 377.692 140.408H377.537C377.483 140.416 377.43 140.433 377.382 140.459L374.845 141.788C374.72 141.851 374.578 141.874 374.439 141.851C374.1 141.787 373.874 141.464 373.929 141.123L374.439 138.306C374.473 138.101 374.404 137.892 374.256 137.746L372.188 135.741C372.015 135.574 371.955 135.322 372.034 135.094C372.111 134.868 372.307 134.702 372.543 134.665L375.389 134.252C375.606 134.23 375.796 134.098 375.893 133.903L377.147 131.332C377.177 131.275 377.215 131.222 377.262 131.178L377.313 131.137C377.34 131.108 377.371 131.083 377.406 131.063L377.468 131.04L377.565 131H377.806C378.022 131.022 378.211 131.151 378.31 131.344L379.581 133.903C379.673 134.09 379.851 134.22 380.056 134.252L382.902 134.665C383.143 134.699 383.344 134.865 383.423 135.094C383.498 135.324 383.434 135.576 383.257 135.741L381.116 137.768Z" fill="#BB9200"/>
<path d="M397.116 137.768C396.967 137.912 396.899 138.12 396.933 138.324L397.442 141.141C397.485 141.38 397.384 141.622 397.184 141.76C396.988 141.903 396.728 141.92 396.514 141.805L393.978 140.483C393.89 140.436 393.792 140.411 393.692 140.408H393.537C393.483 140.416 393.43 140.433 393.382 140.459L390.845 141.788C390.72 141.851 390.578 141.874 390.439 141.851C390.1 141.787 389.874 141.464 389.929 141.123L390.439 138.306C390.473 138.101 390.404 137.892 390.256 137.746L388.188 135.741C388.015 135.574 387.955 135.322 388.034 135.094C388.111 134.868 388.307 134.702 388.543 134.665L391.389 134.252C391.606 134.23 391.796 134.098 391.893 133.903L393.147 131.332C393.177 131.275 393.215 131.222 393.262 131.178L393.313 131.137C393.34 131.108 393.371 131.083 393.406 131.063L393.468 131.04L393.565 131H393.806C394.022 131.022 394.211 131.151 394.31 131.344L395.581 133.903C395.673 134.09 395.851 134.22 396.056 134.252L398.902 134.665C399.143 134.699 399.344 134.865 399.423 135.094C399.498 135.324 399.434 135.576 399.257 135.741L397.116 137.768Z" fill="#BB9200"/>
<path d="M590.793 142V140.318H586.668V139.205C587.781 137.295 589.023 135.297 590.189 133.545H592.059V139.205H593.225V140.318H592.059V142H590.793ZM587.928 139.229H590.811V134.652H590.734C589.826 136.018 588.795 137.664 587.928 139.146V139.229ZM595.463 142.088C594.977 142.088 594.602 141.713 594.602 141.238C594.602 140.758 594.977 140.383 595.463 140.383C595.949 140.383 596.318 140.758 596.318 141.238C596.318 141.713 595.949 142.088 595.463 142.088ZM600.748 142.205C598.797 142.205 597.625 140.5 597.625 137.775V137.764C597.625 135.039 598.797 133.34 600.748 133.34C602.693 133.34 603.871 135.039 603.871 137.764V137.775C603.871 140.5 602.693 142.205 600.748 142.205ZM600.748 141.115C601.879 141.115 602.547 139.844 602.547 137.775V137.764C602.547 135.695 601.879 134.436 600.748 134.436C599.611 134.436 598.949 135.695 598.949 137.764V137.775C598.949 139.844 599.611 141.115 600.748 141.115Z" fill="#BB9200"/>
<path d="M502.205 121V113.676H499.545V112.545H506.172V113.676H503.518V121H502.205ZM506.828 121V114.637H508.1V115.598H508.193C508.422 114.924 509.014 114.525 509.863 114.525C510.068 114.525 510.291 114.555 510.42 114.584V115.756C510.191 115.709 509.975 115.68 509.734 115.68C508.762 115.68 508.1 116.277 508.1 117.197V121H506.828ZM513.332 121.105C512.119 121.105 511.223 120.367 511.223 119.213V119.201C511.223 118.064 512.078 117.402 513.596 117.309L515.318 117.209V116.646C515.318 115.949 514.879 115.562 514.018 115.562C513.314 115.562 512.852 115.82 512.699 116.271L512.693 116.295H511.469L511.475 116.254C511.627 115.211 512.629 114.514 514.076 114.514C515.676 114.514 516.578 115.311 516.578 116.646V121H515.318V120.098H515.219C514.844 120.742 514.176 121.105 513.332 121.105ZM512.488 119.16C512.488 119.746 512.986 120.092 513.672 120.092C514.621 120.092 515.318 119.471 515.318 118.65V118.105L513.766 118.205C512.887 118.258 512.488 118.574 512.488 119.148V119.16ZM520.691 121.105C519.092 121.105 518.055 119.822 518.055 117.824V117.812C518.055 115.797 519.074 114.525 520.691 114.525C521.564 114.525 522.309 114.959 522.648 115.645H522.748V112.141H524.014V121H522.748V119.998H522.648C522.279 120.695 521.582 121.105 520.691 121.105ZM521.055 120.021C522.115 120.021 522.766 119.184 522.766 117.824V117.812C522.766 116.453 522.109 115.615 521.055 115.615C519.988 115.615 519.35 116.447 519.35 117.812V117.824C519.35 119.189 519.988 120.021 521.055 120.021ZM526.568 113.5C526.129 113.5 525.771 113.143 525.771 112.709C525.771 112.27 526.129 111.912 526.568 111.912C527.002 111.912 527.365 112.27 527.365 112.709C527.365 113.143 527.002 113.5 526.568 113.5ZM525.93 121V114.637H527.195V121H525.93ZM529.047 121V114.637H530.318V115.604H530.412C530.723 114.924 531.332 114.514 532.258 114.514C533.682 114.514 534.467 115.363 534.467 116.881V121H533.201V117.18C533.201 116.125 532.762 115.604 531.83 115.604C530.898 115.604 530.318 116.242 530.318 117.268V121H529.047ZM538.932 123.244C537.314 123.244 536.318 122.535 536.166 121.475L536.178 121.463H537.461L537.467 121.475C537.572 121.914 538.088 122.225 538.949 122.225C539.998 122.225 540.619 121.732 540.619 120.865V119.611H540.525C540.139 120.303 539.436 120.689 538.562 120.689C536.928 120.689 535.92 119.43 535.92 117.637V117.625C535.92 115.809 536.934 114.525 538.586 114.525C539.477 114.525 540.168 114.965 540.537 115.68H540.613V114.637H541.879V120.871C541.879 122.318 540.736 123.244 538.932 123.244ZM538.914 119.641C539.992 119.641 540.643 118.82 540.643 117.631V117.619C540.643 116.436 539.986 115.604 538.914 115.604C537.83 115.604 537.221 116.436 537.221 117.619V117.631C537.221 118.814 537.83 119.641 538.914 119.641ZM547.135 121V112.545H550.469C552.203 112.545 553.281 113.553 553.281 115.123V115.135C553.281 116.271 552.672 117.197 551.641 117.543L553.539 121H552.021L550.299 117.748H548.447V121H547.135ZM548.447 116.682H550.34C551.348 116.682 551.934 116.131 551.934 115.17V115.158C551.934 114.221 551.312 113.646 550.299 113.646H548.447V116.682ZM557.488 121.123C555.625 121.123 554.5 119.852 554.5 117.836V117.83C554.5 115.844 555.648 114.514 557.424 114.514C559.199 114.514 560.289 115.797 560.289 117.707V118.152H555.777C555.801 119.371 556.469 120.08 557.518 120.08C558.332 120.08 558.818 119.676 558.971 119.348L558.994 119.301L560.219 119.295L560.207 119.348C559.996 120.186 559.117 121.123 557.488 121.123ZM557.43 115.557C556.562 115.557 555.906 116.148 555.795 117.244H559.029C558.93 116.107 558.291 115.557 557.43 115.557ZM564.115 121.123C562.58 121.123 561.607 120.402 561.484 119.336V119.33H562.756L562.762 119.336C562.92 119.816 563.383 120.139 564.139 120.139C564.924 120.139 565.469 119.781 565.469 119.26V119.248C565.469 118.85 565.17 118.58 564.432 118.41L563.418 118.176C562.217 117.9 561.66 117.355 561.66 116.424V116.418C561.66 115.311 562.691 114.514 564.133 114.514C565.586 114.514 566.518 115.24 566.629 116.277V116.283H565.416V116.271C565.293 115.826 564.842 115.492 564.127 115.492C563.43 115.492 562.926 115.838 562.926 116.348V116.359C562.926 116.758 563.219 117.004 563.934 117.174L564.941 117.402C566.166 117.689 566.752 118.211 566.752 119.131V119.143C566.752 120.32 565.627 121.123 564.115 121.123ZM570.391 121.123C568.955 121.123 568.211 120.262 568.211 118.756V114.637H569.482V118.457C569.482 119.512 569.869 120.033 570.801 120.033C571.82 120.033 572.365 119.395 572.365 118.369V114.637H573.631V121H572.365V120.039H572.266C571.961 120.725 571.316 121.123 570.391 121.123ZM575.523 121V112.141H576.795V121H575.523ZM581.09 121.041C579.689 121.041 579.115 120.549 579.115 119.324V115.639H578.119V114.637H579.115V113.031H580.41V114.637H581.775V115.639H580.41V119.02C580.41 119.705 580.668 119.986 581.295 119.986C581.488 119.986 581.6 119.98 581.775 119.963V120.977C581.57 121.012 581.336 121.041 581.09 121.041Z" fill="white" fill-opacity="0.6"/>
<path d="M508.116 137.768C507.967 137.912 507.899 138.12 507.933 138.324L508.442 141.141C508.485 141.38 508.384 141.622 508.184 141.76C507.988 141.903 507.728 141.92 507.514 141.805L504.978 140.483C504.89 140.436 504.792 140.411 504.692 140.408H504.537C504.483 140.416 504.43 140.433 504.382 140.459L501.845 141.788C501.72 141.851 501.578 141.874 501.439 141.851C501.1 141.787 500.874 141.464 500.929 141.123L501.439 138.306C501.473 138.101 501.404 137.892 501.256 137.746L499.188 135.741C499.015 135.574 498.955 135.322 499.034 135.094C499.111 134.868 499.307 134.702 499.543 134.665L502.389 134.252C502.606 134.23 502.796 134.098 502.893 133.903L504.147 131.332C504.177 131.275 504.215 131.222 504.262 131.178L504.313 131.137C504.34 131.108 504.371 131.083 504.406 131.063L504.468 131.04L504.565 131H504.806C505.022 131.022 505.211 131.151 505.31 131.344L506.581 133.903C506.673 134.09 506.851 134.22 507.056 134.252L509.902 134.665C510.143 134.699 510.344 134.865 510.423 135.094C510.498 135.324 510.434 135.576 510.257 135.741L508.116 137.768Z" fill="#BB9200"/>
<path d="M524.116 137.768C523.967 137.912 523.899 138.12 523.933 138.324L524.442 141.141C524.485 141.38 524.384 141.622 524.184 141.76C523.988 141.903 523.728 141.92 523.514 141.805L520.978 140.483C520.89 140.436 520.792 140.411 520.692 140.408H520.537C520.483 140.416 520.43 140.433 520.382 140.459L517.845 141.788C517.72 141.851 517.578 141.874 517.439 141.851C517.1 141.787 516.874 141.464 516.929 141.123L517.439 138.306C517.473 138.101 517.404 137.892 517.256 137.746L515.188 135.741C515.015 135.574 514.955 135.322 515.034 135.094C515.111 134.868 515.307 134.702 515.543 134.665L518.389 134.252C518.606 134.23 518.796 134.098 518.893 133.903L520.147 131.332C520.177 131.275 520.215 131.222 520.262 131.178L520.313 131.137C520.34 131.108 520.371 131.083 520.406 131.063L520.468 131.04L520.565 131H520.806C521.022 131.022 521.211 131.151 521.31 131.344L522.581 133.903C522.673 134.09 522.851 134.22 523.056 134.252L525.902 134.665C526.143 134.699 526.344 134.865 526.423 135.094C526.498 135.324 526.434 135.576 526.257 135.741L524.116 137.768Z" fill="#BB9200"/>
<path d="M540.116 137.768C539.967 137.912 539.899 138.12 539.933 138.324L540.442 141.141C540.485 141.38 540.384 141.622 540.184 141.76C539.988 141.903 539.728 141.92 539.514 141.805L536.978 140.483C536.89 140.436 536.792 140.411 536.692 140.408H536.537C536.483 140.416 536.43 140.433 536.382 140.459L533.845 141.788C533.72 141.851 533.578 141.874 533.439 141.851C533.1 141.787 532.874 141.464 532.929 141.123L533.439 138.306C533.473 138.101 533.404 137.892 533.256 137.746L531.188 135.741C531.015 135.574 530.955 135.322 531.034 135.094C531.111 134.868 531.307 134.702 531.543 134.665L534.389 134.252C534.606 134.23 534.796 134.098 534.893 133.903L536.147 131.332C536.177 131.275 536.215 131.222 536.262 131.178L536.313 131.137C536.34 131.108 536.371 131.083 536.406 131.063L536.468 131.04L536.565 131H536.806C537.022 131.022 537.211 131.151 537.31 131.344L538.581 133.903C538.673 134.09 538.851 134.22 539.056 134.252L541.902 134.665C542.143 134.699 542.344 134.865 542.423 135.094C542.498 135.324 542.434 135.576 542.257 135.741L540.116 137.768Z" fill="#BB9200"/>
<path d="M556.116 137.768C555.967 137.912 555.899 138.12 555.933 138.324L556.442 141.141C556.485 141.38 556.384 141.622 556.184 141.76C555.988 141.903 555.728 141.92 555.514 141.805L552.978 140.483C552.89 140.436 552.792 140.411 552.692 140.408H552.537C552.483 140.416 552.43 140.433 552.382 140.459L549.845 141.788C549.72 141.851 549.578 141.874 549.439 141.851C549.1 141.787 548.874 141.464 548.929 141.123L549.439 138.306C549.473 138.101 549.404 137.892 549.256 137.746L547.188 135.741C547.015 135.574 546.955 135.322 547.034 135.094C547.111 134.868 547.307 134.702 547.543 134.665L550.389 134.252C550.606 134.23 550.796 134.098 550.893 133.903L552.147 131.332C552.177 131.275 552.215 131.222 552.262 131.178L552.313 131.137C552.34 131.108 552.371 131.083 552.406 131.063L552.468 131.04L552.565 131H552.806C553.022 131.022 553.211 131.151 553.31 131.344L554.581 133.903C554.673 134.09 554.851 134.22 555.056 134.252L557.902 134.665C558.143 134.699 558.344 134.865 558.423 135.094C558.498 135.324 558.434 135.576 558.257 135.741L556.116 137.768Z" fill="#BB9200"/>
<path d="M571.772 137.405L571.772 137.405L571.768 137.409C571.501 137.668 571.379 138.041 571.44 138.406L571.44 138.406L571.441 138.413L571.95 141.23C571.958 141.275 571.939 141.321 571.9 141.348L571.9 141.348L571.889 141.356C571.85 141.385 571.796 141.389 571.751 141.365L571.751 141.365L571.746 141.362L569.211 140.04C569.053 139.957 568.88 139.913 568.706 139.908L568.699 139.908H568.692H568.537H568.5L568.463 139.913C568.355 139.929 568.248 139.963 568.147 140.018L565.618 141.343C565.589 141.357 565.557 141.362 565.525 141.359C565.457 141.342 565.412 141.277 565.422 141.207L565.931 138.395L565.931 138.395L565.932 138.387C565.992 138.021 565.871 137.649 565.607 137.389L565.607 137.389L565.604 137.387L563.536 135.382C563.503 135.35 563.492 135.301 563.507 135.258L563.508 135.255C563.525 135.204 563.568 135.168 563.619 135.159L566.452 134.748C566.834 134.705 567.169 134.471 567.34 134.127L567.34 134.127L567.343 134.122L568.593 131.559C568.595 131.555 568.598 131.551 568.6 131.548L568.62 131.532L568.655 131.505L568.657 131.503L568.658 131.502L568.664 131.5H568.771C568.812 131.509 568.846 131.535 568.865 131.57L570.133 134.124C570.297 134.459 570.615 134.69 570.98 134.746L570.98 134.746L570.984 134.747L573.83 135.16L573.831 135.16C573.885 135.167 573.93 135.204 573.949 135.254C573.962 135.297 573.949 135.345 573.915 135.377L573.913 135.378L571.772 137.405Z" stroke="#BB9200"/>
<path d="M764.844 142.205C763.18 142.205 762.031 141.168 761.914 139.797L761.908 139.721H763.139L763.145 139.768C763.256 140.512 763.93 141.104 764.855 141.104C765.898 141.104 766.625 140.359 766.625 139.299V139.287C766.625 138.244 765.887 137.506 764.867 137.506C764.352 137.506 763.912 137.658 763.578 137.963C763.426 138.098 763.291 138.262 763.191 138.455H762.061L762.482 133.545H767.398V134.658H763.514L763.256 137.354H763.355C763.713 136.785 764.375 136.457 765.154 136.457C766.742 136.457 767.879 137.641 767.879 139.264V139.275C767.879 141.01 766.625 142.205 764.844 142.205ZM770.076 142.088C769.59 142.088 769.215 141.713 769.215 141.238C769.215 140.758 769.59 140.383 770.076 140.383C770.562 140.383 770.932 140.758 770.932 141.238C770.932 141.713 770.562 142.088 770.076 142.088ZM775.361 142.205C773.41 142.205 772.238 140.5 772.238 137.775V137.764C772.238 135.039 773.41 133.34 775.361 133.34C777.307 133.34 778.484 135.039 778.484 137.764V137.775C778.484 140.5 777.307 142.205 775.361 142.205ZM775.361 141.115C776.492 141.115 777.16 139.844 777.16 137.775V137.764C777.16 135.695 776.492 134.436 775.361 134.436C774.225 134.436 773.562 135.695 773.562 137.764V137.775C773.562 139.844 774.225 141.115 775.361 141.115Z" fill="#BB9200"/>
<path d="M674.41 121L677.463 112.545H678.881L681.934 121H680.551L679.789 118.715H676.555L675.787 121H674.41ZM678.119 114.027L676.906 117.66H679.438L678.219 114.027H678.119ZM685.584 121.123C683.727 121.123 682.59 119.857 682.59 117.801V117.789C682.59 115.773 683.721 114.514 685.578 114.514C687.178 114.514 688.133 115.416 688.309 116.652V116.682L687.09 116.688L687.084 116.67C686.943 116.043 686.428 115.574 685.584 115.574C684.523 115.574 683.885 116.418 683.885 117.789V117.801C683.885 119.207 684.535 120.062 685.584 120.062C686.381 120.062 686.873 119.699 687.078 119.014L687.09 118.984H688.309L688.297 119.037C688.068 120.273 687.16 121.123 685.584 121.123ZM692.428 121.123C690.57 121.123 689.434 119.857 689.434 117.801V117.789C689.434 115.773 690.564 114.514 692.422 114.514C694.021 114.514 694.977 115.416 695.152 116.652V116.682L693.934 116.688L693.928 116.67C693.787 116.043 693.271 115.574 692.428 115.574C691.367 115.574 690.729 116.418 690.729 117.789V117.801C690.729 119.207 691.379 120.062 692.428 120.062C693.225 120.062 693.717 119.699 693.922 119.014L693.934 118.984H695.152L695.141 119.037C694.912 120.273 694.004 121.123 692.428 121.123ZM698.715 121.123C697.279 121.123 696.535 120.262 696.535 118.756V114.637H697.807V118.457C697.807 119.512 698.193 120.033 699.125 120.033C700.145 120.033 700.689 119.395 700.689 118.369V114.637H701.955V121H700.689V120.039H700.59C700.285 120.725 699.641 121.123 698.715 121.123ZM703.789 121V114.637H705.061V115.598H705.154C705.383 114.924 705.975 114.525 706.824 114.525C707.029 114.525 707.252 114.555 707.381 114.584V115.756C707.152 115.709 706.936 115.68 706.695 115.68C705.723 115.68 705.061 116.277 705.061 117.197V121H703.789ZM710.293 121.105C709.08 121.105 708.184 120.367 708.184 119.213V119.201C708.184 118.064 709.039 117.402 710.557 117.309L712.279 117.209V116.646C712.279 115.949 711.84 115.562 710.979 115.562C710.275 115.562 709.812 115.82 709.66 116.271L709.654 116.295H708.43L708.436 116.254C708.588 115.211 709.59 114.514 711.037 114.514C712.637 114.514 713.539 115.311 713.539 116.646V121H712.279V120.098H712.18C711.805 120.742 711.137 121.105 710.293 121.105ZM709.449 119.16C709.449 119.746 709.947 120.092 710.633 120.092C711.582 120.092 712.279 119.471 712.279 118.65V118.105L710.727 118.205C709.848 118.258 709.449 118.574 709.449 119.148V119.16ZM718.01 121.123C716.152 121.123 715.016 119.857 715.016 117.801V117.789C715.016 115.773 716.146 114.514 718.004 114.514C719.604 114.514 720.559 115.416 720.734 116.652V116.682L719.516 116.688L719.51 116.67C719.369 116.043 718.854 115.574 718.01 115.574C716.949 115.574 716.311 116.418 716.311 117.789V117.801C716.311 119.207 716.961 120.062 718.01 120.062C718.807 120.062 719.299 119.699 719.504 119.014L719.516 118.984H720.734L720.723 119.037C720.494 120.273 719.586 121.123 718.01 121.123ZM722.797 123.238C722.639 123.238 722.451 123.227 722.287 123.209V122.207C722.41 122.225 722.568 122.23 722.715 122.23C723.307 122.23 723.658 121.979 723.852 121.334L723.945 121.006L721.637 114.637H723.008L724.602 119.723H724.713L726.301 114.637H727.637L725.27 121.246C724.73 122.77 724.086 123.238 722.797 123.238Z" fill="white" fill-opacity="0.6"/>
<path d="M683.116 137.768C682.967 137.912 682.899 138.12 682.933 138.324L683.442 141.141C683.485 141.38 683.384 141.622 683.184 141.76C682.988 141.903 682.728 141.92 682.514 141.805L679.978 140.483C679.89 140.436 679.792 140.411 679.692 140.408H679.537C679.483 140.416 679.43 140.433 679.382 140.459L676.845 141.788C676.72 141.851 676.578 141.874 676.439 141.851C676.1 141.787 675.874 141.464 675.929 141.123L676.439 138.306C676.473 138.101 676.404 137.892 676.256 137.746L674.188 135.741C674.015 135.574 673.955 135.322 674.034 135.094C674.111 134.868 674.307 134.702 674.543 134.665L677.389 134.252C677.606 134.23 677.796 134.098 677.893 133.903L679.147 131.332C679.177 131.275 679.215 131.222 679.262 131.178L679.313 131.137C679.34 131.108 679.371 131.083 679.406 131.063L679.468 131.04L679.565 131H679.806C680.022 131.022 680.211 131.151 680.31 131.344L681.581 133.903C681.673 134.09 681.851 134.22 682.056 134.252L684.902 134.665C685.143 134.699 685.344 134.865 685.423 135.094C685.498 135.324 685.434 135.576 685.257 135.741L683.116 137.768Z" fill="#BB9200"/>
<path d="M699.116 137.768C698.967 137.912 698.899 138.12 698.933 138.324L699.442 141.141C699.485 141.38 699.384 141.622 699.184 141.76C698.988 141.903 698.728 141.92 698.514 141.805L695.978 140.483C695.89 140.436 695.792 140.411 695.692 140.408H695.537C695.483 140.416 695.43 140.433 695.382 140.459L692.845 141.788C692.72 141.851 692.578 141.874 692.439 141.851C692.1 141.787 691.874 141.464 691.929 141.123L692.439 138.306C692.473 138.101 692.404 137.892 692.256 137.746L690.188 135.741C690.015 135.574 689.955 135.322 690.034 135.094C690.111 134.868 690.307 134.702 690.543 134.665L693.389 134.252C693.606 134.23 693.796 134.098 693.893 133.903L695.147 131.332C695.177 131.275 695.215 131.222 695.262 131.178L695.313 131.137C695.34 131.108 695.371 131.083 695.406 131.063L695.468 131.04L695.565 131H695.806C696.022 131.022 696.211 131.151 696.31 131.344L697.581 133.903C697.673 134.09 697.851 134.22 698.056 134.252L700.902 134.665C701.143 134.699 701.344 134.865 701.423 135.094C701.498 135.324 701.434 135.576 701.257 135.741L699.116 137.768Z" fill="#BB9200"/>
<path d="M715.116 137.768C714.967 137.912 714.899 138.12 714.933 138.324L715.442 141.141C715.485 141.38 715.384 141.622 715.184 141.76C714.988 141.903 714.728 141.92 714.514 141.805L711.978 140.483C711.89 140.436 711.792 140.411 711.692 140.408H711.537C711.483 140.416 711.43 140.433 711.382 140.459L708.845 141.788C708.72 141.851 708.578 141.874 708.439 141.851C708.1 141.787 707.874 141.464 707.929 141.123L708.439 138.306C708.473 138.101 708.404 137.892 708.256 137.746L706.188 135.741C706.015 135.574 705.955 135.322 706.034 135.094C706.111 134.868 706.307 134.702 706.543 134.665L709.389 134.252C709.606 134.23 709.796 134.098 709.893 133.903L711.147 131.332C711.177 131.275 711.215 131.222 711.262 131.178L711.313 131.137C711.34 131.108 711.371 131.083 711.406 131.063L711.468 131.04L711.565 131H711.806C712.022 131.022 712.211 131.151 712.31 131.344L713.581 133.903C713.673 134.09 713.851 134.22 714.056 134.252L716.902 134.665C717.143 134.699 717.344 134.865 717.423 135.094C717.498 135.324 717.434 135.576 717.257 135.741L715.116 137.768Z" fill="#BB9200"/>
<path d="M731.116 137.768C730.967 137.912 730.899 138.12 730.933 138.324L731.442 141.141C731.485 141.38 731.384 141.622 731.184 141.76C730.988 141.903 730.728 141.92 730.514 141.805L727.978 140.483C727.89 140.436 727.792 140.411 727.692 140.408H727.537C727.483 140.416 727.43 140.433 727.382 140.459L724.845 141.788C724.72 141.851 724.578 141.874 724.439 141.851C724.1 141.787 723.874 141.464 723.929 141.123L724.439 138.306C724.473 138.101 724.404 137.892 724.256 137.746L722.188 135.741C722.015 135.574 721.955 135.322 722.034 135.094C722.111 134.868 722.307 134.702 722.543 134.665L725.389 134.252C725.606 134.23 725.796 134.098 725.893 133.903L727.147 131.332C727.177 131.275 727.215 131.222 727.262 131.178L727.313 131.137C727.34 131.108 727.371 131.083 727.406 131.063L727.468 131.04L727.565 131H727.806C728.022 131.022 728.211 131.151 728.31 131.344L729.581 133.903C729.673 134.09 729.851 134.22 730.056 134.252L732.902 134.665C733.143 134.699 733.344 134.865 733.423 135.094C733.498 135.324 733.434 135.576 733.257 135.741L731.116 137.768Z" fill="#BB9200"/>
<path d="M747.116 137.768C746.967 137.912 746.899 138.12 746.933 138.324L747.442 141.141C747.485 141.38 747.384 141.622 747.184 141.76C746.988 141.903 746.728 141.92 746.514 141.805L743.978 140.483C743.89 140.436 743.792 140.411 743.692 140.408H743.537C743.483 140.416 743.43 140.433 743.382 140.459L740.845 141.788C740.72 141.851 740.578 141.874 740.439 141.851C740.1 141.787 739.874 141.464 739.929 141.123L740.439 138.306C740.473 138.101 740.404 137.892 740.256 137.746L738.188 135.741C738.015 135.574 737.955 135.322 738.034 135.094C738.111 134.868 738.307 134.702 738.543 134.665L741.389 134.252C741.606 134.23 741.796 134.098 741.893 133.903L743.147 131.332C743.177 131.275 743.215 131.222 743.262 131.178L743.313 131.137C743.34 131.108 743.371 131.083 743.406 131.063L743.468 131.04L743.565 131H743.806C744.022 131.022 744.211 131.151 744.31 131.344L745.581 133.903C745.673 134.09 745.851 134.22 746.056 134.252L748.902 134.665C749.143 134.699 749.344 134.865 749.423 135.094C749.498 135.324 749.434 135.576 749.257 135.741L747.116 137.768Z" fill="#BB9200"/>
<rect x="908" y="112" width="120" height="30" rx="10" fill="url(#paint9_linear_349_2049)"/>
<path d="M948.529 134.342C944.428 134.342 941.947 131.48 941.947 126.959V126.939C941.947 122.408 944.486 119.566 948.529 119.566C952.582 119.566 955.102 122.418 955.102 126.939V126.959C955.102 131.471 952.602 134.342 948.529 134.342ZM948.529 132.408C951.205 132.408 952.865 130.26 952.865 126.959V126.939C952.865 123.609 951.195 121.5 948.529 121.5C945.863 121.5 944.184 123.609 944.184 126.939V126.959C944.184 130.26 945.814 132.408 948.529 132.408ZM957.826 134V123.395H959.945V124.996H960.102C960.482 123.873 961.469 123.209 962.885 123.209C963.227 123.209 963.598 123.258 963.812 123.307V125.26C963.432 125.182 963.07 125.133 962.67 125.133C961.049 125.133 959.945 126.129 959.945 127.662V134H957.826ZM969.428 134.176C966.762 134.176 965.033 132.037 965.033 128.707V128.688C965.033 125.328 966.732 123.209 969.428 123.209C970.883 123.209 972.123 123.932 972.689 125.074H972.855V119.234H974.965V134H972.855V132.33H972.689C972.074 133.492 970.912 134.176 969.428 134.176ZM970.033 132.369C971.801 132.369 972.885 130.973 972.885 128.707V128.688C972.885 126.422 971.791 125.025 970.033 125.025C968.256 125.025 967.191 126.412 967.191 128.688V128.707C967.191 130.982 968.256 132.369 970.033 132.369ZM982.572 134.205C979.467 134.205 977.592 132.086 977.592 128.727V128.717C977.592 125.406 979.506 123.189 982.465 123.189C985.424 123.189 987.24 125.328 987.24 128.512V129.254H979.721C979.76 131.285 980.873 132.467 982.621 132.467C983.979 132.467 984.789 131.793 985.043 131.246L985.082 131.168L987.123 131.158L987.104 131.246C986.752 132.643 985.287 134.205 982.572 134.205ZM982.475 124.928C981.029 124.928 979.936 125.914 979.75 127.74H985.141C984.975 125.846 983.91 124.928 982.475 124.928ZM989.76 134V123.395H991.879V124.996H992.035C992.416 123.873 993.402 123.209 994.818 123.209C995.16 123.209 995.531 123.258 995.746 123.307V125.26C995.365 125.182 995.004 125.133 994.604 125.133C992.982 125.133 991.879 126.129 991.879 127.662V134H989.76Z" fill="white"/>
<g clip-path="url(#clip4_349_2049)">
<rect x="442" y="190" width="586" height="4" rx="2" fill="url(#paint10_linear_349_2049)" fill-opacity="0.4"/>
<rect x="442" y="190" width="728" height="4" rx="2" fill="url(#paint11_linear_349_2049)"/>
</g>
<defs>
<linearGradient id="paint0_linear_349_2049" x1="546.5" y1="63" x2="546.5" y2="315" gradientUnits="userSpaceOnUse">
<stop stop-color="#333333"/>
<stop offset="1" stop-color="#888888" stop-opacity="0.6"/>
</linearGradient>
<linearGradient id="paint1_linear_349_2049" x1="442" y1="210" x2="1028" y2="210" gradientUnits="userSpaceOnUse">
<stop stop-color="#333333"/>
<stop offset="1" stop-color="#888888" stop-opacity="0.6"/>
</linearGradient>
<linearGradient id="paint2_linear_349_2049" x1="442" y1="210" x2="1170" y2="209.999" gradientUnits="userSpaceOnUse">
<stop stop-color="#F3AF3D"/>
<stop offset="1" stop-color="#F09338"/>
</linearGradient>
<linearGradient id="paint3_linear_349_2049" x1="442" y1="227" x2="1028" y2="227" gradientUnits="userSpaceOnUse">
<stop stop-color="#333333"/>
<stop offset="1" stop-color="#888888" stop-opacity="0.6"/>
</linearGradient>
<linearGradient id="paint4_linear_349_2049" x1="442" y1="227" x2="1170" y2="226.999" gradientUnits="userSpaceOnUse">
<stop stop-color="#F3AF3D"/>
<stop offset="1" stop-color="#F09338"/>
</linearGradient>
<linearGradient id="paint5_linear_349_2049" x1="442" y1="246" x2="1028" y2="246" gradientUnits="userSpaceOnUse">
<stop stop-color="#333333"/>
<stop offset="1" stop-color="#888888" stop-opacity="0.6"/>
</linearGradient>
<linearGradient id="paint6_linear_349_2049" x1="442" y1="246" x2="1170" y2="245.999" gradientUnits="userSpaceOnUse">
<stop stop-color="#F3AF3D"/>
<stop offset="1" stop-color="#F09338"/>
</linearGradient>
<linearGradient id="paint7_linear_349_2049" x1="442" y1="264" x2="1028" y2="264" gradientUnits="userSpaceOnUse">
<stop stop-color="#333333"/>
<stop offset="1" stop-color="#888888" stop-opacity="0.6"/>
</linearGradient>
<linearGradient id="paint8_linear_349_2049" x1="442" y1="264" x2="1170" y2="263.999" gradientUnits="userSpaceOnUse">
<stop stop-color="#F3AF3D"/>
<stop offset="1" stop-color="#F09338"/>
</linearGradient>
<linearGradient id="paint9_linear_349_2049" x1="968" y1="112" x2="968" y2="142" gradientUnits="userSpaceOnUse">
<stop stop-color="#7940CF"/>
<stop offset="1" stop-color="#5921CB"/>
</linearGradient>
<linearGradient id="paint10_linear_349_2049" x1="442" y1="192" x2="1028" y2="192" gradientUnits="userSpaceOnUse">
<stop stop-color="#333333"/>
<stop offset="1" stop-color="#888888" stop-opacity="0.6"/>
</linearGradient>
<linearGradient id="paint11_linear_349_2049" x1="442" y1="192" x2="1170" y2="191.999" gradientUnits="userSpaceOnUse">
<stop stop-color="#F3AF3D"/>
<stop offset="1" stop-color="#F09338"/>
</linearGradient>
<clipPath id="clip0_349_2049">
<rect x="442" y="208" width="586" height="4" rx="2" fill="white"/>
</clipPath>
<clipPath id="clip1_349_2049">
<rect x="442" y="225" width="586" height="4" rx="2" fill="white"/>
</clipPath>
<clipPath id="clip2_349_2049">
<rect x="442" y="244" width="586" height="4" rx="2" fill="white"/>
</clipPath>
<clipPath id="clip3_349_2049">
<rect x="442" y="262" width="586" height="4" rx="2" fill="white"/>
</clipPath>
<clipPath id="clip4_349_2049">
<rect x="442" y="190" width="586" height="4" rx="2" fill="white"/>
</clipPath>
</defs>
</svg>
