<svg width="80" height="80" viewBox="0 0 80 80" fill="none" xmlns="http://www.w3.org/2000/svg">
<path d="M36.9994 16C37.666 16.3333 37.9993 16.3333 38.3327 16.3333C38.9993 16.3333 39.3327 16.3333 39.9993 16.3333C40.666 16.3333 40.9993 16.3333 41.666 16.3333C41.9993 16.3333 42.666 16 42.9993 16C42.9993 16 42.9993 16 43.3327 16C46.3327 14.6667 48.666 11.6667 48.666 8.33333C48.3327 3.66667 44.666 0 39.9993 0C35.3327 0 31.666 3.66667 31.666 8.33333C31.666 12 33.9994 15 36.9994 16Z" fill="url(#paint0_linear_1_7339)"/>
<path d="M13.6654 66C14.332 66.3333 14.6654 66.3333 14.9987 66.3333C15.6654 66.3333 15.9987 66.3333 16.6654 66.3333C17.332 66.3333 17.6654 66.3333 18.332 66.3333C18.6654 66.3333 19.332 66 19.6654 66C19.6654 66 19.6654 66 19.9987 66C22.9987 64.6667 25.332 61.6667 25.332 58.3333C24.9987 53.6667 21.332 50 16.6654 50C11.9987 50 8.33203 53.6667 8.33203 58.3333C8.33203 62 10.6654 65 13.6654 66Z" fill="url(#paint1_linear_1_7339)"/>
<path d="M26.6667 30H53.3333C54.3333 30 55 29.3333 55 28.3333C55 23.3333 52.3333 18.6667 48.6667 16C46.3333 18.3333 43.3333 20 40 20C36.6667 20 33.6667 18.3333 31.3333 16C27.6667 18.6667 25 23.3333 25 28.3333C25 29.3333 25.6667 30 26.6667 30Z" fill="url(#paint2_linear_1_7339)"/>
<path d="M55 58.3333C55 62 57.3333 65 60.3333 66C60.3333 66 60.3333 66 60.6667 66C61 66 61.3333 66.3333 62 66.3333C62.6667 66.3333 63 66.3333 63.6667 66.3333C64.3333 66.3333 64.6667 66.3333 65.3333 66.3333C65.6667 66.3333 66.3333 66 66.6667 66C66.6667 66 66.6667 66 67 66C70 64.6667 72.3333 61.6667 72.3333 58.3333C72.3333 53.6667 68.6667 50 64 50C59.3333 50 55 53.6667 55 58.3333Z" fill="url(#paint3_linear_1_7339)"/>
<path d="M71.9987 66C69.6654 68.3333 66.6654 70 63.332 70C59.9987 70 56.9987 68.3333 54.6654 66C50.6654 68.6667 48.332 73.3333 48.332 78.3333C48.332 79.3333 48.9987 80 49.9987 80H76.6654C77.6654 80 78.332 79.3333 78.332 78.3333C78.332 73.3333 75.6654 68.6667 71.9987 66Z" fill="url(#paint4_linear_1_7339)"/>
<path d="M25.3327 66C22.9993 68.3333 19.9993 70 16.666 70C13.3327 70 10.3327 68.3333 7.99935 66C3.99935 68.6667 1.66602 73.3333 1.66602 78.3333C1.66602 79.3333 2.33268 80 3.33268 80H29.9993C30.9993 80 31.666 79.3333 31.666 78.3333C31.666 73.3333 28.9993 68.6667 25.3327 66Z" fill="url(#paint5_linear_1_7339)"/>
<path d="M16.6667 46.667C17.6667 46.667 18.3333 46.0003 18.3333 45.0003V20.0003H23.3333C24.3333 20.0003 25 19.3337 25 18.3337C25 17.3337 24.3333 16.667 23.3333 16.667H16.6667C15.6667 16.667 15 17.3337 15 18.3337V45.0003C15 46.0003 15.6667 46.667 16.6667 46.667Z" fill="url(#paint6_linear_1_7339)"/>
<path d="M56.6667 20.0003H61.6667V45.0003C61.6667 46.0003 62.3333 46.667 63.3333 46.667C64.3333 46.667 65 46.0003 65 45.0003V18.3337C65 17.3337 64.3333 16.667 63.3333 16.667H56.6667C55.6667 16.667 55 17.3337 55 18.3337C55 19.3337 55.6667 20.0003 56.6667 20.0003Z" fill="url(#paint7_linear_1_7339)"/>
<defs>
<linearGradient id="paint0_linear_1_7339" x1="33.6617" y1="1.225" x2="47.2871" y2="17.0487" gradientUnits="userSpaceOnUse">
<stop stop-color="#4BBEFF"/>
<stop offset="0.510417" stop-color="#359EFF" stop-opacity="0.5"/>
<stop offset="1" stop-color="#D06BFF"/>
</linearGradient>
<linearGradient id="paint1_linear_1_7339" x1="10.3277" y1="51.225" x2="23.9531" y2="67.0487" gradientUnits="userSpaceOnUse">
<stop stop-color="#4BBEFF"/>
<stop offset="0.510417" stop-color="#359EFF" stop-opacity="0.5"/>
<stop offset="1" stop-color="#D06BFF"/>
</linearGradient>
<linearGradient id="paint2_linear_1_7339" x1="28.5217" y1="17.05" x2="36.9296" y2="37.1531" gradientUnits="userSpaceOnUse">
<stop stop-color="#4BBEFF"/>
<stop offset="0.510417" stop-color="#359EFF" stop-opacity="0.5"/>
<stop offset="1" stop-color="#D06BFF"/>
</linearGradient>
<linearGradient id="paint3_linear_1_7339" x1="57.0348" y1="51.225" x2="70.6184" y2="67.3096" gradientUnits="userSpaceOnUse">
<stop stop-color="#4BBEFF"/>
<stop offset="0.510417" stop-color="#359EFF" stop-opacity="0.5"/>
<stop offset="1" stop-color="#D06BFF"/>
</linearGradient>
<linearGradient id="paint4_linear_1_7339" x1="51.8538" y1="67.05" x2="60.2616" y2="87.1531" gradientUnits="userSpaceOnUse">
<stop stop-color="#4BBEFF"/>
<stop offset="0.510417" stop-color="#359EFF" stop-opacity="0.5"/>
<stop offset="1" stop-color="#D06BFF"/>
</linearGradient>
<linearGradient id="paint5_linear_1_7339" x1="5.18775" y1="67.05" x2="13.5956" y2="87.1531" gradientUnits="userSpaceOnUse">
<stop stop-color="#4BBEFF"/>
<stop offset="0.510417" stop-color="#359EFF" stop-opacity="0.5"/>
<stop offset="1" stop-color="#D06BFF"/>
</linearGradient>
<linearGradient id="paint6_linear_1_7339" x1="16.1739" y1="18.917" x2="32.7111" y2="25.0677" gradientUnits="userSpaceOnUse">
<stop stop-color="#4BBEFF"/>
<stop offset="0.510417" stop-color="#359EFF" stop-opacity="0.5"/>
<stop offset="1" stop-color="#D06BFF"/>
</linearGradient>
<linearGradient id="paint7_linear_1_7339" x1="56.1739" y1="18.917" x2="72.7111" y2="25.0677" gradientUnits="userSpaceOnUse">
<stop stop-color="#4BBEFF"/>
<stop offset="0.510417" stop-color="#359EFF" stop-opacity="0.5"/>
<stop offset="1" stop-color="#D06BFF"/>
</linearGradient>
</defs>
</svg>
