<svg width="81" height="80" viewBox="0 0 81 80" fill="none" xmlns="http://www.w3.org/2000/svg">
<path d="M37.153 37.3227C37.7854 37.7055 38.1016 37.7055 38.4178 37.7055C39.0503 37.7055 39.3665 37.7055 39.9989 37.7055C40.6313 37.7055 40.9475 37.7055 41.5799 37.7055C41.8961 37.7055 42.5285 37.3227 42.8447 37.3227C42.8447 37.3227 42.8447 37.3227 43.1609 37.3227C46.0068 35.7916 48.2202 32.3466 48.2202 28.5187C48.2202 23.1598 44.7419 18.9492 40.3151 18.9492C35.8882 18.9492 32.0938 23.1598 32.0938 28.5187C32.0938 32.7293 34.3072 36.1744 37.153 37.3227Z" fill="url(#paint0_linear_1_7340)"/>
<path d="M25.7695 51.4832C25.7695 52.6316 26.4019 53.3971 27.3506 53.3971H52.6469C53.5956 53.3971 54.228 52.6316 54.228 51.4832C54.228 45.7415 51.6983 40.3826 48.2201 37.3203C46.0066 39.9998 43.1608 41.9137 39.9988 41.9137C36.8367 41.9137 33.9909 39.9998 31.7774 37.3203C28.2992 40.3826 25.7695 45.7415 25.7695 51.4832Z" fill="url(#paint1_linear_1_7340)"/>
<path d="M15.494 41.9151H20.5533C21.5019 41.9151 22.1343 41.1495 22.1343 40.0012C22.1343 38.8528 21.5019 38.0873 20.5533 38.0873H15.494C14.8616 33.8767 11.6996 30.4316 7.90512 30.4316C3.47825 30.4316 0 34.6422 0 40.0012C0 45.3601 3.47825 49.5707 7.90512 49.5707C11.6996 49.5707 14.8616 46.1257 15.494 41.9151ZM7.90512 45.7429C5.37548 45.7429 3.16205 43.0634 3.16205 40.0012C3.16205 36.9389 5.37548 34.2595 7.90512 34.2595C10.4348 34.2595 12.6482 36.9389 12.6482 40.0012C12.6482 43.0634 10.4348 45.7429 7.90512 45.7429Z" fill="url(#paint2_linear_1_7340)"/>
<path d="M62.6091 60.8612C61.0281 60.8612 59.447 61.6267 58.1822 62.3923L55.6526 59.33C55.0202 58.5645 54.0716 58.5645 53.4392 59.33C52.8067 60.0956 52.8067 61.2439 53.4392 62.0095L55.9688 65.0717C55.0202 66.6029 54.704 68.5168 54.704 70.4307C54.704 75.7896 58.1822 80.0002 62.6091 80.0002C67.036 80.0002 70.5142 75.7896 70.5142 70.4307C70.5142 65.0717 67.036 60.8612 62.6091 60.8612ZM62.6091 76.1724C60.0795 76.1724 57.866 73.4929 57.866 70.4307C57.866 67.3684 60.0795 64.689 62.6091 64.689C65.1387 64.689 67.3522 67.3684 67.3522 70.4307C67.3522 73.4929 65.1387 76.1724 62.6091 76.1724Z" fill="url(#paint3_linear_1_7340)"/>
<path d="M55.6526 20.6702L58.1822 17.6079C59.447 18.3735 61.0281 19.1391 62.6091 19.1391C67.036 19.1391 70.5142 14.9285 70.5142 9.56953C70.5142 4.21059 67.036 0 62.6091 0C58.1822 0 54.704 4.21059 54.704 9.56953C54.704 11.4834 55.0202 13.3973 55.9688 14.9285L53.4392 17.9907C52.8067 18.7563 52.8067 19.9046 53.4392 20.6702C54.0716 21.4357 55.0202 21.4357 55.6526 20.6702ZM62.6091 3.82781C65.1387 3.82781 67.3522 6.50728 67.3522 9.56953C67.3522 12.6318 65.1387 15.3112 62.6091 15.3112C60.0795 15.3112 57.866 12.6318 57.866 9.56953C57.866 6.50728 60.0795 3.82781 62.6091 3.82781Z" fill="url(#paint4_linear_1_7340)"/>
<path d="M24.3499 59.33L21.8203 62.3923C20.5555 61.6267 18.9744 60.8612 17.3934 60.8612C12.9665 60.8612 9.48828 65.0717 9.48828 70.4307C9.48828 75.7896 12.9665 80.0002 17.3934 80.0002C21.8203 80.0002 25.2985 75.7896 25.2985 70.4307C25.2985 68.5168 24.9823 66.6029 24.0337 65.0717L26.5633 62.0095C27.1958 61.2439 27.1958 60.0956 26.5633 59.33C25.9309 58.5645 24.9823 58.5645 24.3499 59.33ZM17.3934 76.1724C14.8638 76.1724 12.6503 73.4929 12.6503 70.4307C12.6503 67.3684 14.8638 64.689 17.3934 64.689C19.923 64.689 22.1365 67.3684 22.1365 70.4307C22.1365 73.4929 19.923 76.1724 17.3934 76.1724Z" fill="url(#paint5_linear_1_7340)"/>
<path d="M17.3895 19.1391C18.9705 19.1391 20.5515 18.3735 21.8164 17.6079L24.346 20.6702C24.9784 21.4357 25.927 21.4357 26.5594 20.6702C27.1918 19.9046 27.1918 18.7563 26.5594 17.9907L24.0298 14.9285C24.9784 13.3973 25.2946 11.4834 25.2946 9.56953C25.2946 4.21059 21.8164 0 17.3895 0C12.9626 0 9.48438 4.21059 9.48438 9.56953C9.48438 14.9285 12.9626 19.1391 17.3895 19.1391ZM17.3895 3.82781C19.9191 3.82781 22.1326 6.50728 22.1326 9.56953C22.1326 12.6318 19.9191 15.3112 17.3895 15.3112C14.8599 15.3112 12.6464 12.6318 12.6464 9.56953C12.6464 6.50728 14.8599 3.82781 17.3895 3.82781Z" fill="url(#paint6_linear_1_7340)"/>
<path d="M72.0964 30.4316C68.3019 30.4316 65.1399 33.8767 64.5075 38.0873H59.4482C58.4996 38.0873 57.8672 38.8528 57.8672 40.0012C57.8672 41.1495 58.4996 41.9151 59.4482 41.9151H64.5075C65.1399 46.1257 68.3019 49.5707 72.0964 49.5707C76.5233 49.5707 80.0015 45.3601 80.0015 40.0012C80.0015 34.6422 76.5233 30.4316 72.0964 30.4316ZM72.0964 45.7429C69.5668 45.7429 67.3533 43.0634 67.3533 40.0012C67.3533 36.9389 69.5668 34.2595 72.0964 34.2595C74.626 34.2595 76.8395 36.9389 76.8395 40.0012C76.8395 43.0634 74.626 45.7429 72.0964 45.7429Z" fill="url(#paint7_linear_1_7340)"/>
<defs>
<linearGradient id="paint0_linear_1_7340" x1="31.825" y1="18.9492" x2="50.5698" y2="35.3323" gradientUnits="userSpaceOnUse">
<stop stop-color="#4BBEFF"/>
<stop offset="0.510417" stop-color="#359EFF" stop-opacity="0.5"/>
<stop offset="1" stop-color="#D06BFF"/>
</linearGradient>
<linearGradient id="paint1_linear_1_7340" x1="25.2952" y1="37.3203" x2="39.0633" y2="62.0948" gradientUnits="userSpaceOnUse">
<stop stop-color="#4BBEFF"/>
<stop offset="0.510417" stop-color="#359EFF" stop-opacity="0.5"/>
<stop offset="1" stop-color="#D06BFF"/>
</linearGradient>
<linearGradient id="paint2_linear_1_7340" x1="-0.368906" y1="30.4316" x2="18.6823" y2="52.8286" gradientUnits="userSpaceOnUse">
<stop stop-color="#4BBEFF"/>
<stop offset="0.510417" stop-color="#359EFF" stop-opacity="0.5"/>
<stop offset="1" stop-color="#D06BFF"/>
</linearGradient>
<linearGradient id="paint3_linear_1_7340" x1="52.6724" y1="58.7559" x2="73.7739" y2="76.4754" gradientUnits="userSpaceOnUse">
<stop stop-color="#4BBEFF"/>
<stop offset="0.510417" stop-color="#359EFF" stop-opacity="0.5"/>
<stop offset="1" stop-color="#D06BFF"/>
</linearGradient>
<linearGradient id="paint4_linear_1_7340" x1="52.6724" y1="-8.00647e-08" x2="73.7739" y2="17.7195" gradientUnits="userSpaceOnUse">
<stop stop-color="#4BBEFF"/>
<stop offset="0.510417" stop-color="#359EFF" stop-opacity="0.5"/>
<stop offset="1" stop-color="#D06BFF"/>
</linearGradient>
<linearGradient id="paint5_linear_1_7340" x1="9.19579" y1="58.7559" x2="30.2973" y2="76.4754" gradientUnits="userSpaceOnUse">
<stop stop-color="#4BBEFF"/>
<stop offset="0.510417" stop-color="#359EFF" stop-opacity="0.5"/>
<stop offset="1" stop-color="#D06BFF"/>
</linearGradient>
<linearGradient id="paint6_linear_1_7340" x1="9.19189" y1="-8.00647e-08" x2="30.2934" y2="17.7195" gradientUnits="userSpaceOnUse">
<stop stop-color="#4BBEFF"/>
<stop offset="0.510417" stop-color="#359EFF" stop-opacity="0.5"/>
<stop offset="1" stop-color="#D06BFF"/>
</linearGradient>
<linearGradient id="paint7_linear_1_7340" x1="57.4983" y1="30.4316" x2="76.5495" y2="52.8286" gradientUnits="userSpaceOnUse">
<stop stop-color="#4BBEFF"/>
<stop offset="0.510417" stop-color="#359EFF" stop-opacity="0.5"/>
<stop offset="1" stop-color="#D06BFF"/>
</linearGradient>
</defs>
</svg>
