<svg width="24" height="19" viewBox="0 0 24 19" fill="none" xmlns="http://www.w3.org/2000/svg">
<path id="envelope" d="M3.51402 18.217H20.7423C22.8037 18.217 24 17.0557 24 14.8369V3.38004C24 1.16124 22.7931 0 20.486 0H3.25768C1.19626 0 0 1.15087 0 3.38004V14.8369C0 17.0557 1.20694 18.217 3.51402 18.217ZM10.7984 9.46619L3.0227 2.00107C3.17223 1.96996 3.34312 1.94923 3.5247 1.94923H20.4753C20.6676 1.94923 20.8385 1.96996 20.9987 2.01144L13.2336 9.46619C12.785 9.89128 12.4112 10.0779 12.016 10.0779C11.6208 10.0779 11.247 9.88091 10.7984 9.46619ZM1.99733 3.5252L7.80774 9.07219L1.99733 14.6503V3.5252ZM16.2243 9.07219L22.0027 3.5563V14.6296L16.2243 9.07219ZM3.5247 16.2574C3.33244 16.2574 3.15087 16.2366 2.99065 16.2055L9.11082 10.3164L9.68758 10.8763C10.4673 11.6124 11.215 11.9235 12.016 11.9235C12.8064 11.9235 13.5648 11.6124 14.3338 10.8763L14.9212 10.3164L21.0307 16.1952C20.8598 16.2366 20.6782 16.2574 20.4753 16.2574H3.5247Z" fill="#888888"/>
</svg>
