<svg width="265" height="57" viewBox="0 0 265 57" fill="none" xmlns="http://www.w3.org/2000/svg">
<path d="M4.69696 2.01573L5.27475 3.84344L5.38517 4.19273H5.7515H7.65882L6.10407 5.35374L5.8194 5.56631L5.92649 5.90507L6.5131 7.7607L4.99613 6.6279L4.69696 6.40449L4.3978 6.6279L2.88082 7.7607L3.46744 5.90507L3.57453 5.56631L3.28986 5.35374L1.73511 4.19273H3.64243H4.00875L4.11917 3.84344L4.69696 2.01573Z" stroke="#BB9200"/>
<path d="M17.8483 2.01573L18.4261 3.84344L18.5365 4.19273H18.9029H20.8102L19.2554 5.35374L18.9708 5.56631L19.0779 5.90507L19.6645 7.7607L18.1475 6.6279L17.8483 6.40449L17.5492 6.6279L16.0322 7.7607L16.6188 5.90507L16.7259 5.56631L16.4412 5.35374L14.8865 4.19273H16.7938H17.1601L17.2705 3.84344L17.8483 2.01573Z" stroke="#BB9200"/>
<path d="M30.9997 2.01573L31.5775 3.84344L31.6879 4.19273H32.0542H33.9616L32.4068 5.35374L32.1221 5.56631L32.2292 5.90507L32.8158 7.7607L31.2989 6.6279L30.9997 6.40449L30.7005 6.6279L29.1836 7.7607L29.7702 5.90507L29.8773 5.56631L29.5926 5.35374L28.0378 4.19273H29.9452H30.3115L30.4219 3.84344L30.9997 2.01573Z" stroke="#BB9200"/>
<path d="M44.1511 2.01573L44.7289 3.84344L44.8393 4.19273H45.2056H47.1129L45.5582 5.35374L45.2735 5.56631L45.3806 5.90507L45.9672 7.7607L44.4502 6.6279L44.1511 6.40449L43.8519 6.6279L42.3349 7.7607L42.9215 5.90507L43.0286 5.56631L42.744 5.35374L41.1892 4.19273H43.0965H43.4629L43.5733 3.84344L44.1511 2.01573Z" stroke="#BB9200"/>
<path d="M57.3034 2.01573L57.8812 3.84344L57.9916 4.19273H58.3579H60.2653L58.7105 5.35374L58.4258 5.56631L58.5329 5.90507L59.1195 7.7607L57.6026 6.6279L57.3034 6.40449L57.0042 6.6279L55.4873 7.7607L56.0739 5.90507L56.181 5.56631L55.8963 5.35374L54.3416 4.19273H56.2489H56.6152L56.7256 3.84344L57.3034 2.01573Z" stroke="#BB9200"/>
<path d="M4.69696 13.6019L5.27475 15.4296L5.38517 15.7789H5.7515H7.65882L6.10407 16.9399L5.8194 17.1525L5.92649 17.4913L6.5131 19.3469L4.99613 18.2141L4.69696 17.9907L4.3978 18.2141L2.88082 19.3469L3.46744 17.4913L3.57453 17.1525L3.28986 16.9399L1.73511 15.7789H3.64243H4.00875L4.11917 15.4296L4.69696 13.6019Z" fill="#BB9200" stroke="#BB9200"/>
<path d="M17.8483 13.6019L18.4261 15.4296L18.5365 15.7789H18.9029H20.8102L19.2554 16.9399L18.9708 17.1525L19.0779 17.4913L19.6645 19.3469L18.1475 18.2141L17.8483 17.9907L17.5492 18.2141L16.0322 19.3469L16.6188 17.4913L16.7259 17.1525L16.4412 16.9399L14.8865 15.7789H16.7938H17.1601L17.2705 15.4296L17.8483 13.6019Z" fill="#BB9200" stroke="#BB9200"/>
<path d="M30.9997 13.6019L31.5775 15.4296L31.6879 15.7789H32.0542H33.9616L32.4068 16.9399L32.1221 17.1525L32.2292 17.4913L32.8158 19.3469L31.2989 18.2141L30.9997 17.9907L30.7005 18.2141L29.1836 19.3469L29.7702 17.4913L29.8773 17.1525L29.5926 16.9399L28.0378 15.7789H29.9452H30.3115L30.4219 15.4296L30.9997 13.6019Z" fill="#BB9200" stroke="#BB9200"/>
<path d="M44.1511 13.6019L44.7289 15.4296L44.8393 15.7789H45.2056H47.1129L45.5582 16.9399L45.2735 17.1525L45.3806 17.4913L45.9672 19.3469L44.4502 18.2141L44.1511 17.9907L43.8519 18.2141L42.3349 19.3469L42.9215 17.4913L43.0286 17.1525L42.744 16.9399L41.1892 15.7789H43.0965H43.4629L43.5733 15.4296L44.1511 13.6019Z" fill="#BB9200" stroke="#BB9200"/>
<path d="M4.69696 25.1882L5.27475 27.0159L5.38517 27.3652H5.7515H7.65882L6.10407 28.5262L5.8194 28.7388L5.92649 29.0776L6.5131 30.9332L4.99613 29.8004L4.69696 29.577L4.3978 29.8004L2.88082 30.9332L3.46744 29.0776L3.57453 28.7388L3.28986 28.5262L1.73511 27.3652H3.64243H4.00875L4.11917 27.0159L4.69696 25.1882Z" fill="#BB9200" stroke="#BB9200"/>
<path d="M17.8483 25.1882L18.4261 27.0159L18.5365 27.3652H18.9029H20.8102L19.2554 28.5262L18.9708 28.7388L19.0779 29.0776L19.6645 30.9332L18.1475 29.8004L17.8483 29.577L17.5492 29.8004L16.0322 30.9332L16.6188 29.0776L16.7259 28.7388L16.4412 28.5262L14.8865 27.3652H16.7938H17.1601L17.2705 27.0159L17.8483 25.1882Z" fill="#BB9200" stroke="#BB9200"/>
<path d="M30.9997 25.1882L31.5775 27.0159L31.6879 27.3652H32.0542H33.9616L32.4068 28.5262L32.1221 28.7388L32.2292 29.0776L32.8158 30.9332L31.2989 29.8004L30.9997 29.577L30.7005 29.8004L29.1836 30.9332L29.7702 29.0776L29.8773 28.7388L29.5926 28.5262L28.0378 27.3652H29.9452H30.3115L30.4219 27.0159L30.9997 25.1882Z" fill="#BB9200" stroke="#BB9200"/>
<path d="M4.69696 36.7743L5.27475 38.602L5.38517 38.9513H5.7515H7.65882L6.10407 40.1123L5.8194 40.3249L5.92649 40.6636L6.5131 42.5192L4.99613 41.3864L4.69696 41.163L4.3978 41.3864L2.88082 42.5192L3.46744 40.6636L3.57453 40.3249L3.28986 40.1123L1.73511 38.9513H3.64243H4.00875L4.11917 38.602L4.69696 36.7743Z" fill="#BB9200" stroke="#BB9200"/>
<path d="M17.8483 36.7743L18.4261 38.602L18.5365 38.9513H18.9029H20.8102L19.2554 40.1123L18.9708 40.3249L19.0779 40.6636L19.6645 42.5192L18.1475 41.3864L17.8483 41.163L17.5492 41.3864L16.0322 42.5192L16.6188 40.6636L16.7259 40.3249L16.4412 40.1123L14.8865 38.9513H16.7938H17.1601L17.2705 38.602L17.8483 36.7743Z" fill="#BB9200" stroke="#BB9200"/>
<path d="M4.69696 48.3605L5.27475 50.1882L5.38517 50.5375H5.7515H7.65882L6.10407 51.6985L5.8194 51.911L5.92649 52.2498L6.5131 54.1054L4.99613 52.9726L4.69696 52.7492L4.3978 52.9726L2.88082 54.1054L3.46744 52.2498L3.57453 51.911L3.28986 51.6985L1.73511 50.5375H3.64243H4.00875L4.11917 50.1882L4.69696 48.3605Z" fill="#BB9200" stroke="#BB9200"/>
<g clip-path="url(#clip0_333_5016)">
<rect x="71" y="14.3569" width="194" height="4" rx="2" fill="url(#paint0_linear_333_5016)" fill-opacity="0.4"/>
<rect x="71" y="14.3569" width="728" height="4" rx="2" fill="url(#paint1_linear_333_5016)"/>
</g>
<g clip-path="url(#clip1_333_5016)">
<rect x="71" y="26.3569" width="194" height="4" rx="2" fill="url(#paint2_linear_333_5016)" fill-opacity="0.4"/>
<rect x="71" y="26.3569" width="728" height="4" rx="2" fill="url(#paint3_linear_333_5016)"/>
</g>
<g clip-path="url(#clip2_333_5016)">
<rect x="71" y="38.3569" width="194" height="4" rx="2" fill="url(#paint4_linear_333_5016)" fill-opacity="0.4"/>
<rect x="71" y="38.3569" width="728" height="4" rx="2" fill="url(#paint5_linear_333_5016)"/>
</g>
<g clip-path="url(#clip3_333_5016)">
<rect x="71" y="50.3569" width="194" height="4" rx="2" fill="url(#paint6_linear_333_5016)" fill-opacity="0.4"/>
<rect x="71" y="50.3569" width="728" height="4" rx="2" fill="url(#paint7_linear_333_5016)"/>
</g>
<rect x="71" y="3.35693" width="194" height="4" rx="2" fill="url(#paint8_linear_333_5016)" fill-opacity="0.7"/>
<defs>
<linearGradient id="paint0_linear_333_5016" x1="71" y1="16.3569" x2="265" y2="16.3569" gradientUnits="userSpaceOnUse">
<stop stop-color="#333333"/>
<stop offset="1" stop-color="#888888" stop-opacity="0.6"/>
</linearGradient>
<linearGradient id="paint1_linear_333_5016" x1="71" y1="16.3569" x2="799" y2="16.3562" gradientUnits="userSpaceOnUse">
<stop stop-color="#F3AF3D"/>
<stop offset="1" stop-color="#F09338"/>
</linearGradient>
<linearGradient id="paint2_linear_333_5016" x1="71" y1="28.3569" x2="265" y2="28.3569" gradientUnits="userSpaceOnUse">
<stop stop-color="#333333"/>
<stop offset="1" stop-color="#888888" stop-opacity="0.6"/>
</linearGradient>
<linearGradient id="paint3_linear_333_5016" x1="71" y1="28.3569" x2="799" y2="28.3562" gradientUnits="userSpaceOnUse">
<stop stop-color="#F3AF3D"/>
<stop offset="1" stop-color="#F09338"/>
</linearGradient>
<linearGradient id="paint4_linear_333_5016" x1="71" y1="40.3569" x2="265" y2="40.3569" gradientUnits="userSpaceOnUse">
<stop stop-color="#333333"/>
<stop offset="1" stop-color="#888888" stop-opacity="0.6"/>
</linearGradient>
<linearGradient id="paint5_linear_333_5016" x1="71" y1="40.3569" x2="799" y2="40.3562" gradientUnits="userSpaceOnUse">
<stop stop-color="#F3AF3D"/>
<stop offset="1" stop-color="#F09338"/>
</linearGradient>
<linearGradient id="paint6_linear_333_5016" x1="71" y1="52.3569" x2="265" y2="52.3569" gradientUnits="userSpaceOnUse">
<stop stop-color="#333333"/>
<stop offset="1" stop-color="#888888" stop-opacity="0.6"/>
</linearGradient>
<linearGradient id="paint7_linear_333_5016" x1="71" y1="52.3569" x2="799" y2="52.3562" gradientUnits="userSpaceOnUse">
<stop stop-color="#F3AF3D"/>
<stop offset="1" stop-color="#F09338"/>
</linearGradient>
<linearGradient id="paint8_linear_333_5016" x1="71" y1="5.35694" x2="265" y2="5.35689" gradientUnits="userSpaceOnUse">
<stop stop-color="#333333"/>
<stop offset="1" stop-color="#888888" stop-opacity="0.6"/>
</linearGradient>
<clipPath id="clip0_333_5016">
<rect x="71" y="14.3569" width="194" height="4" rx="2" fill="white"/>
</clipPath>
<clipPath id="clip1_333_5016">
<rect x="71" y="26.3569" width="194" height="4" rx="2" fill="white"/>
</clipPath>
<clipPath id="clip2_333_5016">
<rect x="71" y="38.3569" width="194" height="4" rx="2" fill="white"/>
</clipPath>
<clipPath id="clip3_333_5016">
<rect x="71" y="50.3569" width="194" height="4" rx="2" fill="white"/>
</clipPath>
</defs>
</svg>
