<svg width="18" height="20" viewBox="0 0 18 20" fill="none" xmlns="http://www.w3.org/2000/svg">
<g id="XMLID_47_">
<g id="Group">
<path id="Vector" d="M1.91675 6.66699C1.22758 6.66699 0.666748 7.22783 0.666748 7.91699V13.7503C0.666748 14.4395 1.22758 15.0003 1.91675 15.0003C2.60591 15.0003 3.16675 14.4395 3.16675 13.7503V7.91699C3.16675 7.22783 2.60591 6.66699 1.91675 6.66699Z" fill="white"/>
<path id="Vector_2" d="M16.0835 6.66699C15.3943 6.66699 14.8335 7.22783 14.8335 7.91699V13.7503C14.8335 14.4395 15.3943 15.0003 16.0835 15.0003C16.7727 15.0003 17.3335 14.4395 17.3335 13.7503V7.91699C17.3335 7.22783 16.7727 6.66699 16.0835 6.66699Z" fill="white"/>
<path id="Vector_3" d="M13.5833 6.66699H4.41667C4.18667 6.66699 4 6.85366 4 7.08366V13.7503C4 14.757 4.71667 15.5978 5.66667 15.792V18.7503C5.66667 19.4395 6.2275 20.0003 6.91667 20.0003C7.60583 20.0003 8.16667 19.4395 8.16667 18.7503V15.8337H9.83333V18.7503C9.83333 19.4395 10.3942 20.0003 11.0833 20.0003C11.7725 20.0003 12.3333 19.4395 12.3333 18.7503V15.792C13.2833 15.5987 14 14.757 14 13.7503V7.08366C14 6.85366 13.8133 6.66699 13.5833 6.66699Z" fill="white"/>
</g>
<path id="Vector_4" d="M12.0292 1.72702L13.0442 0.712018C13.2067 0.549518 13.2067 0.285352 13.0442 0.122852C12.8817 -0.0396484 12.6175 -0.0396484 12.455 0.122852L11.2717 1.30619C10.5967 1.00452 9.82917 0.833685 9 0.833685C8.17083 0.833685 7.40333 1.00452 6.72833 1.30619L5.545 0.122852C5.3825 -0.0396484 5.11833 -0.0396484 4.95583 0.122852C4.79333 0.285352 4.79333 0.549518 4.95583 0.712018L5.97083 1.72702C4.76 2.54702 4 3.86702 4 5.41702C4 5.64702 4.18667 5.83368 4.41667 5.83368H13.5833C13.8133 5.83368 14 5.64702 14 5.41702C14 3.86702 13.24 2.54702 12.0292 1.72702ZM6.91667 4.16702C6.68667 4.16702 6.5 3.98035 6.5 3.75035C6.5 3.52035 6.68667 3.33368 6.91667 3.33368C7.14667 3.33368 7.33333 3.52035 7.33333 3.75035C7.33333 3.98035 7.14667 4.16702 6.91667 4.16702ZM11.0833 4.16702C10.8533 4.16702 10.6667 3.98035 10.6667 3.75035C10.6667 3.52035 10.8533 3.33368 11.0833 3.33368C11.3133 3.33368 11.5 3.52035 11.5 3.75035C11.5 3.98035 11.3133 4.16702 11.0833 4.16702Z" fill="white"/>
</g>
</svg>
