<svg width="18" height="20" viewBox="0 0 18 20" fill="none" xmlns="http://www.w3.org/2000/svg">
<g id="Group">
<path id="Vector" d="M17.0409 13.895C16.9751 13.7925 16.8676 13.7242 16.7467 13.7083C15.3092 13.5108 14.2259 12.275 14.2259 10.8333C14.2259 9.56917 15.0426 8.45917 16.2584 8.07C16.3817 8.03083 16.4792 7.93667 16.5234 7.815C16.5676 7.69333 16.5526 7.55833 16.4826 7.45C15.4584 5.84083 13.9434 5 12.9759 5C12.1859 5 11.4467 5.24833 10.7934 5.4675C10.2334 5.65583 9.70425 5.83333 9.22591 5.83333C8.74758 5.83333 8.21841 5.65583 7.65841 5.4675C7.00591 5.24833 6.26675 5 5.47591 5C3.92008 5 0.892578 7.20583 0.892578 11.25C0.892578 15.0933 3.69591 20 5.89258 20C7.06175 20 7.75175 19.6908 8.30675 19.4433C8.65258 19.2883 8.92508 19.1667 9.22591 19.1667C9.52674 19.1667 9.79924 19.2883 10.1451 19.4433C10.7001 19.6908 11.3909 20 12.5592 20C14.3009 20 16.2667 17.01 17.0901 14.2392C17.1242 14.1233 17.1059 13.9975 17.0409 13.895Z" fill="white"/>
<path id="Vector_2" d="M8.80924 5C11.3367 5 13.3926 2.94417 13.3926 0.416667C13.3926 0.186667 13.2059 0 12.9759 0C10.4484 0 8.39258 2.05583 8.39258 4.58333C8.39258 4.81333 8.57924 5 8.80924 5Z" fill="white"/>
</g>
</svg>
