<svg width="36" height="36" viewBox="0 0 36 36" fill="none" xmlns="http://www.w3.org/2000/svg">
<g id="Chat-Bubble 8" clip-path="url(#clip0_1_6462)">
<path id="Vector" d="M18 0C8.0745 0 0 7.7385 0 17.25C0 22.1535 2.1825 26.8125 6 30.09V35.25C6 35.523 6.1485 35.7735 6.387 35.907C6.4995 35.9685 6.6255 36 6.75 36C6.888 36 7.026 35.9625 7.1475 35.886L11.328 33.2745C13.452 34.0875 15.6945 34.5 18 34.5C27.9255 34.5 36 26.7615 36 17.25C36 7.7385 27.9255 0 18 0ZM9 20.25C7.758 20.25 6.75 19.242 6.75 18C6.75 16.758 7.758 15.75 9 15.75C10.242 15.75 11.25 16.758 11.25 18C11.25 19.242 10.242 20.25 9 20.25ZM18 20.25C16.758 20.25 15.75 19.242 15.75 18C15.75 16.758 16.758 15.75 18 15.75C19.242 15.75 20.25 16.758 20.25 18C20.25 19.242 19.242 20.25 18 20.25ZM27 20.25C25.758 20.25 24.75 19.242 24.75 18C24.75 16.758 25.758 15.75 27 15.75C28.242 15.75 29.25 16.758 29.25 18C29.25 19.242 28.242 20.25 27 20.25Z" fill="white"/>
</g>
<defs>
<clipPath id="clip0_1_6462">
<rect width="36" height="36" fill="white"/>
</clipPath>
</defs>
</svg>
