<svg width="36" height="37" viewBox="0 0 36 37" fill="none" xmlns="http://www.w3.org/2000/svg">
<g id="Group 8">
<path id="Vector" d="M18 36.3457C27.9411 36.3457 36 28.2868 36 18.3457C36 8.40457 27.9411 0.345703 18 0.345703C8.05888 0.345703 0 8.40457 0 18.3457C0 28.2868 8.05888 36.3457 18 36.3457Z" fill="url(#paint0_linear_1_6438)"/>
<path id="Vector_2" d="M10.4525 14.9966H13.9368V26.2005H10.4525V14.9966ZM12.2008 9.43164C13.3212 9.43164 14.2199 10.3304 14.2199 11.4508C14.2199 12.5712 13.3212 13.4699 12.2008 13.4699C11.0804 13.4699 10.1816 12.5589 10.1816 11.4508C10.1816 10.3427 11.0804 9.43164 12.2008 9.43164Z" fill="white"/>
<path id="Vector_3" d="M16.1285 14.9961H19.465V16.5227H19.5143C19.9821 15.6363 21.1148 14.7129 22.8139 14.7129C26.3351 14.7129 26.9876 17.0275 26.9876 20.0439V26.1876H23.5034V20.7457C23.5034 19.4407 23.4787 17.7786 21.6935 17.7786C19.9083 17.7786 19.6005 19.1944 19.6005 20.6595V26.1999H16.1162V14.9961H16.1285Z" fill="white"/>
</g>
<defs>
<linearGradient id="paint0_linear_1_6438" x1="30.7305" y1="5.6152" x2="5.2695" y2="31.0762" gradientUnits="userSpaceOnUse">
<stop stop-color="#007AB5"/>
<stop offset="1" stop-color="#0046E5"/>
</linearGradient>
</defs>
</svg>
