<svg width="36" height="37" viewBox="0 0 36 37" fill="none" xmlns="http://www.w3.org/2000/svg">
<g id="Group 1">
<g id="Group">
<path id="Vector" d="M35.9877 18.259C35.9877 8.32694 27.9385 0.265625 17.9938 0.265625C8.04923 0.265625 0 8.32694 0 18.259C0 27.2434 6.58462 34.6893 15.1877 36.0308V23.4527H10.6215V18.2467H15.1877V14.2837C15.1877 9.77921 17.8708 7.28082 21.9815 7.28082C23.9508 7.28082 26.0062 7.63773 26.0062 7.63773V12.0684H23.7415C21.5015 12.0684 20.8123 13.4591 20.8123 14.8745V18.2467H25.8092L25.0092 23.4527H20.8123V36.0308C29.4154 34.677 36 27.231 36 18.259H35.9877Z" fill="url(#paint0_linear_1_6442)"/>
<path id="Vector_2" d="M24.9966 23.4668L25.7966 18.2608H20.7997V14.8886C20.7997 13.4609 21.5012 12.0825 23.7289 12.0825H25.9935V7.65184C25.9935 7.65184 23.9381 7.29492 21.9689 7.29492C17.8581 7.29492 15.175 9.78101 15.175 14.2978V18.2608H10.6089V23.4668H15.175V36.0449C16.0858 36.1926 17.0335 36.2664 17.9812 36.2664C18.9289 36.2664 19.8766 36.1926 20.7873 36.0449V23.4668H24.9843H24.9966Z" fill="white"/>
</g>
</g>
<defs>
<linearGradient id="paint0_linear_1_6442" x1="5.26769" y1="5.53317" x2="30.7193" y2="30.9855" gradientUnits="userSpaceOnUse">
<stop stop-color="#4676ED"/>
<stop offset="0.19" stop-color="#436DE4"/>
<stop offset="0.49" stop-color="#3B54CD"/>
<stop offset="0.87" stop-color="#2F2DA8"/>
<stop offset="1" stop-color="#2B1E99"/>
</linearGradient>
</defs>
</svg>
