<svg width="36" height="37" viewBox="0 0 36 37" fill="none" xmlns="http://www.w3.org/2000/svg">
<g id="Group 2">
<path id="Vector" d="M18 36.3457C27.9411 36.3457 36 28.2868 36 18.3457C36 8.40458 27.9411 0.345703 18 0.345703C8.05887 0.345703 0 8.40458 0 18.3457C0 28.2868 8.05887 36.3457 18 36.3457Z" fill="url(#paint0_linear_1_6446)"/>
<g id="Group">
<path id="Vector_2" d="M23.5897 11.5391C22.9002 11.5391 22.3462 12.0931 22.3462 12.7826C22.3462 13.472 22.9002 14.0261 23.5897 14.0261C24.2792 14.0261 24.8332 13.472 24.8332 12.7826C24.8332 12.0931 24.2792 11.5391 23.5897 11.5391Z" fill="white"/>
<path id="Vector_3" d="M18.0867 13.125C15.2181 13.125 12.8911 15.4519 12.8911 18.3206C12.8911 21.1893 15.2181 23.5162 18.0867 23.5162C20.9554 23.5162 23.2824 21.1893 23.2824 18.3206C23.2824 15.4519 20.9554 13.125 18.0867 13.125ZM18.0867 21.6571C16.2523 21.6571 14.7625 20.1674 14.7625 18.3329C14.7625 16.4985 16.2523 15.0087 18.0867 15.0087C19.9212 15.0087 21.411 16.4985 21.411 18.3329C21.411 20.1674 19.9212 21.6571 18.0867 21.6571Z" fill="white"/>
<path id="Vector_4" d="M22.2107 28.8721H13.7894C10.2928 28.8721 7.44873 26.0281 7.44873 22.5315V14.1102C7.44873 10.6136 10.2928 7.76953 13.7894 7.76953H22.2107C25.7073 7.76953 28.5513 10.6136 28.5513 14.1102V22.5315C28.5513 26.0281 25.7073 28.8721 22.2107 28.8721ZM13.7894 9.75175C11.3885 9.75175 9.43095 11.7093 9.43095 14.1102V22.5315C9.43095 24.9323 11.3885 26.8899 13.7894 26.8899H22.2107C24.6115 26.8899 26.5691 24.9323 26.5691 22.5315V14.1102C26.5691 11.7093 24.6115 9.75175 22.2107 9.75175H13.7894Z" fill="white"/>
</g>
</g>
<defs>
<linearGradient id="paint0_linear_1_6446" x1="30.7305" y1="5.6152" x2="5.2695" y2="31.0762" gradientUnits="userSpaceOnUse">
<stop stop-color="#FBE18A"/>
<stop offset="0.21" stop-color="#FCBB45"/>
<stop offset="0.38" stop-color="#F75274"/>
<stop offset="0.52" stop-color="#D53692"/>
<stop offset="0.74" stop-color="#8F39CE"/>
<stop offset="1" stop-color="#5B4FE9"/>
</linearGradient>
</defs>
</svg>
