<svg width="36" height="36" viewBox="0 0 36 36" fill="none" xmlns="http://www.w3.org/2000/svg">
<g id="Group 9">
<path id="Vector" d="M18 36C27.9411 36 36 27.9411 36 18C36 8.05887 27.9411 0 18 0C8.05887 0 0 8.05887 0 18C0 27.9411 8.05887 36 18 36Z" fill="url(#paint0_linear_1_6452)"/>
<path id="Vector_2" d="M18.0003 7.89062C12.4107 7.89062 7.87988 12.4337 7.87988 17.9987C7.87988 23.5637 12.423 28.1068 18.0003 28.1068C23.5776 28.1068 28.133 23.576 28.133 17.9987C28.133 12.4214 23.5899 7.89062 18.0003 7.89062ZM24.661 12.6676C25.8183 14.0958 26.5201 15.9057 26.5447 17.8756C26.1631 17.8017 24.5379 17.4939 22.5926 17.4939C21.9647 17.4939 21.2999 17.5308 20.6473 17.6047C20.5858 17.4693 20.5365 17.3339 20.475 17.1984C20.3026 16.7921 20.1179 16.3982 19.9209 16.0042C22.9127 14.773 24.3532 13.0616 24.661 12.6676ZM18.0003 9.47886C20.1549 9.47886 22.1248 10.2791 23.6391 11.5965C23.4052 11.9166 22.1124 13.5418 19.2191 14.6252C17.8772 12.1875 16.4243 10.156 16.0673 9.68816C16.6829 9.54042 17.3354 9.46655 18.0003 9.46655V9.47886ZM14.3313 10.3038C14.6268 10.7101 16.0919 12.7538 17.4585 15.1793C13.7773 16.1519 10.5146 16.2135 9.72667 16.2135H9.64049C10.2068 13.6034 11.9674 11.4365 14.3313 10.3161V10.3038ZM9.45581 18.0233C9.45581 17.9495 9.45581 17.8879 9.45581 17.814C9.50506 17.814 9.57893 17.814 9.67742 17.814C10.7362 17.814 14.4298 17.7278 18.2219 16.5951C18.4558 17.0507 18.6774 17.5062 18.8744 17.9618C18.7759 17.9864 18.6897 18.011 18.5912 18.0479C14.319 19.4269 11.9674 23.0835 11.5981 23.6868C10.2561 22.1724 9.44349 20.1902 9.44349 18.0233H9.45581ZM18.0126 26.5678C16.055 26.5678 14.2451 25.9029 12.7923 24.7949C13.0386 24.3147 14.8115 21.1259 19.5023 19.4884C20.672 22.5418 21.1767 25.115 21.3122 25.9029C20.2903 26.3339 19.1822 26.5678 18.0126 26.5678ZM22.8635 25.0657C22.7527 24.4132 22.2848 22.0001 21.226 19.0698C21.817 18.9713 22.4079 18.9344 22.9497 18.9344C24.7349 18.9344 26.1384 19.3284 26.4585 19.4269C26.0769 21.7538 24.7349 23.773 22.8635 25.0657Z" fill="white"/>
</g>
<defs>
<linearGradient id="paint0_linear_1_6452" x1="30.7305" y1="5.2695" x2="5.2695" y2="30.7305" gradientUnits="userSpaceOnUse">
<stop stop-color="#F26798"/>
<stop offset="0.87" stop-color="#C72092"/>
<stop offset="1" stop-color="#C11592"/>
</linearGradient>
</defs>
</svg>
