<svg width="13" height="20" viewBox="0 0 13 20" fill="none" xmlns="http://www.w3.org/2000/svg">
<g id="Mobile_Phone">
<g id="Group">
<path id="Vector" d="M6.58325 17.4999H6.99992L6.58325 17.499V17.4999Z" fill="white"/>
<path id="Vector_2" d="M10.7499 0H2.41659C1.26825 0 0.333252 0.935 0.333252 2.08333V17.9167C0.333252 19.0658 1.26825 20 2.41659 20H10.7499C11.8991 20 12.8333 19.0658 12.8333 17.9167V2.08333C12.8333 0.935 11.8991 0 10.7499 0ZM5.74992 1.66667H7.41658C7.64658 1.66667 7.83325 1.85333 7.83325 2.08333C7.83325 2.31333 7.64658 2.5 7.41658 2.5H5.74992C5.51992 2.5 5.33325 2.31333 5.33325 2.08333C5.33325 1.85333 5.51992 1.66667 5.74992 1.66667ZM6.58325 18.3333C6.12408 18.3333 5.74992 17.96 5.74992 17.5C5.74992 17.04 6.12408 16.6667 6.58325 16.6667C7.04242 16.6667 7.41658 17.04 7.41658 17.5C7.41658 17.96 7.04242 18.3333 6.58325 18.3333ZM11.9999 15H1.16659V4.16667H11.9999V15Z" fill="white"/>
</g>
</g>
</svg>
