<svg width="20" height="20" viewBox="0 0 20 20" fill="none" xmlns="http://www.w3.org/2000/svg">
<g id="Group">
<g id="Group_2">
<path id="Vector" d="M17.5001 0.833008H2.50008C1.35175 0.833008 0.416748 1.76801 0.416748 2.91634V13.7497C0.416748 14.898 1.35175 15.833 2.50008 15.833H9.58342V18.333H4.16675C3.93675 18.333 3.75008 18.5197 3.75008 18.7497C3.75008 18.9797 3.93675 19.1663 4.16675 19.1663H15.8334C16.0634 19.1663 16.2501 18.9797 16.2501 18.7497C16.2501 18.5197 16.0634 18.333 15.8334 18.333H10.4167V15.833H17.5001C18.6484 15.833 19.5834 14.898 19.5834 13.7497V2.91634C19.5834 1.76801 18.6484 0.833008 17.5001 0.833008ZM18.7501 11.6663H1.25008V2.91634C1.25008 2.22717 1.81091 1.66634 2.50008 1.66634H17.5001C18.1892 1.66634 18.7501 2.22717 18.7501 2.91634V11.6663Z" fill="white"/>
</g>
</g>
</svg>
