<svg width="36" height="36" viewBox="0 0 36 36" fill="none" xmlns="http://www.w3.org/2000/svg">
<g id="Information">
<path id="Vector" d="M18 0C8.0745 0 0 8.0745 0 18C0 27.9255 8.0745 36 18 36C27.9255 36 36 27.9255 36 18C36 8.0745 27.9255 0 18 0ZM18 6C20.481 6 22.5 8.019 22.5 10.5C22.5 12.981 20.481 15 18 15C15.519 15 13.5 12.981 13.5 10.5C13.5 8.019 15.519 6 18 6ZM23.25 30H14.25C13.0095 30 12 28.9905 12 27.75C12 26.5095 13.0095 25.5 14.25 25.5H15V21H14.25C13.0095 21 12 19.9905 12 18.75C12 17.5095 13.0095 16.5 14.25 16.5H20.25C21.4905 16.5 22.5 17.5095 22.5 18.75V25.5H23.25C24.4905 25.5 25.5 26.5095 25.5 27.75C25.5 28.9905 24.4905 30 23.25 30Z" fill="white"/>
</g>
</svg>
