<svg width="16" height="20" viewBox="0 0 16 20" fill="none" xmlns="http://www.w3.org/2000/svg">
<g id="Group">
<g id="Group_2">
<path id="Vector" d="M12.5833 0H3.41667C2.24417 0 0.5 0.444167 0.5 1.66667V18.3333C0.5 19.5558 2.24417 20 3.41667 20H12.5833C13.7558 20 15.5 19.5558 15.5 18.3333V1.66667C15.5 0.444167 13.7558 0 12.5833 0ZM9.25 18.3333H6.75C6.52 18.3333 6.33333 18.1467 6.33333 17.9167C6.33333 17.6867 6.52 17.5 6.75 17.5H9.25C9.48 17.5 9.66667 17.6867 9.66667 17.9167C9.66667 18.1467 9.48 18.3333 9.25 18.3333ZM13.8333 16.25C13.8333 16.48 13.6467 16.6667 13.4167 16.6667H2.58333C2.35333 16.6667 2.16667 16.48 2.16667 16.25V2.08333C2.16667 1.85333 2.35333 1.66667 2.58333 1.66667H13.4167C13.6467 1.66667 13.8333 1.85333 13.8333 2.08333V16.25Z" fill="white"/>
</g>
</g>
</svg>
