<svg width="36" height="36" viewBox="0 0 36 36" fill="none" xmlns="http://www.w3.org/2000/svg">
<g id="Group 1000001992">
<path id="bg" d="M0 18C0 27.9411 8.05888 36 18 36C27.9411 36 36 27.9411 36 18C36 8.05888 27.9411 0 18 0C8.05888 0 0 8.05888 0 18Z" fill="url(#paint0_linear_1_6459)"/>
<path id="telegram" d="M8.4376 17.2226C13.2694 15.1175 16.4914 13.7296 18.1035 13.0591C22.7065 11.1446 23.6629 10.812 24.2863 10.8009C24.4234 10.7986 24.73 10.8326 24.9286 10.9937C25.0963 11.1298 25.1424 11.3136 25.1645 11.4426C25.1866 11.5716 25.214 11.8654 25.1922 12.0951C24.9428 14.7159 23.8635 21.076 23.3144 24.0113C23.082 25.2534 22.6245 25.6699 22.1817 25.7106C21.2191 25.7992 20.4882 25.0745 19.556 24.4634C18.0972 23.5072 17.2731 22.9119 15.8571 21.9788C14.2207 20.9004 15.2815 20.3077 16.2141 19.3391C16.4582 19.0856 20.699 15.2282 20.7811 14.8782C20.7914 14.8345 20.8009 14.6714 20.704 14.5852C20.6071 14.4991 20.464 14.5285 20.3608 14.552C20.2145 14.5852 17.8841 16.1255 13.3696 19.1729C12.7081 19.6271 12.1089 19.8485 11.5721 19.8369C10.9803 19.8241 9.84194 19.5022 8.99567 19.2272C7.95769 18.8897 7.13272 18.7114 7.20456 18.1383C7.24197 17.8399 7.65299 17.5346 8.4376 17.2226Z" fill="white"/>
</g>
<defs>
<linearGradient id="paint0_linear_1_6459" x1="18" y1="0" x2="18" y2="36" gradientUnits="userSpaceOnUse">
<stop stop-color="#00AAFF"/>
<stop offset="1" stop-color="#00AAFF" stop-opacity="0.42"/>
</linearGradient>
</defs>
</svg>
