<svg width="20" height="20" viewBox="0 0 20 20" fill="none" xmlns="http://www.w3.org/2000/svg">
<g id="Group">
<path id="Vector" d="M7.86333 1.94237L0.363333 2.9207C0.155833 2.94737 0 3.12403 0 3.3332V9.16653C0 9.39653 0.186667 9.5832 0.416667 9.5832H7.91667C8.14667 9.5832 8.33333 9.39653 8.33333 9.16653V2.3557C8.33333 2.2357 8.28167 2.12153 8.19167 2.0432C8.10167 1.9632 7.98167 1.9257 7.86333 1.94237Z" fill="white"/>
<path id="Vector_2" d="M19.8584 0.52053C19.7684 0.44053 19.6476 0.402196 19.5292 0.42053L9.52925 1.7247C9.32258 1.75136 9.16675 1.92886 9.16675 2.13803V9.16636C9.16675 9.39636 9.35341 9.58303 9.58341 9.58303H19.5834C19.8134 9.58303 20.0001 9.39636 20.0001 9.16636V0.83303C20.0001 0.71303 19.9484 0.599696 19.8584 0.52053Z" fill="white"/>
<path id="Vector_3" d="M7.91667 10.416H0.416667C0.186667 10.416 0 10.6027 0 10.8327V16.666C0 16.8752 0.155833 17.0518 0.363333 17.0793L7.86333 18.0577C7.88083 18.0602 7.89917 18.061 7.91667 18.061C8.0175 18.061 8.115 18.0243 8.19167 17.9568C8.28167 17.8785 8.33333 17.7643 8.33333 17.6443V10.8327C8.33333 10.6027 8.14667 10.416 7.91667 10.416Z" fill="white"/>
<path id="Vector_4" d="M19.5834 10.416H9.58341C9.35341 10.416 9.16675 10.6027 9.16675 10.8327V17.8618C9.16675 18.071 9.32258 18.2477 9.53008 18.2752L19.5301 19.5794C19.5476 19.5819 19.5659 19.5827 19.5834 19.5827C19.6842 19.5827 19.7817 19.546 19.8584 19.4785C19.9484 19.4002 20.0001 19.286 20.0001 19.166V10.8327C20.0001 10.6027 19.8134 10.416 19.5834 10.416Z" fill="white"/>
</g>
</svg>
