<svg width="36" height="36" viewBox="0 0 36 36" fill="none" xmlns="http://www.w3.org/2000/svg">
<g id="Group 6">
<path id="Vector" d="M18 36C27.9411 36 36 27.9411 36 18C36 8.05888 27.9411 0 18 0C8.05888 0 0 8.05888 0 18C0 27.9411 8.05888 36 18 36Z" fill="url(#paint0_linear_1_6455)"/>
<path id="Vector_2" d="M8.28174 28.5949L9.78379 22.993C8.93427 21.454 8.49104 19.7426 8.49104 17.9943C8.49104 12.2939 13.1326 7.65234 18.833 7.65234C24.5334 7.65234 29.175 12.2939 29.175 17.9943C29.175 23.6948 24.5334 28.3363 18.833 28.3363C17.1217 28.3363 15.435 27.9054 13.9206 27.0805L8.29405 28.5826L8.28174 28.5949ZM14.1915 24.9875L14.5485 25.1968C15.8536 25.9725 17.331 26.3787 18.833 26.3787C23.4623 26.3787 27.2174 22.6113 27.2174 17.9943C27.2174 13.3774 23.45 9.60994 18.833 9.60994C14.2161 9.60994 10.4486 13.3774 10.4486 17.9943C10.4486 19.521 10.8672 21.0231 11.6798 22.3404L11.9014 22.6975L11.0642 25.8247L14.2038 24.9875H14.1915Z" fill="white"/>
<path id="Vector_3" fill-rule="evenodd" clip-rule="evenodd" d="M22.6621 19.4345C22.2312 19.176 21.6771 18.8928 21.1847 19.1021C20.803 19.2622 20.5568 19.8654 20.3105 20.1732C20.1874 20.3333 20.0273 20.3579 19.8303 20.2717C18.3899 19.6931 17.2818 18.7327 16.4815 17.4031C16.3461 17.1938 16.3707 17.0337 16.5308 16.8367C16.777 16.5535 17.0725 16.2334 17.1341 15.8518C17.1956 15.4701 17.0232 15.0269 16.8632 14.6821C16.6662 14.2512 16.4323 13.6233 16.0013 13.3771C15.5951 13.1555 15.078 13.2786 14.7209 13.5741C14.1053 14.0789 13.8098 14.8545 13.8221 15.6425C13.8221 15.8641 13.8468 16.0857 13.9083 16.295C14.0314 16.8121 14.2654 17.2923 14.5362 17.7478C14.7332 18.0925 14.9548 18.425 15.1888 18.7451C15.9644 19.7916 16.9247 20.7027 18.0328 21.3921C18.5868 21.7368 19.1901 22.0323 19.8057 22.2416C20.4952 22.4756 21.1231 22.7095 21.8741 22.5617C22.6621 22.414 23.4377 21.9215 23.7455 21.1705C23.844 20.9489 23.881 20.6903 23.8317 20.4564C23.7209 19.9639 23.0561 19.6808 22.6621 19.4345Z" fill="white"/>
</g>
<defs>
<linearGradient id="paint0_linear_1_6455" x1="34.6307" y1="11.1042" x2="1.38039" y2="24.8769" gradientUnits="userSpaceOnUse">
<stop stop-color="#60FC7C"/>
<stop offset="1" stop-color="#4AB161"/>
</linearGradient>
</defs>
</svg>
