<svg width="113" height="120" viewBox="0 0 113 120" fill="none" xmlns="http://www.w3.org/2000/svg">
<path d="M107.669 90C107.669 93.75 106.686 97.3 104.954 100.3C103.971 102.1 102.707 103.7 101.256 105C97.9787 108.15 93.6719 110 88.9439 110C83.2327 110 78.1301 107.25 74.7596 102.95C74.666 102.8 74.5255 102.7 74.4319 102.55C73.8701 101.85 73.3552 101.1 72.9339 100.3C71.2018 97.3 70.2188 93.75 70.2188 90C70.2188 83.7 72.9339 78.05 77.2407 74.4C80.4707 71.65 84.5435 70 88.9439 70C93.6251 70 97.8383 71.7999 101.115 74.8499C101.677 75.2999 102.192 75.8501 102.66 76.4001C105.75 80.0001 107.669 84.75 107.669 90Z" stroke="black" stroke-width="5" stroke-miterlimit="10" stroke-linecap="round" stroke-linejoin="round"/>
<path d="M95.919 89.8999H81.9688" stroke="black" stroke-width="5" stroke-miterlimit="10" stroke-linecap="round" stroke-linejoin="round"/>
<path d="M88.9443 82.6001V97.55" stroke="black" stroke-width="5" stroke-miterlimit="10" stroke-linecap="round" stroke-linejoin="round"/>
<path d="M14.8398 37.2L56.1755 62.7499L97.2303 37.3498" stroke="black" stroke-width="5" stroke-linecap="round" stroke-linejoin="round"/>
<path d="M56.1758 108.05V62.6998" stroke="black" stroke-width="5" stroke-linecap="round" stroke-linejoin="round"/>
<path d="M101.163 45.85V74.1502C101.163 74.4002 101.163 74.5999 101.116 74.8499C97.8389 71.7999 93.6257 70.0001 88.9445 70.0001C84.5441 70.0001 80.4713 71.6501 77.2413 74.4001C72.9345 78.0501 70.2194 83.7001 70.2194 90.0001C70.2194 93.7501 71.2024 97.3001 72.9345 100.3C73.3558 101.1 73.8707 101.85 74.4325 102.55L65.8658 107.6C60.5292 110.8 51.8219 110.8 46.4853 107.6L21.4873 92.8001C15.8229 89.4501 11.1885 81.0502 11.1885 74.1502V45.85C11.1885 38.95 15.8229 30.5501 21.4873 27.2001L46.4853 12.4C51.8219 9.2 60.5292 9.2 65.8658 12.4L90.8638 27.2001C96.5281 30.5501 101.163 38.95 101.163 45.85Z" stroke="black" stroke-width="5" stroke-linecap="round" stroke-linejoin="round"/>
</svg>

