<svg width="120" height="120" viewBox="0 0 120 120" fill="none" xmlns="http://www.w3.org/2000/svg">
<path d="M115 90C115 93.75 113.95 97.3 112.1 100.3C111.05 102.1 109.7 103.7 108.15 105C104.65 108.15 100.05 110 95 110C88.9 110 83.45 107.25 79.85 102.95C79.75 102.8 79.6 102.7 79.5 102.55C78.9 101.85 78.35 101.1 77.9 100.3C76.05 97.3 75 93.75 75 90C75 83.7 77.9 78.05 82.5 74.4C85.95 71.65 90.3 70 95 70C100 70 104.5 71.7999 108 74.8499C108.6 75.2999 109.15 75.8501 109.65 76.4001C112.95 80.0001 115 84.75 115 90Z" stroke="white" stroke-width="6" stroke-miterlimit="10" stroke-linecap="round" stroke-linejoin="round"/>
<path d="M102.45 89.8999H87.5498" stroke="white" stroke-width="6" stroke-miterlimit="10" stroke-linecap="round" stroke-linejoin="round"/>
<path d="M95 82.6001V97.55" stroke="white" stroke-width="6" stroke-miterlimit="10" stroke-linecap="round" stroke-linejoin="round"/>
<path d="M15.8506 37.2L60.0006 62.7499L103.851 37.3498" stroke="white" stroke-width="6" stroke-linecap="round" stroke-linejoin="round"/>
<path d="M60.001 108.05V62.6998" stroke="white" stroke-width="6" stroke-linecap="round" stroke-linejoin="round"/>
<path d="M108.05 45.85V74.1502C108.05 74.4002 108.05 74.5999 108 74.8499C104.5 71.7999 100 70.0001 95.0002 70.0001C90.3002 70.0001 85.9502 71.6501 82.5002 74.4001C77.9002 78.0501 75.0002 83.7001 75.0002 90.0001C75.0002 93.7501 76.0502 97.3001 77.9002 100.3C78.3502 101.1 78.9002 101.85 79.5002 102.55L70.3502 107.6C64.6502 110.8 55.3502 110.8 49.6502 107.6L22.9502 92.8001C16.9002 89.4501 11.9502 81.0502 11.9502 74.1502V45.85C11.9502 38.95 16.9002 30.5501 22.9502 27.2001L49.6502 12.4C55.3502 9.2 64.6502 9.2 70.3502 12.4L97.0502 27.2001C103.1 30.5501 108.05 38.95 108.05 45.85Z" stroke="white" stroke-width="6" stroke-linecap="round" stroke-linejoin="round"/>
</svg>
