<svg width="120" height="95" viewBox="0 0 120 95" fill="none" xmlns="http://www.w3.org/2000/svg">
<path id="car" d="M9.23841 94.4205H15.2483C19.0232 94.4205 21.9536 91.4901 21.9536 87.7152V79.6192C32.8808 80.2649 47.7815 80.6623 60 80.6623C72.1689 80.6623 87.0695 80.2649 97.9967 79.6192V87.7152C97.9967 91.4901 100.927 94.4205 104.752 94.4205H110.712C114.536 94.4205 117.467 91.4901 117.467 87.7152V74.6523C119.106 72.7152 120 70.1325 120 66.9536V58.2119C120 49.4702 118.46 44.553 113.742 38.5927L109.321 33.0298C107.483 24.0894 104.205 14.702 102.467 11.0265C99.6854 5.16556 94.3212 1.68874 87.4669 0.745033C83.8411 0.248344 73.2119 0 60 0C46.7881 0 36.1093 0.298013 32.5331 0.745033C25.6788 1.5894 20.2649 5.16556 17.5331 11.0265C15.7947 14.702 12.5166 24.0894 10.6788 33.0298L6.25828 38.5927C1.53974 44.553 0 49.4702 0 58.2119V66.9536C0 70.1325 0.89404 72.7152 2.53311 74.6523V87.7152C2.53311 91.4901 5.46358 94.4205 9.23841 94.4205ZM60 72.6159C42.9636 72.6159 21.8046 71.8212 13.7583 70.8775C9.48676 70.3808 7.89735 68.1954 7.89735 64.4205V57.7649C7.89735 51.0596 9.18874 47.8808 12.6656 43.2616L18.0298 36.2583C19.2715 29.6026 22.5 19.2715 24.5364 14.851C26.2252 11.3245 29.404 9.28808 33.7252 8.74172C37.1523 8.2947 46.8377 7.89735 60 7.89735C73.1623 7.89735 82.9967 8.34437 86.1755 8.74172C90.6457 9.28808 93.7252 11.3742 95.4139 14.9007C97.5497 19.2219 100.679 29.5033 101.921 36.2583L107.285 43.2616C110.811 47.8808 112.053 51.0596 112.053 57.7649V64.4205C112.053 68.1954 110.464 70.3808 106.242 70.8775C98.1954 71.8212 77.0364 72.6159 60 72.6159ZM24.0397 66.2086C28.8079 66.2086 32.3841 62.6325 32.3841 57.9139C32.3841 53.1457 28.8079 49.5695 24.0397 49.5695C19.3212 49.5695 15.745 53.1457 15.745 57.9139C15.745 62.6325 19.3212 66.2086 24.0397 66.2086ZM95.9106 66.2086C100.679 66.2086 104.255 62.6325 104.255 57.9139C104.255 53.1457 100.679 49.5695 95.9106 49.5695C91.1921 49.5695 87.6159 53.1457 87.6159 57.9139C87.6159 62.6325 91.1921 66.2086 95.9106 66.2086ZM46.5894 64.1225H73.4106C76.9371 64.1225 79.4205 61.6391 79.4205 58.1126C79.4205 54.5861 76.9371 52.1026 73.4106 52.1026H46.5894C43.0132 52.1026 40.5298 54.5861 40.5298 58.1126C40.5298 61.6391 43.0132 64.1225 46.5894 64.1225Z" fill="white"/>
</svg>
