<svg width="120" height="124" viewBox="0 0 120 124" fill="none" xmlns="http://www.w3.org/2000/svg">
<path d="M4 4H22.3426C23.0576 4 23.415 4 23.6804 4.19691C23.9458 4.39382 24.0494 4.73595 24.2567 5.4202L30.4354 25.8179" stroke="black" stroke-width="8" stroke-linecap="round"/>
<path d="M96.5234 98.5444H26.5217C25.2877 98.5444 24.6707 98.5444 24.3709 98.1403C24.071 97.7362 24.2499 97.1456 24.6076 95.9646L29.5746 79.567C29.9892 78.1985 30.1964 77.5142 30.7272 77.1204C31.258 76.7266 31.973 76.7266 33.4029 76.7266H76.6969" stroke="black" stroke-width="8" stroke-linecap="round" stroke-linejoin="round"/>
<path d="M87.4859 76.7287H39.7801C38.4563 76.7287 37.7943 76.7287 37.2839 76.3797C36.7734 76.0307 36.5332 75.4139 36.0528 74.1803L18.8111 29.909C18.0888 28.0544 17.7277 27.1271 18.1744 26.4737C18.6212 25.8203 19.6163 25.8203 21.6066 25.8203H111.413C113.622 25.8203 114.726 25.8203 115.164 26.5415C115.602 27.2627 115.093 28.2427 114.076 30.2028L91.0359 74.5721C90.4906 75.6222 90.2179 76.1473 89.7394 76.438C89.2609 76.7287 88.6692 76.7287 87.4859 76.7287Z" stroke="black" stroke-width="8" stroke-linecap="round"/>
<ellipse cx="93.2192" cy="116.726" rx="6.60884" ry="7.27262" fill="black"/>
<ellipse cx="40.3491" cy="116.726" rx="6.60884" ry="7.27262" fill="black"/>
</svg>

