<svg width="127" height="124" viewBox="0 0 127 124" fill="none" xmlns="http://www.w3.org/2000/svg">
<g id="Group 1000003690">
<path id="Vector" d="M4 4H23.7214C24.4233 4 24.7742 4 25.0372 4.19135C25.3002 4.3827 25.4083 4.71659 25.6243 5.38435L32.2352 25.8179" stroke="white" stroke-width="7" stroke-linecap="round"/>
<path id="Rectangle 42" d="M102.824 98.5444H27.9259C26.6701 98.5444 26.0422 98.5444 25.7427 98.1327C25.4432 97.721 25.6364 97.1236 26.023 95.9288L31.3398 79.4953C31.7719 78.1597 31.9879 77.492 32.514 77.1093C33.04 76.7266 33.7419 76.7266 35.1456 76.7266H81.6472" stroke="white" stroke-width="7" stroke-linecap="round" stroke-linejoin="round"/>
<path id="Vector 340" d="M93.4095 76.7287H41.963C40.6696 76.7287 40.0229 76.7287 39.5189 76.3925C39.0149 76.0562 38.7665 75.4591 38.2697 74.265L19.8454 29.9725C19.0642 28.0945 18.6736 27.1555 19.1189 26.4879C19.5642 25.8203 20.5812 25.8203 22.6153 25.8203H118.906C121.176 25.8203 122.31 25.8203 122.746 26.5592C123.181 27.298 122.63 28.2905 121.529 30.2754L96.9075 74.6688C96.3504 75.6732 96.0719 76.1754 95.6021 76.4521C95.1324 76.7287 94.5581 76.7287 93.4095 76.7287Z" stroke="white" stroke-width="7" stroke-linecap="round"/>
<ellipse id="Ellipse 169" cx="99.2942" cy="116.726" rx="7.0588" ry="7.27262" fill="white"/>
<ellipse id="Ellipse 170" cx="42.8235" cy="116.726" rx="7.0588" ry="7.27262" fill="white"/>
</g>
</svg>
