<svg width="128" height="85" viewBox="0 0 128 85" fill="none" xmlns="http://www.w3.org/2000/svg">
<g id="Group 1000003700">
<path id="Vector 473" d="M4 22V6C4 4.89543 4.89543 4 6 4H122C123.105 4 124 4.89543 124 6V22C124 23.1046 123.105 24 122 24H6C4.89543 24 4 23.1046 4 22Z" stroke="white" stroke-width="7" stroke-linecap="round"/>
<path id="Vector 474" d="M110.667 24V50.6667" stroke="white" stroke-width="7" stroke-linecap="round" stroke-linejoin="round"/>
<path id="Vector 475" d="M37.3337 24L30.6852 70.5389C30.6748 70.6123 30.7196 70.6824 30.7906 70.7038L63.9572 80.6537C63.9853 80.6622 64.0153 80.6622 64.0434 80.6537L97.21 70.7038C97.2811 70.6824 97.3259 70.6123 97.3154 70.5389L90.667 24" stroke="white" stroke-width="7" stroke-linejoin="round"/>
<path id="Vector 476" d="M34 50.6641L63.9675 57.3235C63.9889 57.3283 64.0111 57.3283 64.0325 57.3235L94 50.6641" stroke="white" stroke-width="7" stroke-linejoin="round"/>
</g>
</svg>
