<svg width="126" height="83" viewBox="0 0 126 83" fill="none" xmlns="http://www.w3.org/2000/svg">
<path d="M3 21V5C3 3.89543 3.89543 3 5 3H121C122.105 3 123 3.89543 123 5V21C123 22.1046 122.105 23 121 23H5C3.89543 23 3 22.1046 3 21Z" stroke="black" stroke-width="6" stroke-linecap="round"/>
<path d="M109.667 23V49.6667" stroke="black" stroke-width="6" stroke-linecap="round" stroke-linejoin="round"/>
<path d="M36.3337 23L29.6852 69.5389C29.6748 69.6123 29.7196 69.6824 29.7906 69.7038L62.9572 79.6537C62.9853 79.6622 63.0153 79.6622 63.0434 79.6537L96.21 69.7038C96.2811 69.6824 96.3259 69.6123 96.3154 69.5389L89.667 23" stroke="black" stroke-width="6" stroke-linejoin="round"/>
<path d="M33 49.6641L62.9675 56.3235C62.9889 56.3283 63.0111 56.3283 63.0325 56.3235L93 49.6641" stroke="black" stroke-width="6" stroke-linejoin="round"/>
</svg>
