<svg width="120" height="120" viewBox="0 0 120 120" fill="none" xmlns="http://www.w3.org/2000/svg">
<path id="ferry" d="M2.53292 77.4684L21.3728 105.949C20.3695 106.519 19.4776 107.089 18.5858 107.658C14.2381 110.316 10.8938 112.263 5.31988 112.263H4.98544C2.47718 112.263 0.414832 113.972 0.414832 116.108C0.414832 118.244 2.47718 120 4.98544 120H5.31988C23.1007 120 24.5499 110.269 33.3567 110.269C41.9963 110.269 44.2816 120 60 120C75.6627 120 78.0038 110.269 86.6433 110.269C95.4501 110.269 96.8436 120 114.68 120H115.015C117.523 120 119.529 118.244 119.529 116.108C119.529 113.972 117.523 112.263 115.015 112.263H114.68C109.05 112.263 105.762 110.316 101.414 107.658C100.522 107.089 99.5748 106.519 98.5715 105.997L117.467 77.4684C122.372 70.0158 120.031 64.4146 111.503 61.1392L105.929 59.0032L99.742 21.0285C98.7945 14.8576 94.3911 11.5348 87.2007 11.5348H84.8597V8.16456C84.8597 3.22785 81.1252 0 75.3283 0H44.6717C38.8749 0 35.1403 3.22785 35.1403 8.16456V11.5348H32.7993C25.8319 11.5348 21.4285 15.1424 20.3137 21.8354L14.1267 58.9557L8.49701 61.1392C-0.0310822 64.4146 -2.37213 70.0158 2.53292 77.4684ZM44.2816 9.06645C44.2816 8.11709 45.0062 7.54747 46.121 7.54747H73.8791C74.9938 7.54747 75.7185 8.11709 75.7185 9.06645V11.5348H44.2816V9.06645ZM70.479 45.3323C68.1379 44.4304 64.7378 42.8639 60 42.8639C55.2064 42.8639 51.8064 44.4304 49.521 45.3323L23.9925 55.1582L29.5664 22.0728C29.8451 20.3165 30.9599 19.3671 32.9108 19.3671H87.145C89.1516 19.3671 90.3221 20.1741 90.6008 21.6456L96.0075 55.1582L70.479 45.3323ZM37.4814 36.4082H54.0359C55.8753 36.4082 57.1016 35.5063 57.1016 34.1772V26.962C57.1016 25.6804 55.8753 24.731 54.0359 24.731H37.4814C35.9764 24.731 34.9731 25.6804 34.9731 26.962V34.1772C34.9731 35.5063 35.9764 36.4082 37.4814 36.4082ZM65.4067 36.4082H81.9612C83.8564 36.4082 85.0269 35.5063 85.0269 34.1772V26.962C85.0269 25.6804 83.8564 24.731 81.9612 24.731H65.4067C63.9017 24.731 62.8984 25.6804 62.8984 26.962V34.1772C62.8984 35.5063 63.9017 36.4082 65.4067 36.4082ZM48.3505 107.848C44.6717 105.522 39.9339 102.532 33.3567 102.532C32.1304 102.532 30.9599 102.627 29.8451 102.816L10.8381 74.2405C8.60849 70.8228 9.50032 69.2563 12.343 68.1646L53.1998 52.4051C55.8753 51.3608 57.5475 50.6962 60 50.6962C62.3968 50.6962 64.069 51.3608 66.8002 52.4051L107.601 68.1646C110.444 69.2563 111.392 70.8228 109.162 74.2405L90.1549 102.816C89.0401 102.627 87.8696 102.532 86.6433 102.532C80.0661 102.532 75.2725 105.522 71.6495 107.848C67.7477 110.316 64.7936 112.263 60 112.263C55.1507 112.263 52.1965 110.316 48.3505 107.848Z" fill="white"/>
</svg>
