<svg width="113" height="119" viewBox="0 0 113 119" fill="none" xmlns="http://www.w3.org/2000/svg">
<path d="M2.37146 77.0419L20.0104 105.093C19.071 105.654 18.236 106.215 17.4011 106.776C13.3305 109.394 10.1994 111.311 4.98077 111.311H4.66765C2.31927 111.311 0.388389 112.994 0.388389 115.098C0.388389 117.201 2.31927 118.931 4.66765 118.931H4.98077C21.6281 118.931 22.985 109.347 31.2304 109.347C39.3192 109.347 41.4589 118.931 56.1753 118.931C70.8396 118.931 73.0314 109.347 81.1203 109.347C89.3657 109.347 90.6703 118.931 107.37 118.931H107.683C110.031 118.931 111.91 117.201 111.91 115.098C111.91 112.994 110.031 111.311 107.683 111.311H107.37C102.099 111.311 99.0201 109.394 94.9496 106.776C94.1146 106.215 93.2275 105.654 92.2881 105.139L109.979 77.0419C114.572 69.7019 112.38 64.1852 104.395 60.9594L99.1767 58.8556L93.384 21.4544C92.4969 15.3768 88.3742 12.1042 81.6422 12.1042H79.4503V8.78481C79.4503 3.92266 75.9539 0.743561 70.5265 0.743561H41.8242C36.3968 0.743561 32.9003 3.92266 32.9003 8.78481V12.1042H30.7085C24.1853 12.1042 20.0625 15.6573 19.0188 22.2492L13.2262 58.8088L7.95537 60.9594C-0.0291009 64.1852 -2.22092 69.7019 2.37146 77.0419ZM41.4589 9.67308C41.4589 8.73805 42.1373 8.17704 43.181 8.17704H69.1697C70.2134 8.17704 70.8918 8.73805 70.8918 9.67308V12.1042H41.4589V9.67308ZM65.9863 45.3912C63.7945 44.5029 60.6111 42.9601 56.1753 42.9601C51.6873 42.9601 48.504 44.5029 46.3643 45.3912L22.4631 55.0687L27.6817 22.483C27.9427 20.7532 28.9864 19.8181 30.8129 19.8181H81.59C83.4687 19.8181 84.5646 20.6129 84.8255 22.0622L89.8876 55.0687L65.9863 45.3912ZM35.0921 36.6019H50.5914C52.3136 36.6019 53.4617 35.7136 53.4617 34.4046V27.2984C53.4617 26.0361 52.3136 25.1011 50.5914 25.1011H35.0921C33.6831 25.1011 32.7438 26.0361 32.7438 27.2984V34.4046C32.7438 35.7136 33.6831 36.6019 35.0921 36.6019ZM61.2374 36.6019H76.7367C78.511 36.6019 79.6069 35.7136 79.6069 34.4046V27.2984C79.6069 26.0361 78.511 25.1011 76.7367 25.1011H61.2374C59.8284 25.1011 58.889 26.0361 58.889 27.2984V34.4046C58.889 35.7136 59.8284 36.6019 61.2374 36.6019ZM45.2684 106.963C41.8242 104.672 37.3883 101.727 31.2304 101.727C30.0823 101.727 28.9864 101.82 27.9426 102.007L10.1472 73.8628C8.05974 70.4967 8.89472 68.9539 11.5562 67.8786L49.8086 52.3571C52.3136 51.3286 53.8791 50.6741 56.1753 50.6741C58.4193 50.6741 59.9849 51.3286 62.542 52.3571L100.742 67.8786C103.404 68.9539 104.291 70.4967 102.203 73.8628L84.408 102.007C83.3643 101.82 82.2684 101.727 81.1203 101.727C74.9623 101.727 70.4743 104.672 67.0822 106.963C63.4292 109.394 60.6633 111.311 56.1753 111.311C51.6351 111.311 48.8693 109.394 45.2684 106.963Z" fill="black"/>
</svg>

