<svg width="113" height="120" viewBox="0 0 113 120" fill="none" xmlns="http://www.w3.org/2000/svg">
<path d="M35.4461 55.5763V55.6107L35.447 55.6452L37.0346 113.233C37.0347 113.236 37.0348 113.239 37.0348 113.243C37.0527 114.358 36.5739 115.281 35.2934 116.055C33.8939 116.901 31.5837 117.5 28.3378 117.5C25.0907 117.5 22.7585 116.9 21.3476 116.052C20.0525 115.274 19.5994 114.363 19.6396 113.279L19.6401 113.267L19.6404 113.255L21.2286 55.6452L21.2295 55.6107V55.5763C21.2295 54.0498 20.8039 52.5744 19.6896 51.358C18.6446 50.2172 17.2139 49.5499 15.696 49.1081L15.6875 49.1056C10.2941 47.5566 6.93266 46.0982 4.94833 44.1897C3.16925 42.4786 2.24223 40.1392 2.56165 35.9352L2.56247 35.9236L4.78258 4.8003C4.82649 4.4328 4.98485 4.16021 5.36656 3.91089C5.82918 3.60874 6.69509 3.31356 8.08894 3.31356C9.48051 3.31356 10.2512 3.62012 10.6045 3.87556C10.8588 4.05941 10.9848 4.26088 10.9885 4.65961L10.4337 34.8611C10.3655 36.7615 11.3152 38.2855 12.7197 39.2195C14.0347 40.0939 15.682 40.4322 17.3002 40.4322C18.9543 40.4322 20.5964 40.0956 21.9159 39.2919C23.2825 38.4595 24.3915 37.035 24.4057 35.1217L25.1987 3.78978C25.2097 3.52127 25.2979 3.31368 25.6452 3.08446C26.0796 2.79774 26.9374 2.5 28.3378 2.5C29.7382 2.5 30.5959 2.79774 31.0304 3.08446C31.3777 3.31368 31.4659 3.52127 31.4769 3.78978L32.2706 35.148L32.2712 35.1721L32.2723 35.1962C32.3549 37.0483 33.3936 38.4613 34.79 39.3113C36.1099 40.1147 37.7382 40.4322 39.3754 40.4322C40.9983 40.4322 42.6368 40.0921 43.9535 39.2275C45.3561 38.3067 46.3222 36.8125 46.3222 34.9322V34.906L46.3217 34.8797L45.6871 4.65696C45.6913 4.25999 45.8173 4.059 46.0711 3.87556C46.4244 3.62012 47.1951 3.31356 48.5866 3.31356C49.9973 3.31356 50.8619 3.60267 51.3185 3.89796C51.6842 4.13451 51.847 4.39774 51.8927 4.79649L54.1131 35.9236L54.114 35.9352C54.4334 40.1392 53.5063 42.4786 51.7272 44.1897C49.7429 46.0982 46.3814 47.5566 40.9881 49.1056L40.9795 49.1081C39.4617 49.5499 38.0309 50.2172 36.986 51.358C35.8717 52.5744 35.4461 54.0498 35.4461 55.5763ZM93.9644 75.1554L93.9645 75.1509C94.0284 73.5552 93.5543 72.0907 92.4784 70.84C91.4834 69.6833 90.0839 68.8384 88.512 68.1394L88.4949 68.1318L88.4777 68.1245L84.2054 66.3007C82.2406 65.4296 81.0548 64.5361 80.3574 63.6514C79.7012 62.8191 79.3556 61.8428 79.3556 60.5085V57.8136C79.3556 38.0383 88.0473 16.3971 100.365 5.31622L100.371 5.31053L100.377 5.3048C102.702 3.1847 104.272 2.5 106.475 2.5C107.765 2.5 108.735 2.77606 109.292 3.1195C109.757 3.40633 109.851 3.6554 109.851 3.9661V113.441C109.851 114.518 109.385 115.392 108.087 116.13C106.661 116.941 104.313 117.5 100.995 117.5C97.7886 117.5 95.4676 116.9 94.0653 116.039C92.7926 115.257 92.3109 114.318 92.3749 113.116L92.3756 113.102L92.3762 113.088L93.9644 75.1554Z" stroke="black" stroke-width="5"/>
</svg>
