<svg width="120" height="120" viewBox="0 0 120 120" fill="none" xmlns="http://www.w3.org/2000/svg">
<g id="Group 1000003693">
<g id="Group 1000003692">
<path id="fork.knife" d="M37.2796 55.5763V55.6241L37.281 55.6719L38.9767 113.264C38.9874 113.965 38.7203 114.663 37.4769 115.366C36.086 116.153 33.7037 116.75 30.2672 116.75C26.8293 116.75 24.4229 116.153 23.0194 115.363C21.754 114.651 21.5299 113.969 21.5559 113.315L21.5565 113.299L21.557 113.282L23.2533 55.6719L23.2547 55.6241V55.5763C23.2547 53.8459 22.7293 52.1486 21.3843 50.7738C20.1545 49.5169 18.5163 48.8206 16.873 48.3728L16.8624 48.37C11.0889 46.8175 7.61285 45.3808 5.60902 43.5764C3.91522 42.0512 2.98953 39.993 3.31285 36.0086L3.31349 36.0006L3.3141 35.9927L5.68447 4.88105C5.69554 4.8179 5.7377 4.73087 5.96729 4.59047C6.35466 4.35359 7.19032 4.06356 8.63967 4.06356C10.0886 4.06356 10.8108 4.36607 11.0692 4.54099C11.1129 4.57053 11.1388 4.59304 11.153 4.60694C11.1546 4.61848 11.1562 4.6353 11.1568 4.6584L10.5646 34.8349C10.4798 37.1281 11.7192 38.8835 13.3466 39.8967C14.8606 40.8393 16.7115 41.1822 18.4781 41.1822C20.284 41.1822 22.1203 40.8403 23.629 39.98C25.1804 39.0952 26.6254 37.4681 26.647 35.1378L27.4925 3.86183C27.5176 3.83907 27.5604 3.80491 27.6288 3.7627C27.9842 3.5431 28.8096 3.25 30.2672 3.25C31.7247 3.25 32.5502 3.54311 32.9056 3.7627C32.9739 3.80491 33.0167 3.83907 33.0418 3.86183L33.8882 35.1726L33.8892 35.206L33.8907 35.2395C33.9974 37.4766 35.3376 39.0875 36.9379 39.9995C38.4485 40.8604 40.271 41.1822 42.0563 41.1822C43.8288 41.1822 45.6687 40.837 47.1825 39.9065C48.8051 38.9091 50.0558 37.1953 50.0558 34.9322V34.8958L50.055 34.8593L49.3776 4.65565C49.3783 4.63397 49.3798 4.61802 49.3813 4.60695C49.3955 4.59304 49.4215 4.57053 49.4651 4.54099C49.7235 4.36607 50.4457 4.06356 51.8946 4.06356C53.3645 4.06356 54.1987 4.34842 54.5792 4.57879C54.7501 4.68228 54.8029 4.75715 54.8135 4.7732L54.814 4.77394C54.8205 4.78369 54.839 4.81147 54.8506 4.89064L57.2202 35.9927L57.2208 36.0006L57.2215 36.0086C57.5448 39.993 56.6191 42.0512 54.9253 43.5764C52.9215 45.3808 49.4454 46.8175 43.6719 48.3699L43.6614 48.3728C42.018 48.8206 40.3798 49.5169 39.1501 50.7738C37.805 52.1486 37.2796 53.8459 37.2796 55.5763ZM11.1503 4.59144C11.1491 4.58832 11.1487 4.58659 11.1488 4.58651C11.1489 4.58642 11.1495 4.58798 11.1503 4.59144ZM27.4638 3.89099C27.4628 3.89247 27.4622 3.89319 27.4622 3.89317C27.4621 3.89316 27.4626 3.89242 27.4638 3.89099ZM33.0722 3.89317C33.0721 3.89319 33.0716 3.89248 33.0705 3.89101C33.0717 3.89243 33.0722 3.89316 33.0722 3.89317ZM49.3855 4.5865C49.3856 4.58656 49.3852 4.58832 49.384 4.59151C49.3848 4.58803 49.3854 4.58645 49.3855 4.5865ZM100.941 75.196L100.941 75.1897C101.02 73.3469 100.423 71.6641 99.1436 70.2714C97.9863 69.0119 96.3991 68.1297 94.7025 67.4234L94.6811 67.4145L94.6595 67.4058L90.0991 65.5831C88.0329 64.7252 86.8652 63.8749 86.2176 63.1058C85.6392 62.4189 85.3383 61.6398 85.3383 60.5085V57.8136C85.3383 38.2791 94.5244 16.8772 107.506 5.94339L107.514 5.93633L107.522 5.92921C109.921 3.88146 111.49 3.25 113.724 3.25C115.064 3.25 116.016 3.52126 116.509 3.80615C116.644 3.88408 116.716 3.94604 116.75 3.97986V113.441C116.75 114.099 116.509 114.758 115.239 115.434C113.815 116.192 111.389 116.75 107.872 116.75C104.476 116.75 102.084 116.153 100.692 115.352C99.4604 114.644 99.1984 113.943 99.2425 113.168L99.2436 113.148L99.2445 113.128L100.941 75.196Z" stroke="white" stroke-width="6.5"/>
</g>
</g>
</svg>
